<svg xmlns="http://www.w3.org/2000/svg" xmlns:xlink="http://www.w3.org/1999/xlink" viewBox="0 0 680 551"><defs><style>.cls-1{fill:#6e93d6;}.cls-2{opacity:0.35;}.cls-3{fill:#199959;}.cls-4{fill:#2f4c58;}.cls-5{opacity:0.25;}.cls-6{fill:#22b573;}.cls-7{fill:#323232;opacity:0.4;}.cls-8{fill:#fff;}.cls-9{clip-path:url(#clip-path);}.cls-10{fill:#466bae;}.cls-11{fill:#ddd;}.cls-12{fill:#555;opacity:0.2;}.cls-13{fill:#e6e6e6;}.cls-14{fill:#b33a3a;}</style><clipPath id="clip-path"><path id="front" class="cls-1" d="M295,6h2a90,90,0,0,1,90,90V262a0,0,0,0,1,0,0H205a0,0,0,0,1,0,0V96A90,90,0,0,1,295,6Z"/></clipPath></defs><g id="Layer_2" data-name="Layer 2"><g id="Mail_box" data-name="Mail box"><ellipse id="shadow" class="cls-2" cx="340" cy="541.5" rx="340" ry="9.5"/><path id="grass2" class="cls-3" d="M524.39,539.73s3.87-31,24.87-50.86c0,0-29.75,18.38-34.09,25.51,0,0,1.83-32.41,22.27-50.88,0,0-38,21.46-48.06,56.67,0,0,7.56-47-24.76-67.1s-2.24,0-2.24,0,24.42,26.05,1.76,74.35c0,0,7.53-27.77-7.66-39.39s-1.5,0-1.5,0,7.32,25.61-9.22,51Z"/><rect id="foot" class="cls-4" x="416" y="119" width="60" height="421"/><rect id="foot-2" data-name="foot" class="cls-5" x="446" y="119" width="30" height="421"/><path id="grass1" class="cls-6" d="M383.11,544s.35-32.66-17.11-53.83c0,0,26,19.66,29.22,27.22,0,0,2.5-34.18-14.61-53.83,0,0,33.5,23,38.49,60.18,0,0-1.07-49.6,32.44-70.47s2.13,0,2.13,0-26.73,27.22-11.4,78.33c0,0-3.57-29.33,12.47-41.43s1.43,0,1.43,0-10.34,26.91,2.14,53.83Z"/><rect id="foot_shade" data-name="foot shade" class="cls-7" x="416" y="224" width="60" height="75" rx="3.19"/><g id="big_one" data-name="big one"><path class="cls-8" d="M569,0H287a90,90,0,0,0-90,90V270H659V90A90,90,0,0,0,569,0Z"/></g><g id="door"><path id="front-2" data-name="front" class="cls-1" d="M295,6h2a90,90,0,0,1,90,90V262a0,0,0,0,1,0,0H205a0,0,0,0,1,0,0V96A90,90,0,0,1,295,6Z"/><g class="cls-9"><g id="back"><path class="cls-10" d="M436,262H254V96A90,90,0,0,1,344,6h2a90,90,0,0,1,90,90Z"/></g></g></g><g id="mail"><rect id="backmail" class="cls-11" x="338.93" y="133.18" width="155.07" height="101.82" rx="5"/><polyline id="up" class="cls-8" points="338.93 218.96 416.46 175.5 494 218.96"/><path id="bottom" class="cls-8" d="M338.93,218H494a0,0,0,0,1,0,0v12a5,5,0,0,1-5,5H343.93a5,5,0,0,1-5-5V218A0,0,0,0,1,338.93,218Z"/><polyline id="shade_mail" data-name="shade mail" class="cls-12" points="338.87 149.27 416.41 197.36 493.95 149.27"/><polyline id="down" class="cls-8" points="338.93 149.22 416.46 192.68 494 149.22"/><path id="top" class="cls-8" d="M343.93,133.18H489a5,5,0,0,1,5,5v12a0,0,0,0,1,0,0H338.93a0,0,0,0,1,0,0v-12A5,5,0,0,1,343.93,133.18Z"/></g><rect id="shade" class="cls-13" x="387.5" y="106.5" width="271.5" height="155.5"/><path id="red_bar" data-name="red bar" class="cls-14" d="M421,130H539a0,0,0,0,1,0,0v21a0,0,0,0,1,0,0H421a5,5,0,0,1-5-5V135A5,5,0,0,1,421,130Z"/><g id="back-2" data-name="back"><path class="cls-8" d="M387,263H205V96A90,90,0,0,1,295,6h2a90,90,0,0,1,90,90Z"/></g><rect id="red_bar-2" data-name="red bar" class="cls-14" x="485" y="148" width="54" height="24"/></g></g></svg>