<svg xmlns="http://www.w3.org/2000/svg" xmlns:xlink="http://www.w3.org/1999/xlink" viewBox="0 0 1925 1080.37"><defs><style>.cls-1{opacity:0;}.cls-2{fill:#333;}.cls-3{fill:#a81d05;}.cls-4{fill:#fda014;}.cls-5{fill:#9fb603;}.cls-6{fill:#fdc63a;}.cls-7{fill:#16c1d1;}.cls-8{fill:url(#linear-gradient);}.cls-9{fill:url(#linear-gradient-2);}.cls-10,.cls-11{fill:#ffdcff;stroke:#ffdcff;stroke-miterlimit:10;}.cls-10{stroke-width:2px;}.cls-11{stroke-width:3px;}.cls-12{fill:#c12106;}.cls-13{fill:#3b4350;}.cls-14{fill:#14b0bf;}.cls-15{fill:#871704;}.cls-16{fill:#e45040;}.cls-17{fill:#ab1100;}.cls-18{fill:#d12407;}.cls-19{fill:#d9d9d9;}</style><linearGradient id="linear-gradient" x1="383.85" y1="465.42" x2="1527.1" y2="465.42" gradientTransform="translate(1920.75 933.45) rotate(180)" gradientUnits="userSpaceOnUse"><stop offset="0" stop-color="#5cc7e8"/><stop offset="0.53" stop-color="#8ae0f0"/><stop offset="0.99" stop-color="#5cc7e8"/></linearGradient><linearGradient id="linear-gradient-2" x1="273.75" y1="465.46" x2="1646.75" y2="465.46" gradientTransform="translate(1920.75 933.45) rotate(180)" gradientUnits="userSpaceOnUse"><stop offset="0" stop-color="#176ea6"/><stop offset="0.99" stop-color="#00b0d1"/></linearGradient></defs><g id="Layer_2" data-name="Layer 2"><g id="Layer_1-2" data-name="Layer 1"><g class="cls-1"><rect class="cls-2" y="0.37" width="1925" height="1080"/></g><g id="firework2"><path class="cls-3" d="M290.88,33.31c9.11.34,15.18,9.32,13.58,19.75C299,89.49,293.77,125.49,289.24,161,285.75,125.34,281.5,89,276.86,52.14,275.51,41.56,281.77,33,290.88,33.31Z"/><path class="cls-4" d="M187.24,94.6c5.22-3.16,13.07-.28,17.39,6.42,15.06,23.28,29.33,47,42.33,70.8a796.69,796.69,0,0,0-58.21-61.43C182.78,104.77,182,97.73,187.24,94.6Z"/><path class="cls-5" d="M84,151c2.42-6.34,14.08-8.62,25.51-4.4,39.81,14.68,77,33.69,110.43,54.13-36.54-13.89-76.1-26.16-118.07-34.41C89.81,164,81.58,157.4,84,151Z"/><path class="cls-6" d="M463.21,166.14c1.79,4.8-4.44,9.79-13.58,11.5a663.13,663.13,0,0,0-91,24A563.23,563.23,0,0,1,444,162.71C452.66,159.62,461.43,161.35,463.21,166.14Z"/><path class="cls-7" d="M438.12,57.31c9,6.48,7.26,17.12-3.47,24.47-37.31,25.8-72.49,57.4-103.16,90.68a976.8,976.8,0,0,1,76-109.36C415.3,53.27,429.14,50.84,438.12,57.31Z"/><path class="cls-7" d="M227,21.29c.15,4.15-3.85,7.71-9,8.08s-9.42-2.6-9.65-6.72,3.81-7.83,9-8.23S226.81,17.15,227,21.29Z"/><path class="cls-4" d="M328.88,133.06c-.27,4-4.18,7-8.69,6.73s-8-3.61-7.84-7.61,4.06-7.07,8.67-6.8S329.17,129.09,328.88,133.06Z"/><path class="cls-4" d="M313.43,214.09c-.28,4-4.18,6.95-8.68,6.71s-8-3.61-7.86-7.6,4.07-7.07,8.69-6.81S313.71,210.12,313.43,214.09Z"/><path class="cls-6" d="M189,212.93a5.84,5.84,0,0,1-5.72,7.17,8.91,8.91,0,0,1-8.71-6.52c-.89-3.76,1.68-7,5.73-7.21A8.59,8.59,0,0,1,189,212.93Z"/><path class="cls-5" d="M430.77,207.41c-1.2,3.5-5.4,6-9.41,5.67S415,209.56,416,206s5.22-6.16,9.37-5.72S431.94,203.92,430.77,207.41Z"/><path class="cls-4" d="M241.26,64.37c.1,3-2.77,5.6-6.43,5.74s-6.74-2.16-6.9-5.19,2.73-5.66,6.43-5.81S241.15,61.32,241.26,64.37Z"/><path class="cls-5" d="M342,24.5c-.14,3-3.36,5.14-7.16,4.75s-6.77-3.14-6.65-6.19,3.31-5.23,7.14-4.82S342.19,21.48,342,24.5Z"/><path class="cls-3" d="M221.77,166.15a5.17,5.17,0,0,1-5.25,5.51,6.13,6.13,0,0,1-6.42-5c-.36-2.92,2-5.41,5.26-5.55A6,6,0,0,1,221.77,166.15Z"/><path class="cls-7" d="M127.48,211.52c.92,2.68-.72,5-3.68,5.23a7.4,7.4,0,0,1-7.16-4.34c-1-2.62.67-5,3.71-5.24A7.12,7.12,0,0,1,127.48,211.52Z"/><path class="cls-5" d="M155.08,129.42c.5,2.85-1.86,5.46-5.26,5.85s-6.64-1.55-7.19-4.36,1.81-5.46,5.29-5.9S154.58,126.57,155.08,129.42Z"/><path class="cls-5" d="M345.67,222.63a6,6,0,0,1-5.94,5,4.65,4.65,0,0,1-4.52-5.32,5.78,5.78,0,0,1,5.91-5A4.61,4.61,0,0,1,345.67,222.63Z"/><path class="cls-3" d="M356.22,66.6c-.3,3.75-4.3,6.35-8.9,5.87s-8.19-3.88-8-7.69,4.2-6.5,8.9-6S356.52,62.85,356.22,66.6Z"/><path class="cls-4" d="M422.49,115.14q7.69-7.22,15.54-14.08c3.11,6.32,6.12,12.56,9,18.73Q434.76,117.3,422.49,115.14Z"/><path class="cls-4" d="M273.05,170.06q10.49,3.62,20.7,7.37-8.6,6.36-16.81,12.84Q275.07,180.19,273.05,170.06Z"/><path class="cls-7" d="M140.2,87.65q-7-8-14-15.83,12.94-1.74,25.84-3Q145.93,78.29,140.2,87.65Z"/><path class="cls-5" d="M161.2,12.22c2,2.45,4,4.93,5.94,7.41,3.94-.15,7.89-.28,11.83-.35q-4,3.81-8,7.64c.92,2.94,1.83,5.88,2.75,8.82Q168.37,34.3,163,33q-5,2.94-10,5.9c.34-3.09.72-6.19,1.09-9.29q-4.53-2.46-9.09-4.84c3.88-1.16,7.74-2.3,11.63-3.4Q158.88,16.79,161.2,12.22Z"/><path class="cls-3" d="M260.85,200.13q3,3.69,5.94,7.42,5.93-.24,11.85-.35c-2.69,2.54-5.34,5.09-8,7.64.9,2.94,1.83,5.89,2.74,8.82-3.57-1-7.17-1.89-10.77-2.78q-5,2.93-10,5.89c.36-3.09.71-6.18,1.1-9.28q-4.53-2.48-9.08-4.83,5.79-1.75,11.62-3.41C257.78,206.22,259.31,203.18,260.85,200.13Z"/><path class="cls-3" d="M278.9,395c-3.42,0-6.37-7.65-6.38-17.12.18-33,1.76-66.71,4.4-101,3.56,34.28,6.24,67.94,7.68,100.94C284.94,387.31,282.32,395,278.9,395Z"/><path class="cls-4" d="M334.33,341c-3.58,2.58-6.84-.4-7.7-6.7a390.49,390.49,0,0,0-15.76-67.74c11.72,20.59,20.94,40.66,27.14,59.88C339.79,332,337.91,338.42,334.33,341Z"/><path class="cls-5" d="M417.63,299c-5.84,5.47-13.3,6-17.51.81-14.83-18.11-35.38-38.69-60.59-60.26,29.7,15.37,55.79,30.23,77.71,43.1C423.58,286.39,423.46,293.53,417.63,299Z"/><path class="cls-6" d="M150,287.25c-4.38-4.41-4-10.31,1.19-13.36,18.07-10.56,38.59-22.07,61.27-33.79a488.61,488.61,0,0,0-48.23,47.56C160.53,291.93,154.37,291.65,150,287.25Z"/><path class="cls-7" d="M220.73,387.78c-5.39-4.51-10.57-14.95-10-23.61,2-30.19,13.42-62.94,31.88-97-11.25,38.32-16.75,75.36-14.31,110.55C228.88,387.85,226.13,392.26,220.73,387.78Z"/><path class="cls-7" d="M301.64,405.17c.55-3.64,2.53-6.71,4.46-6.89s2.85,2.6,2.08,6.22-2.78,6.71-4.46,6.91S301.09,408.8,301.64,405.17Z"/><path class="cls-4" d="M251,305c-.42-3.79,1.79-6.85,4.95-6.83s5.92,3.12,6.17,6.91-1.95,6.85-4.93,6.82S251.4,308.78,251,305Z"/><path class="cls-6" d="M372.19,229.92a8.49,8.49,0,0,1,8.53-6.36c3.91.23,6.31,3.4,5.35,7.06a8.81,8.81,0,0,1-8.55,6.31A5.55,5.55,0,0,1,372.19,229.92Z"/><path class="cls-5" d="M146.27,242c-1.29-3.61.76-6.67,4.58-6.85a9.46,9.46,0,0,1,9,6.34c1.14,3.66-.87,6.73-4.53,6.83A10,10,0,0,1,146.27,242Z"/><path class="cls-4" d="M301.56,366.68c.29-2.74,2-5,3.76-5.1s2.92,2.08,2.52,4.81-2.09,5-3.78,5.11S301.27,369.43,301.56,366.68Z"/><path class="cls-5" d="M261.2,405.78c-.45-2.72.32-4.86,1.74-4.79s2.79,2.32,3.11,5-.45,4.86-1.73,4.8S261.64,408.49,261.2,405.78Z"/><path class="cls-3" d="M329.86,272.75a5.77,5.77,0,0,1,5.39-5c2.58,0,4.27,2.32,3.78,5.1s-2.91,5-5.41,5S329.45,275.56,329.86,272.75Z"/><path class="cls-7" d="M427.9,238a7.27,7.27,0,0,1,7-4.26c2.85.21,4.3,2.43,3.21,5a7.66,7.66,0,0,1-7,4.26A3.43,3.43,0,0,1,427.9,238Z"/><path class="cls-5" d="M364.33,311.17c.86-2.66,3.39-4.89,5.65-4.95s3.33,2,2.37,4.65-3.52,4.88-5.68,5S363.47,313.85,364.33,311.17Z"/><path class="cls-5" d="M218.38,218.25a4.62,4.62,0,0,1,4.62-5.34,5.93,5.93,0,0,1,5.93,5.11,4.65,4.65,0,0,1-4.61,5.31A6,6,0,0,1,218.38,218.25Z"/><path class="cls-3" d="M247.94,368.9c-.67-3.47.62-6.19,2.86-6.11s4.48,3,5,6.46-.77,6.22-2.84,6.12S248.62,372.37,247.94,368.9Z"/><path class="cls-4" d="M200.92,330.69c-.42,5.27-.65,10.5-.66,15.67q-6.6-8.36-13.59-16.6C191.41,330.1,196.17,330.41,200.92,330.69Z"/><path class="cls-4" d="M289.71,268q-8.31-3.47-16.93-6.94,6.86-6.36,14.21-12.72C288,254.93,288.87,261.49,289.71,268Z"/><path class="cls-7" d="M354.69,350.7q-.3,7.94-1.2,15.72c-3.73.16-7.5.27-11.29.33Q348.22,358.7,354.69,350.7Z"/><path class="cls-5" d="M319.38,416.37c.31-2.31.57-4.63.8-7l-3.53-.51c1.51-2.06,3.05-4.14,4.64-6.2.61-2.66,1.2-5.33,1.78-8,.91,1.09,1.78,2.17,2.63,3.21,1.68-1.46,3.41-2.93,5.16-4.43l-3.63,8.17c.3,1.71.55,3.41.74,5.09-1.44.67-2.9,1.33-4.33,2C322.2,411.28,320.77,413.83,319.38,416.37Z"/></g><polygon class="cls-8" points="537.31 144.37 1475.43 138.66 1536.89 682.14 393.65 797.4 537.31 144.37"/><polygon class="cls-9" points="274 737.04 1647 569.66 1599.7 247.13 424.54 198.94 274 737.04"/><path class="cls-10" d="M783.64,318.25a17.9,17.9,0,0,1-7.85-1.72,18.81,18.81,0,0,1-6.13-4.59,21.68,21.68,0,0,1-4-6.85,24.28,24.28,0,0,1-1.47-8.49A45.77,45.77,0,0,1,768,277.9a62.71,62.71,0,0,1,10.71-17.13,56,56,0,0,1,15.7-12.46,39.25,39.25,0,0,1,18.81-4.83q9.32,0,14.06,2.65t5.07,5.76a2.09,2.09,0,0,1-.16.94,60.64,60.64,0,0,0-5.31,9.5,54.06,54.06,0,0,0-2.46,6.77,30.48,30.48,0,0,0-.9,4.21,3.26,3.26,0,0,1-.65,1.95l-.33.15a12.55,12.55,0,0,1-5.8-1.63,9.26,9.26,0,0,1-4.5-6.93,18.6,18.6,0,0,1,1.06-4.6,39.86,39.86,0,0,1,4-8.18,18.46,18.46,0,0,0-4.25-.46,29.84,29.84,0,0,0-13.74,3.73A55,55,0,0,0,786,267.16a53.93,53.93,0,0,0-10.14,13.94,35.13,35.13,0,0,0-4,16.12,32.88,32.88,0,0,0,.57,6.23,13,13,0,0,0,2,5.06,10.26,10.26,0,0,0,4.09,3.35,15.63,15.63,0,0,0,6.71,1.25,31.86,31.86,0,0,0,8.17-1.09,42.39,42.39,0,0,0,7.85-3,42.88,42.88,0,0,0,7-4.29,34.93,34.93,0,0,0,5.48-5.06,55.85,55.85,0,0,0,5.89-7.71,39.09,39.09,0,0,0,2.53-4.83c.49-1.19.82-2,1-2.41s.63-.62,1.39-.62a.67.67,0,0,1,.66.31,1.3,1.3,0,0,1,.16.62,13.85,13.85,0,0,1-.9,3.74,31.15,31.15,0,0,1-2.94,6,57.91,57.91,0,0,1-5.4,7.24,46.18,46.18,0,0,1-8.09,7.32q-2,1.39-4.66,3a53.27,53.27,0,0,1-5.81,2.88,42.07,42.07,0,0,1-6.7,2.18A31.07,31.07,0,0,1,783.64,318.25Z"/><path class="cls-10" d="M864.26,292.55c.54.31.82.52.82.62a17.34,17.34,0,0,1-1.15,3.27,39.6,39.6,0,0,1-3.19,6.08,27.44,27.44,0,0,1-4.9,5.84,9.25,9.25,0,0,1-6.3,2.57c-2.51,0-4.63-1.22-6.38-3.66a14.5,14.5,0,0,1-2.61-8.65,25.27,25.27,0,0,1,.41-4.9,46.59,46.59,0,0,1,1.22-4.76q-1.8,3.12-3.76,6.7t-3.76,7q-1.8,3.43-3.19,6.39a33.55,33.55,0,0,0-1.88,4.67,5.89,5.89,0,0,1-2.21,3,5.68,5.68,0,0,1-3.35,1.09,5.4,5.4,0,0,1-3.68-1.56c-1.14-1-1.72-2.9-1.72-5.6a44,44,0,0,1,1.23-9.27q1.23-5.53,3.11-11.68c1.25-4.11,2.61-8.23,4.09-12.39s2.88-8,4.25-11.45,2.59-6.46,3.68-8.95,1.8-4.16,2.12-5c.33-1.14.71-2.28,1.15-3.43.32-.93.62-1.86.9-2.8a8.72,8.72,0,0,0,.41-2.34,8,8,0,0,0,1.63.71,23.18,23.18,0,0,1,3.19,1.48,12.91,12.91,0,0,1,3,2.25,4.22,4.22,0,0,1,1.3,3,11.66,11.66,0,0,1-.81,4q-.82,1.56-2.7,5.45t-4.34,9q-2.45,5.07-5.15,10.9t-4.9,11.37q-2.21,5.54-3.68,10.21a26.45,26.45,0,0,0-1.47,7.47c0-.1.05-.15.16-.15q6.87-11.83,11.77-19t7.94-11.29l4.33-5.92c.87-1.19,1.14-2.15.82-2.88a7,7,0,0,1,1.39.7,15.44,15.44,0,0,1,2.53,1.87,27.41,27.41,0,0,1,2.45,2.49,4.13,4.13,0,0,1,1.15,2.73,7.34,7.34,0,0,1-.49,2.18,33.72,33.72,0,0,1-2.54,5.06c-1,1.72-2.07,3.46-3.1,5.22a34.51,34.51,0,0,0-2.62,5.53,16.73,16.73,0,0,0-1.06,5.84,11.56,11.56,0,0,0,.41,3.19,1.89,1.89,0,0,0,2,1.48c1.53,0,3.43-1.06,5.72-3.19s4.53-5.58,6.71-10.36c0-.1.11-.15.32-.15Z"/><path class="cls-10" d="M907.1,292.55c.55.31.82.52.82.62a21.43,21.43,0,0,1-1.06,3.89,45.41,45.41,0,0,1-3,7,30.44,30.44,0,0,1-4.82,6.78,8.71,8.71,0,0,1-6.46,3c-2.18,0-4.23-1.12-6.13-3.35a13.07,13.07,0,0,1-2.86-8.8,36.33,36.33,0,0,1-2.29,3.19,19.66,19.66,0,0,1-2.95,3,15.64,15.64,0,0,1-3.6,2.18,10.09,10.09,0,0,1-4.08.86,7.84,7.84,0,0,1-5.81-3q-2.7-3-2.7-8.57a32.39,32.39,0,0,1,1.07-7.94,70.44,70.44,0,0,1,2.53-8q1.47-3.81,2.94-6.85c1-2,1.75-3.61,2.29-4.75h-.16q1-1.56,1.8-3.12a16.84,16.84,0,0,0,1.39-2.57q.57-1.32.9-2.25a6.73,6.73,0,0,1,1.39.7,14.49,14.49,0,0,1,2.53,1.87,22.26,22.26,0,0,1,2.46,2.57,4.44,4.44,0,0,1,1.14,2.8q0,1.71-2,5.3T876,285a87.32,87.32,0,0,0-4.41,8.88,21.79,21.79,0,0,0-2,8.49,7.34,7.34,0,0,0,.57,3.12,2.48,2.48,0,0,0,2.53,1.24c1.53,0,3.35-.85,5.48-2.57s4.11-4.64,6-8.8a55,55,0,0,1,3.19-10.28c1.36-3.22,2.42-5.55,3.19-7,.54-1,1-2.08,1.47-3.11a21.83,21.83,0,0,0,1.14-2.57c.33-.89.6-1.64.82-2.26a7.56,7.56,0,0,1,1.47.7,18.3,18.3,0,0,1,2.78,1.87,16.78,16.78,0,0,1,2.62,2.57,4.44,4.44,0,0,1,1.14,2.8A11.19,11.19,0,0,1,900.4,283c-1.09,2-2.32,4.26-3.68,6.7A71.59,71.59,0,0,0,893,297.3a19.89,19.89,0,0,0-1.64,7.55c0,3.43.77,5.14,2.29,5.14s3.49-1.42,5.89-4.28,4.58-7.19,6.54-13q0-.15.33-.15ZM901.54,250c.11,0,.36.21.74.63s.79.88,1.23,1.4a8.84,8.84,0,0,1,1.14,1.79,4,4,0,0,1,.49,1.63,4.14,4.14,0,0,1-1.63,3.35,13.94,13.94,0,0,1-3.85,2.18,22,22,0,0,1-4.66,1.25,26.86,26.86,0,0,1-4.09.39,25.82,25.82,0,0,1-5-.47c-1.58-.31-3-.65-4.26-1a20.45,20.45,0,0,1-3-1.09c-.76-.36-1.15-.65-1.15-.86l.33-.62c0-.1,0-.16.08-.16s.09-.05.09-.15l.16-.16c.33.11,1.25.34,2.78.7a21.47,21.47,0,0,0,5.07.55,18.4,18.4,0,0,0,5.07-.62,14.66,14.66,0,0,0,3.6-1.56,16.15,16.15,0,0,0,2.37-1.79l1.39-1.33,1.55-1.94A23.45,23.45,0,0,0,901.54,250Z"/><path class="cls-10" d="M945.37,292.08a.61.61,0,0,1,.49.62,17.54,17.54,0,0,1-3.6,6.86,34.27,34.27,0,0,1-6.54,6.15,38.1,38.1,0,0,1-7.93,4.44,20.58,20.58,0,0,1-7.77,1.71,13.21,13.21,0,0,1-6.46-1.48,14.57,14.57,0,0,1-4.5-3.74,15.69,15.69,0,0,1-2.69-5.06,17.76,17.76,0,0,1-.9-5.45,33.32,33.32,0,0,1,4.66-17.45q4.65-7.79,14.8-11.06a9.69,9.69,0,0,1,2.94-.46,8.59,8.59,0,0,1,5.72,1.79,12.94,12.94,0,0,1,3.28,4.05,14.77,14.77,0,0,1,1.47,4.36c.21,1.4.32,2.26.32,2.57a20.43,20.43,0,0,1-.4,3.82,19.72,19.72,0,0,1-1.23,4,8.55,8.55,0,0,1-2.29,3.11,5.11,5.11,0,0,1-3.43,1.25,11.1,11.1,0,0,1-2.62-.31c-.88-.21-1.69-.42-2.45-.63l-2.62-.93A20.74,20.74,0,0,0,926.4,286a16.05,16.05,0,0,0,1.31-3.58,11.67,11.67,0,0,0,.49-3.11c0-1.66-.66-2.5-2-2.5a7.48,7.48,0,0,0-4.17,1.72,25.59,25.59,0,0,0-4.66,4.44,26,26,0,0,0-3.85,6.23,17.25,17.25,0,0,0-1.55,7.09,11.1,11.1,0,0,0,2.94,7.94,9.7,9.7,0,0,0,7.36,3.12,12.74,12.74,0,0,0,4.42-.78,34.78,34.78,0,0,0,4.08-1.8,28.4,28.4,0,0,0,3.6-2.18c1.09-.77,2-1.48,2.78-2.1a28.55,28.55,0,0,0,4.42-3.89,14,14,0,0,0,1.8-2.57c.32-.68.57-1.17.73-1.48S944.71,292.08,945.37,292.08Z"/><path class="cls-10" d="M1085.19,244.26c.21.1.81.34,1.8.7a22.06,22.06,0,0,1,3.1,1.48,11.83,11.83,0,0,1,3,2.41,4.94,4.94,0,0,1,1.3,3.35,7.94,7.94,0,0,1-.81,3.43c-.88,1.56-2.07,3.95-3.6,7.17s-3.16,6.88-4.91,11-3.51,8.38-5.31,12.85-3.41,8.75-4.83,12.85-2.59,7.79-3.51,11.06a29.75,29.75,0,0,0-1.39,7.4,10.73,10.73,0,0,1-1.23-.24,8,8,0,0,1-2.29-.93,7.6,7.6,0,0,1-2.2-1.95,5.1,5.1,0,0,1-1-3.27,42.75,42.75,0,0,1,1.64-9.19q1.63-6.39,4.74-15.26a87.7,87.7,0,0,0-13.82,15.42q-4.65,7-5.8,10.12a9,9,0,0,1-.08.94.67.67,0,0,1-.74.62c-.33,0-1-.81-2-2.42a70.93,70.93,0,0,1-3.36-6.38,93.44,93.44,0,0,1-3.67-9.11,108.31,108.31,0,0,1-3.11-10.6,1.61,1.61,0,0,1-.16-.78,128,128,0,0,1-5.73,12.47,54.57,54.57,0,0,1-7.85,11.29,36.9,36.9,0,0,1-11,8.25,32.87,32.87,0,0,1-14.88,3.2q-12.27,0-19.63-6.86t-7.36-20.87a40.17,40.17,0,0,1,2.86-15.19,41.79,41.79,0,0,1,7.53-12.3,37,37,0,0,1,10.46-8.26,28.64,28.64,0,0,1,11.86-3.35q6.54,0,10,2a31.51,31.51,0,0,1,6.47,4.75,17.08,17.08,0,0,1-2.3,2.34,15.23,15.23,0,0,1-2.28,1.48,5.51,5.51,0,0,1-2.62.7,5,5,0,0,1-1.8-.31l-2.94-2a9.91,9.91,0,0,0-5.56-1.24,24.07,24.07,0,0,0-10.22,2.57,27.16,27.16,0,0,0-9.24,6.93,25.36,25.36,0,0,0-6.46,9.89,37.31,37.31,0,0,0-.49,19.55,20.87,20.87,0,0,0,3.51,7.48,17.62,17.62,0,0,0,6.38,5.21,21.55,21.55,0,0,0,9.65,1.95,29.42,29.42,0,0,0,12.75-2.57,31.47,31.47,0,0,0,9.24-6.54,35.18,35.18,0,0,0,6.3-9,81.92,81.92,0,0,0,4.09-9.81q3.11-9.35,7-18.69a74.78,74.78,0,0,0,5.23-19.63,11.32,11.32,0,0,0,1.8.78,21.94,21.94,0,0,1,3.44,1.71,10.82,10.82,0,0,1,3,2.73,4.2,4.2,0,0,1,.74,3.66c-.22.73-.36,1.22-.41,1.48s-.11.49-.17.7a4.49,4.49,0,0,1-.24.7q-.17.39-.66,1.32a34.15,34.15,0,0,0-2.94,9.89,76.59,76.59,0,0,0-.82,11.3,50.28,50.28,0,0,0,.66,8.1q.65,4.05,1.55,7.55t1.72,6.31c.54,1.87,1,3.43,1.31,4.67a62.88,62.88,0,0,1,6.37-12.54q4.26-6.62,11.12-16,5.89-8.73,9.57-15.27c2.45-4.36,4.34-8,5.64-11a61.72,61.72,0,0,0,2.7-6.93A15.37,15.37,0,0,0,1085.19,244.26Z"/><path class="cls-10" d="M1130.48,292.55c.55.31.82.52.82.62a21.43,21.43,0,0,1-1.06,3.89,45.41,45.41,0,0,1-3,7,30.44,30.44,0,0,1-4.82,6.78,8.71,8.71,0,0,1-6.46,3c-2.18,0-4.23-1.12-6.13-3.35a13.07,13.07,0,0,1-2.86-8.8,36.33,36.33,0,0,1-2.29,3.19,19.66,19.66,0,0,1-3,3,15.64,15.64,0,0,1-3.6,2.18,10.09,10.09,0,0,1-4.08.86,7.84,7.84,0,0,1-5.81-3q-2.7-3-2.7-8.57a32.39,32.39,0,0,1,1.07-7.94,70.44,70.44,0,0,1,2.53-8q1.47-3.81,2.94-6.85c1-2,1.75-3.61,2.29-4.75h-.16q1-1.56,1.8-3.12a16.84,16.84,0,0,0,1.39-2.57q.57-1.32.9-2.25a6.73,6.73,0,0,1,1.39.7,14.49,14.49,0,0,1,2.53,1.87,22.26,22.26,0,0,1,2.46,2.57,4.44,4.44,0,0,1,1.14,2.8q0,1.71-2,5.3t-4.42,7.86a87.32,87.32,0,0,0-4.41,8.88,21.79,21.79,0,0,0-2,8.49,7.34,7.34,0,0,0,.57,3.12,2.48,2.48,0,0,0,2.53,1.24c1.53,0,3.36-.85,5.48-2.57s4.11-4.64,6-8.8a55,55,0,0,1,3.19-10.28c1.36-3.22,2.42-5.55,3.19-7,.54-1,1-2.08,1.47-3.11a21.83,21.83,0,0,0,1.14-2.57c.33-.89.6-1.64.82-2.26a7.56,7.56,0,0,1,1.47.7,18.3,18.3,0,0,1,2.78,1.87,16.78,16.78,0,0,1,2.62,2.57l.65.93.82-.78a19,19,0,0,0,3.76-5.06,13,13,0,0,0,1.31-4.28,31,31,0,0,0,.57-3.59,18.87,18.87,0,0,0-.08-4.67l2.29.31a.21.21,0,0,0,.33,0c.11-.1.27-.1.49,0q3.27.63,4.09,2.73a8.75,8.75,0,0,1,.49,4.44,14.06,14.06,0,0,1-2,5.37,23.11,23.11,0,0,1-3.51,4.29,22.81,22.81,0,0,1-4.25,3.19q-2.29,1.32-4.26,2.26c-.32.83-.71,1.71-1.14,2.65l-3.68,6.62a71.59,71.59,0,0,0-3.68,7.63,19.86,19.86,0,0,0-1.63,7.55q0,5.14,2.28,5.14c1.53,0,3.49-1.42,5.89-4.28s4.58-7.19,6.54-13q0-.15.33-.15ZM1103.83,250a25.63,25.63,0,0,0,1.55,2.11l1.56,1.94c.32.31.78.76,1.39,1.33a15.62,15.62,0,0,0,2.37,1.79,14.41,14.41,0,0,0,3.59,1.56,18.4,18.4,0,0,0,5.07.62,21.47,21.47,0,0,0,5.07-.55c1.53-.36,2.46-.59,2.78-.7h.17v.16c0,.21,0,.31.16.31.22.52.33.7.33.55v.07c0,.21-.39.5-1.15.86a20.45,20.45,0,0,1-3,1.09c-1.26.36-2.68.7-4.25,1a26,26,0,0,1-5,.47,22,22,0,0,1-4.17-.47,23.33,23.33,0,0,1-4.58-1.4,11.54,11.54,0,0,1-3.76-2.49,5.11,5.11,0,0,1-1.56-3.74,2.59,2.59,0,0,1,.49-1.48c.33-.47.71-1,1.15-1.48A8.48,8.48,0,0,1,1103.83,250Z"/><path class="cls-10" d="M1152.23,305.32a13.61,13.61,0,0,1-2.29-8.26,27,27,0,0,1,1-7.55q1-3.35,2.62-7.56-1.47,2.66-3.68,6.47t-4.33,7.79q-2.13,4-3.85,7.47a35.68,35.68,0,0,0-2.2,5.22,14.66,14.66,0,0,1-1.64,3.12,13.74,13.74,0,0,1-1.88,2,3.48,3.48,0,0,1-2.37.94q-3.93,0-5.23-2.88a18.32,18.32,0,0,1-1.31-7.56,39.31,39.31,0,0,1,1.31-10.12,74.49,74.49,0,0,1,2.94-9,67.68,67.68,0,0,1,3.11-6.77l1.8-3.35a44.3,44.3,0,0,0,2-4.44c.65-1.72,1.09-2.94,1.31-3.66a4.71,4.71,0,0,1,1.8.78,14.34,14.34,0,0,1,2.53,1.94,17.52,17.52,0,0,1,2.21,2.57,4.73,4.73,0,0,1,1,2.65,11.83,11.83,0,0,1-2,5.92q-2,3.27-4.34,7.09a76.74,76.74,0,0,0-4.33,8,20.7,20.7,0,0,0-2,8.88,7.94,7.94,0,0,0,.16,1.87q5.4-9.81,9.4-16.28t7-10.44c2-2.64,3.6-4.72,4.91-6.23s2.37-2.75,3.19-3.74a18,18,0,0,0,1.88-2.64,12.9,12.9,0,0,0,1.14-3.35,6.47,6.47,0,0,1,1.39.7,15.48,15.48,0,0,1,2.54,1.87,27.41,27.41,0,0,1,2.45,2.49,4.16,4.16,0,0,1,1.15,2.73,11.35,11.35,0,0,1-.25,1.71,3.39,3.39,0,0,1-.9,1.87,53.42,53.42,0,0,1-3.19,5.53q-1.87,2.88-3.6,6a51.84,51.84,0,0,0-2.94,6.3,17.5,17.5,0,0,0-1.23,6.31,8.79,8.79,0,0,0,.41,2.88,1.76,1.76,0,0,0,1.88,1.17q2.13,0,5.65-3.19t6.78-10.36l.33-.16a1.45,1.45,0,0,1,1,.47l.33.31a20.91,20.91,0,0,1-1.07,3,40.1,40.1,0,0,1-3,6,27.25,27.25,0,0,1-4.82,5.92,9.31,9.31,0,0,1-6.46,2.65,8.62,8.62,0,0,1-3.11-.63A7.39,7.39,0,0,1,1152.23,305.32Z"/><path class="cls-10" d="M1214.37,271.83a2.52,2.52,0,0,1,.17,1.09,6.26,6.26,0,0,1-.66,2.65q-3.93,7.94-8.5,17.44a190.7,190.7,0,0,0-8,19.16c2.06.11,4.19.26,6.37.47a27.54,27.54,0,0,1,5.89,1.17,10.53,10.53,0,0,1,4.25,2.49,5.8,5.8,0,0,1,1.64,4.29,9.34,9.34,0,0,1-1,4.05,12,12,0,0,1-2.7,3.58,15.79,15.79,0,0,1-3.93,2.57,11.1,11.1,0,0,1-4.66,1,12.36,12.36,0,0,1-8-3.12,12.8,12.8,0,0,1-4.58-8.09c-2,.2-4.25.49-6.87.85s-5.12.75-7.52,1.17a45.49,45.49,0,0,0-6,1.4c-1.64.52-2.45,1-2.45,1.4a13.42,13.42,0,0,1-.49-3.42,8.41,8.41,0,0,1,.81-3.9,8.74,8.74,0,0,1,1.88-2.49,8.39,8.39,0,0,1,2.13-1.4c.71-.31,1.23-.52,1.55-.62a77.39,77.39,0,0,1,8.18-.86l9.48-.55q.17-.78.33-1.32t.33-1.32c-1,.41-2,.83-3.11,1.24a11.47,11.47,0,0,1-4.09.62,11.27,11.27,0,0,1-6.37-1.63,12.33,12.33,0,0,1-3.85-4,16.64,16.64,0,0,1-2-5,36.65,36.65,0,0,1-.74-4.67,27.63,27.63,0,0,1,1.64-9,30.92,30.92,0,0,1,4.66-8.72,27.06,27.06,0,0,1,7.28-6.62,20.2,20.2,0,0,1,9.65-3,21.76,21.76,0,0,1,5.56.62,31.18,31.18,0,0,1,4.08,1.41c.55-.83,1.07-1.66,1.56-2.5a6.69,6.69,0,0,0,.9-2.64q1.8.93,3.27,1.86a14.07,14.07,0,0,1,2.45,1.87A5.07,5.07,0,0,1,1214.37,271.83ZM1193,305.16q1.8-7,4.09-13.39t4.09-11.37a10.28,10.28,0,0,0-6.55-2.18,12,12,0,0,0-5.88,1.63,21.8,21.8,0,0,0-5.4,4.29,23.18,23.18,0,0,0-4,6,16.42,16.42,0,0,0-1.55,6.93,21.4,21.4,0,0,0,.33,3.74,10.77,10.77,0,0,0,1.14,3.35,6.81,6.81,0,0,0,2.46,2.49,8.25,8.25,0,0,0,4.41,1,9.7,9.7,0,0,0,2-.24c.76-.15,1.53-.33,2.29-.54a7,7,0,0,0,1.88-.78C1192.7,305.79,1193,305.48,1193,305.16Zm13.9,13.56a30.83,30.83,0,0,0-6,.62,66.57,66.57,0,0,1-8.09.93,3.52,3.52,0,0,0,1.14.16,3.17,3.17,0,0,0,.9.16,1.78,1.78,0,0,1,.74.15,11.61,11.61,0,0,0,3.18,5.45,7.58,7.58,0,0,0,5.48,2.34,9.31,9.31,0,0,0,4.83-1.71,5.84,5.84,0,0,0,2.7-5.3,2.42,2.42,0,0,0-1.07-2A6.85,6.85,0,0,0,1206.85,318.72Z"/><path class="cls-11" d="M736.93,553.34a14.41,14.41,0,0,1,3.46,3.84,30.93,30.93,0,0,1,2.87,5.76,20.26,20.26,0,0,1,1.25,7.26,29.36,29.36,0,0,1-1.69,9.17,30.66,30.66,0,0,1-5.15,9.39,28.66,28.66,0,0,1-8.83,7.25,26.32,26.32,0,0,1-12.72,2.91,23,23,0,0,1-7.8-1.42,23.83,23.83,0,0,1-7.28-4.19,22,22,0,0,1-5.37-6.76,19.55,19.55,0,0,1-2-9.1,24,24,0,0,1,2.13-10.17A37.27,37.27,0,0,1,701,559a57.16,57.16,0,0,1,6.47-6.61q3.39-2.93,5.89-5.19,6.75-6,11.84-10.39t7.57-6.26a14.89,14.89,0,0,0-5.88-1.13,22,22,0,0,0-8.09,1.56,68.12,68.12,0,0,0-7.5,3.49c-2.36,1.28-4.56,2.44-6.62,3.48a12.1,12.1,0,0,1-5.3,1.56,4.1,4.1,0,0,1-2.57-1,11.94,11.94,0,0,1-2.21-2.28,19.77,19.77,0,0,1-1.54-2.34,4.13,4.13,0,0,1-.59-1.35,19.52,19.52,0,0,0,4.41-1.43,92.49,92.49,0,0,1,12-4.33,48.25,48.25,0,0,1,13.75-2.07,22.19,22.19,0,0,1,7.28,1.14,21.48,21.48,0,0,1,5.67,2.85,14.73,14.73,0,0,1,3.67,3.69,6.93,6.93,0,0,1,1.33,3.84.78.78,0,0,1-.15.57h-.15q-3.37,2.57-7.35,5.62l-8.31,6.4q-4.35,3.35-8.68,6.9t-8.46,7.39a24.12,24.12,0,0,0-5.29,7.19,18.64,18.64,0,0,0-2.06,8.32,13.24,13.24,0,0,0,1.39,6,16.65,16.65,0,0,0,3.68,4.84,17.75,17.75,0,0,0,5.3,3.27,17.14,17.14,0,0,0,6.4,1.21,23.1,23.1,0,0,0,10.81-2.42,24.35,24.35,0,0,0,7.72-6.19,27,27,0,0,0,4.63-8.1,24.48,24.48,0,0,0,1.55-8.18,18.14,18.14,0,0,0-1.33-7.4,19.1,19.1,0,0,0-2.86-4.76,15.48,15.48,0,0,0-2.8-2.63c-.83-.57-1.25-.9-1.25-1L733,553a.81.81,0,0,1-.3-.57c0-.48.2-.71.59-.71a.59.59,0,0,1,.29.07.66.66,0,0,0,.3.07h.15A7.2,7.2,0,0,1,736.93,553.34Z"/><path class="cls-11" d="M783.49,524.4a20.24,20.24,0,0,1,10.07,2.35,20.87,20.87,0,0,1,6.84,6,23.85,23.85,0,0,1,3.83,8.18,35.32,35.32,0,0,1,1.17,8.82,61.94,61.94,0,0,1-.73,9,62.6,62.6,0,0,1-2.36,10,65.85,65.85,0,0,1-4,9.82,37.11,37.11,0,0,1-5.88,8.46,29,29,0,0,1-7.87,6,21.49,21.49,0,0,1-10,2.28,14.21,14.21,0,0,1-9-2.71,18.38,18.38,0,0,1-5.3-6.47,28.21,28.21,0,0,1-2.5-7.82,44,44,0,0,1-.66-6.9,45.49,45.49,0,0,1,1.25-11.16,48.11,48.11,0,0,1,2.8-8.25,32.91,32.91,0,0,1,2.86-5.19,8.67,8.67,0,0,0,1.33-2.13.41.41,0,0,1,.15-.29c.29-.28.48-.43.58-.43a.65.65,0,0,1,.52.29.91.91,0,0,1,.22.57,8.56,8.56,0,0,1-1,2.56q-1,2-2.2,5.19a49.93,49.93,0,0,0-2.21,7.61,45.47,45.47,0,0,0-1,9.67,35.23,35.23,0,0,0,.67,6.54,24.05,24.05,0,0,0,2.28,6.69,15.56,15.56,0,0,0,4.26,5.19,10.48,10.48,0,0,0,6.62,2.06,14.84,14.84,0,0,0,9.93-3.7,31.18,31.18,0,0,0,7.28-9.24,48.34,48.34,0,0,0,4.41-12.09A56,56,0,0,0,797.31,553a35.77,35.77,0,0,0-1-9.32,16.26,16.26,0,0,0-2.79-6,9.94,9.94,0,0,0-4.12-3.13,13.5,13.5,0,0,0-5-.93,13.93,13.93,0,0,0-3.9.5,11.46,11.46,0,0,0-2.43.93c-.78.47-1.44.85-2,1.13a3.28,3.28,0,0,1-1.55.43,4.06,4.06,0,0,1-2.64-1.14,12.73,12.73,0,0,1-2.28-2.49,17.83,17.83,0,0,1-1.55-2.56,7.86,7.86,0,0,1-.59-1.35,8,8,0,0,0,1.84-.64c.74-.33,1.47-.64,2.21-.92s1.64-.66,2.72-1.14A22.23,22.23,0,0,1,783.49,524.4Z"/><path class="cls-11" d="M837.61,558.11q5.6,0,10.3-.15c2.65-.09,5.12-.21,7.43-.35s3.6-.4,3.9-.78v1.28a10.41,10.41,0,0,0,.07,1.21,11.48,11.48,0,0,1,.07,1.35,2.32,2.32,0,0,1-.51,1.49c-.35.43-1.2.64-2.58.64l-4.7-.28c-1.38-.1-2.92-.17-4.64-.22s-3.4-.07-5.07-.07q-2.94,0-5.37.21a11.23,11.23,0,0,0-3.31.64l-.29-.85a6.16,6.16,0,0,1-.15-1.71,2.41,2.41,0,0,1,.81-1.56C834.11,558.39,835.46,558.11,837.61,558.11Z"/><path class="cls-11" d="M918.51,524.12a2,2,0,0,1,2.28,2,15.76,15.76,0,0,1-.37,4.83q-.74,4.56-1.54,8.89t-1.69,8.46q-5.3,23.48-8.53,34.28t-3.53,10.81a.59.59,0,0,1-.59-.29,1.06,1.06,0,0,1-.15-.42,34.37,34.37,0,0,1,.74-5.19l1.83-9.75q1.11-5.82,2.43-13.22t2.5-15.51q-2.05,4.69-4.12,8.82t-3.89,7.47c-1.23,2.23-2.36,4.12-3.39,5.69a21.68,21.68,0,0,1-2.42,3.2l.14.14a7.29,7.29,0,0,1-3.09,2.2,8.6,8.6,0,0,1-1.76.36,5.69,5.69,0,0,1-2.5-.64,16.5,16.5,0,0,1-2.5-1.49,25.31,25.31,0,0,1-2-1.57c-.54-.47-.81-.76-.81-.85a16.38,16.38,0,0,0,5.59-4.69,66.94,66.94,0,0,0,5.59-8.11q2.79-4.69,5.59-10.1t5.74-10.52l5-9a7.33,7.33,0,0,1,.73-1.35,22.08,22.08,0,0,1,3-3.7A2.42,2.42,0,0,1,918.51,524.12Z"/><path class="cls-11" d="M962.05,524.12a2,2,0,0,1,2.28,2,15.76,15.76,0,0,1-.37,4.83c-.49,3-1,6-1.54,8.89s-1.11,5.71-1.69,8.46q-5.31,23.48-8.54,34.28t-3.53,10.81a.58.58,0,0,1-.58-.29,1.06,1.06,0,0,1-.15-.42,35.28,35.28,0,0,1,.73-5.19c.49-2.61,1.11-5.86,1.84-9.75s1.55-8.29,2.43-13.22,1.71-10.1,2.5-15.51q-2.05,4.69-4.12,8.82t-3.9,7.47c-1.22,2.23-2.35,4.12-3.38,5.69a20.88,20.88,0,0,1-2.43,3.2l.15.14a7.41,7.41,0,0,1-3.09,2.2,8.6,8.6,0,0,1-1.76.36,5.69,5.69,0,0,1-2.5-.64,16,16,0,0,1-2.5-1.49,25.31,25.31,0,0,1-2-1.57c-.54-.47-.81-.76-.81-.85a16.38,16.38,0,0,0,5.59-4.69,66.94,66.94,0,0,0,5.59-8.11q2.79-4.69,5.59-10.1t5.74-10.52l5-9a6.75,6.75,0,0,1,.73-1.35,22.08,22.08,0,0,1,3-3.7A2.42,2.42,0,0,1,962.05,524.12Z"/><path class="cls-11" d="M996.46,558.11q5.6,0,10.3-.15c2.65-.09,5.12-.21,7.43-.35s3.6-.4,3.9-.78v1.28a10.41,10.41,0,0,0,.07,1.21,11.48,11.48,0,0,1,.07,1.35,2.32,2.32,0,0,1-.51,1.49c-.34.43-1.2.64-2.57.64l-4.71-.28c-1.38-.1-2.92-.17-4.63-.22s-3.41-.07-5.08-.07q-2.94,0-5.37.21a11.23,11.23,0,0,0-3.31.64l-.29-.85a6.16,6.16,0,0,1-.15-1.71,2.41,2.41,0,0,1,.81-1.56C993,558.39,994.31,558.11,996.46,558.11Z"/><path class="cls-11" d="M1090.82,553.34a14.41,14.41,0,0,1,3.46,3.84,30.93,30.93,0,0,1,2.87,5.76,20.26,20.26,0,0,1,1.25,7.26,29.36,29.36,0,0,1-1.69,9.17,30.66,30.66,0,0,1-5.15,9.39,28.66,28.66,0,0,1-8.83,7.25,26.32,26.32,0,0,1-12.72,2.91,23,23,0,0,1-7.8-1.42,23.72,23.72,0,0,1-7.28-4.19,21.72,21.72,0,0,1-5.37-6.76,19.55,19.55,0,0,1-2.06-9.1,23.85,23.85,0,0,1,2.14-10.17,37.27,37.27,0,0,1,5.22-8.32,56.36,56.36,0,0,1,6.47-6.61q3.38-2.93,5.88-5.19,6.76-6,11.84-10.39t7.58-6.26a14.93,14.93,0,0,0-5.88-1.13,21.91,21.91,0,0,0-8.09,1.56,69.15,69.15,0,0,0-7.51,3.49c-2.35,1.28-4.56,2.44-6.61,3.48a12.1,12.1,0,0,1-5.3,1.56,4.1,4.1,0,0,1-2.57-1,11.94,11.94,0,0,1-2.21-2.28,19.77,19.77,0,0,1-1.54-2.34,4.13,4.13,0,0,1-.59-1.35,19.84,19.84,0,0,0,4.41-1.43,92.49,92.49,0,0,1,12-4.33,48.2,48.2,0,0,1,13.75-2.07,22.23,22.23,0,0,1,7.28,1.14,21.41,21.41,0,0,1,5.66,2.85,14.62,14.62,0,0,1,3.68,3.69,7,7,0,0,1,1.32,3.84.79.79,0,0,1-.14.57h-.15q-3.39,2.57-7.35,5.62l-8.31,6.4q-4.35,3.35-8.68,6.9t-8.46,7.39a24.32,24.32,0,0,0-5.3,7.19,18.76,18.76,0,0,0-2,8.32,13.24,13.24,0,0,0,1.39,6,16.48,16.48,0,0,0,3.68,4.84,17.7,17.7,0,0,0,5.29,3.27,17.18,17.18,0,0,0,6.4,1.21,23,23,0,0,0,10.81-2.42,24.39,24.39,0,0,0,7.73-6.19,27,27,0,0,0,4.63-8.1,24.48,24.48,0,0,0,1.55-8.18,18.31,18.31,0,0,0-1.33-7.4,18.81,18.81,0,0,0-2.87-4.76,15.47,15.47,0,0,0-2.79-2.63c-.84-.57-1.25-.9-1.25-1l-.3-.28a.83.83,0,0,1-.29-.57c0-.48.2-.71.59-.71a.65.65,0,0,1,.29.07.66.66,0,0,0,.3.07h.14A7.22,7.22,0,0,1,1090.82,553.34Z"/><path class="cls-11" d="M1137.38,524.4a20.24,20.24,0,0,1,10.07,2.35,20.87,20.87,0,0,1,6.84,6,23.65,23.65,0,0,1,3.82,8.18,34.89,34.89,0,0,1,1.18,8.82,61.94,61.94,0,0,1-.73,9,63.7,63.7,0,0,1-2.36,10,65.85,65.85,0,0,1-4,9.82,36.83,36.83,0,0,1-5.89,8.46,28.7,28.7,0,0,1-7.87,6,21.45,21.45,0,0,1-10,2.28,14.19,14.19,0,0,1-9-2.71,18.38,18.38,0,0,1-5.3-6.47,27.88,27.88,0,0,1-2.5-7.82,44,44,0,0,1-.66-6.9,45,45,0,0,1,1.25-11.16,48.17,48.17,0,0,1,2.79-8.25,32.84,32.84,0,0,1,2.87-5.19,9.05,9.05,0,0,0,1.33-2.13.4.4,0,0,1,.14-.29c.3-.28.49-.43.59-.43a.65.65,0,0,1,.52.29,1,1,0,0,1,.22.57,8.56,8.56,0,0,1-1,2.56c-.64,1.33-1.37,3.06-2.21,5.19a50,50,0,0,0-2.2,7.61,45.47,45.47,0,0,0-1,9.67,36,36,0,0,0,.66,6.54,24.05,24.05,0,0,0,2.28,6.69,15.58,15.58,0,0,0,4.27,5.19,10.46,10.46,0,0,0,6.62,2.06,14.88,14.88,0,0,0,9.93-3.7,31.18,31.18,0,0,0,7.28-9.24,48.34,48.34,0,0,0,4.41-12.09A56,56,0,0,0,1151.2,553a35.77,35.77,0,0,0-1-9.32,16.59,16.59,0,0,0-2.79-6,9.94,9.94,0,0,0-4.12-3.13,13.5,13.5,0,0,0-5-.93,13.93,13.93,0,0,0-3.9.5,11.46,11.46,0,0,0-2.43.93c-.78.47-1.45.85-2,1.13a3.28,3.28,0,0,1-1.55.43,4.1,4.1,0,0,1-2.65-1.14,13.38,13.38,0,0,1-2.28-2.49,18.66,18.66,0,0,1-1.54-2.56,7.86,7.86,0,0,1-.59-1.35,8,8,0,0,0,1.84-.64c.74-.33,1.47-.64,2.21-.92s1.64-.66,2.72-1.14A22.23,22.23,0,0,1,1137.38,524.4Z"/><path class="cls-11" d="M1214.08,553.34a14.41,14.41,0,0,1,3.46,3.84,30.93,30.93,0,0,1,2.87,5.76,20.26,20.26,0,0,1,1.25,7.26,29.11,29.11,0,0,1-1.7,9.17,30.42,30.42,0,0,1-5.14,9.39A28.66,28.66,0,0,1,1206,596a26.32,26.32,0,0,1-12.72,2.91,23,23,0,0,1-7.8-1.42,23.72,23.72,0,0,1-7.28-4.19,21.72,21.72,0,0,1-5.37-6.76,19.55,19.55,0,0,1-2.06-9.1,23.85,23.85,0,0,1,2.14-10.17,37.27,37.27,0,0,1,5.22-8.32,56.36,56.36,0,0,1,6.47-6.61q3.38-2.93,5.88-5.19,6.77-6,11.84-10.39t7.58-6.26a14.93,14.93,0,0,0-5.88-1.13,21.91,21.91,0,0,0-8.09,1.56,69.15,69.15,0,0,0-7.51,3.49q-3.53,1.92-6.62,3.48a12,12,0,0,1-5.29,1.56,4.1,4.1,0,0,1-2.57-1,11.94,11.94,0,0,1-2.21-2.28,21.32,21.32,0,0,1-1.55-2.34,4.25,4.25,0,0,1-.58-1.35,19.84,19.84,0,0,0,4.41-1.43,92.49,92.49,0,0,1,12-4.33,48.2,48.2,0,0,1,13.75-2.07,22.23,22.23,0,0,1,7.28,1.14,21.41,21.41,0,0,1,5.66,2.85,14.62,14.62,0,0,1,3.68,3.69,7,7,0,0,1,1.32,3.84.84.84,0,0,1-.14.57h-.15q-3.39,2.57-7.35,5.62l-8.31,6.4q-4.35,3.35-8.68,6.9t-8.46,7.39a24.32,24.32,0,0,0-5.3,7.19,18.76,18.76,0,0,0-2,8.32,13.24,13.24,0,0,0,1.39,6,16.48,16.48,0,0,0,3.68,4.84,17.7,17.7,0,0,0,5.29,3.27A17.18,17.18,0,0,0,1194,594a23,23,0,0,0,10.81-2.42,24.39,24.39,0,0,0,7.73-6.19,27,27,0,0,0,4.63-8.1,24.45,24.45,0,0,0,1.54-8.18,18.32,18.32,0,0,0-1.32-7.4,18.81,18.81,0,0,0-2.87-4.76,15.47,15.47,0,0,0-2.79-2.63c-.84-.57-1.25-.9-1.25-1l-.3-.28a.83.83,0,0,1-.29-.57c0-.48.19-.71.59-.71a.65.65,0,0,1,.29.07.66.66,0,0,0,.3.07h.14A7.22,7.22,0,0,1,1214.08,553.34Z"/><path class="cls-11" d="M1260.63,524.4a20.25,20.25,0,0,1,10.08,2.35,21,21,0,0,1,6.84,6,23.65,23.65,0,0,1,3.82,8.18,34.89,34.89,0,0,1,1.18,8.82,61.94,61.94,0,0,1-.73,9,63.7,63.7,0,0,1-2.36,10,65.85,65.85,0,0,1-4,9.82,36.83,36.83,0,0,1-5.89,8.46,28.7,28.7,0,0,1-7.87,6,21.45,21.45,0,0,1-10,2.28,14.19,14.19,0,0,1-9-2.71,18.38,18.38,0,0,1-5.3-6.47,27.88,27.88,0,0,1-2.5-7.82,44,44,0,0,1-.66-6.9,45,45,0,0,1,1.25-11.16,48.17,48.17,0,0,1,2.79-8.25,32.84,32.84,0,0,1,2.87-5.19,9.05,9.05,0,0,0,1.33-2.13.4.4,0,0,1,.14-.29c.3-.28.49-.43.59-.43a.65.65,0,0,1,.52.29,1,1,0,0,1,.22.57,8.56,8.56,0,0,1-1,2.56c-.64,1.33-1.37,3.06-2.21,5.19a50,50,0,0,0-2.2,7.61,45.47,45.47,0,0,0-1,9.67,36,36,0,0,0,.66,6.54,24.05,24.05,0,0,0,2.28,6.69,15.58,15.58,0,0,0,4.27,5.19,10.46,10.46,0,0,0,6.62,2.06,14.88,14.88,0,0,0,9.93-3.7,31.18,31.18,0,0,0,7.28-9.24,48.34,48.34,0,0,0,4.41-12.09,56,56,0,0,0,1.47-12.23,35.77,35.77,0,0,0-1-9.32,16.59,16.59,0,0,0-2.79-6,9.94,9.94,0,0,0-4.12-3.13,13.5,13.5,0,0,0-5-.93,13.93,13.93,0,0,0-3.9.5,11.46,11.46,0,0,0-2.43.93c-.78.47-1.45.85-2,1.13a3.28,3.28,0,0,1-1.55.43,4.1,4.1,0,0,1-2.65-1.14,13.38,13.38,0,0,1-2.28-2.49,18.66,18.66,0,0,1-1.54-2.56,7.86,7.86,0,0,1-.59-1.35,8,8,0,0,0,1.84-.64c.74-.33,1.47-.64,2.21-.92s1.64-.66,2.72-1.14A22.22,22.22,0,0,1,1260.63,524.4Z"/><path class="cls-10" d="M560.36,392.65a3.64,3.64,0,0,1,.52,2.63,10.07,10.07,0,0,1-.82,2.78,67.35,67.35,0,0,0-3.43,6.54q-2.1,4.41-4.48,10t-4.78,11.8q-2.39,6.19-4.4,11.81t-3.21,10.09a28.8,28.8,0,0,0-1.2,6.62q-6.72-.15-11.2-6.76t-6.86-17.85a85.29,85.29,0,0,1-5.83,10.88,38.24,38.24,0,0,1-7.16,8.39A30,30,0,0,1,498.4,455a32.36,32.36,0,0,1-11.5,1.92q-11.06,0-17.77-6.33t-6.72-19a37.82,37.82,0,0,1,2.32-13.15,38.29,38.29,0,0,1,6.34-11.24,33.32,33.32,0,0,1,9.48-8,26.23,26.23,0,0,1,11.73-3.35,17.06,17.06,0,0,1,5.22.72,20.08,20.08,0,0,1,4,1.7,30.88,30.88,0,0,1,3.13,2.07,13.31,13.31,0,0,0,2.77,1.63,2.3,2.3,0,0,1-1.12,1.92,10,10,0,0,1-2.69,1.28,25.71,25.71,0,0,1-3.14.78l-2.31.43q-2-3.56-6.72-3.56a22.68,22.68,0,0,0-9.41,2.35,25,25,0,0,0-8.51,6.33,29.73,29.73,0,0,0-5.82,9.17,29,29,0,0,0-1.49,9.75,30,30,0,0,0,1,8,20.05,20.05,0,0,0,3.29,6.83A16.06,16.06,0,0,0,476.3,450a19.75,19.75,0,0,0,8.81,1.78,26.74,26.74,0,0,0,12-2.49,28.15,28.15,0,0,0,8.51-6.4,35.25,35.25,0,0,0,5.75-8.75q2.24-4.83,3.88-9.53c.9-2.56,1.74-5.09,2.54-7.61s1.57-4.83,2.31-7,1.42-4.06,2-5.76,1-3,1.34-4v-.14c.3-1.23.6-2.37.9-3.41s.39-1.92.6-2.92.34-1.82.44-2.49c2,.95,3.54,1.76,4.63,2.42s2.12,1.35,3.06,2.06,1.42,1.26,1.42,1.64a6.37,6.37,0,0,1-.52,2.2c-.35.91-.62,1.69-.82,2.35.1,0,.15,0,.15.14a77.71,77.71,0,0,0-4.78,12.16,49.73,49.73,0,0,0-2.24,14.86,33.19,33.19,0,0,0,1.79,11.6,30.87,30.87,0,0,0,4.33,8,30.33,30.33,0,0,1,1.34-6.82c.9-3.23,2-6.85,3.36-10.89s2.82-8.17,4.41-12.44,3-8.18,4.33-11.73,2.36-6.43,3.21-8.61,1.22-3.17,1.12-3l1-3a28.92,28.92,0,0,0,1.2-4.69c1.19.47,2.34.94,3.43,1.42.9.47,1.79,1,2.69,1.56A4.3,4.3,0,0,1,560.36,392.65Z"/><path class="cls-10" d="M591.57,412.56a2.61,2.61,0,0,1,.14,1,5.87,5.87,0,0,1-.59,2.42q-3.58,7.25-7.77,15.93A177.52,177.52,0,0,0,576,449.4c1.89.09,3.83.24,5.82.43a25.14,25.14,0,0,1,5.38,1.06,9.59,9.59,0,0,1,3.88,2.28,5.3,5.3,0,0,1,1.49,3.91,8.39,8.39,0,0,1-.9,3.7,10.51,10.51,0,0,1-2.46,3.27,14,14,0,0,1-3.58,2.35,10.2,10.2,0,0,1-4.26.92,11.3,11.3,0,0,1-7.31-2.84,11.74,11.74,0,0,1-4.18-7.4q-2.7.29-6.28.78c-2.38.33-4.68.69-6.86,1.07a42.18,42.18,0,0,0-5.53,1.28c-1.49.47-2.24.9-2.24,1.28a12.36,12.36,0,0,1-.45-3.13,7.53,7.53,0,0,1,.75-3.55,7.84,7.84,0,0,1,1.72-2.28,7.46,7.46,0,0,1,1.94-1.28c.65-.28,1.12-.48,1.42-.57a72.29,72.29,0,0,1,7.46-.78l8.66-.5c.1-.47.2-.88.3-1.21s.2-.73.3-1.21c-.9.38-1.84.76-2.84,1.14a10.53,10.53,0,0,1-3.73.57,10.34,10.34,0,0,1-5.82-1.49,11.23,11.23,0,0,1-3.51-3.63,15,15,0,0,1-1.79-4.55,32.71,32.71,0,0,1-.67-4.27,25.09,25.09,0,0,1,1.49-8.18,28.13,28.13,0,0,1,4.25-8,24.78,24.78,0,0,1,6.65-6.05,18.4,18.4,0,0,1,8.81-2.7,19.47,19.47,0,0,1,5.07.57,28.54,28.54,0,0,1,3.74,1.28c.49-.76,1-1.51,1.41-2.27A6.12,6.12,0,0,0,585,407c1.09.57,2.09,1.14,3,1.7a13,13,0,0,1,2.24,1.71A4.63,4.63,0,0,1,591.57,412.56ZM572,443q1.63-6.4,3.73-12.23t3.73-10.38a9.36,9.36,0,0,0-6-2,11,11,0,0,0-5.38,1.49,19.94,19.94,0,0,0-4.92,3.91,20.68,20.68,0,0,0-3.66,5.48,14.82,14.82,0,0,0-1.42,6.32,19.76,19.76,0,0,0,.3,3.42,9.7,9.7,0,0,0,1,3.06,6.23,6.23,0,0,0,2.24,2.27,7.58,7.58,0,0,0,4,.93,9.5,9.5,0,0,0,1.8-.22c.69-.14,1.39-.3,2.09-.5a5.79,5.79,0,0,0,1.71-.71C571.78,443.57,572,443.28,572,443Zm12.69,12.37a28.38,28.38,0,0,0-5.45.57,61.12,61.12,0,0,1-7.39.86,3.59,3.59,0,0,0,1,.14,2.88,2.88,0,0,0,.82.14,1.69,1.69,0,0,1,.68.14,10.55,10.55,0,0,0,2.91,5,6.92,6.92,0,0,0,5,2.13,8.48,8.48,0,0,0,4.4-1.56,5.33,5.33,0,0,0,2.47-4.84,2.22,2.22,0,0,0-1-1.85A6.3,6.3,0,0,0,584.7,455.37Z"/><path class="cls-10" d="M633.82,431.48c.5.28.75.48.75.57a20.56,20.56,0,0,1-1,3.55,41.24,41.24,0,0,1-2.77,6.41,27.87,27.87,0,0,1-4.4,6.18,7.94,7.94,0,0,1-5.9,2.78,7.53,7.53,0,0,1-4.55-1.78q-2.33-1.79-3.36-6.19c-.4.48-.87,1-1.42,1.64a9.6,9.6,0,0,1-2.09,1.7,13.34,13.34,0,0,1-3,1.35,13.61,13.61,0,0,1-4.25.57,9.35,9.35,0,0,1-5.6-1.56,10.83,10.83,0,0,1-3.36-3.84,16.62,16.62,0,0,1-1.64-4.62,22.07,22.07,0,0,1-.45-4.06,23.63,23.63,0,0,1,1.64-8.32A28,28,0,0,1,597,418a24.89,24.89,0,0,1,6.86-5.83,17.19,17.19,0,0,1,8.74-2.28,11.74,11.74,0,0,1,5.15.93c1.24.62,2.41,1.25,3.51,1.92a2.14,2.14,0,0,0,.37-.93,2.5,2.5,0,0,1,.23-.78,7.42,7.42,0,0,1,1.34.64,18.26,18.26,0,0,1,2.54,1.71,18.5,18.5,0,0,1,2.39,2.27,3.83,3.83,0,0,1,1,2.49,5.67,5.67,0,0,1-.45,2.21c-.29.71-.64,1.44-1,2.2h-.15c-.8,1.42-1.67,3-2.61,4.62s-1.82,3.35-2.62,5.05a39.84,39.84,0,0,0-2,5.26,18,18,0,0,0-.82,5.27c0,3.13.69,4.69,2.09,4.69s3.18-1.3,5.37-3.91,4.18-6.57,6-11.88c0-.09.1-.14.3-.14Zm-21.5,8.82a32.73,32.73,0,0,1,1.64-10,89.53,89.53,0,0,1,3.29-8.82,14.88,14.88,0,0,0-2.84-2.34,6.1,6.1,0,0,0-3.28-.93,10,10,0,0,0-5.16,1.57,21,21,0,0,0-4.85,4.05,22.12,22.12,0,0,0-3.66,5.62,15.15,15.15,0,0,0-1.42,6.26,22.08,22.08,0,0,0,.23,3.13,8.35,8.35,0,0,0,1,3,6.36,6.36,0,0,0,2.24,2.28,7.71,7.71,0,0,0,4,.85,9.54,9.54,0,0,0,4.78-1.28A14.88,14.88,0,0,0,612.32,440.3Zm-2.09-47.65a20.43,20.43,0,0,0,1.42,1.92l1.42,1.78c.29.29.72.69,1.27,1.21a13.71,13.71,0,0,0,2.16,1.64,13.23,13.23,0,0,0,3.29,1.42,16.47,16.47,0,0,0,4.62.57,20.1,20.1,0,0,0,4.63-.5c1.4-.33,2.24-.55,2.54-.64h.15v.14c0,.19,0,.29.15.29.2.47.3.64.3.49V401c0,.2-.35.46-1,.79a18.67,18.67,0,0,1-2.76,1c-1.14.34-2.44.64-3.88.93a23.94,23.94,0,0,1-4.56.42,20.25,20.25,0,0,1-3.8-.42,21.29,21.29,0,0,1-4.18-1.28,10.65,10.65,0,0,1-3.44-2.28,4.64,4.64,0,0,1-1.42-3.41,2.3,2.3,0,0,1,.45-1.35q.45-.65,1.05-1.35A7.73,7.73,0,0,1,610.23,392.65Z"/><path class="cls-10" d="M677.57,431.62c.39.29.59.48.59.57v-.14a9.28,9.28,0,0,0-.74,2.56,20.8,20.8,0,0,1-2.32,5.55,21.18,21.18,0,0,1-4.7,5.54,11.49,11.49,0,0,1-7.76,2.56,9.28,9.28,0,0,1-3.21-.57,7,7,0,0,1-2.92-2.13,13.15,13.15,0,0,1-1,2.13,20.15,20.15,0,0,0-1.05,2c3.59.76,6.87,1.38,9.86,1.85a52.7,52.7,0,0,0,8.36.71,12.57,12.57,0,0,0,2.24-.14,8.71,8.71,0,0,1-1.87,5.34,6.41,6.41,0,0,1-5.45,2.49,29.15,29.15,0,0,1-7.69-1.29q-4.54-1.27-9-2.56-3,5-6.42,6.9a14.23,14.23,0,0,1-7,1.92c-.4,0-1.09,0-2.09-.14a9.93,9.93,0,0,1-3.06-.85,8.28,8.28,0,0,1-2.84-2.21,6.3,6.3,0,0,1-1.26-4.19,6.42,6.42,0,0,1,1.49-4.41,10.14,10.14,0,0,1,3.51-2.63,14.41,14.41,0,0,1,4-1.21,22.25,22.25,0,0,1,2.84-.29c.8,0,1.52,0,2.17.08s1.31.07,2,.07c2,0,3.19-.43,3.59-1.28s.89-2,1.49-3.42a17.19,17.19,0,0,1-3.73,2.7,9.13,9.13,0,0,1-4.48,1.14,7.3,7.3,0,0,1-5.23-2.63c-1.69-1.75-2.54-4.34-2.54-7.75a29.57,29.57,0,0,1,.9-7,63.18,63.18,0,0,1,2.16-7.11c.85-2.28,1.72-4.36,2.62-6.26s1.64-3.36,2.24-4.41l3.28-7.39a6.78,6.78,0,0,1,1.34.64,14.7,14.7,0,0,1,2.39,1.63,18.69,18.69,0,0,1,2.24,2.21,3.76,3.76,0,0,1,1.05,2.49,11.78,11.78,0,0,1-1.72,4.76c-1.14,2.13-2.44,4.51-3.88,7.11a74.57,74.57,0,0,0-3.88,8.11,20.23,20.23,0,0,0-1.72,7.61,7.75,7.75,0,0,0,.52,3.06,2.25,2.25,0,0,0,2.32,1.2q2.53,0,6.12-3.69t6.57-12.8c.89-2.85,1.69-5.14,2.39-6.9S659.45,418,660,417s.89-1.89,1.19-2.56a7.77,7.77,0,0,0,.6-1.85,23.94,23.94,0,0,1,4.41,2.85,5.76,5.76,0,0,1,2.31,4.69,7,7,0,0,1-1.05,3.42q-2.68,4.55-4.55,8.32a19,19,0,0,0-1.87,8.6,6.13,6.13,0,0,0,.45,2.63c.3.62,1,.93,2.09.93q2.54,0,6.35-2.92t6.79-9.46l.3-.14A1.46,1.46,0,0,1,677.57,431.62Zm-33.15,23.9a6,6,0,0,1,1.64-.15,5.47,5.47,0,0,1,.9.08,6,6,0,0,0,.75.07h.74l-3.73-.86c-1.1-.19-2.22-.4-3.36-.64a27.51,27.51,0,0,0-3.36-.49,10.49,10.49,0,0,0-4.7,1.06,3.72,3.72,0,0,0-2.17,3.63,2.86,2.86,0,0,0,1.57,2.7,6.88,6.88,0,0,0,3.36.85,7.86,7.86,0,0,0,4.11-1.35A14.09,14.09,0,0,0,644.42,455.52Z"/><path class="cls-10" d="M798.66,392.65a3.69,3.69,0,0,1,.52,2.63,10.43,10.43,0,0,1-.82,2.78,67,67,0,0,0-3.44,6.54q-2.08,4.41-4.48,10t-4.77,11.8c-1.6,4.13-3.06,8.06-4.41,11.81s-2.41,7.11-3.21,10.09a28.65,28.65,0,0,0-1.19,6.62q-6.72-.15-11.2-6.76t-6.87-17.85A84,84,0,0,1,753,441.22a38,38,0,0,1-7.17,8.39,29.93,29.93,0,0,1-9.11,5.41,32.31,32.31,0,0,1-11.49,1.92q-11.06,0-17.77-6.33t-6.72-19a38.77,38.77,0,0,1,8.66-24.39,33.32,33.32,0,0,1,9.48-8,26.15,26.15,0,0,1,11.72-3.35,17.17,17.17,0,0,1,5.23.72,19.72,19.72,0,0,1,4,1.7,31.06,31.06,0,0,1,3.14,2.07,13.25,13.25,0,0,0,2.76,1.63,2.28,2.28,0,0,1-1.12,1.92,9.74,9.74,0,0,1-2.69,1.28,25.56,25.56,0,0,1-3.13.78l-2.32.43q-1.93-3.56-6.71-3.56a22.65,22.65,0,0,0-9.41,2.35,24.9,24.9,0,0,0-8.51,6.33,29.73,29.73,0,0,0-5.82,9.17,29,29,0,0,0-1.5,9.75,30,30,0,0,0,1,8,20,20,0,0,0,3.28,6.83,16.23,16.23,0,0,0,5.82,4.76,19.78,19.78,0,0,0,8.81,1.78,26.71,26.71,0,0,0,12-2.49,28,28,0,0,0,8.51-6.4,35,35,0,0,0,5.75-8.75,102.09,102.09,0,0,0,3.88-9.53c.9-2.56,1.75-5.09,2.54-7.61s1.57-4.83,2.32-7,1.42-4.06,2-5.76,1.05-3,1.35-4v-.14c.3-1.23.59-2.37.89-3.41s.4-1.92.6-2.92.35-1.82.45-2.49q3,1.42,4.63,2.42c1.09.67,2.11,1.35,3.06,2.06s1.42,1.26,1.42,1.64a6.43,6.43,0,0,1-.53,2.2c-.35.91-.62,1.69-.82,2.35.1,0,.15,0,.15.14a79.74,79.74,0,0,0-4.78,12.16,49.73,49.73,0,0,0-2.24,14.86,33,33,0,0,0,1.8,11.6,30.29,30.29,0,0,0,4.33,8,29.76,29.76,0,0,1,1.34-6.82c.9-3.23,2-6.85,3.36-10.89s2.81-8.17,4.4-12.44,3-8.18,4.33-11.73,2.37-6.43,3.21-8.61,1.22-3.17,1.12-3l1-3a28.77,28.77,0,0,0,1.19-4.69c1.2.47,2.34.94,3.44,1.42.89.47,1.79,1,2.69,1.56A4.35,4.35,0,0,1,798.66,392.65Z"/><path class="cls-10" d="M829.86,431.48c.5.28.75.48.75.57a15.47,15.47,0,0,1-1.05,3,38,38,0,0,1-2.91,5.54,25.22,25.22,0,0,1-4.48,5.34,8.43,8.43,0,0,1-5.75,2.34,7,7,0,0,1-5.82-3.34,13.24,13.24,0,0,1-2.39-7.89,23.62,23.62,0,0,1,.37-4.48,41.82,41.82,0,0,1,1.12-4.34c-1.09,1.9-2.24,3.93-3.43,6.12s-2.34,4.31-3.43,6.39-2.07,4-2.92,5.84a31.55,31.55,0,0,0-1.71,4.26,5.41,5.41,0,0,1-2,2.71,5.26,5.26,0,0,1-3.06,1,4.93,4.93,0,0,1-3.36-1.42c-1-1-1.57-2.66-1.57-5.12a40.7,40.7,0,0,1,1.12-8.46q1.13-5.06,2.84-10.67c1.14-3.75,2.39-7.51,3.73-11.31s2.64-7.27,3.88-10.45,2.37-5.9,3.36-8.18,1.65-3.79,2-4.55c.29-1,.64-2.08,1-3.13.3-.85.57-1.71.82-2.56a7.8,7.8,0,0,0,.37-2.13,8.15,8.15,0,0,0,1.5.64,22.76,22.76,0,0,1,2.91,1.35,12.12,12.12,0,0,1,2.76,2.06,3.84,3.84,0,0,1,1.2,2.78,10.5,10.5,0,0,1-.75,3.69q-.75,1.43-2.46,5l-4,8.18q-2.24,4.62-4.7,9.95t-4.48,10.39q-2,5-3.36,9.31a24.07,24.07,0,0,0-1.35,6.83c0-.1,0-.14.15-.14q6.27-10.81,10.75-17.36t7.24-10.31c1.85-2.51,3.16-4.31,4-5.4s1-2,.75-2.63a6.17,6.17,0,0,1,1.27.64,14.43,14.43,0,0,1,2.31,1.7,26.75,26.75,0,0,1,2.24,2.28,3.79,3.79,0,0,1,1.05,2.49,6.46,6.46,0,0,1-.45,2,30.25,30.25,0,0,1-2.32,4.62c-.94,1.57-1.89,3.16-2.83,4.77a30.28,30.28,0,0,0-2.39,5,15.21,15.21,0,0,0-1,5.33,10.84,10.84,0,0,0,.37,2.91,1.73,1.73,0,0,0,1.87,1.36q2.08,0,5.22-2.92t6.12-9.46c0-.09.1-.14.3-.14Z"/><path class="cls-10" d="M870.77,431.48c.5.28.75.48.75.57a20.56,20.56,0,0,1-1,3.55,42.11,42.11,0,0,1-2.76,6.41,28.24,28.24,0,0,1-4.41,6.18,7.94,7.94,0,0,1-5.9,2.78,7.53,7.53,0,0,1-4.55-1.78q-2.32-1.79-3.36-6.19c-.4.48-.87,1-1.42,1.64a9.36,9.36,0,0,1-2.09,1.7,13.34,13.34,0,0,1-3,1.35,13.61,13.61,0,0,1-4.25.57,9.35,9.35,0,0,1-5.6-1.56,11,11,0,0,1-3.36-3.84,16.62,16.62,0,0,1-1.64-4.62,22.07,22.07,0,0,1-.45-4.06,23.63,23.63,0,0,1,1.64-8.32A28.22,28.22,0,0,1,834,418a24.89,24.89,0,0,1,6.86-5.83,17.19,17.19,0,0,1,8.74-2.28,11.74,11.74,0,0,1,5.15.93c1.24.62,2.41,1.25,3.51,1.92a2.14,2.14,0,0,0,.37-.93,2.5,2.5,0,0,1,.23-.78,7.42,7.42,0,0,1,1.34.64,17.69,17.69,0,0,1,2.54,1.71,18.5,18.5,0,0,1,2.39,2.27,3.83,3.83,0,0,1,1,2.49,5.67,5.67,0,0,1-.45,2.21c-.29.71-.64,1.44-1,2.2h-.15c-.8,1.42-1.67,3-2.61,4.62s-1.82,3.35-2.62,5.05a39.84,39.84,0,0,0-2,5.26,18,18,0,0,0-.82,5.27c0,3.13.69,4.69,2.09,4.69s3.18-1.3,5.37-3.91,4.18-6.57,6-11.88c0-.09.09-.14.29-.14Zm-21.5,8.82a32.73,32.73,0,0,1,1.64-10,89.53,89.53,0,0,1,3.29-8.82,14.88,14.88,0,0,0-2.84-2.34,6.1,6.1,0,0,0-3.28-.93,10,10,0,0,0-5.15,1.57,21.07,21.07,0,0,0-4.86,4.05,22.12,22.12,0,0,0-3.66,5.62,15.13,15.13,0,0,0-1.41,6.26,22.06,22.06,0,0,0,.22,3.13,8.18,8.18,0,0,0,1,3,6.25,6.25,0,0,0,2.23,2.28,7.71,7.71,0,0,0,4,.85,9.52,9.52,0,0,0,4.78-1.28A14.88,14.88,0,0,0,849.27,440.3Zm-2.09-47.65a20.43,20.43,0,0,0,1.42,1.92l1.42,1.78,1.27,1.21a14.2,14.2,0,0,0,2.16,1.64,13.23,13.23,0,0,0,3.29,1.42,16.47,16.47,0,0,0,4.62.57,20,20,0,0,0,4.63-.5c1.4-.33,2.24-.55,2.54-.64h.15v.14c0,.19.05.29.15.29.2.47.3.64.3.49V401c0,.2-.35.46-1,.79a18.67,18.67,0,0,1-2.76,1c-1.14.34-2.44.64-3.88.93a23.83,23.83,0,0,1-4.55.42,20.26,20.26,0,0,1-3.81-.42,21.29,21.29,0,0,1-4.18-1.28,10.65,10.65,0,0,1-3.44-2.28,4.68,4.68,0,0,1-1.42-3.41,2.3,2.3,0,0,1,.45-1.35q.45-.65,1-1.35A7.73,7.73,0,0,1,847.18,392.65Z"/><path class="cls-10" d="M909,405.88c-.5.19-1.29.48-2.39.85s-2.26.81-3.5,1.28-2.45,1-3.59,1.57a15.9,15.9,0,0,0-2.61,1.56c-.5-1.14-.9-2.13-1.2-3a25,25,0,0,1-.74-2.64,11.45,11.45,0,0,1-.3-2.48,3.23,3.23,0,0,1,1-1.85,10.31,10.31,0,0,1,4.26-2.28q0-.14,1.71-.57c1.15-.28,2.59-.59,4.33-.92s3.66-.64,5.75-.93a45,45,0,0,1,6-.42,46.62,46.62,0,0,1,6.8.49q3.36.51,6.79,1.21a47.06,47.06,0,0,1,13.44-8.46,35.63,35.63,0,0,1,13-2.63,31.93,31.93,0,0,1,4.25.28l3.81.57c.6.19,1.49.45,2.69.79A12.39,12.39,0,0,1,972,390a11.44,11.44,0,0,1,3.14,3.27,9.4,9.4,0,0,1,1.34,5.19,9.74,9.74,0,0,1-1.86,6.12,14.05,14.05,0,0,1-4.56,3.84,20.16,20.16,0,0,1-5.6,2,26.63,26.63,0,0,1-5,.57,42,42,0,0,1-7.17-.57A60.06,60.06,0,0,1,946,409q-3-.86-5.67-1.78c-1.79-.61-3.49-1.11-5.08-1.49a53.84,53.84,0,0,0-11.35,13.86,33.35,33.35,0,0,0-4.62,16.86q0,7.25,3.13,10.74t9,3.48a19.7,19.7,0,0,0,8.73-2,37.55,37.55,0,0,0,7.47-4.76,40.85,40.85,0,0,0,9-10.46c1-2.75,2-5.47,3.06-8.18s2-5.09,2.84-7.18a51.53,51.53,0,0,1,2.32-5.05c.69-1.28,1.24-1.92,1.64-1.92a7.1,7.1,0,0,1,5.07,2,5.63,5.63,0,0,1,2.09,4,3.18,3.18,0,0,1-.29,1.42q-1.35,2.41-3,5.12t-3.06,5.62A41.54,41.54,0,0,0,965,435a18.14,18.14,0,0,0-.89,5.4,5.74,5.74,0,0,0,.45,2.49c.3.62,1,.92,2.09.92q2.54,0,6.34-2.91t6.8-9.46v-.14h.15l.29-.14a1.33,1.33,0,0,1,.9.42.41.41,0,0,1,.15.29,31.53,31.53,0,0,1-3.14,8.1,22.56,22.56,0,0,1-4.77,5.55,11.52,11.52,0,0,1-7.77,2.56,8.72,8.72,0,0,1-2.83-.5,6.9,6.9,0,0,1-2.84-1.92q-2.83,6.12-5.83,11.38,3.43.57,7,.93t6.87.35a42.88,42.88,0,0,0,12.32-1.64,46.6,46.6,0,0,0,8.59-3.34,11.21,11.21,0,0,0,1.86-1.06l3.06-2c1.1-.72,2.14-1.45,3.14-2.21a14,14,0,0,0,2.09-1.85c.1,0,.35.29.74.85a14.6,14.6,0,0,1,1.2,2.14,20.45,20.45,0,0,1,1,2.77,9.29,9.29,0,0,1,.45,2.63q0,2.85-3.36,4.84a32.83,32.83,0,0,1-7.91,3.27,56.89,56.89,0,0,1-9.41,1.78c-3.23.33-5.85.5-7.84.5a71.24,71.24,0,0,1-11.79-1.21q-5.53-1.08-10.75-2.35a12.71,12.71,0,0,1-6,6,16.89,16.89,0,0,1-6.79,1.71l-1.72-.07a9.39,9.39,0,0,1-3-.71,8.08,8.08,0,0,1-2.83-2,5.51,5.51,0,0,1-1.27-3.91,7.29,7.29,0,0,1,1.79-5.2,8.34,8.34,0,0,1,3.73-2.48,24.18,24.18,0,0,1-4.48.42,18.36,18.36,0,0,1-8.88-1.92,15.53,15.53,0,0,1-5.53-4.9,19.57,19.57,0,0,1-2.83-6.4,27.34,27.34,0,0,1-.82-6.41A40,40,0,0,1,916.38,419,72.15,72.15,0,0,1,925,404.46c-3.29,0-6.27.12-9,.35A50.32,50.32,0,0,0,909,405.88Zm23.3,56.46a2.94,2.94,0,0,0,1.41,2.71,7.13,7.13,0,0,0,3.66.85,8.19,8.19,0,0,0,4.11-1.28,13.36,13.36,0,0,0,4.25-4.84c-1.29-.47-2.53-.9-3.73-1.28a12.22,12.22,0,0,0-3.73-.57,9.41,9.41,0,0,0-4,.93A3.47,3.47,0,0,0,932.29,462.34Zm16.42-14.79a33.85,33.85,0,0,1-5.6,4.2,23.22,23.22,0,0,1-7.54,2.91,5.73,5.73,0,0,1,1.49-.14,26.14,26.14,0,0,1,5.3.5c1.65.33,3.36.64,5.16.92a58.28,58.28,0,0,0,2.53-6q1.2-3.27,2.54-6.26-.9,1-1.86,1.92Zm17.92-48.35a14.51,14.51,0,0,0-9.41-3.13,24.35,24.35,0,0,0-7.76,1.35,37.61,37.61,0,0,0-7.92,3.77q4.49,1.85,9,3.48a26.55,26.55,0,0,0,9,1.64,12.11,12.11,0,0,0,2.39-.64,16,16,0,0,0,2.54-1.21,9.94,9.94,0,0,0,2-1.57,2.45,2.45,0,0,0,.82-1.7A3.84,3.84,0,0,0,966.63,399.2Z"/><path class="cls-10" d="M986.49,448.26a6.94,6.94,0,0,1-6.35-3.2,13.2,13.2,0,0,1-2-7.18,29.58,29.58,0,0,1,1.35-8.68,81.54,81.54,0,0,1,3-8.24q1.65-3.84,3.06-6.83a22.44,22.44,0,0,0,1.72-4.41c-.1.19.23.43,1,.71a14.33,14.33,0,0,1,2.47,1.28,12,12,0,0,1,2.53,2.21,5,5,0,0,1,1.2,3.48,6,6,0,0,1-1.64,3.7q-2.55,4.54-5.15,9.67a21.27,21.27,0,0,0-2.62,9.67,6.22,6.22,0,0,0,.45,2.56c.3.66,1,1,2.09,1q2.54,0,6.27-2.92t6.72-9.46l.3-.14a1.42,1.42,0,0,1,1,.43l.3.28c0-.09-.22.69-.67,2.35a23.23,23.23,0,0,1-2.46,5.54,21.59,21.59,0,0,1-4.86,5.62A11.54,11.54,0,0,1,986.49,448.26Zm13.58-42.81a6.21,6.21,0,0,1-2.24,2.56,5.5,5.5,0,0,1-3.13,1,3.25,3.25,0,0,1-3-1.42,6,6,0,0,1-.89-3.27,5,5,0,0,1,1.41-3.7,5.15,5.15,0,0,1,6.95-.14,4.15,4.15,0,0,1,1.34,3.12A3.86,3.86,0,0,1,1000.07,405.45Z"/><path class="cls-10" d="M1042.77,431.48c.5.28.75.48.75.57a19.57,19.57,0,0,1-1,3.55,42.11,42.11,0,0,1-2.76,6.41,28.24,28.24,0,0,1-4.41,6.18,7.94,7.94,0,0,1-5.9,2.78,7.53,7.53,0,0,1-4.55-1.78q-2.31-1.79-3.36-6.19c-.4.48-.87,1-1.42,1.64a9.36,9.36,0,0,1-2.09,1.7,13.26,13.26,0,0,1-3,1.35,13.72,13.72,0,0,1-4.26.57,9.35,9.35,0,0,1-5.6-1.56,11,11,0,0,1-3.36-3.84,16.94,16.94,0,0,1-1.64-4.62,22.07,22.07,0,0,1-.45-4.06,23.63,23.63,0,0,1,1.64-8.32A28.22,28.22,0,0,1,1006,418a24.79,24.79,0,0,1,6.87-5.83,17.13,17.13,0,0,1,8.73-2.28,11.71,11.71,0,0,1,5.15.93c1.25.62,2.41,1.25,3.51,1.92a2.14,2.14,0,0,0,.37-.93,2.5,2.5,0,0,1,.23-.78,6.78,6.78,0,0,1,1.34.64,17.69,17.69,0,0,1,2.54,1.71,17.87,17.87,0,0,1,2.39,2.27,3.83,3.83,0,0,1,1,2.49,5.66,5.66,0,0,1-.44,2.21c-.3.71-.65,1.44-1,2.2h-.15c-.8,1.42-1.67,3-2.61,4.62s-1.82,3.35-2.61,5.05a39.89,39.89,0,0,0-2,5.26,18,18,0,0,0-.82,5.27c0,3.13.69,4.69,2.09,4.69s3.18-1.3,5.38-3.91,4.18-6.57,6-11.88c0-.09.1-.14.3-.14Zm-21.5,8.82a32.45,32.45,0,0,1,1.65-10,87.22,87.22,0,0,1,3.28-8.82,14.58,14.58,0,0,0-2.84-2.34,6.07,6.07,0,0,0-3.28-.93,10,10,0,0,0-5.15,1.57,21.07,21.07,0,0,0-4.86,4.05,21.82,21.82,0,0,0-3.65,5.62,15,15,0,0,0-1.42,6.26,22.06,22.06,0,0,0,.22,3.13,8.18,8.18,0,0,0,1,3,6.2,6.2,0,0,0,2.24,2.28,7.65,7.65,0,0,0,4,.85,9.49,9.49,0,0,0,4.78-1.28A14.88,14.88,0,0,0,1021.27,440.3ZM1038,392.65c.09,0,.32.2.67.57s.72.81,1.12,1.28a8.35,8.35,0,0,1,1,1.64,3.66,3.66,0,0,1,.45,1.49,3.77,3.77,0,0,1-1.49,3.06,13,13,0,0,1-3.51,2,21,21,0,0,1-4.26,1.14,24.11,24.11,0,0,1-3.73.35,23.83,23.83,0,0,1-4.55-.42c-1.45-.29-2.74-.59-3.89-.93a19.1,19.1,0,0,1-2.76-1c-.7-.33-1-.59-1-.79l.3-.56c0-.1,0-.15.07-.15s.08,0,.08-.14l.14-.14c.3.09,1.15.31,2.54.64a20.16,20.16,0,0,0,4.63.5,16.6,16.6,0,0,0,4.63-.57,13.15,13.15,0,0,0,3.28-1.42,14.34,14.34,0,0,0,2.17-1.64l1.27-1.21,1.42-1.78A22.42,22.42,0,0,0,1038,392.65Z"/><path class="cls-10" d="M1074.43,420.1a7.43,7.43,0,0,1,.15,1.35v1.36a21.52,21.52,0,0,1-2.32,9.74,38.16,38.16,0,0,1-4.7,7.46,4.28,4.28,0,0,0,1.79.29,6.57,6.57,0,0,0,2.54-.5,16.23,16.23,0,0,0,2.24-1.14c.69-.42,1.29-.8,1.79-1.13a2.35,2.35,0,0,1,1.19-.5c.3,0,.45.23.45.71a4.09,4.09,0,0,1-.52,1.63,7.85,7.85,0,0,1-1.64,2.14,9.47,9.47,0,0,1-3.14,1.85,13.44,13.44,0,0,1-4.85.78,10.87,10.87,0,0,1-3.73-.71,17.4,17.4,0,0,1-3.51,2.91,11.12,11.12,0,0,1-6.5,1.92,10.18,10.18,0,0,1-5.3-1.28,10.8,10.8,0,0,1-3.51-3.27,15.25,15.25,0,0,1-2-4.26,15.52,15.52,0,0,1-.68-4.41,23.88,23.88,0,0,1,1.95-9.89,35.47,35.47,0,0,1,4.4-7.47,26.48,26.48,0,0,1,4.85-4.9,14.57,14.57,0,0,1,3.29-2.06,1.7,1.7,0,0,1,.82.35,9.33,9.33,0,0,1,1.72,2.21,18,18,0,0,1,2.68-1.57,9.17,9.17,0,0,1,3.89-.71,7.27,7.27,0,0,1,4,1.07,9.17,9.17,0,0,1,2.61,2.49,11.88,11.88,0,0,1,1.49,3A8.55,8.55,0,0,1,1074.43,420.1Zm-20.31,24.61a7.06,7.06,0,0,0,2.24-.57,12.8,12.8,0,0,0,3.58-2.42,11,11,0,0,1-5.15-6.26,25.82,25.82,0,0,1-1.27-7.82c0-.57,0-1.16.08-1.78s.12-1.21.22-1.78a24.24,24.24,0,0,0-4.25,5.84,15,15,0,0,0-1.72,7.11c0,2.56.54,4.43,1.64,5.61A6.94,6.94,0,0,0,1054.12,444.71Zm12.69-14.65a10.22,10.22,0,0,0,.45-1.85,13.33,13.33,0,0,0,.15-2c0-1.42-.05-2.75-.15-4s-.45-1.95-1-2.14a3.05,3.05,0,0,0-2.24,1.14,12.29,12.29,0,0,0-1.86,2.77,19,19,0,0,0-1.35,3.56,13.77,13.77,0,0,0-.52,3.63,17.21,17.21,0,0,0,.6,4,3.71,3.71,0,0,0,2.39,3,18.24,18.24,0,0,0,2.09-3.55A25,25,0,0,0,1066.81,430.06Z"/><path class="cls-10" d="M1167,401.61a41.63,41.63,0,0,1-1,7.9,78.74,78.74,0,0,1-2.84,10.09,84.63,84.63,0,0,1-4.56,10.6,52.66,52.66,0,0,1-6.12,9.46,31.84,31.84,0,0,1-7.61,6.83,16.58,16.58,0,0,1-9,2.63,9.71,9.71,0,0,1-7.39-2.92,18.7,18.7,0,0,1-4.18-7.54,39.93,39.93,0,0,1-1.64-10.17,69,69,0,0,1,.37-10.73,65.53,65.53,0,0,1,1.72-9.39,21.06,21.06,0,0,1,2.46-6.19c-3.68-1.23-6.55-2.25-8.59-3.06s-3.78-1.46-5.22-2a20.89,20.89,0,0,0-4.26-1.06,43.9,43.9,0,0,0-5.67-.29,15.21,15.21,0,0,0-2.84.29c.3-.19.43-.81.38-1.85a10.44,10.44,0,0,1,.37-3.27,6.67,6.67,0,0,1,1.79-3.06,5.93,5.93,0,0,1,4.33-1.35,18.08,18.08,0,0,1,6.12,1.06,40.49,40.49,0,0,1,5.83,2.64c1.89,1,3.7,2.13,5.45,3.27a53.1,53.1,0,0,0,5.15,3,13,13,0,0,1,4.85-4.9,13.83,13.83,0,0,1,6-2A7.4,7.4,0,0,1,1146,391q2.16,1.56,2.16,5.26a7.47,7.47,0,0,1-2.91,6,10.9,10.9,0,0,1-7.24,2.42,20.38,20.38,0,0,1-4.18-.43,22.28,22.28,0,0,1-3.58-1c-.8.38-1.45,1.63-1.94,3.77a43.63,43.63,0,0,0-1,7.68,88.29,88.29,0,0,0,.08,9.45,64.53,64.53,0,0,0,1.19,9.25,28.44,28.44,0,0,0,2.32,7q1.41,2.78,3.66,2.77a12.43,12.43,0,0,0,8.73-3.55,32.64,32.64,0,0,0,6.64-9.1,60,60,0,0,0,4.56-12.16,91.11,91.11,0,0,0,2.39-12.66,52.51,52.51,0,0,0,.22-10.74c-.3-3.13-1-5.26-2.09-6.4a5.46,5.46,0,0,0,1.2-.14c.39,0,.84,0,1.34-.07a14.87,14.87,0,0,1,1.49-.08,18.23,18.23,0,0,1,2.91.29,4.71,4.71,0,0,1,2.47,1,1.08,1.08,0,0,0,.6.64,2.51,2.51,0,0,1,.89,1.21,12.79,12.79,0,0,1,.75,3.27A58.57,58.57,0,0,1,1167,401.61Zm-23-5.54c0-2-.55-3.25-1.64-3.77a5.3,5.3,0,0,0-3.73-.22,9.76,9.76,0,0,0-3.88,2.14,5.71,5.71,0,0,0-2.09,3.41,26.34,26.34,0,0,0,4,1.64,13.38,13.38,0,0,0,4,.78,2.77,2.77,0,0,0,2.46-1.21A4.78,4.78,0,0,0,1144,396.07Z"/><path class="cls-10" d="M1174.31,448.26a6.92,6.92,0,0,1-6.34-3.2,13.12,13.12,0,0,1-2-7.18,29.9,29.9,0,0,1,1.34-8.68,81.53,81.53,0,0,1,3-8.24q1.63-3.84,3.06-6.83a22.44,22.44,0,0,0,1.72-4.41c-.1.19.22.43,1,.71a13.92,13.92,0,0,1,2.46,1.28,12.06,12.06,0,0,1,2.54,2.21,5,5,0,0,1,1.19,3.48,6,6,0,0,1-1.64,3.7q-2.53,4.54-5.15,9.67a21.37,21.37,0,0,0-2.61,9.67,6.22,6.22,0,0,0,.45,2.56c.3.66,1,1,2.09,1q2.54,0,6.27-2.92t6.72-9.46l.3-.14a1.45,1.45,0,0,1,1,.43l.3.28c0-.09-.22.69-.67,2.35a22.91,22.91,0,0,1-2.47,5.54,21.36,21.36,0,0,1-4.85,5.62A11.55,11.55,0,0,1,1174.31,448.26Zm13.59-42.81a6.28,6.28,0,0,1-2.24,2.56,5.54,5.54,0,0,1-3.14,1,3.23,3.23,0,0,1-3-1.42,6,6,0,0,1-.9-3.27,5,5,0,0,1,1.42-3.7,5.14,5.14,0,0,1,6.94-.14,4.13,4.13,0,0,1,1.35,3.12A3.86,3.86,0,0,1,1187.9,405.45Z"/><path class="cls-10" d="M1222.39,435.18a.81.81,0,0,1,.3.57,32.5,32.5,0,0,1-5.23,7,27.41,27.41,0,0,1-6.5,4.69,19,19,0,0,1-9.18,2.13,12.88,12.88,0,0,1-6.57-1.56,13.53,13.53,0,0,1-4.33-3.91,15.3,15.3,0,0,1-2.31-5.05,20.2,20.2,0,0,1-.67-4.84,26.92,26.92,0,0,1,1.64-9.31,28.4,28.4,0,0,1,4.48-8,23.71,23.71,0,0,1,6.42-5.69,14.39,14.39,0,0,1,7.46-2.13q4.78,0,7.39,2.56a7.65,7.65,0,0,1,2.62,5.55,12.6,12.6,0,0,1-1.35,5.69,15.57,15.57,0,0,1-3.65,4.76,17.51,17.51,0,0,1-5.45,3.27,18,18,0,0,1-6.57,1.21,13.71,13.71,0,0,1-4-.5,5.82,5.82,0,0,1-2.39-1.21,15.39,15.39,0,0,0-.9,5.12,11.05,11.05,0,0,0,2.61,7.18,8.51,8.51,0,0,0,7,3.21,14.57,14.57,0,0,0,6.64-1.71,54.63,54.63,0,0,0,5.3-3,38.36,38.36,0,0,0,3.51-2.7,15.94,15.94,0,0,0,1.87-1.92c.39-.52.67-.9.82-1.14a.63.63,0,0,1,.52-.35A1.32,1.32,0,0,1,1222.39,435.18Zm-23,19.2a.39.39,0,0,0,.15.28.63.63,0,0,0,.08.29.91.91,0,0,1,.07.42,2.85,2.85,0,0,1-1.12,1.78c-.74.71-1.12,2.11-1.12,4.2a2.31,2.31,0,0,0,.15,1h-.89a14.38,14.38,0,0,1-2.09-.21c-.9-.14-1.35-.83-1.35-2.06a2.74,2.74,0,0,1,.75-1.85c.5-.57.74-1.85.74-3.84a2.17,2.17,0,0,0-.29-1,14.8,14.8,0,0,1,2.09.15c.49.09,1,.21,1.64.35A2.69,2.69,0,0,1,1199.39,454.38ZM1227.46,405a.46.46,0,0,0,.23.42c.15.1.22.19.22.29s-.27.38-.82.57a14.34,14.34,0,0,1-3.66.28,19.72,19.72,0,0,1-6.12-1.14,10.86,10.86,0,0,1-5.67-4.41,9.87,9.87,0,0,1-3.44,1.57,15.64,15.64,0,0,1-3.58.43,15.36,15.36,0,0,1-3.66-.43,20.36,20.36,0,0,1-3.06-1,15.57,15.57,0,0,1-2.16-1.06c-.55-.33-.83-.59-.83-.79l.6-.85a20.17,20.17,0,0,0,2.24.64,17.73,17.73,0,0,0,4.48.5,11.29,11.29,0,0,0,4.26-.71,12.4,12.4,0,0,0,2.83-1.57,14.54,14.54,0,0,0,1.79-1.56,2,2,0,0,1,1.42-.71,2.35,2.35,0,0,1,2.17.85,12,12,0,0,1,1,2.06,18.51,18.51,0,0,0,1.19,2.56,5.44,5.44,0,0,0,3,2.21,15.15,15.15,0,0,0,4.78,1.35,25.12,25.12,0,0,1,2.83.36ZM1198.8,422a39.25,39.25,0,0,0-3.74,6.26,7.89,7.89,0,0,0,1.94.14,10,10,0,0,0,4.33-1,14.92,14.92,0,0,0,3.66-2.42,13.34,13.34,0,0,0,2.54-3.06,5.69,5.69,0,0,0,1-2.77c0-1.23-.7-1.85-2.09-1.85a7.7,7.7,0,0,0-3.51,1.07A13.93,13.93,0,0,0,1198.8,422Z"/><path class="cls-10" d="M1268.23,409.58c-1.7-.19-3.61-.33-5.75-.43s-4.51-.14-7.1-.14q-3,0-6.42.21c-2.29.15-4.72.31-7.31.5-1.4,2.66-2.91,5.57-4.56,8.75s-3.16,6.33-4.55,9.46a91.32,91.32,0,0,0-3.43,8.74,22,22,0,0,0-1.35,6.61c0,1.81.8,2.71,2.39,2.71s3.83-.93,6.42-2.78,4.93-4.9,7-9.17l.3-.14a1.27,1.27,0,0,1,.89.43l.3.28a34.36,34.36,0,0,1-3.28,7.75,21.45,21.45,0,0,1-4.86,5.4,11.78,11.78,0,0,1-7.69,2.49,10.18,10.18,0,0,1-2.53-.35,6.6,6.6,0,0,1-2.54-1.35,8,8,0,0,1-2-2.63,9.46,9.46,0,0,1-.82-4.2,30.35,30.35,0,0,1,.9-6.83c.59-2.56,1.34-5.23,2.24-8s1.89-5.57,3-8.32,2.19-5.36,3.29-7.82a11.57,11.57,0,0,1-2.84.71,25.4,25.4,0,0,1-2.54.14,11.15,11.15,0,0,1-6.94-2q-2.61-2-2.61-4.41,0-3.27,4.48-5.55a3.38,3.38,0,0,1,1.94.43c.4.28.59.52.59.71a.38.38,0,0,1-.44.43.73.73,0,0,1-.53-.22,1.21,1.21,0,0,0-.82-.21,3.14,3.14,0,0,0-1.64.57,2.49,2.49,0,0,0-.9,2.27q0,2.85,4,2.85a19.79,19.79,0,0,0,4.7-.64l6.64-1.64q.9-1.85,1.95-4.33t1.94-4.7c.59-1.47,1.24-3.24,1.94-5.33a5.83,5.83,0,0,1,2,.64,15.44,15.44,0,0,1,2.77,1.63,12.32,12.32,0,0,1,2.38,2.35,4.49,4.49,0,0,1,1.05,2.77,5.13,5.13,0,0,1-.45,2.14c-.3.66-.7,1.42-1.19,2.27q5.52-.86,10.22-1.2t8.59-.36a63.8,63.8,0,0,1,8.81.5c2.29.33,3.83.59,4.63.78a9.61,9.61,0,0,1,2.69,1.56,10.13,10.13,0,0,1,1.94,2.21,6.24,6.24,0,0,1,.89,3.48c0,.1,0,.36-.07.79s-.1.87-.15,1.35a4.9,4.9,0,0,1-.3,1.28c-.15.38-.32.56-.52.56a3,3,0,0,1-1.2-.35,19.29,19.29,0,0,0-2.31-.85,34.72,34.72,0,0,0-4.26-1A63.09,63.09,0,0,0,1268.23,409.58Z"/><path class="cls-10" d="M1384.69,392.65a3.69,3.69,0,0,1,.52,2.63,10.43,10.43,0,0,1-.82,2.78,67,67,0,0,0-3.44,6.54q-2.09,4.41-4.48,10t-4.77,11.8c-1.6,4.13-3.06,8.06-4.41,11.81s-2.41,7.11-3.21,10.09a28.65,28.65,0,0,0-1.19,6.62q-6.72-.15-11.2-6.76t-6.87-17.85a84,84,0,0,1-5.82,10.88,38,38,0,0,1-7.17,8.39,29.93,29.93,0,0,1-9.11,5.41,32.31,32.31,0,0,1-11.49,1.92q-11.06,0-17.77-6.33t-6.72-19a38.77,38.77,0,0,1,8.66-24.39,33.32,33.32,0,0,1,9.48-8,26.15,26.15,0,0,1,11.72-3.35,17.17,17.17,0,0,1,5.23.72,19.72,19.72,0,0,1,4,1.7,31.06,31.06,0,0,1,3.14,2.07,13.25,13.25,0,0,0,2.76,1.63,2.28,2.28,0,0,1-1.12,1.92,9.88,9.88,0,0,1-2.69,1.28,25.56,25.56,0,0,1-3.13.78l-2.32.43q-1.93-3.56-6.71-3.56a22.65,22.65,0,0,0-9.41,2.35,24.9,24.9,0,0,0-8.51,6.33,30,30,0,0,0-5.83,9.17,29.21,29.21,0,0,0-1.49,9.75,30,30,0,0,0,1,8,20,20,0,0,0,3.28,6.83,16.15,16.15,0,0,0,5.82,4.76,19.78,19.78,0,0,0,8.81,1.78,26.71,26.71,0,0,0,12-2.49,28,28,0,0,0,8.51-6.4,35,35,0,0,0,5.75-8.75,102.09,102.09,0,0,0,3.88-9.53c.9-2.56,1.74-5.09,2.54-7.61s1.57-4.83,2.32-7,1.42-4.06,2-5.76,1-3,1.35-4v-.14c.3-1.23.59-2.37.89-3.41s.4-1.92.6-2.92.35-1.82.45-2.49q3,1.42,4.63,2.42c1.09.67,2.11,1.35,3.06,2.06s1.42,1.26,1.42,1.64a6.43,6.43,0,0,1-.53,2.2c-.35.91-.62,1.69-.82,2.35.1,0,.15,0,.15.14a79.74,79.74,0,0,0-4.78,12.16,49.73,49.73,0,0,0-2.24,14.86,33,33,0,0,0,1.8,11.6,30.29,30.29,0,0,0,4.33,8,29.76,29.76,0,0,1,1.34-6.82c.89-3.23,2-6.85,3.36-10.89s2.81-8.17,4.4-12.44,3-8.18,4.33-11.73,2.37-6.43,3.21-8.61,1.22-3.17,1.12-3l1-3a28.77,28.77,0,0,0,1.19-4.69c1.2.47,2.34.94,3.44,1.42.89.47,1.79,1,2.68,1.56A4.33,4.33,0,0,1,1384.69,392.65Z"/><path class="cls-10" d="M1419.77,431.48c.5.28.75.48.75.57a20.56,20.56,0,0,1-1,3.55,42.11,42.11,0,0,1-2.76,6.41,28.24,28.24,0,0,1-4.41,6.18,7.94,7.94,0,0,1-5.9,2.78,7.53,7.53,0,0,1-4.55-1.78q-2.31-1.79-3.36-6.19c-.4.48-.87,1-1.42,1.64a9.36,9.36,0,0,1-2.09,1.7,13.46,13.46,0,0,1-3,1.35,13.72,13.72,0,0,1-4.26.57,9.35,9.35,0,0,1-5.6-1.56,11,11,0,0,1-3.36-3.84,16.94,16.94,0,0,1-1.64-4.62,22.07,22.07,0,0,1-.45-4.06,23.63,23.63,0,0,1,1.64-8.32A28.22,28.22,0,0,1,1383,418a24.79,24.79,0,0,1,6.87-5.83,17.13,17.13,0,0,1,8.73-2.28,11.71,11.71,0,0,1,5.15.93c1.24.62,2.41,1.25,3.51,1.92a2.14,2.14,0,0,0,.37-.93,2.5,2.5,0,0,1,.23-.78,7.09,7.09,0,0,1,1.34.64,17.69,17.69,0,0,1,2.54,1.71,17.87,17.87,0,0,1,2.39,2.27,3.83,3.83,0,0,1,1,2.49,5.85,5.85,0,0,1-.44,2.21c-.3.71-.65,1.44-1,2.2h-.15c-.8,1.42-1.67,3-2.61,4.62s-1.82,3.35-2.61,5.05a39.89,39.89,0,0,0-2,5.26,18,18,0,0,0-.82,5.27c0,3.13.69,4.69,2.09,4.69s3.18-1.3,5.37-3.91,4.18-6.57,6-11.88c0-.09.09-.14.3-.14Zm-21.5,8.82a32.73,32.73,0,0,1,1.64-10,89.53,89.53,0,0,1,3.29-8.82,14.58,14.58,0,0,0-2.84-2.34,6.07,6.07,0,0,0-3.28-.93,10,10,0,0,0-5.15,1.57,21.07,21.07,0,0,0-4.86,4.05,21.82,21.82,0,0,0-3.65,5.62,15,15,0,0,0-1.42,6.26,22.06,22.06,0,0,0,.22,3.13,8.18,8.18,0,0,0,1,3,6.2,6.2,0,0,0,2.24,2.28,7.65,7.65,0,0,0,4,.85,9.52,9.52,0,0,0,4.78-1.28A14.88,14.88,0,0,0,1398.27,440.3Z"/><path class="cls-10" d="M1445.3,445.13a3.9,3.9,0,0,1-2.24,2.78,8,8,0,0,1-2.09.5c-2.39,0-4-.86-4.85-2.56a15.47,15.47,0,0,1-1.27-6.83,33.66,33.66,0,0,1,.6-6.19,47.49,47.49,0,0,1,1.64-6.33q-2.23,4.56-4,8.54t-3.36,6.89a27.63,27.63,0,0,1-3,4.63,3.91,3.91,0,0,1-2.91,1.7c-2.29,0-3.85-.75-4.7-2.27a14,14,0,0,1-1.27-6.69,39.21,39.21,0,0,1,1.57-10.88,73.2,73.2,0,0,1,3.58-9.95c1.35-3,2.56-5.43,3.66-7.33s1.74-2.84,1.94-2.84a7.65,7.65,0,0,1,2.69.57c1,.38,2,.8,3,1.28s2.24,1,3.44,1.7q-1.2,2.28-3.36,5.76c-1.45,2.33-2.86,4.82-4.26,7.47a88.28,88.28,0,0,0-3.73,8.11,20.75,20.75,0,0,0-1.64,7.68q7-12.24,11.79-19.35t6.57-8.81q.9-1.43,1.65-2.85a25.18,25.18,0,0,0,1.94-4.26,6.17,6.17,0,0,1,1.27.64,13.84,13.84,0,0,1,2.31,1.7,24.11,24.11,0,0,1,2.24,2.28,3.76,3.76,0,0,1,1,2.49,11.06,11.06,0,0,1-1.8,5.12c-1.19,2.08-2.49,4.36-3.88,6.82s-2.71,5.1-4,7.9a22.69,22.69,0,0,0-2,8.46q6.27-10.8,10.38-16.57t6.72-9c1.74-2.13,3.08-3.82,4-5.05a13.17,13.17,0,0,0,2.16-4.83,24.6,24.6,0,0,1,3.44,2.27,20.29,20.29,0,0,1,2.24,2.21,3.64,3.64,0,0,1,1,2.34,12.64,12.64,0,0,1-1.72,5.34c-1.14,2.22-2.44,4.62-3.88,7.18a82.33,82.33,0,0,0-3.88,7.82,19,19,0,0,0-1.72,7.54,8,8,0,0,0,.38,2.63,1.5,1.5,0,0,0,1.56,1.07q2.1,0,5.23-2.92t6.12-9.46l.3-.14a1.46,1.46,0,0,1,1,.43l.29.28a20,20,0,0,1-1,2.85,30.53,30.53,0,0,1-2.83,5.47,27.68,27.68,0,0,1-4.48,5.34,8.48,8.48,0,0,1-5.9,2.41,7.2,7.2,0,0,1-5.3-2.63c-1.64-1.75-2.46-4.34-2.46-7.75a29.45,29.45,0,0,1,1.19-8c.8-2.85,1.69-5.55,2.69-8.11q-1.65,2.85-3.66,6.61t-3.88,7.33q-1.87,3.56-3.21,6.18A27.44,27.44,0,0,0,1445.3,445.13Z"/><g id="balloon"><path class="cls-12" d="M1464.93,97.66c-13.73,78.27,22.53,150.05,81,160.3L1590.8,2.05C1532.35-8.2,1478.66,19.38,1464.93,97.66Z"/><path class="cls-3" d="M1590.8,2.05,1545.91,258c58.47,10.25,117-44.89,130.72-123.17S1649.27,12.31,1590.8,2.05Z"/><polygon class="cls-3" points="1526.96 269.5 1548.37 243.94 1559.81 275.26 1526.96 269.5"/><path class="cls-13" d="M1541.81,270.49c-2.61,7.62-5.63,15.12-2.4,23.15,7,17.32,9.84,26.39-3.37,45.4-2.8,4-7.27,10.71-7.76,15.77-2,21.05.91,40.07-6.85,61-3.24,8.74-.55,14.53,4.61,21.2,2.27,2.93,7-.36,4.73-3.33-9.85-12.73,3-30.65,6.66-43.12,5.28-18-5.4-35.62,7.37-54,15.06-21.67-5.6-40.72,2.23-63.56,1.2-3.49-4-6-5.22-2.47Z"/><path class="cls-7" d="M1610.85,230c-9.84,56.1,16.15,107.53,58.05,114.88l32.16-183.4C1659.17,154.12,1620.69,173.88,1610.85,230Z"/><path class="cls-14" d="M1701.06,161.46l-32.16,183.4c41.9,7.35,83.83-32.17,93.66-88.26S1743,168.81,1701.06,161.46Z"/><polygon class="cls-14" points="1655.31 353.14 1670.65 334.81 1678.84 357.26 1655.31 353.14"/><path class="cls-13" d="M1665.21,353.5c-1.91,5.36-3.06,9.19-2.39,14.86,1.67,14.07,7.9,20.35-2.52,35.39s4.3,34.07-7.18,47.86c-2.39,2.86,2,6.6,4.4,3.72,13-15.58-1.85-34.75,9.88-51.73,12-17.34-3.27-30,3-47.63,1.25-3.47-4-6-5.23-2.47Z"/><path class="cls-15" d="M1600.27,228.13a146.77,146.77,0,0,0-2.15,22.14c34.17-16.16,62.93-53.06,75.18-100.24C1640.47,154,1609.45,175.77,1600.27,228.13Z"/><path class="cls-7" d="M1610.85,230c-9.84,56.1,16.15,107.53,58.05,114.88l32.16-183.4C1659.17,154.12,1620.69,173.88,1610.85,230Z"/></g><polygon class="cls-16" points="1705.64 779.42 1804.59 958.07 1661.65 827.61 1705.64 779.42"/><polygon class="cls-17" points="1617.33 876.16 1661.65 827.61 1804.59 958.07 1805 958.77 1617.33 876.16"/><path class="cls-5" d="M1671.43,779.21l-53-142.52a5,5,0,0,1,9.46-3.51l.1.31Z"/><path class="cls-4" d="M1645.82,813.15,1571,740.31a5,5,0,1,1,7-7.22c.12.12.22.23.33.36Z"/><path class="cls-18" d="M1624.84,830.24,1450.4,779a5,5,0,0,1,2.83-9.67l.27.1Z"/><path class="cls-7" d="M1608.83,854l-48.89,5.67a5.06,5.06,0,0,1-1.17-10.06,6.06,6.06,0,0,1,1,0Z"/><path class="cls-6" d="M1695.71,761.4l14.67-69.53a5,5,0,1,1,9.68,2.77Z"/><polygon class="cls-6" points="1567.81 667.37 1578.12 673.31 1579.11 685.16 1587.93 677.18 1599.51 679.93 1594.65 669.04 1600.83 658.89 1588.99 660.16 1581.25 651.13 1578.79 662.78 1567.81 667.37"/><polygon class="cls-5" points="1476.54 837.02 1483.16 833.61 1489.75 837.12 1488.54 829.77 1493.91 824.59 1486.55 823.47 1483.27 816.74 1479.94 823.43 1472.55 824.44 1477.85 829.7 1476.54 837.02"/><polygon class="cls-7" points="1662.34 628.42 1671.48 628.76 1676.42 636.48 1679.54 627.89 1688.41 625.62 1681.21 619.94 1681.77 610.82 1674.18 615.92 1665.66 612.56 1668.18 621.37 1662.34 628.42"/><polygon class="cls-5" points="1581.68 799.12 1588.3 795.7 1594.89 799.21 1593.68 791.85 1599.06 786.68 1591.69 785.56 1588.43 778.83 1585.1 785.5 1577.69 786.53 1582.99 791.78 1581.68 799.12"/><path class="cls-5" d="M1525.27,777.76a11.13,11.13,0,1,0-.71-15.72A11.14,11.14,0,0,0,1525.27,777.76Z"/><path class="cls-18" d="M1669.89,669.2a8,8,0,1,0-.52-11.3A8,8,0,0,0,1669.89,669.2Z"/><path class="cls-18" d="M1657,800.89a8,8,0,1,0-.52-11.33A8,8,0,0,0,1657,800.89Z"/><path class="cls-4" d="M1523.21,850.11a8,8,0,1,0-.53-11.32A8,8,0,0,0,1523.21,850.11Z"/><path class="cls-5" d="M1722.18,761.3a8,8,0,1,0-.51-11.35A8,8,0,0,0,1722.18,761.3Z"/><path class="cls-7" d="M1530.14,707.11a8,8,0,1,0-.5-11.33A8,8,0,0,0,1530.14,707.11Z"/><polygon class="cls-19" points="1720.06 805.46 1726.77 817.57 1668.38 820.23 1680.18 807.29 1720.06 805.46"/><polygon class="cls-19" points="1620.11 877.38 1617.33 876.16 1627.85 864.63 1749.75 859.06 1756.46 871.17 1620.11 877.38"/><polygon class="cls-19" points="1642.21 848.91 1654.01 835.96 1734.91 832.29 1741.62 844.37 1642.21 848.91"/><polygon class="cls-19" points="1733.21 927.19 1707.68 915.95 1779.44 912.68 1786.14 924.77 1733.21 927.19"/><polygon class="cls-19" points="1676.65 902.29 1651.13 891.04 1764.6 885.87 1771.31 897.97 1676.65 902.29"/><polygon class="cls-19" points="1789.77 952.08 1764.24 940.82 1794.3 939.47 1800.99 951.56 1789.77 952.08"/><polygon class="cls-16" points="345.76 869.46 246.81 1048.11 389.74 917.65 345.76 869.46"/><polygon class="cls-17" points="434.07 966.2 389.74 917.65 246.81 1048.11 246.4 1048.81 434.07 966.2"/><path class="cls-5" d="M380,869.24l53-142.51a5,5,0,0,0-9.46-3.52,1.7,1.7,0,0,1-.1.32Z"/><path class="cls-4" d="M405.57,903.19l74.84-72.84a5,5,0,0,0-7-7.22c-.11.12-.22.23-.32.36Z"/><path class="cls-18" d="M426.55,920.28,601,869a5,5,0,0,0-2.84-9.67l-.27.09Z"/><path class="cls-7" d="M442.56,944.07l48.9,5.66a5.06,5.06,0,1,0,1.16-10.05,6,6,0,0,0-1,0Z"/><path class="cls-6" d="M355.69,851.44,341,781.91a5,5,0,1,0-9.88,2.08,3.4,3.4,0,0,0,.2.69Z"/><polygon class="cls-6" points="483.59 757.41 473.28 763.35 472.29 775.2 463.47 767.22 451.89 769.96 456.75 759.08 450.57 748.93 462.4 750.2 470.15 741.17 472.6 752.82 483.59 757.41"/><polygon class="cls-5" points="574.86 927.06 568.23 923.65 561.65 927.16 562.86 919.8 557.48 914.63 564.84 913.51 568.13 906.78 571.46 913.47 578.85 914.47 573.54 919.74 574.86 927.06"/><polygon class="cls-7" points="389.05 718.46 379.91 718.8 374.98 726.52 371.85 717.92 362.99 715.66 370.18 709.98 369.62 700.86 377.21 705.96 385.74 702.6 383.21 711.4 389.05 718.46"/><polygon class="cls-5" points="469.71 889.16 463.09 885.73 456.5 889.25 457.71 881.88 452.34 876.72 459.71 875.6 462.97 868.87 466.3 875.53 473.7 876.57 468.4 881.82 469.71 889.16"/><path class="cls-5" d="M526.13,867.79a11.12,11.12,0,1,1,.71-15.72A11.15,11.15,0,0,1,526.13,867.79Z"/><path class="cls-18" d="M381.51,759.24a8,8,0,1,1,.52-11.3A8,8,0,0,1,381.51,759.24Z"/><path class="cls-18" d="M394.4,890.92a8,8,0,1,1,.52-11.32A8,8,0,0,1,394.4,890.92Z"/><path class="cls-4" d="M528.19,940.15a8,8,0,1,1,.53-11.33A8,8,0,0,1,528.19,940.15Z"/><path class="cls-5" d="M329.21,851.34a8,8,0,1,1,.52-11.36A8,8,0,0,1,329.21,851.34Z"/><path class="cls-7" d="M521.25,797.14a8,8,0,1,1,.51-11.32A8,8,0,0,1,521.25,797.14Z"/><polygon class="cls-19" points="331.33 895.5 324.62 907.61 383.02 910.27 371.22 897.33 331.33 895.5"/><polygon class="cls-19" points="431.29 967.41 434.07 966.2 423.55 954.66 301.64 949.1 294.94 961.2 431.29 967.41"/><polygon class="cls-19" points="409.18 938.95 397.38 926 316.48 922.32 309.78 934.41 409.18 938.95"/><polygon class="cls-19" points="318.19 1017.23 343.71 1005.99 271.96 1002.71 265.25 1014.81 318.19 1017.23"/><polygon class="cls-19" points="374.74 992.33 400.27 981.08 286.8 975.91 280.09 988.01 374.74 992.33"/><polygon class="cls-19" points="261.62 1042.12 287.15 1030.86 257.09 1029.5 250.41 1041.6 261.62 1042.12"/><g id="firework1"><path class="cls-3" d="M1419.49,69.06c7.15.27,11.92,7.31,10.66,15.5-4.31,28.6-8.39,56.86-11.94,84.71-2.75-28-6.08-56.46-9.72-85.43C1407.43,75.54,1412.34,68.8,1419.49,69.06Z"/><path class="cls-4" d="M1338.14,117.17c4.09-2.48,10.26-.22,13.65,5,11.82,18.27,23,36.92,33.23,55.58a623.1,623.1,0,0,0-45.7-48.22C1334.64,125.15,1334,119.63,1338.14,117.17Z"/><path class="cls-5" d="M1257.09,161.48c1.9-5,11.05-6.77,20-3.46a496.54,496.54,0,0,1,86.68,42.49,571.12,571.12,0,0,0-92.67-27C1261.66,171.62,1255.2,166.46,1257.09,161.48Z"/><path class="cls-6" d="M1554.76,173.32c1.4,3.78-3.49,7.69-10.66,9a521.4,521.4,0,0,0-71.44,18.84,442.39,442.39,0,0,1,67-30.56C1546.48,168.2,1553.36,169.56,1554.76,173.32Z"/><path class="cls-7" d="M1535.07,87.9c7.06,5.09,5.69,13.44-2.72,19.21-29.29,20.25-56.91,45.05-81,71.18A764.14,764.14,0,0,1,1511,92.45C1517.16,84.73,1528,82.82,1535.07,87.9Z"/><path class="cls-7" d="M1369.31,59.63c.12,3.26-3,6.05-7,6.34s-7.39-2-7.58-5.27,3-6.15,7.06-6.46S1369.2,56.38,1369.31,59.63Z"/><path class="cls-4" d="M1449.32,147.36c-.21,3.11-3.28,5.46-6.82,5.28s-6.3-2.83-6.16-6,3.19-5.55,6.81-5.34S1449.55,144.25,1449.32,147.36Z"/><path class="cls-4" d="M1437.2,211c-.23,3.11-3.29,5.46-6.82,5.27s-6.3-2.83-6.17-6,3.19-5.55,6.82-5.35S1437.42,207.84,1437.2,211Z"/><path class="cls-6" d="M1339.52,210.05a4.58,4.58,0,0,1-4.49,5.63,7,7,0,0,1-6.83-5.12,4.52,4.52,0,0,1,4.49-5.65A6.72,6.72,0,0,1,1339.52,210.05Z"/><path class="cls-5" d="M1529.3,205.72a7.34,7.34,0,0,1-7.39,4.45c-3.15-.28-5-2.76-4.18-5.58s4.1-4.84,7.35-4.49S1530.22,203,1529.3,205.72Z"/><path class="cls-4" d="M1380.54,93.44c.08,2.39-2.17,4.4-5,4.51s-5.29-1.7-5.41-4.08,2.14-4.44,5-4.56S1380.45,91.05,1380.54,93.44Z"/><path class="cls-5" d="M1459.64,62.15c-.11,2.38-2.64,4-5.62,3.72s-5.31-2.46-5.22-4.85,2.6-4.11,5.61-3.79S1459.77,59.77,1459.64,62.15Z"/><path class="cls-3" d="M1365.24,173.34a4.06,4.06,0,0,1-4.12,4.32,4.8,4.8,0,0,1-5-4c-.29-2.29,1.56-4.24,4.12-4.36A4.73,4.73,0,0,1,1365.24,173.34Z"/><path class="cls-7" d="M1291.23,209c.72,2.1-.57,3.93-2.89,4.1a5.82,5.82,0,0,1-5.62-3.4c-.78-2.06.53-3.9,2.91-4.12A5.6,5.6,0,0,1,1291.23,209Z"/><path class="cls-5" d="M1312.9,144.5c.39,2.24-1.46,4.29-4.13,4.59s-5.21-1.21-5.65-3.42,1.43-4.29,4.15-4.63S1312.5,142.27,1312.9,144.5Z"/><path class="cls-5" d="M1462.5,217.67a4.68,4.68,0,0,1-4.66,3.88,3.64,3.64,0,0,1-3.55-4.17,4.55,4.55,0,0,1,4.64-3.9A3.63,3.63,0,0,1,1462.5,217.67Z"/><path class="cls-3" d="M1470.78,95.19c-.24,3-3.37,5-7,4.61s-6.43-3-6.24-6,3.29-5.11,7-4.69S1471,92.25,1470.78,95.19Z"/><path class="cls-4" d="M1522.8,133.29c4-3.77,8.1-7.45,12.2-11q3.66,7.44,7,14.7Q1532.42,135,1522.8,133.29Z"/><path class="cls-4" d="M1405.5,176.4q8.22,2.83,16.24,5.79-6.73,5-13.19,10.08C1407.57,187,1406.54,181.71,1405.5,176.4Z"/><path class="cls-7" d="M1301.21,111.72q-5.48-6.31-11-12.43,10.17-1.37,20.28-2.37Q1305.71,104.38,1301.21,111.72Z"/><path class="cls-5" d="M1317.7,52.5c1.55,1.93,3.11,3.87,4.66,5.82q4.65-.18,9.29-.27l-6.27,6,2.16,6.92q-4.21-1.12-8.45-2.18c-2.62,1.53-5.22,3.08-7.83,4.63.27-2.43.57-4.86.86-7.3-2.37-1.28-4.75-2.55-7.13-3.79,3-.92,6.07-1.81,9.12-2.67Q1315.88,56.09,1317.7,52.5Z"/><path class="cls-3" d="M1395.92,200q2.34,2.9,4.67,5.82,4.64-.18,9.3-.28c-2.12,2-4.19,4-6.27,6,.71,2.3,1.44,4.61,2.15,6.91-2.8-.75-5.63-1.48-8.45-2.17q-3.93,2.3-7.83,4.62c.28-2.42.55-4.85.86-7.29-2.38-1.29-4.75-2.56-7.13-3.79q4.54-1.38,9.12-2.67C1393.51,204.79,1394.71,202.4,1395.92,200Z"/><path class="cls-3" d="M1410.09,353c-2.69,0-5-6-5-13.44.14-25.94,1.38-52.37,3.45-79.27,2.8,26.91,4.9,53.33,6,79.23C1414.83,346.93,1412.77,353,1410.09,353Z"/><path class="cls-4" d="M1453.6,310.58c-2.81,2-5.37-.31-6-5.26a307.35,307.35,0,0,0-12.38-53.17c9.2,16.16,16.44,31.92,21.3,47C1457.89,303.48,1456.41,308.56,1453.6,310.58Z"/><path class="cls-5" d="M1519,277.62c-4.59,4.3-10.44,4.73-13.75.64-11.64-14.22-27.77-30.37-47.56-47.3,23.31,12.06,43.79,23.73,61,33.83C1523.66,267.71,1523.56,273.32,1519,277.62Z"/><path class="cls-6" d="M1308.9,268.39c-3.44-3.46-3.17-8.09.93-10.49,14.19-8.29,30.3-17.32,48.1-26.52a383.43,383.43,0,0,0-37.86,37.33C1317.18,272.06,1312.34,271.84,1308.9,268.39Z"/><path class="cls-7" d="M1364.42,347.3c-4.22-3.54-8.29-11.73-7.87-18.53,1.54-23.7,10.53-49.4,25-76.13-8.83,30.08-13.15,59.15-11.23,86.78C1370.83,347.36,1368.67,350.82,1364.42,347.3Z"/><path class="cls-7" d="M1427.94,361c.43-2.86,2-5.26,3.5-5.4s2.24,2,1.63,4.87-2.18,5.27-3.5,5.43S1427.5,363.8,1427.94,361Z"/><path class="cls-4" d="M1388.16,282.32c-.33-3,1.41-5.37,3.88-5.36s4.65,2.45,4.85,5.43-1.54,5.38-3.88,5.35S1388.5,285.29,1388.16,282.32Z"/><path class="cls-6" d="M1483.32,223.39a6.65,6.65,0,0,1,6.69-5,4.32,4.32,0,0,1,4.2,5.54,6.92,6.92,0,0,1-6.71,5A4.36,4.36,0,0,1,1483.32,223.39Z"/><path class="cls-5" d="M1306,232.87a3.79,3.79,0,0,1,3.6-5.37,7.43,7.43,0,0,1,7,5c.9,2.87-.68,5.28-3.55,5.36A7.86,7.86,0,0,1,1306,232.87Z"/><path class="cls-4" d="M1427.87,330.74c.23-2.15,1.56-3.95,3-4s2.29,1.63,2,3.77-1.65,3.94-3,4S1427.65,332.9,1427.87,330.74Z"/><path class="cls-5" d="M1396.19,361.43c-.35-2.14.26-3.81,1.37-3.76s2.19,1.82,2.44,3.95-.35,3.82-1.35,3.76S1396.54,363.55,1396.19,361.43Z"/><path class="cls-3" d="M1450.09,257a4.53,4.53,0,0,1,4.23-3.95,3.16,3.16,0,0,1,3,4A4.67,4.67,0,0,1,1453,261C1451.1,261,1449.77,259.22,1450.09,257Z"/><path class="cls-7" d="M1527,229.73a5.72,5.72,0,0,1,5.47-3.35c2.24.16,3.38,1.91,2.52,3.89a6,6,0,0,1-5.48,3.34A2.69,2.69,0,0,1,1527,229.73Z"/><path class="cls-5" d="M1477.15,287.17c.67-2.09,2.66-3.84,4.43-3.89s2.62,1.58,1.86,3.66-2.76,3.82-4.46,3.89S1476.47,289.27,1477.15,287.17Z"/><path class="cls-5" d="M1362.58,214.23a3.63,3.63,0,0,1,3.63-4.19,4.63,4.63,0,0,1,4.65,4,3.65,3.65,0,0,1-3.61,4.17A4.76,4.76,0,0,1,1362.58,214.23Z"/><path class="cls-3" d="M1385.79,332.48c-.53-2.72.48-4.86,2.24-4.79s3.52,2.33,3.91,5.07-.61,4.88-2.24,4.8S1386.32,335.2,1385.79,332.48Z"/><path class="cls-4" d="M1348.88,302.49q-.5,6.21-.52,12.3-5.17-6.56-10.67-13Q1343.29,302.16,1348.88,302.49Z"/><path class="cls-4" d="M1418.58,253.29q-6.52-2.73-13.3-5.45,5.38-5,11.16-10Q1417.57,245.6,1418.58,253.29Z"/><path class="cls-7" d="M1469.58,318.2q-.22,6.23-.94,12.34c-2.93.12-5.89.21-8.86.25C1462.92,326.58,1466.19,322.37,1469.58,318.2Z"/><path class="cls-5" d="M1441.87,369.74q.35-2.72.62-5.46l-2.77-.4c1.18-1.62,2.4-3.25,3.64-4.87.48-2.09.94-4.18,1.4-6.27.71.86,1.4,1.7,2.06,2.52,1.32-1.15,2.68-2.3,4.06-3.47l-2.86,6.4c.24,1.35.44,2.68.59,4-1.14.53-2.28,1-3.4,1.55Q1443.5,366.76,1441.87,369.74Z"/></g></g></g></svg>