<svg xmlns="http://www.w3.org/2000/svg" viewBox="0 0 420.61 407.17"><defs><style>.cls-1,.cls-31{fill:#fff;}.cls-1,.cls-10,.cls-11,.cls-12,.cls-13,.cls-14,.cls-15,.cls-16,.cls-17,.cls-18,.cls-19,.cls-2,.cls-20,.cls-21,.cls-22,.cls-24,.cls-25,.cls-26,.cls-27,.cls-28,.cls-29,.cls-3,.cls-30,.cls-4,.cls-5,.cls-6,.cls-7,.cls-8,.cls-9{fill-rule:evenodd;}.cls-2{fill:#dfa181;}.cls-3{fill:#fce6d7;}.cls-4{fill:#f8ccb1;}.cls-5{fill:#f6be9d;}.cls-6{fill:#f3ab8c;}.cls-7{fill:#fcb187;}.cls-23,.cls-8{fill:#2f221f;}.cls-9{fill:#f58e74;}.cls-10{fill:#402d2a;}.cls-11{fill:#4c3733;}.cls-12{fill:#dc5c4e;}.cls-13{fill:#f4f4f4;}.cls-14{fill:#ffe4d5;}.cls-15{fill:#ebbdb0;}.cls-16{fill:#3a2926;}.cls-17{fill:#7c564c;}.cls-18{fill:#6e4c45;}.cls-19{fill:#85181b;}.cls-20{fill:#c21b1b;}.cls-21{fill:#ff4545;}.cls-22{fill:#c02e30;}.cls-24{fill:#568a94;}.cls-25{fill:#83bcc7;}.cls-26{fill:#b8e7f0;}.cls-27{fill:#92c9d3;}.cls-28{fill:#282b3d;}.cls-29{fill:#c24c3e;}.cls-30{fill:#ffc29e;}.cls-31{font-size:28.9px;font-family:OpenSans-Extrabold, OpenSans Extrabold;font-weight:800;}</style></defs><g id="Layer_2" data-name="Layer 2"><g id="OBJECTS"><path class="cls-1" d="M67.61,332A67.81,67.81,0,0,1,0,264.4H0a67.8,67.8,0,0,1,67.61-67.61h0a28.66,28.66,0,0,0,28.58-28.58h0a28.66,28.66,0,0,0-28.58-28.59h-3.4A29.81,29.81,0,0,1,34.49,109.9h0A29.8,29.8,0,0,1,64.21,80.18H74.64A11.6,11.6,0,0,0,86.21,68.61h0A11.6,11.6,0,0,0,74.64,57H67a8,8,0,0,1-8-8h0a8,8,0,0,1,8-8h51.56a12.58,12.58,0,0,0,12.54-12.55h0A12.58,12.58,0,0,0,118.53,16H103.11a8,8,0,0,1-8-8h0a8,8,0,0,1,8-8h219.4a10.45,10.45,0,0,1,10.42,10.42h0a10.45,10.45,0,0,1-10.42,10.42H306.43a16.42,16.42,0,0,0-16.37,16.37h0a16.42,16.42,0,0,0,16.37,16.38h67.79A10.45,10.45,0,0,1,384.64,64h0a10.45,10.45,0,0,1-10.42,10.42h-10a15.14,15.14,0,0,0-15.1,15.09h0a15.14,15.14,0,0,0,15.1,15.1h13.62a38.89,38.89,0,0,1,38.78,38.78h0a38.9,38.9,0,0,1-38.78,38.79h-4.44a37.4,37.4,0,0,0-37.3,37.3h0a37.41,37.41,0,0,0,37.3,37.3H383a37.71,37.71,0,0,1,37.61,37.61h0A37.72,37.72,0,0,1,383,332ZM349.17,20.84a10.42,10.42,0,1,0-10.42-10.42,10.41,10.41,0,0,0,10.42,10.42ZM44.56,57a8,8,0,1,0-8-8A8,8,0,0,0,44.56,57Z"/><polygon class="cls-2" points="160.27 75.53 156.56 92.55 119.25 59.8 159.17 71.46 160.27 75.53"/><path class="cls-3" d="M156.56,92.55,142.17,79.92a24,24,0,0,0-.57-3.07L154,80.75Z"/><polygon class="cls-4" points="119.25 59.8 171.09 71.72 160.27 75.53 119.25 59.8"/><polygon class="cls-4" points="119.25 59.8 141.4 92.02 153.98 80.75 119.25 59.8"/><path class="cls-3" d="M243.13,270.84q2.12-8.32,3.5-16.25t2.06-15.66c1.67-19,0-35.87-4.3-50.82A111.56,111.56,0,0,0,222,146.28a127.27,127.27,0,0,0-32.77-27.16,167.34,167.34,0,0,0-43.18-17.44q-7.73-2-15.65-3.3t-16.07-2.06h0a2.15,2.15,0,0,0-1.61.51,2.2,2.2,0,0,0-.79,1.49v.16c-.16,2.09-3.27,47,11.1,90.68,14.54,44.17,46.9,87,118.05,83.38a2.16,2.16,0,0,0,1.33-.53,2.22,2.22,0,0,0,.71-1.17Zm-129-171a234.36,234.36,0,0,1,25.38,18.55c-5.93,0-19.4.1-25.58.92-.27-9.71,0-16.72.2-19.47Zm-.13,21.6h0c7.16-1,25.33-.94,28-.92,6.58,5.55,13.91,12.22,21.58,20l-47.89,3.87c-1-8.48-1.52-16.28-1.75-23Zm2,25.07,49.55-4a319.89,319.89,0,0,1,21.75,24.94c-9.9,1.18-57.22,6.94-65.51,9.43A236.86,236.86,0,0,1,116,146.52Zm6.33,32.39c8.35-2.55,60.58-8.81,66.48-9.52,5.8,7.52,11.53,15.65,17,24.4l-74.5,9.93a.77.77,0,0,0-.27.07c-2.23-5-4.18-10.19-5.87-15.34q-1.58-4.77-2.87-9.54ZM132,205.77l75.11-10c4.26,6.9,8.37,14.18,12.24,21.83-12.17,1.84-74.27,9.65-74.46,9.68a1,1,0,0,0-.46.17A131.85,131.85,0,0,1,132,205.77Zm13.77,23.52c6.58-.83,64.7-8.16,74.58-9.71,3.3,6.66,6.43,13.59,9.33,20.82-15.12,4.38-64,8.18-64.16,8.19a1,1,0,0,0-.72.37,103.19,103.19,0,0,1-19-19.67ZM167,250.6c7.84-.64,49.71-4.17,63.5-8.23q2.76,7,5.21,14.38c-5.71,1.16-31.25,6.07-47,4.89a1.06,1.06,0,0,0-1,.6A95.46,95.46,0,0,1,167,250.6Zm25.12,13.32c16.25.35,39.38-4.15,44.25-5.14q1.85,5.66,3.47,11.52c-18.47.81-34.25-1.59-47.72-6.38Zm49.34,4.32c-1-3.58-2.09-7.1-3.21-10.57,3.18-5.54,6.59-15.5,8.39-21.11-.06.72-.11,1.44-.18,2.16-.44,5-1.11,10.16-2,15.47q-1.19,6.82-3,14.05Zm5.5-37.16a1.05,1.05,0,0,0-1.07.76s-4.36,14.79-8.56,23.07q-2.39-7.07-5-13.79a207.9,207.9,0,0,0,13.48-35.74,142.11,142.11,0,0,1,1.19,25.7Zm-1.76-29.37a1.06,1.06,0,0,0-.87.78,202.12,202.12,0,0,1-13.11,36c-2.82-6.94-5.85-13.61-9-20C224,215,235,194.68,238.83,178.8c1.25,3.21,2.38,6.52,3.36,9.94a120.37,120.37,0,0,1,3,13Zm-7.41-25.59a1,1,0,0,0-.64.76c-3.15,14.43-13,33.43-16.13,39.25-3.83-7.53-7.88-14.69-12.08-21.48,12.91-18.18,17.2-34.09,18.13-38.08a109,109,0,0,1,10.72,19.55Zm-12.16-21.58a1.09,1.09,0,0,0-.43.66c0,.05-3.26,17.2-17.47,37.5-5.51-8.78-11.26-16.93-17.08-24.47,5.89-8.71,14.15-31.55,15.27-34.67a117.85,117.85,0,0,1,14.4,14.21q2.78,3.27,5.31,6.77Zm-21.4-22.36a1.4,1.4,0,0,0-.18.32c0,.07-8.63,24.43-14.77,34a320.91,320.91,0,0,0-22-25.28c5.2-11.59,7.47-24.75,7.82-26.88q6.71,3.11,13.05,6.81a132.55,132.55,0,0,1,16.09,11.07Zm-31.11-18.77a1.38,1.38,0,0,0-.08.27,118.52,118.52,0,0,1-7.36,25.86c-7.8-8-15.27-14.76-22-20.43a76.81,76.81,0,0,0,3-14.91,173,173,0,0,1,26.44,9.21Zm-28.51-9.74,0,.17a75.28,75.28,0,0,1-2.62,13.79,248,248,0,0,0-25.4-18.8q6.76.67,13.52,1.81Q137.32,101.87,144.56,103.67Z"/><path class="cls-5" d="M217.52,337.89a225.72,225.72,0,0,0-.14-36.67c-4-44.55-22.16-76.33-47.95-97.61s-59.07-32-93.32-34.52a226.91,226.91,0,0,0-36.41.33,1.22,1.22,0,0,0-1.1,1.31s0,.07,0,.11C39,174.27,60.09,375.3,216.59,339A1.18,1.18,0,0,0,217.52,337.89Z"/><path class="cls-3" d="M46.26,175.5a1.12,1.12,0,1,0-.8,2.1c.11,0,12.34,4.58,30.61,14.89-6.26,1.12-20.54,3.77-26.74,5.79a1.13,1.13,0,0,0-.72,1.42,1.11,1.11,0,0,0,1.41.71c7.29-2.37,26.28-5.68,29.11-6.17,7.9,4.57,16.8,10.17,26.26,16.88l-49.31,13a1.12,1.12,0,1,0,.57,2.17l51.11-13.44a340.63,340.63,0,0,1,27.36,22c-10.15,3.09-58.77,18-66.74,22.08a1.12,1.12,0,0,0-.48,1.51,1.1,1.1,0,0,0,1.5.48c8.22-4.21,61.62-20.49,67.66-22.32,7.46,6.76,15,14.18,22.33,22.3l-76,24.24a1.13,1.13,0,0,0,.69,2.15L161,260.69c5.73,6.41,11.37,13.25,16.85,20.52-12.38,4.18-75.77,23.91-76,24a1.11,1.11,0,0,0-.73,1.4,1.12,1.12,0,0,0,1.4.74c.19-.06,66.08-20.56,76.7-24.22q7,9.5,13.62,20c-15,7.39-65.32,20.46-65.47,20.5a1.13,1.13,0,0,0,.56,2.18c.15,0,51-13.25,66.09-20.77q4.18,6.83,8.12,14.06c-5.74,2.26-31.5,12.15-48.14,13.85a1.12,1.12,0,1,0,.23,2.23c17.15-1.75,43.71-12,49-14.1q3,5.71,5.91,11.7a1.12,1.12,0,1,0,2-1q-3-6.27-6.19-12.23c3.31-9.19,5.39-28.1,5.4-28.15a1.12,1.12,0,0,0-2.23-.25c0,.05-1.8,16.26-4.64,25.69q-3.8-6.93-7.84-13.47A217.34,217.34,0,0,0,203.36,261a1.12,1.12,0,0,0-2.24-.16,215.19,215.19,0,0,1-7,40q-6.36-10.08-13.18-19.23c1.37-4,9.48-28.66,10.15-46.1a1.13,1.13,0,0,0-2.25-.09c-.6,15.66-7.35,37.33-9.54,44-5.4-7.14-11-13.86-16.61-20.17,11.66-24.71,11.88-44.13,11.88-44.18a1.12,1.12,0,1,0-2.24-.05c0,.06-.21,18.57-11.27,42.42-7.39-8.14-14.91-15.59-22.39-22.38,4.86-10.93,9.54-39.36,9.56-39.45a1.12,1.12,0,0,0-2.22-.36c0,.08-4.46,27.13-9.1,38.22a341.59,341.59,0,0,0-27.7-22.3c3.58-14.24,3.16-29.79,3.16-29.84a1.12,1.12,0,1,0-2.24.05,125.72,125.72,0,0,1-2.88,28.38c-9.62-6.86-18.69-12.58-26.74-17.25a81.63,81.63,0,0,0,.3-16.31,1.12,1.12,0,1,0-2.23.2,80.84,80.84,0,0,1-.18,14.9C59.27,180.33,46.37,175.54,46.26,175.5Z"/><path class="cls-6" d="M240.9,320.34q-.61-8.37-.58-16.27t.7-15.46c1.66-18.57,6.17-34.59,12.89-48.27a109.56,109.56,0,0,1,28.78-36.49A124.39,124.39,0,0,1,319,183.29a163.42,163.42,0,0,1,44.65-9.4q7.78-.55,15.66-.49t15.85.78h0a2.15,2.15,0,0,1,1.47.77,2.13,2.13,0,0,1,.5,1.57l0,.15c-.22,2.05-4.94,45.92-26.31,85.55-21.62,40.1-60.2,75.88-128.2,60.12a2.15,2.15,0,0,1-1.67-2ZM394.71,177.62A227.22,227.22,0,0,0,367,191.14c5.72,1,18.69,3.43,24.51,5.29,1.93-9.32,2.84-16.14,3.16-18.81Zm-3.59,20.85h0c-6.73-2.19-24.27-5.25-26.89-5.7-7.29,4.22-15.52,9.39-24.25,15.59l45.52,12c2.42-8,4.26-15.45,5.64-21.85Zm-6.25,23.83-47.1-12.39a314.78,314.78,0,0,0-25.27,20.32c9.34,2.84,54,16.53,61.56,20.36a231.27,231.27,0,0,0,10.81-28.29Zm-11.68,30.16c-7.62-3.9-56.91-18.92-62.48-20.62-6.89,6.25-13.81,13.11-20.62,20.6l70.15,22.39a.9.9,0,0,1,.24.12c3-4.49,5.78-9.11,8.31-13.79,1.55-2.88,3-5.79,4.4-8.7Zm-13.91,24.25-70.72-22.58c-5.29,5.92-10.5,12.24-15.56,18.95,11.43,3.87,70,22.08,70.15,22.14a1,1,0,0,1,.42.25,129.24,129.24,0,0,0,15.71-18.76ZM342,297c-6.21-1.92-61-19-70.26-22.18q-6.49,8.78-12.58,18.47c13.83,6.83,60.33,18.9,60.47,18.94a1,1,0,0,1,.63.47A100.68,100.68,0,0,0,342,297Zm-24.1,16.92c-7.45-2-47.23-12.57-59.84-18.86-2.57,4.19-5.08,8.52-7.49,13,5.3,2.09,29.09,11.22,44.46,12.79a1,1,0,0,1,.89.75,93.7,93.7,0,0,0,22-7.66Zm-26.52,8.53c-15.74-2.46-37.27-10.78-41.8-12.58q-2.74,5.14-5.32,10.52c17.67,4,33.3,4.36,47.12,2.06ZM243,318.14q2.4-4.92,4.93-9.65c-2.13-5.88-3.7-16.08-4.47-21.8-.07.7-.14,1.41-.2,2.11-.44,4.91-.67,10-.69,15.27q0,6.8.43,14.07Zm1.1-36.79a1.05,1.05,0,0,1,.9.91c0,.05,1.65,15,4.28,23.73q3.51-6.4,7.24-12.44a202.44,202.44,0,0,1-6.86-36.78,139.68,139.68,0,0,0-5.56,24.58Zm6.75-28a1,1,0,0,1,.69.91,199.25,199.25,0,0,0,6.46,37q5.88-9.31,12.17-17.77c-1.22-3.61-8.3-25.11-9.29-41.09-1.76,2.88-3.42,5.88-4.95,9a116.79,116.79,0,0,0-5.08,12Zm11.54-23.4a1.06,1.06,0,0,1,.49.84c.55,14.46,6.78,34.48,8.8,40.63,5-6.6,10.13-12.81,15.34-18.64-9.32-19.75-10.72-35.84-10.93-39.84a106.48,106.48,0,0,0-13.7,17Zm15.44-18.72a1,1,0,0,1,.3.71c0,.05.19,17.15,10.4,39.17,6.83-7.52,13.77-14.39,20.68-20.66C305,221,301,197.55,300.45,194.35a114.52,114.52,0,0,0-16.33,11.23q-3.24,2.68-6.29,5.62Zm24.48-17.89a.92.92,0,0,1,.12.34c0,.07,4.13,25,8.41,35.3a314.87,314.87,0,0,1,25.58-20.6c-3-12.07-3-25.16-2.92-27.27-4.67,1.23-9.27,2.66-13.76,4.32a131.7,131.7,0,0,0-17.43,7.91Zm33.24-12.75a1.27,1.27,0,0,1,0,.28,116.39,116.39,0,0,0,2.65,26.2c8.89-6.33,17.26-11.61,24.7-15.92a74.94,74.94,0,0,1-.29-14.89,168.8,168.8,0,0,0-27.09,4.33Zm29.17-4.49v.17a72.51,72.51,0,0,0,.16,13.75,244.94,244.94,0,0,1,27.73-13.77c-4.43-.34-8.89-.53-13.35-.57Q372,175.58,364.72,176.07Z"/><path class="cls-4" d="M277.69,194.39c.85-6.63,3.51-17.35,11.43-30.3,13.45-22,19.9-46.2,8.05-53.76-11.41-7.28-30.47,23.9-31.05,81.82l11.53,2.23Z"/><path class="cls-6" d="M294.39,117a.89.89,0,0,0-.13-1.24.88.88,0,0,0-1.23.13,62.27,62.27,0,0,0-4.42,6.37l.48-5a.57.57,0,0,0-.52-.63.58.58,0,0,0-.64.52l-.72,7.43c-1.15,2-2.41,4.28-3.69,6.91l-.44-6a.58.58,0,0,0-.62-.54.6.6,0,0,0-.54.63l.58,8.08c-1.29,2.76-2.58,5.83-3.83,9.2l-.57-5.22a.58.58,0,0,0-.64-.52.58.58,0,0,0-.51.64l.83,7.62c-1.23,3.58-2.39,7.45-3.39,11.62l-1.1-4.91a.57.57,0,0,0-.69-.45.58.58,0,0,0-.44.69l1.62,7.31c-.86,4-1.59,8.18-2.13,12.63l-1.27-2.7a.6.6,0,0,0-.78-.28.59.59,0,0,0-.28.78l2.09,4.41c-.36,3.42-.6,7-.69,10.65l-1.38-2.65a.58.58,0,1,0-1,.54l2.37,4.55c0,1.82,0,3.66.06,5.54l1.76.34c-.06-1.88-.08-3.73-.07-5.55,1-1.05,3.41-3.53,4.93-4.16a.58.58,0,0,0,.31-.76.58.58,0,0,0-.76-.32,18.19,18.19,0,0,0-4.46,3.54c0-1.42.07-2.83.14-4.21a24.8,24.8,0,0,1,6.31-4.14.59.59,0,0,0,.34-.75.57.57,0,0,0-.75-.34,23.44,23.44,0,0,0-5.82,3.64c.17-2.84.43-5.59.75-8.26,1.86-1,7.79-4.06,10.86-4.65a.59.59,0,0,0-.22-1.15c-2.88.56-8,3.14-10.45,4.39.37-2.83.83-5.57,1.35-8.19,1.81-1,7.81-4.26,13-5.37a.58.58,0,0,0-.24-1.14,52.28,52.28,0,0,0-12.46,5c.27-1.29.56-2.56.86-3.79a56.48,56.48,0,0,1,15.48-6.84.58.58,0,1,0-.29-1.13,57.31,57.31,0,0,0-14.78,6.34,123.31,123.31,0,0,1,3.82-12.27c2.48-.84,12.16-4,17.33-4.66a.57.57,0,0,0,.5-.64.58.58,0,0,0-.64-.51c-4.79.57-13.24,3.27-16.66,4.4,1.06-2.76,2.15-5.31,3.24-7.63,2.45-.57,11.52-2.66,13.76-3a.58.58,0,0,0-.2-1.15c-2,.34-9.65,2.09-12.93,2.84,1.46-3,2.87-5.62,4.16-7.8,2.35-.39,8-1.32,9.44-1.45a.59.59,0,0,0,.53-.64.58.58,0,0,0-.64-.52c-1.27.12-5.85.86-8.54,1.3A61.54,61.54,0,0,1,294.39,117Z"/><path class="cls-3" d="M255.24,283.8c4.91-11.77,16.13-32,40.91-55,39.2-36.42,65.66-79.29,46.23-97.22-19.06-17.6-76.34,36.34-109.76,147.87A121.9,121.9,0,0,0,255.24,283.8Z"/><path class="cls-1" d="M244.53,276.53a27.85,27.85,0,0,1,9.12-.67.57.57,0,0,0,.62-.53.58.58,0,0,0-.53-.63,30.25,30.25,0,0,0-8.77.53q.93-2.78,1.87-5.49c2-.46,8.34-1.95,10.77-2.32a.59.59,0,0,0-.18-1.16c-2.23.35-7.63,1.59-10.13,2.17q1.78-5.06,3.62-9.86a135.92,135.92,0,0,1,14.68-2,.57.57,0,0,0,.53-.62.58.58,0,0,0-.62-.54,139.27,139.27,0,0,0-14.11,1.85q1.86-4.83,3.76-9.42a193,193,0,0,1,21-2.82.58.58,0,1,0-.09-1.16,190.33,190.33,0,0,0-20.34,2.69c1.68-4,3.38-7.87,5.09-11.61,2.72-.7,14.06-3.41,23.2-2.48a.58.58,0,0,0,.12-1.16c-8.51-.87-18.86,1.35-22.7,2.29q3.16-6.84,6.4-13.07c3.79-.59,19.12-2.64,27.24.86a.58.58,0,0,0,.77-.31.57.57,0,0,0-.31-.76c-7.88-3.4-22.11-1.78-27-1.07q3.43-6.59,6.89-12.5a121.05,121.05,0,0,1,26.83,3.52.58.58,0,0,0,.71-.42.59.59,0,0,0-.42-.71A121.87,121.87,0,0,0,276,205.62q2.06-3.5,4.1-6.75c2.74,0,14.43.17,30.72,4.18a.58.58,0,0,0,.28-1.13,135.31,135.31,0,0,0-30.26-4.21c3.25-5.12,6.48-9.84,9.65-14.17,3.55.4,21.53,2.52,31.55,6.26a.58.58,0,1,0,.41-1.09c-9.62-3.59-26.39-5.7-31.15-6.25,1.85-2.5,3.69-4.87,5.49-7.11a172,172,0,0,1,30.35,6.54.57.57,0,0,0,.73-.37.58.58,0,0,0-.37-.73,172.46,172.46,0,0,0-29.84-6.51c4.24-5.19,8.31-9.69,12.13-13.56,2.94.06,16.29.55,27,4.05a.59.59,0,0,0,.37-1.11c-9.83-3.22-21.83-3.92-26.21-4.08,1.58-1.58,3.11-3,4.59-4.41a90.11,90.11,0,0,1,22.75.92.59.59,0,0,0,.67-.48.58.58,0,0,0-.48-.67A94.27,94.27,0,0,0,317,153.88c12-10.79,20-14.6,20.12-14.63a.87.87,0,1,0-.77-1.57,66,66,0,0,0-9.47,5.94c1.31-2.62,3.17-6.24,3.75-6.79a.59.59,0,0,0,0-.83.58.58,0,0,0-.82,0c-.9.85-3.95,7-5,9.15-2.37,1.79-5,4-7.95,6.52l3.26-12.39a.58.58,0,0,0-.42-.71.59.59,0,0,0-.71.42l-3.71,14.09q-3,2.72-6.26,6l3.26-14.56a.58.58,0,1,0-1.13-.26l-3.67,16.4c-3.25,3.35-6.66,7.14-10.2,11.41l2.34-14.87a.57.57,0,0,0-.48-.67.59.59,0,0,0-.67.49l-2.65,16.85q-2.41,3-4.88,6.24l1.83-13.34a.58.58,0,0,0-.5-.66.59.59,0,0,0-.66.5L289.5,182c-3,4.11-6.12,8.58-9.23,13.41l.8-12.81a.59.59,0,0,0-1.17-.07L279,197.48c-1.23,1.94-2.46,4-3.69,6l-.07-9.64a.6.6,0,0,0-.59-.58.58.58,0,0,0-.58.59l.09,11.57q-3.4,5.82-6.81,12.28l-.43-10.67a.58.58,0,1,0-1.16,0l.5,12.69q-3,5.72-5.88,12l-.79-9.4a.58.58,0,0,0-1.16.1l1,11.43c-1.68,3.67-3.36,7.46-5,11.39L252.67,237a.59.59,0,0,0-1.15.23l2,10q-1.78,4.31-3.53,8.83l-2.38-6.86a.59.59,0,0,0-.74-.36.58.58,0,0,0-.36.75l2.83,8.16c-1.06,2.79-2.12,5.64-3.16,8.56l-1.8-4.38a.59.59,0,0,0-1.08.45l2.29,5.58c-.77,2.19-1.54,4.43-2.3,6.69l-2.68-3.34a.58.58,0,1,0-.9.73l3.14,3.92c-.61,1.86-1.22,3.73-1.83,5.63l1.72.38Q243.65,279.19,244.53,276.53Z"/><path class="cls-5" d="M320.15,88.37a.73.73,0,0,1,.73-.74.74.74,0,0,1,.74.74v1.7h1.7a.74.74,0,0,1,0,1.48h-1.7v1.7a.74.74,0,0,1-.74.74.73.73,0,0,1-.73-.74v-1.7h-1.71a.74.74,0,0,1,0-1.48h1.71Z"/><path class="cls-5" d="M378.56,140.43a.74.74,0,1,1,1.47,0v1.7h1.71a.74.74,0,0,1,0,1.48H380v1.7a.74.74,0,1,1-1.47,0v-1.7h-1.71a.74.74,0,0,1,0-1.48h1.71Z"/><path class="cls-5" d="M92.52,118.07a.74.74,0,1,1,1.47,0v1.71h1.7a.73.73,0,0,1,.74.73.74.74,0,0,1-.74.74H94V123a.74.74,0,1,1-1.47,0v-1.7H90.81a.74.74,0,0,1-.74-.74.73.73,0,0,1,.74-.73h1.71Z"/><path class="cls-5" d="M282.55,17.46a.74.74,0,1,1,1.48,0v1.71h1.7a.74.74,0,1,1,0,1.47H284v1.71a.74.74,0,0,1-1.48,0V20.64h-1.7a.74.74,0,1,1,0-1.47h1.7Z"/><path class="cls-5" d="M263.68,122.17a.74.74,0,0,1,1.47,0v1.71h1.71a.74.74,0,0,1,0,1.47h-1.71v1.71a.74.74,0,0,1-1.47,0v-1.71H262a.74.74,0,0,1,0-1.47h1.71Z"/><path class="cls-1" d="M395.19,30.77a.74.74,0,0,1,1.48,0v1.71h1.7a.74.74,0,1,1,0,1.47h-1.7v1.7a.74.74,0,0,1-1.48,0V34h-1.7a.74.74,0,1,1,0-1.47h1.7Z"/><path class="cls-1" d="M328,35.43a1.31,1.31,0,1,0-1.31-1.31A1.31,1.31,0,0,0,328,35.43Z"/><path class="cls-1" d="M395,238a1.32,1.32,0,1,0-1.31-1.32A1.32,1.32,0,0,0,395,238Z"/><path class="cls-1" d="M400.28,82.78A1.32,1.32,0,1,0,399,81.47,1.32,1.32,0,0,0,400.28,82.78Z"/><path class="cls-1" d="M70.84,17.68a1.32,1.32,0,1,0-1.31-1.31A1.32,1.32,0,0,0,70.84,17.68Z"/><path class="cls-3" d="M152.47,47.93a1.32,1.32,0,1,0-1.32-1.32A1.32,1.32,0,0,0,152.47,47.93Z"/><path class="cls-3" d="M151.06,18.34A1.32,1.32,0,1,0,149.75,17,1.32,1.32,0,0,0,151.06,18.34Z"/><path class="cls-3" d="M105.69,91.33A1.32,1.32,0,1,0,104.38,90,1.32,1.32,0,0,0,105.69,91.33Z"/><path class="cls-3" d="M337.81,113a1.32,1.32,0,1,0-1.31-1.32A1.32,1.32,0,0,0,337.81,113Z"/><path class="cls-3" d="M285.87,66.34A1.32,1.32,0,1,0,284.55,65,1.31,1.31,0,0,0,285.87,66.34Z"/><path class="cls-3" d="M56.37,100.54a2.64,2.64,0,1,0-2.63-2.64A2.64,2.64,0,0,0,56.37,100.54Z"/><path class="cls-3" d="M117.53,56.48a2.63,2.63,0,1,0-2.63-2.63A2.63,2.63,0,0,0,117.53,56.48Z"/><path class="cls-3" d="M275.34,107.77a2.63,2.63,0,1,0-2.63-2.63A2.63,2.63,0,0,0,275.34,107.77Z"/><path class="cls-7" d="M80.37,130.53c.65-6.9-1.49-5.58-.67-14,.11-1,2.55-9.62-3.62-3.45-5.58,5.57-5.58,13.31-2.78,16.93s7.07.48,7.07.48Z"/><path class="cls-8" d="M72.26,151.48l-1.68-1.8s3.68-6,13.33-6.65l.57,2.91s1.28-1.66-.88,1-11.34,4.56-11.34,4.56Z"/><path class="cls-7" d="M85.23,145.67s-4.4-7.39-4.52-8.17,2.06-7.81-.51-12.87-3.37-3-5.92-6.87l-7,12.55-7.61.9,4,6.42c1.43,2.31,5.11,5.08,5.78,5.93s3.26,8,3.26,8,8.71.86,12.55-5.89Z"/><path class="cls-9" d="M76.42,113.66l-9.13,16.65-7.61.9,4,6.42c1.43,2.31,5.11,5.08,5.78,5.93s3.26,8,3.26,8a15,15,0,0,0,3.57-.17c.84-1.3,1.32-2.14,1.32-2.14s-3.17-5-3.21-5.69.14-1.27-.24-1.55S72,140.92,72,140c0-4.24,3.3-4.92,4.35-9,1.11-4.24,0-11.86.08-17.34Z"/><path class="cls-10" d="M55.55,158s2.65,1.45,5.15-2.31S108.33,36.93,108.33,36.93s.65-1.59-.11-2-1.51,1.29-1.51,1.29-52.06,112-53.06,116.43,1.9,5.33,1.9,5.33Z"/><path class="cls-11" d="M185.06,148.46s-11.6,4-15.78,5.6-10.47,8.67-18.8,24.42c-5.74,10.87-23.2,48.25-34.73,72.59,0,0,5,10.26,13.9,12.34s16.28-5.17,24.79-21.06c5.94-11,10.74-20.07,10.74-20.07s22.52-27.1,19.88-73.82Z"/><path class="cls-10" d="M141,198.13c-2,4.15-6.61,13.7-8.7,18.14h0l9.15,14.26s-5.86-21.09-.45-32.4Z"/><path class="cls-10" d="M185.06,148.46s-11.6,4-15.78,5.6c-3.84,1.46-9.49,7.58-16.86,20.83,4,18.55,4.59,43.56-1.72,61.59-9.13,26.08-24.12,20.6-26.73,16.42-.45-.72-2.16-4.18-4.65-9.38-1.24,2.61-2.43,5.14-3.57,7.55,0,0,5,10.26,13.9,12.34s16.28-5.17,24.79-21.06c5.94-11,10.74-20.07,10.74-20.07s22.52-27.1,19.88-73.82Z"/><path class="cls-12" d="M234.25,107.2l-.14,9.26s.65,19.68.73,21.81,1.07,2.84,3.68,4.55c3.51,5.42-5.11,29.11-11.77,30.13s-37.65-.93-39.87-2.56c-1.56-1.15,13.65-21.89,12.66-25.26a8.44,8.44,0,0,0,3.55-1.66c6.39-5.66,5.1-20.89.2-26.22-3.66-4,31-10,31-10Z"/><path class="cls-13" d="M179.31,179.35c5.5-3.25,8.79-.7,15.08,5.11s12.06,5.16,15.46,6.42,5.13,55.85-16.62,64.52c-8,3.2-13.2.06-16.56-6.4-6-11.59-11.68-61.23,2.64-69.65Z"/><path class="cls-14" d="M165.78,309.8c1.73-5.32,2.75-15.07,1.06-37.16C163.36,227.19,156.6,151.58,200,143.92c0,0-.48,1.1-1.24,3.15l2,.08c-6.84,14,16.35,17.07,28.23,11.14a2.71,2.71,0,0,1,2.19-1.11c3-3.91,6.37-7.87,10.07-11.88,10.38,1.6,26.82,9.21,26.82,9.21,8.3,3.64-4,12.1-2.33,20.4,2.32,11.76-9.52,51.71-17.64,77.41-9.54,30.17,4,46.45,10.31,59.4-45.71-5.22-62.13-5.47-92.7-1.92Z"/><path class="cls-15" d="M167.9,308.66c1.72-5.31,2.74-15.07,1-37.15-3.12-40.65-4.75-109.57,19.7-124.61,7.25,5,11.71,13.33,11.63,26.35l-.57,3a32.32,32.32,0,0,0-2.46,2.91c-.21.49-5.43,60.84-5.43,60.84l-9.74,67.32q-7.35.59-14.18,1.38ZM214,167.17l-1.75,1.77s7.89,13.56,8.93,14.34,1.3.45,4.89-4.1,10.5-12.72,10.5-12.72,11.73-8.61,11.87-9.79-4-6.77-4-6.77Z"/><path class="cls-1" d="M242.25,143a22,22,0,0,1,3.85,3,4.9,4.9,0,0,1,0,4c-.91,2.43-24,31.3-24,31.3s-.78,1-1.8-.09-11-20.77-11-20.77l30-18.25c.87-1,2.22.3,3,.81Z"/><path class="cls-1" d="M203.47,143.11s0,0-.11-.05c-2-.63-6,.11-7.4,1.53-4.13,3.94-.68,28,.55,32.09v.06a1.8,1.8,0,0,0,2.31.34c1.31-.79,10.42-16.65,10.42-16.65-1.07-2-11.29-6.49-5.77-17.32Z"/><path class="cls-11" d="M244.25,144.39S211.62,225.65,208,263.88c-1.1,11.65.62,27.15,3.62,43.18,19.9-.14,38.29,9.71,62.64,12.43-7-7.29-10.81-26.62-12.06-34.7s13.56-83.12,15.75-95.48,15.68-31.61-33.7-44.92Z"/><path class="cls-16" d="M242.41,149.11c-5.5,14.07-21.76,56.91-29.94,90.45,4.07,2.54,9,.18,9,.18s28-29.08,32.67-34.36,2-12.66,2-12.66l-4.84-15.61s2.75-1.57,4.47-2.67,1.94-3.65,1.94-3.65l-6.24-9.32,1.66-14.41c-1.34-.45-2.72-.89-4.16-1.32Z"/><path class="cls-16" d="M225.79,308.44l2.31.47L258.28,284l4.3-6.68c1.5-13.08,6.26-39.43,10.15-60.21-1.65-5-2.85-8.63-3.06-9.18-.78-2-1.51-2.08-2-.65s-4.69,14.21-7.95,24.51A48.29,48.29,0,0,1,249,249.47h-7.62L226,274.37Z"/><path class="cls-11" d="M196,144.63s-6.52,99.43-8.28,111.27c-.8,5.48-4.38,28.61-8.1,52.54q-10.9.9-20.74,2.23c1.57-15.4,2.78-27.61,2.83-28.51.11-2.57.32-71.7.32-80.19s8.41-39.52,9.77-42.86,10.63-11.4,24.2-14.48Z"/><path class="cls-17" d="M194.18,171.26c-2.07,30.35-5.33,76.78-6.5,84.64-.32,2.23-1.11,7.36-2.17,14.27,0,0-8.95-78.53-8.3-81.36s11-25,11-25Z"/><path class="cls-18" d="M196,144.62s-1.07,16.23-2.45,36.36c-4.68-7.22-10.59-16.79-9.93-18,1.11-2.05,8.86-17.33,8.87-17.36,1.14-.36,2.3-.67,3.51-.95Z"/><path class="cls-12" d="M258.37,83l.8.17h0a10.82,10.82,0,1,1-9.12,1.72c-.44,3.17-.14,7.13,3.91,7.74l.21-6.23c.07-2.52,2.48-3.56,4.2-3.4Z"/><path class="cls-12" d="M183.12,79.16l-.62.08h0a8.43,8.43,0,1,0,7,2.05c.07,2.5-.47,5.58-3.67,5.72l.34-4.87a2.92,2.92,0,0,0-3-3Z"/><path class="cls-7" d="M222.15,27.08h0a37.13,37.13,0,0,1,35.09,38.85l-1.71,33.63a37.12,37.12,0,0,1-38.85,35.07h0A37.11,37.11,0,0,1,181.6,95.78l1.7-33.61a37.14,37.14,0,0,1,38.85-35.09Z"/><path class="cls-9" d="M222.15,27.08h0a37.13,37.13,0,0,1,35.09,38.85l-1.71,33.63a37.12,37.12,0,0,1-38.85,35.07h0a37.43,37.43,0,0,1-6.21-.84c23.16,0,35.6-19.94,35.6-29.12V85c0-6.71-7.19-12-14.77-12H197.72c-11,0-15.12,3.09-15.12,3.09h0l.7-13.93a37.14,37.14,0,0,1,38.85-35.09Z"/><path class="cls-8" d="M223.39,107.6a9.58,9.58,0,0,1-19.16-.23h0a1.67,1.67,0,0,1,1.68-1.63l15.81.19a1.67,1.67,0,0,1,1.65,1.67Z"/><path class="cls-12" d="M219.73,115a9.59,9.59,0,0,1-11.08.55,6,6,0,0,1,5.52-3.47,6,6,0,0,1,5.56,2.92Z"/><path class="cls-1" d="M205.72,105.75l14.85.18c.22,1.64-.56,3.29-1.66,3.65-1.36.42-12.1,0-12.87-.84-.35-.42-.38-1.73-.32-3Z"/><path class="cls-12" d="M193.32,97.82a4.87,4.87,0,1,1-5,4.72,4.89,4.89,0,0,1,5-4.72Z"/><path class="cls-12" d="M235.18,99.15a4.87,4.87,0,1,1-5,4.71,4.87,4.87,0,0,1,5-4.71Z"/><path class="cls-16" d="M183.09,66.67l-.89,17.39s.82-2.63-3.91-2.86C164.59,63.72,166.48,36,182.71,23s49.63-12.16,55.36-9.92,11.22,12.42,11.22,12.42,5.17-4.16,9.64-1.63,18.35,32.25,18,39.49-15.11,20.86-15.11,20.86c-4.74-.24-5.69,3.57-5.69,3.57l-.26,5.2c-2.21-.11-6.4-5.74-5.64-20.66a1,1,0,0,1,.06-.28l1.52-6.69L243.2,55l-9.52-2.72L212.35,54c-32.93,6.32-13.19,13.55-29.26,12.72Z"/><path class="cls-8" d="M183.09,66.67l-.89,17.39s.82-2.63-3.91-2.86a44,44,0,0,1-9-23.94c4.55,4.89,11.1,8.65,20.53,8.65-.91.67-2.7,1-6.72.76Zm90.76-15c1.92,5.09,3.18,9.52,3.07,11.76-.37,7.23-15.11,20.86-15.11,20.86-4.74-.24-5.69,3.57-5.69,3.57l-.26,5.2c-2.21-.11-6.4-5.74-5.64-20.66a1,1,0,0,1,.06-.28l1.52-6.69-.45-.53c6.67.24,14.82-2.51,22.5-13.23Z"/><path class="cls-16" d="M256.46,81.07S275.38,43.2,244,38.71c0,0-8.9-15.95-25.26-11.19s-26.72,5-34.42-2c0,0-3.93,8.17,1.5,15-15.16,12.77-10.15,31.87-3.43,40C184.25,63,232,76.79,237.28,59.82c1.24,16,13.08,15,19.18,21.25Z"/><path class="cls-17" d="M237.39,162.31c-8.65,23.27-25.54,72.65-26.7,85s1.66,5.37,1.64,7.59c3.39-9.44,6.37-15.25,12.23-22.16,5.22-6.17,12.86-14.26,17.35-18.64,6.9-6.73,15.52-13.25,14.37-20.66s-5.36-29.65-5.36-29.65Z"/><path class="cls-19" d="M40.48,378.26c-1.83-1.8-3.76-3.51-5.67-5.19Q30,368.84,25,364.76a2.26,2.26,0,0,1-.81-2.12,2.17,2.17,0,0,1,1.32-1.81c5.35-2.09,11.08-3.75,16.58-5.32,7.17-2.05,14.43-4,21.67-5.78a1.77,1.77,0,0,1,1.52.28l26,17.86a2.14,2.14,0,0,1,.87,1.24L97,386.68a2.33,2.33,0,0,1-.23,1.88,2,2,0,0,1-1.46,1,150.1,150.1,0,0,0-21.23,4.92c-8.25,2.41-16.42,5.22-24.5,8.22-3.73,1.38-7.45,2.8-11.14,4.3a1.83,1.83,0,0,1-2-.35,2.32,2.32,0,0,1-.71-2.1c.48-3.45,1.07-6.88,1.69-10.3.95-5.34,2-10.69,3.06-16Z"/><path class="cls-20" d="M92.14,369.11C82.82,371,66.22,375,62.19,376.6c-.88.36.35,3.77,5.86,5.62,2.44.83,7.36,1.49,12.16,2,5.64.62,11.09,1,12.15,1.29,2.5.58,5,3.22,1.74,4.23l1.21-.19a2,2,0,0,0,1.46-1,2.33,2.33,0,0,0,.23-1.88Z"/><path class="cls-19" d="M380.14,378.26c1.82-1.8,3.76-3.51,5.67-5.19q4.85-4.23,9.85-8.31a2.28,2.28,0,0,0,.8-2.12,2.18,2.18,0,0,0-1.33-1.81c-5.33-2.09-11.06-3.75-16.56-5.32-7.18-2.05-14.43-4-21.67-5.78a1.76,1.76,0,0,0-1.52.28l-26,17.86a2.18,2.18,0,0,0-.87,1.24l-4.86,17.57a2.33,2.33,0,0,0,.24,1.88,2,2,0,0,0,1.46,1,150.42,150.42,0,0,1,21.23,4.92c8.25,2.41,16.42,5.22,24.5,8.22,3.71,1.38,7.45,2.8,11.13,4.3a1.81,1.81,0,0,0,2-.35,2.33,2.33,0,0,0,.73-2.1c-.48-3.45-1.09-6.88-1.69-10.3-1-5.34-2-10.69-3.06-16Z"/><path class="cls-20" d="M328.47,369.11c9.32,1.91,25.93,5.89,29.95,7.49.89.36-.36,3.77-5.85,5.62-5.33,1.79-22.37,2.86-24.31,3.31-2.5.58-5.07,3.22-1.74,4.23l-1.21-.19a2,2,0,0,1-1.46-1,2.33,2.33,0,0,1-.24-1.88Z"/><path class="cls-21" d="M361.58,324.1c8.8,4.69,7.56,10.31,5.85,18-2.25,10.2-6.37,29-7.16,33.7-1.06,6.19-6.45,4.45-6.45,4.45-56.83-25.68-230.19-25.68-287,0,0,0-5.39,1.74-6.44-4.45-.8-4.67-4.91-23.5-7.17-33.7-1.7-7.74-3-13.36,5.84-18,46.63-24.81,255.94-24.81,302.56,0Z"/><path class="cls-22" d="M200.73,305.55c21.47-.21,43.15.28,63.53,1.48a10.06,10.06,0,0,0,.47,2.16c.25,1.65-.08,4-2.55,4.35s-40.06,5.19-47.47,6.41-8.71,1.4-9.54,1.15a3.4,3.4,0,0,1-1.88-2.34c-.29-1.06-.79-3.48-.79-3.48Z"/><path class="cls-18" d="M253.23,147.14c0,.12,4.38,22,4.49,23.65.07,1.32-21.25,14.52-30.44,20.15,8.31-25,17-46.55,17-46.55,3.25.87,6.25,1.8,9,2.75Z"/><path class="cls-8" d="M256.46,81.07a61.46,61.46,0,0,0,5.46-18.54c-13.1,6.58-24.64-2.71-24.64-2.71,1.24,16,13.08,15,19.18,21.25ZM175.9,62.5a31.08,31.08,0,0,0,6.47,18C184.25,63,232,76.79,237.28,59.82c-8.9,5.86-20.46,6.09-47.47,6.09A28,28,0,0,1,175.9,62.5Z"/><path class="cls-8" d="M233.17,86h0A2.87,2.87,0,0,1,236,88.89v3.46a2.86,2.86,0,0,1-2.85,2.86h0a2.87,2.87,0,0,1-2.86-2.86V88.89A2.87,2.87,0,0,1,233.17,86Z"/><path class="cls-8" d="M194.85,86h0a2.86,2.86,0,0,1,2.85,2.86v3.46a2.85,2.85,0,0,1-2.85,2.86h0A2.86,2.86,0,0,1,192,92.35V88.89A2.86,2.86,0,0,1,194.85,86Z"/><path class="cls-23" d="M194.85,76.58a14.09,14.09,0,0,1,14,13h10.31a14,14,0,0,1,28,0h8.78V91.7h-8.78a14.05,14.05,0,0,1-14,13,14.05,14.05,0,0,1-14-13H208.86a14,14,0,1,1-14-15.12Zm46.73,5.63a11.9,11.9,0,1,0,3.48,8.42,11.87,11.87,0,0,0-3.48-8.42Zm-38.32,0a11.9,11.9,0,1,0,3.48,8.42,11.87,11.87,0,0,0-3.48-8.42Z"/><path class="cls-11" d="M133.92,213.79C130,209.61,85.29,144.17,85,143.61a1.3,1.3,0,0,0-1.1-.58s-8.09,6.89-13.33,6.65c0,0-.79,1.14-.6,1.56s40.77,88.95,45.77,99.83h0a28.29,28.29,0,0,0,2,3.26c8.82,9.91,41.5,3.25,16.18-40.55Z"/><path class="cls-10" d="M76.73,147.88a13,13,0,0,1-6.15,1.8s-.79,1.14-.6,1.56c1.49,12.56,18.08,56.74,45.77,99.83h0a28.29,28.29,0,0,0,2,3.26c5.39,6.06,19,8,22.91-1.38-7.46,6.2-14.79,2.69-16.68-.06-29.58-43-46.31-98.51-47.08-100.8a7.32,7.32,0,0,1-.16-4.22Z"/><path class="cls-7" d="M61,128.17a4.07,4.07,0,0,0-2.74.47c-.91.76-1.4,3.19-1.33,4.13s4.16,5.32,5.85,6.18a14,14,0,0,0,5.55,1.23c1-.13,1.68-1.71,1-3.08a6,6,0,0,0-3.78-3.42c-2.26-.8-4.59-5.51-4.59-5.51Z"/><path class="cls-7" d="M63.86,123.39s-2-.33-3,.49-1.5,3.47-1.44,4.46S64,134.1,65.78,135a14.68,14.68,0,0,0,6,1.32c1-.13,1.81-1.83,1.13-3.32a6.44,6.44,0,0,0-4.08-3.68c-2.46-.89-5-6-5-6Z"/><path class="cls-7" d="M67.24,117.92s-1.86-.7-3-.07S62.13,121,62,122s3.37,6.49,5,7.74a14.66,14.66,0,0,0,5.66,2.4c1,.07,2.11-1.47,1.71-3.06A6.45,6.45,0,0,0,71,124.69c-2.24-1.32-3.78-6.77-3.78-6.77Z"/><path class="cls-7" d="M72,112.19s-5.35-2.18-6.71-.67c-3.2,3.54,2,9.77,4.8,12,1.37,1.08,4.09-.13,4.52-1.94s-1.69-3.31-3.06-5-.74-2.88.45-4.44Z"/><path class="cls-11" d="M172,38.14c22.2,29.31,62.77,17.82,77.33-12.61-.11-.19-1-1.9-2.5-4-13.1,28-53.23,29.4-61.53-.33-.88.59-1.74,1.2-2.55,1.85A35.21,35.21,0,0,0,172,38.14Z"/><path class="cls-24" d="M191.19,236.82,245.93,229a2.25,2.25,0,0,1,2.53,1.89l10.4,73a2.26,2.26,0,0,1-1.9,2.53l-54.74,7.8Z"/><path class="cls-25" d="M191.19,236.82a8.86,8.86,0,0,0,3,5.11l20.35,39.89-9.32,37.48a8.86,8.86,0,0,1-3-5.11Z"/><path class="cls-1" d="M246.35,231.09l0-.25a.32.32,0,0,0-.36-.28l-54.34,7.74a7.82,7.82,0,0,0,2.57,3.63l52.64-7.5,1.8-.25c-1.66-.2-2.27-3.09-2.27-3.09Z"/><path class="cls-26" d="M194.18,241.93l54.74-7.79a2.24,2.24,0,0,1,2.53,1.89l10.39,73a2.23,2.23,0,0,1-1.9,2.51l-54.73,7.8Z"/><path class="cls-27" d="M259.37,291.61l1.38,9.78a12,12,0,0,0-5.85-1c-8.22.66-36.76,5.28-43.28,6.68a14.09,14.09,0,0,0-7.52,4.49l-3.57-25.1h0l8.36,3.12,5,7.61s30.84-3.9,45.47-5.57Z"/><path class="cls-25" d="M203.76,271.93l46.54-6.64a2.05,2.05,0,0,0,1.75-2.34l-2.7-19a2.08,2.08,0,0,0-2.35-1.75l-46.53,6.63a2.08,2.08,0,0,0-1.76,2.34l2.72,19a2.08,2.08,0,0,0,2.33,1.76Z"/><path class="cls-1" d="M204.15,277.47l47.33-6.74a1.65,1.65,0,0,0,1.41-1.88h0a1.67,1.67,0,0,0-1.88-1.43l-47.33,6.76a1.65,1.65,0,0,0-1.41,1.88h0a1.65,1.65,0,0,0,1.88,1.41Z"/><path class="cls-28" d="M204.68,269.22l44-6.26a1.37,1.37,0,0,0,1.16-1.55l-.39-2.76a1.39,1.39,0,0,0-1.55-1.17l-44,6.28a1.37,1.37,0,0,0-1.16,1.55l.38,2.76a1.37,1.37,0,0,0,1.56,1.15Z"/><path class="cls-1" d="M203,262.16l45.35-6.47a.68.68,0,0,0,.59-.76l-.21-1.38a.7.7,0,0,0-.77-.59l-45.34,6.46a.7.7,0,0,0-.59.78l.2,1.38a.67.67,0,0,0,.77.58Z"/><path class="cls-28" d="M202.36,257.81l45.34-6.47a.66.66,0,0,0,.59-.75l-.2-1.39a.7.7,0,0,0-.77-.59L202,255.07a.72.72,0,0,0-.59.78l.21,1.38a.67.67,0,0,0,.77.58Z"/><path class="cls-1" d="M201.74,253.46,247.08,247a.68.68,0,0,0,.59-.76l-.2-1.39a.7.7,0,0,0-.78-.59l-45.34,6.46a.72.72,0,0,0-.59.78l.2,1.38a.69.69,0,0,0,.78.58Z"/><path class="cls-11" d="M268.7,231.9c6.62,15.14,11.78,27.32,12,27.71.51.82-.92,4.15-1.69,4.85S212.55,278.14,212,278.25s-.84.84-.84.84,4.1,18,2.4,22.66c0,0,.79,1.06,1.22,1s82.45-14.18,87.56-14.85,14.53-10.61,11.54-21.82c-1.88-7-14.29-51.11-22.37-77.59-5.14-16.84-9.19-27.85-26.9-36.92,0,0-4.92,1-5.68,9.95s1.1,50.25,9.81,70.37Z"/><path class="cls-16" d="M213.24,292.62c.66,3.23,1.08,6.89.28,9.13,0,0,.79,1.06,1.22,1s82.45-14.18,87.56-14.85c4.15-.54,11.14-7.21,12-15.69-1.83,5.31-7.69,9.42-13.82,10.45S223,295.4,219.06,295.34c-2.28,0-4.43-1.51-5.82-2.72Z"/><path class="cls-29" d="M221.69,167.17s0-.17,0-.54,2.8-5.84,3.23-6.85-3.88-3.06-4.81-3.25-8.22,7.21-11.78,6.91l-.21,2.61-.22,2.61c3.56.3,9.55,8.76,10.5,8.75s5.54-1.35,5.28-2.41-2.11-6.93-2.08-7.3.05-.53.05-.53Z"/><path class="cls-12" d="M224.08,158.5a14.92,14.92,0,0,0-3.93-2c-.67-.12-4.61,3.64-8.09,5.67a13,13,0,0,0,2,2.33c1.59,1.4,4,.33,4.59-.15s3.39-4.45,3.75-4.8a4.66,4.66,0,0,1,1.66-1.08Z"/><path class="cls-29" d="M198.5,165.06l0-.42c0-.28-1.39-4.71-1.57-5.51s3.27-1.81,4-1.82,5.25,6.38,8,6.62l-.17,2-.15,2c-2.71-.22-8.22,5.36-8.92,5.24s-4-1.7-3.65-2.46,2.42-4.91,2.45-5.19,0-.4,0-.4Z"/><path class="cls-12" d="M198,158.19a10.71,10.71,0,0,1,3-.88c.45,0,2.42,2.53,4.5,4.47-1.1,1.07-3.62,3-4.16,2.36a46.35,46.35,0,0,1-3.34-5.95Z"/><path class="cls-29" d="M207.16,161.83l2.91.23a1.16,1.16,0,0,1,1.05,1.24l-.46,5.77a1.16,1.16,0,0,1-1.24,1.05l-2.91-.24a1.16,1.16,0,0,1-1.06-1.23l.47-5.78a1.16,1.16,0,0,1,1.24-1Z"/><path class="cls-12" d="M206.93,162.62l1.74.14a.68.68,0,0,1,.62.73l-.28,3.45a.68.68,0,0,1-.73.64l-1.74-.14a.7.7,0,0,1-.64-.75l.3-3.45a.67.67,0,0,1,.73-.62Z"/><path class="cls-16" d="M269.62,234c6.17,14.16,10.87,25.24,11.09,25.61.51.82-.92,4.15-1.69,4.85,0,0,0,0-.11,0,10.55-3.45,14.62-5.42,12.33-5.48s-5.2,0-6.38-4.06c-.84-2.9-7.94-24.94-12.13-37.82-1.65-5-2.85-8.63-3.06-9.18-.78-2-1.51-2.08-2-.65-.3.79-1.68,5-3.4,10.31a83.73,83.73,0,0,0,4.45,14.28l.92,2.1Z"/><path class="cls-30" d="M210.27,99.93a4.34,4.34,0,0,0-1.15,1.76c-.16.83.84,1.42,1.52,1.35s1.24-3.2,1.2-3.53-.5-.68-1.57.42Z"/><path class="cls-7" d="M215.86,280.81c-2.05-3.21-4.24-4.38-8.63-6.86-2.82-1.6-5.4-1.85-7.43-4.29-1.63-2-2.63-.73-2.92.59-.39,1.68.51,3.29,2,5.78,2,3.35,4.09,4.19,4.09,4.19s-7.46,2.5-10.67,3.67-3.22,4.53-1,5.7-1,2.78.58,5.11,2.34,2.64,2.34,2.64-2.05,2.48-.43,4.08a11.5,11.5,0,0,0,3.35,2.35s0,3.65,3.22,3.65,14.48-3.06,18-9.51-2.49-17.1-2.49-17.1Z"/><path class="cls-9" d="M214.18,283.22a21,21,0,0,1,.55,10.55,13.48,13.48,0,0,1-.87,2.33s0,0-.05.07-.17.31-.26.47l-.16.26a30.61,30.61,0,0,1-2.87,4,14.77,14.77,0,0,1-1,1.1,18.28,18.28,0,0,1-1.63,1.52h0a22.12,22.12,0,0,1-4.49,2.89c-.65.32-1.33.63-2.06.91h-.07l-.17.08a.52.52,0,0,1,.17,0h.07a17.16,17.16,0,0,0,2.14-.38,34.52,34.52,0,0,0,5.24-1.66c.8-.34,1.61-.7,2.4-1.1.45-.23.89-.47,1.31-.72h0c.59-.34,1.16-.71,1.71-1.1a13.7,13.7,0,0,0,4.24-4.49,8.72,8.72,0,0,0,.59-1.36c.12-.39.23-.81.31-1.21,1.19-6.36-3.39-14.53-3.39-14.53a13.5,13.5,0,0,0-2.41-2.86,15,15,0,0,0-1.5-1.18l-.19-.12c.23.5.45,1,.65,1.51a42,42,0,0,1,1.77,5.06Z"/></g></g></svg>