<svg xmlns="http://www.w3.org/2000/svg" viewBox="0 0 462.79 410.07"><defs><style>.cls-1{fill:#f5f5f5;}.cls-2{fill:#e0e0e0;}.cls-3{fill:#ebebeb;}.cls-4{fill:#fafafa;}.cls-5{fill:#263238;}.cls-6{fill:#455a64;}.cls-7{fill:#fff;}.cls-8{fill:#e8505b;}.cls-9{fill:#ffbe9d;}.cls-10{fill:#eb996e;}.cls-11{opacity:0.3;}.cls-12{opacity:0.5;}.cls-13{opacity:0.4;}</style></defs><g id="Layer_2" data-name="Layer 2"><g id="Background_Complete" data-name="Background Complete"><path class="cls-1" d="M392.55,244.17c-21.17-9.48-30-32.9-33.44-54.81-.57-3.65-1.7-7.41-.58-10.93s4.74-6.46,8.28-5.55c2.95.75,4.72,3.67,6.73,6a21.56,21.56,0,0,0,10.07,6.52c2.55.76,5.55.95,7.59-.75,2.81-2.33,2.35-6.73,1.64-10.34q-2-10.09-4-20.18c-.72-3.61-1.43-7.3-1-10.95s2.34-7.3,5.6-8.92,7.88-.45,9.28,3c.59,1.41.58,3,1,4.48s1.4,3,2.9,3.16,2.78-1.16,3.66-2.42c3-4.36,4.66-9.55,6.14-14.67s2.86-10.35,5.48-15,6.71-8.67,11.83-10,11.24.86,13.52,5.69.3,10.58-2.15,15.32A82.26,82.26,0,0,1,431.39,143a6.77,6.77,0,0,0-2.24,3.56c-.32,2.56,2.42,4.51,5,4.85,2.86.39,5.73-.45,8.61-.66s6.18.46,7.75,2.92c2.19,3.41-.17,7.87-2.72,11a70.49,70.49,0,0,1-18.2,15.71c-2.48,1.48-5.11,2.86-6.9,5.14s-2.46,5.77-.68,8.07,5.26,2.48,8,1.44,4.89-3,7.35-4.55c4.61-2.82,11.09-3.7,15.09,0,2.63,2.43,3.57,6.32,3.15,9.89a26.85,26.85,0,0,1-3.78,10c-6.17,10.86-14.93,20.33-25.69,26.52s-21.23,9.31-33.48,7.31"/><path class="cls-2" d="M395.57,229.45a326.83,326.83,0,0,1,6.2-37.32l2.13-9.7c.7-3.18,1.4-6.34,2.28-9.38a161.69,161.69,0,0,1,6-17.2c2.18-5.38,4.45-10.41,6.6-15.09s4.27-9,6.35-12.87a131.66,131.66,0,0,1,11.18-17.46c1.47-2,2.67-3.43,3.49-4.42l.94-1.12a2.36,2.36,0,0,1,.34-.36,3.35,3.35,0,0,1-.28.41l-.89,1.16c-.79,1-1.95,2.52-3.39,4.49a137.49,137.49,0,0,0-11,17.54c-2.06,3.86-4.13,8.18-6.27,12.87s-4.37,9.71-6.53,15.09a163.14,163.14,0,0,0-6,17.15c-.87,3-1.56,6.15-2.27,9.34s-1.4,6.42-2.12,9.7a338.86,338.86,0,0,0-6.25,37.24"/><path class="cls-2" d="M406.36,173a7.78,7.78,0,0,1-.64-1.48c-.39-1-.89-2.37-1.49-4.12-1.19-3.5-2.68-8.4-4.3-13.79s-3.18-10.26-4.43-13.74c-.62-1.73-1.13-3.14-1.5-4.1a7.85,7.85,0,0,1-.5-1.53,7.74,7.74,0,0,1,.74,1.43c.45.93,1,2.31,1.71,4,1.37,3.45,3,8.3,4.62,13.71s3,10.15,4.12,13.84c.5,1.66.93,3.06,1.27,4.19A6.7,6.7,0,0,1,406.36,173Z"/><path class="cls-2" d="M451.17,155.44a11.41,11.41,0,0,1-1.81.57c-1.17.33-2.87.81-4.95,1.46-4.16,1.27-9.86,3.23-16.05,5.67s-11.7,4.9-15.63,6.78c-2,.94-3.55,1.73-4.64,2.28a10.72,10.72,0,0,1-1.73.79,9.26,9.26,0,0,1,1.61-1c1-.62,2.6-1.48,4.55-2.47,3.89-2,9.38-4.54,15.59-7A162.84,162.84,0,0,1,444.28,157c2.1-.6,3.82-1,5-1.26A9.08,9.08,0,0,1,451.17,155.44Z"/><path class="cls-2" d="M396,228.49a2.55,2.55,0,0,1-.42-.51l-1.12-1.53c-1-1.33-2.3-3.3-3.93-5.74-3.26-4.9-7.55-11.8-12.17-19.49s-8.85-14.62-12-19.57l-3.75-5.86-1-1.6a2.21,2.21,0,0,1-.32-.59,2.36,2.36,0,0,1,.43.51l1.12,1.53c1,1.33,2.3,3.29,3.93,5.74,3.26,4.9,7.54,11.8,12.17,19.49s8.85,14.61,12,19.57l3.75,5.86,1,1.6A2.33,2.33,0,0,1,396,228.49Z"/><path class="cls-2" d="M453.93,196.8a2.67,2.67,0,0,1-.57.37l-1.68,1-6.2,3.4c-5.24,2.88-12.43,6.93-20.36,11.42s-15.18,8.49-20.47,11.26c-2.65,1.38-4.81,2.48-6.31,3.21l-1.74.83a2.81,2.81,0,0,1-.63.25s.19-.15.57-.37l1.68-1,6.2-3.4c5.24-2.88,12.43-6.93,20.37-11.43s15.16-8.48,20.46-11.25c2.65-1.38,4.81-2.48,6.31-3.21l1.74-.83A2.61,2.61,0,0,1,453.93,196.8Z"/><path class="cls-2" d="M35.57,113,36.91,118S61,101,78.73,105.74h0a3.51,3.51,0,0,0,3.1,1.2l6.73-.84a3.55,3.55,0,0,0,2.93-2.73h0s14.09-10.86,32.19-5.82L130.44,99,104.61,38.25l-79.06,2Z"/><path class="cls-3" d="M29.78,106.93l2.2,8.95s22.88-21.42,52.75-10.94L68.64,63.21S29.79,97.36,29.78,106.93Z"/><path class="cls-1" d="M10.66,43s26.27-31.11,57.48-2.43l16.59,64.42s-35.2-23-57.46,4.57Z"/><path class="cls-3" d="M84.73,104.94s23.43-23.25,47.07-9.15L113.23,37.71l-44.52,5Z"/><path class="cls-1" d="M68.12,40.58s4.83-23,25.19-25.35l13.14-1,19.79,58.13s-32,3.2-41.53,32.68Z"/><path class="cls-2" d="M84.73,104.94a12.76,12.76,0,0,1-.83-2.48c-.5-1.83-1.14-4.12-1.89-6.85-1.59-6-3.67-13.92-6-22.66s-4.38-16.64-6-22.66c-.72-2.73-1.33-5-1.81-6.87a12.24,12.24,0,0,1-.55-2.56,12.1,12.1,0,0,1,1,2.44c.55,1.59,1.27,3.91,2.15,6.78,1.73,5.75,4,13.74,6.27,22.6s4.3,16.9,5.67,22.75c.68,2.92,1.21,5.29,1.55,6.93A11.44,11.44,0,0,1,84.73,104.94Z"/><path class="cls-2" d="M101.8,25.51c0,.19-2.07.26-5.3,1A33.91,33.91,0,0,0,75.94,41c-1.8,2.78-2.56,4.72-2.74,4.65s.07-.53.38-1.43a21.25,21.25,0,0,1,1.7-3.62A31.08,31.08,0,0,1,96.35,25.77a21,21,0,0,1,4-.38C101.28,25.39,101.8,25.43,101.8,25.51Z"/><path class="cls-2" d="M104.93,31.9c0,.19-2.07.26-5.29,1A33.94,33.94,0,0,0,79.07,47.41c-1.8,2.78-2.55,4.72-2.74,4.65s.07-.53.38-1.42A21.84,21.84,0,0,1,78.42,47,31.09,31.09,0,0,1,99.48,32.16a21,21,0,0,1,4-.38C104.41,31.78,104.93,31.82,104.93,31.9Z"/><path class="cls-2" d="M106.94,39.19c0,.19-2.08.25-5.3,1A33.91,33.91,0,0,0,81.08,54.7c-1.8,2.78-2.56,4.72-2.74,4.64s.07-.52.38-1.42a21.25,21.25,0,0,1,1.7-3.62,31.09,31.09,0,0,1,21.06-14.85,22.07,22.07,0,0,1,4-.39C106.42,39.07,106.94,39.11,106.94,39.19Z"/><path class="cls-2" d="M109.83,45.73c0,.19-2.07.26-5.3,1A33.91,33.91,0,0,0,84,61.24C82.17,64,81.41,66,81.23,65.89s.07-.53.38-1.43a21.25,21.25,0,0,1,1.7-3.62A31.08,31.08,0,0,1,104.38,46a21,21,0,0,1,4-.38C109.31,45.61,109.83,45.65,109.83,45.73Z"/><path class="cls-2" d="M113,52.59c0,.2-2.08.26-5.3,1A34,34,0,0,0,87.15,68.1c-1.8,2.78-2.56,4.72-2.74,4.65s.07-.53.38-1.42a21.64,21.64,0,0,1,1.7-3.63,31,31,0,0,1,21.06-14.84,21.19,21.19,0,0,1,4-.39A4.12,4.12,0,0,1,113,52.59Z"/><path class="cls-2" d="M116.86,60.21c0,.2-2.25.26-5.75,1.15a41.4,41.4,0,0,0-6,2,50.87,50.87,0,0,0-6.81,3.66,48.19,48.19,0,0,0-6,4.79,36.18,36.18,0,0,0-4.15,4.75c-2.11,2.92-2.91,5-3.1,5A4.47,4.47,0,0,1,85.48,80a10.94,10.94,0,0,1,.77-1.71,16.13,16.13,0,0,1,1.25-2.15,30.35,30.35,0,0,1,4.08-5,42.39,42.39,0,0,1,6.16-5,44,44,0,0,1,7-3.68,34.38,34.38,0,0,1,6.19-1.86,18.34,18.34,0,0,1,2.46-.38,12,12,0,0,1,1.87-.12A4.54,4.54,0,0,1,116.86,60.21Z"/><path class="cls-2" d="M118.58,66.61c0,.21-2.26.26-5.75,1.21a40.47,40.47,0,0,0-6,2.19,49.76,49.76,0,0,0-6.7,3.9,49.2,49.2,0,0,0-5.93,5,37.92,37.92,0,0,0-4.06,4.86c-2.08,3-2.89,5.09-3.08,5a4.48,4.48,0,0,1,.45-1.54,10.5,10.5,0,0,1,.77-1.72,16.52,16.52,0,0,1,1.22-2.18,33.55,33.55,0,0,1,4-5.14,44.36,44.36,0,0,1,6-5.19,45.08,45.08,0,0,1,6.92-3.93,33.83,33.83,0,0,1,6.17-2,17.37,17.37,0,0,1,2.46-.42,11.32,11.32,0,0,1,1.88-.14A4.83,4.83,0,0,1,118.58,66.61Z"/><path class="cls-2" d="M71.93,90.23c-.12.15-1.88-1.41-5.18-3.13a30.36,30.36,0,0,0-27.88-.34c-3.34,1.65-5.14,3.16-5.26,3s.36-.49,1.17-1.17a24.14,24.14,0,0,1,3.74-2.52,28.88,28.88,0,0,1,28.6.34A24.89,24.89,0,0,1,70.79,89C71.59,89.74,72,90.18,71.93,90.23Z"/><path class="cls-2" d="M69.6,82c-.12.15-1.88-1.41-5.18-3.14a30.38,30.38,0,0,0-27.87-.33c-3.35,1.65-5.15,3.16-5.26,3s.35-.49,1.17-1.17a23.48,23.48,0,0,1,3.73-2.52,28.87,28.87,0,0,1,28.6.34,24.36,24.36,0,0,1,3.67,2.61C69.26,81.5,69.65,82,69.6,82Z"/><path class="cls-2" d="M67.28,73.77c-.12.15-1.89-1.41-5.19-3.14a30.38,30.38,0,0,0-27.87-.33c-3.34,1.64-5.14,3.16-5.26,3s.36-.49,1.17-1.17a24,24,0,0,1,3.73-2.52,28.87,28.87,0,0,1,28.6.34,24.54,24.54,0,0,1,3.68,2.61C66.93,73.27,67.32,73.72,67.28,73.77Z"/><path class="cls-2" d="M65,65.54c-.12.15-1.88-1.41-5.18-3.14a30.4,30.4,0,0,0-27.88-.33c-3.34,1.64-5.14,3.16-5.26,3s.36-.48,1.17-1.16a24.14,24.14,0,0,1,3.74-2.52,28.88,28.88,0,0,1,28.6.34,24.89,24.89,0,0,1,3.67,2.61C64.61,65,65,65.49,65,65.54Z"/><path class="cls-2" d="M62.62,57.31c-.12.14-1.88-1.41-5.18-3.14a30.4,30.4,0,0,0-27.88-.33c-3.34,1.64-5.14,3.16-5.25,3s.35-.48,1.17-1.16a23.48,23.48,0,0,1,3.73-2.52,28.87,28.87,0,0,1,28.6.34,23.66,23.66,0,0,1,3.67,2.61C62.28,56.81,62.67,57.25,62.62,57.31Z"/><path class="cls-2" d="M60.3,49.07c-.12.15-1.89-1.4-5.19-3.13a30.38,30.38,0,0,0-27.87-.33c-3.34,1.64-5.14,3.15-5.26,3s.36-.48,1.17-1.17a24.77,24.77,0,0,1,3.73-2.51,28.87,28.87,0,0,1,28.6.34,23.17,23.17,0,0,1,3.67,2.61C60,48.58,60.34,49,60.3,49.07Z"/><path class="cls-3" d="M189.6,343.78s-9,6.88-.38,16a.82.82,0,0,0,.57.24l78.92-.46s6.74-7.56,1.14-16.27Z"/><path class="cls-2" d="M251.27,351c0,.09-9.83.16-22,.16s-21.95-.07-21.95-.16,9.83-.16,21.95-.16S251.27,350.87,251.27,351Z"/><path class="cls-2" d="M239,353.81c0,.09-4.62.16-10.32.16s-10.32-.07-10.32-.16,4.62-.16,10.32-.16S239,353.73,239,353.81Z"/><path class="cls-2" d="M259.34,359.28c-.06,0,.17-.91.41-2.37a33.16,33.16,0,0,0,.46-5.76,33.68,33.68,0,0,0-.57-5.75c-.27-1.45-.51-2.34-.46-2.36a2.88,2.88,0,0,1,.23.61c.13.4.29,1,.46,1.71a28.65,28.65,0,0,1,.66,5.79A27.58,27.58,0,0,1,260,357a17.43,17.43,0,0,1-.42,1.72A3,3,0,0,1,259.34,359.28Z"/><path class="cls-2" d="M265.22,343.16a2.73,2.73,0,0,1,.36.58c.1.19.23.42.35.7s.28.6.4,1a16.77,16.77,0,0,1,.75,2.62,18.82,18.82,0,0,1,.34,3.32,18.27,18.27,0,0,1-.29,3.33,16.78,16.78,0,0,1-.7,2.63c-.12.37-.27.68-.39,1s-.24.52-.34.71a2.79,2.79,0,0,1-.34.58c-.06,0,.38-.88.85-2.34a19.19,19.19,0,0,0,.64-2.61,21.9,21.9,0,0,0,.26-3.27,20.48,20.48,0,0,0-.32-3.27,19.48,19.48,0,0,0-.67-2.6C265.62,344,265.17,343.19,265.22,343.16Z"/><path class="cls-2" d="M202.05,359.38a2.29,2.29,0,0,1-.37-.52c-.11-.18-.24-.4-.37-.66a10,10,0,0,1-.42-.91,14.19,14.19,0,0,1-.77-2.49,15.76,15.76,0,0,1-.3-3.18,15.53,15.53,0,0,1,.39-3.17A14,14,0,0,1,201,346a9.16,9.16,0,0,1,.45-.89,5.64,5.64,0,0,1,.38-.65,2.28,2.28,0,0,1,.39-.52c.05,0-.46.8-1,2.15a16.28,16.28,0,0,0-.76,2.45,18.19,18.19,0,0,0-.36,3.11,17.71,17.71,0,0,0,.28,3.11,15.6,15.6,0,0,0,.69,2.47C201.62,358.58,202.1,359.35,202.05,359.38Z"/><path class="cls-2" d="M193.53,361.31a3.27,3.27,0,0,1-.41-.6,7.65,7.65,0,0,1-.41-.74,11,11,0,0,1-.48-1,17.5,17.5,0,0,1-.9-2.78,17.41,17.41,0,0,1-.16-7.14,16.93,16.93,0,0,1,.78-2.83c.13-.39.3-.73.43-1a5.94,5.94,0,0,1,.38-.76,3.36,3.36,0,0,1,.38-.62c.06,0-.45.93-1,2.49a18.71,18.71,0,0,0-.7,2.8,18.29,18.29,0,0,0,.16,7,18.56,18.56,0,0,0,.82,2.77C193,360.4,193.58,361.28,193.53,361.31Z"/><path class="cls-3" d="M265.81,383.57v15.1H236.59v-15.1Z"/><path class="cls-2" d="M171.43,391.26c0,.13,0,.26,0,.4a8.66,8.66,0,0,0,8.7,8.1h87v-1.09H246.51a7.55,7.55,0,0,1-7.55-7.55h0a7.55,7.55,0,0,1,7.55-7.55h20.67V382l-87.06.3A8.72,8.72,0,0,0,171.43,391.26Z"/><path class="cls-2" d="M265.81,391.32c0,.09-6,.16-13.42.16s-13.42-.07-13.42-.16,6-.16,13.42-.16S265.81,391.23,265.81,391.32Z"/><path class="cls-2" d="M265.39,394.72c0,.09-5.69.16-12.7.16s-12.7-.07-12.7-.16,5.69-.16,12.7-.16S265.39,394.63,265.39,394.72Z"/><path class="cls-2" d="M265.81,397.83c0,.09-5.11.16-11.41.16s-11.42-.07-11.42-.16,5.11-.16,11.42-.16S265.81,397.74,265.81,397.83Z"/><path class="cls-2" d="M265.81,388.26c0,.09-5.88.16-13.14.16s-13.15-.07-13.15-.16,5.89-.16,13.15-.16S265.81,388.17,265.81,388.26Z"/><path class="cls-2" d="M265.39,385.2c0,.09-5.24.16-11.7.16s-11.7-.07-11.7-.16,5.24-.16,11.7-.16S265.39,385.11,265.39,385.2Z"/><path class="cls-1" d="M182,382.51a19.72,19.72,0,0,0-1.85,2.2,11.17,11.17,0,0,0,.15,12.94,20.87,20.87,0,0,0,1.9,2.15,2.9,2.9,0,0,1-.62-.46,9.56,9.56,0,0,1-1.46-1.56,11,11,0,0,1-.15-13.2,9.66,9.66,0,0,1,1.41-1.59A2.69,2.69,0,0,1,182,382.51Z"/><path class="cls-1" d="M179,382.19a17.77,17.77,0,0,0-1.85,2.19,11.18,11.18,0,0,0,.15,12.95,19.51,19.51,0,0,0,1.9,2.15,3.68,3.68,0,0,1-.63-.46,10.54,10.54,0,0,1-1.45-1.56,11,11,0,0,1-.16-13.2,10.23,10.23,0,0,1,1.42-1.6A2.54,2.54,0,0,1,179,382.19Z"/><path class="cls-1" d="M238.17,382.51a19.72,19.72,0,0,0-1.85,2.2,11.19,11.19,0,0,0,.16,12.94,18.32,18.32,0,0,0,1.9,2.15,2.55,2.55,0,0,1-.63-.46,9.56,9.56,0,0,1-1.46-1.56,11,11,0,0,1-.15-13.2,10.15,10.15,0,0,1,1.41-1.59A2.69,2.69,0,0,1,238.17,382.51Z"/><path class="cls-1" d="M235.23,382.19a18.92,18.92,0,0,0-1.85,2.19,11.18,11.18,0,0,0,.15,12.95,20.87,20.87,0,0,0,1.9,2.15,3.68,3.68,0,0,1-.63-.46,10.54,10.54,0,0,1-1.45-1.56,11,11,0,0,1-.16-13.2,10.77,10.77,0,0,1,1.42-1.6A2.79,2.79,0,0,1,235.23,382.19Z"/><path class="cls-1" d="M191.88,393.38c0-2.05,0-4.09-.08-6.14a4.38,4.38,0,0,0-.22-1.58,1.48,1.48,0,0,0-1.16-1,2.34,2.34,0,0,0-2.51,1.19,5.92,5.92,0,0,0-.6,3,43.63,43.63,0,0,0,.24,4.85,5.45,5.45,0,0,0,.57,2.22,2.06,2.06,0,0,0,1.87,1.13,2.1,2.1,0,0,0,1.64-1.43A6.13,6.13,0,0,0,191.88,393.38Z"/><path class="cls-1" d="M225.68,391.61c0,.09-6.29.16-14.05.16s-14-.07-14-.16,6.29-.16,14-.16S225.68,391.53,225.68,391.61Z"/><polygon class="cls-1" points="186.05 381.9 185.89 367.59 193.69 367.59 193.95 381.9 186.05 381.9"/><path class="cls-2" d="M193.22,370.14a41,41,0,0,1-7.24,0,41,41,0,0,1,7.24,0Z"/><path class="cls-2" d="M193.22,372.35a41,41,0,0,1-7.24,0,41,41,0,0,1,7.24,0Z"/><path class="cls-2" d="M193.22,374.56a43.76,43.76,0,0,1-7.24,0,41,41,0,0,1,7.24,0Z"/><path class="cls-2" d="M193.22,376.76a41,41,0,0,1-7.24,0,43.76,43.76,0,0,1,7.24,0Z"/><path class="cls-2" d="M193.22,379a41,41,0,0,1-7.24,0,41,41,0,0,1,7.24,0Z"/><path class="cls-3" d="M185.48,367.21h86.36a40.41,40.41,0,0,1,0,15.47h-86v-1.05h5.25a2.48,2.48,0,0,0,2.48-2.48v-8.56a2.48,2.48,0,0,0-2.48-2.48h-5.62Z"/><path class="cls-4" d="M205.9,375h1.44l.15,0a.29.29,0,0,1,.16.28s0,.06,0,.09-.07.24-.1.37a4.08,4.08,0,0,1-.9,1.63,1.72,1.72,0,0,1-1.23.63h-.18a1.39,1.39,0,0,1-1-.71,3.29,3.29,0,0,1-.43-1.73,4.87,4.87,0,0,1,.17-1.24,4.2,4.2,0,0,1,.86-1.67,1.75,1.75,0,0,1,1.3-.69,1.13,1.13,0,0,1,.54.13,1.7,1.7,0,0,1,.84,1.05.23.23,0,0,1,0,.14.29.29,0,0,1,0,.16.31.31,0,0,1-.27.15h-.1a.29.29,0,0,1-.19-.2l0,0a2.69,2.69,0,0,0-.17-.34.83.83,0,0,0-.69-.41.8.8,0,0,0-.48.18,2.5,2.5,0,0,0-.79,1.13,4.36,4.36,0,0,0-.34,1.62,2.86,2.86,0,0,0,.25,1.28.82.82,0,0,0,.75.56,1,1,0,0,0,.7-.42,3.85,3.85,0,0,0,.74-1.33c-.66,0-1,0-1,0-.22,0-.34-.15-.34-.34a.35.35,0,0,1,0-.11A.33.33,0,0,1,205.9,375Z"/><path class="cls-4" d="M210.8,372.14a.76.76,0,0,0,0,.11q.09.31,1,5.35a.24.24,0,0,1,0,.08.31.31,0,0,1-.3.31h0a.29.29,0,0,1-.24-.21l-.34-1.78h-1.78l-.85,1.78,0,.06a.34.34,0,0,1-.26.15.25.25,0,0,1-.17-.05.28.28,0,0,1-.14-.26.28.28,0,0,1,0-.09c.06-.12.15-.32.27-.59q1.86-4.06,2.23-4.79a.32.32,0,0,1,.58-.07Zm-.39,1.2-1,2h1.36Z"/><path class="cls-4" d="M215.62,378H213a.24.24,0,0,1-.16-.05.42.42,0,0,1-.15-.32h0q0-.15.72-5.33s0-.07,0-.11a.29.29,0,0,1,.28-.19.28.28,0,0,1,.15,0,.27.27,0,0,1,.16.27c0,.24-.08.72-.18,1.46-.3,2.28-.45,3.48-.46,3.6h2.21a.51.51,0,0,1,.17,0,.3.3,0,0,1,.19.3.38.38,0,0,1,0,.1A.35.35,0,0,1,215.62,378Z"/><path class="cls-4" d="M219.18,372.14l0,.11q.09.31,1,5.35a.22.22,0,0,1,0,.08.28.28,0,0,1,0,.15.27.27,0,0,1-.26.16h0a.27.27,0,0,1-.24-.21l-.35-1.78h-1.77l-.85,1.78,0,.06a.34.34,0,0,1-.27.15.26.26,0,0,1-.17-.05.3.3,0,0,1-.14-.26.29.29,0,0,1,0-.09l.26-.59q1.88-4.06,2.23-4.79a.32.32,0,0,1,.3-.22A.33.33,0,0,1,219.18,372.14Zm-.39,1.2-1,2h1.35Z"/><path class="cls-4" d="M223.32,375.21c.2.57.36,1,.47,1.31.27.74.41,1.13.41,1.17a.3.3,0,0,1,0,.16.29.29,0,0,1-.26.14.27.27,0,0,1-.26-.21l0-.13c-.14-.32-.38-.93-.7-1.83l-1.47,2a.33.33,0,0,1-.28.16.32.32,0,0,1-.16,0,.29.29,0,0,1-.14-.26v-.06a.73.73,0,0,1,.16-.26c.49-.63,1-1.39,1.63-2.28l-.18-.49c-.55-1.48-.83-2.25-.83-2.3a.32.32,0,0,1,0-.16.27.27,0,0,1,.25-.15.3.3,0,0,1,.29.17l.87,2.34,1.74-2.36a.34.34,0,0,1,.27-.15.26.26,0,0,1,.15,0,.28.28,0,0,1,.15.27.4.4,0,0,1,0,.15Z"/><path class="cls-4" d="M229.76,372a.4.4,0,0,1,.15,0,.3.3,0,0,1,.16.27c-.42,3.37-.66,5.18-.7,5.45a3.43,3.43,0,0,1-.56,1.43,2,2,0,0,1-1.73.84,2,2,0,0,1-.83-.22,1.84,1.84,0,0,1-.92-.8.4.4,0,0,1,0-.15.3.3,0,0,1,.31-.31.27.27,0,0,1,.23.13,1.67,1.67,0,0,0,1.34.75,1.29,1.29,0,0,0,1-.52,2.82,2.82,0,0,0,.57-1.64,1.35,1.35,0,0,1-.38.41,1.57,1.57,0,0,1-.93.31l-.18,0a1.38,1.38,0,0,1-1-.71,3.19,3.19,0,0,1-.43-1.73c0-.32,0-.64,0-1,.05-.52.17-1.27.36-2.24a.33.33,0,0,1,.3-.3.28.28,0,0,1,.15,0,.27.27,0,0,1,.16.25,11.1,11.1,0,0,1-.15,1.19,17.43,17.43,0,0,0-.2,1.81,3.71,3.71,0,0,0,.23,1.41c.18.43.44.64.77.64l.11,0a1.4,1.4,0,0,0,.78-.62,4,4,0,0,0,.64-1.43l.39-3a.5.5,0,0,1,0-.13A.28.28,0,0,1,229.76,372Z"/><path class="cls-1" d="M268.6,382.88c-.09,0-.16-3.55-.16-7.93s.07-7.94.16-7.94.16,3.55.16,7.94S268.69,382.88,268.6,382.88Z"/><path class="cls-2" d="M197.93,382.88c-.09,0-.16-3.55-.16-7.93s.07-7.94.16-7.94.16,3.55.16,7.94S198,382.88,197.93,382.88Z"/><path class="cls-1" d="M270.11,382.88c-.09,0-.16-3.55-.16-7.93s.07-7.94.16-7.94.16,3.55.16,7.94S270.2,382.88,270.11,382.88Z"/><path class="cls-2" d="M196.51,382.88c-.09,0-.16-3.55-.16-7.93s.07-7.94.16-7.94.16,3.55.16,7.94S196.6,382.88,196.51,382.88Z"/><path class="cls-2" d="M247.66,369.62l0,0,9.13,7.36.08.07-.1,0-1.21.32-7.71,2h0l-7-3-2-.85-.52-.22-.14-.06,0,0,.05,0,.13,0,.53.22,2,.82,7,2.92h0l7.7-2,1.22-.32,0,.09-9.11-7.39h0"/><polygon class="cls-2" points="255.95 375.81 256.44 376.28 257.11 376.14 256.82 376.76 257.16 377.35 256.49 377.26 256.03 377.77 255.9 377.1 255.28 376.82 255.88 376.49 255.95 375.81"/><polygon class="cls-2" points="247.19 378.72 247.53 379 247.96 378.88 247.79 379.29 248.04 379.66 247.6 379.63 247.32 379.98 247.21 379.55 246.8 379.39 247.17 379.16 247.19 378.72"/><polygon class="cls-2" points="237.52 374.75 238.06 374.78 238.4 374.36 238.53 374.88 239.04 375.07 238.58 375.36 238.56 375.9 238.14 375.56 237.62 375.7 237.82 375.2 237.52 374.75"/><polygon class="cls-2" points="260.04 369.74 260.58 369.77 260.92 369.35 261.05 369.87 261.56 370.06 261.1 370.35 261.08 370.89 260.66 370.55 260.14 370.7 260.34 370.19 260.04 369.74"/><polygon class="cls-2" points="247.22 369.38 247.56 369.41 247.77 369.13 247.86 369.47 248.19 369.59 247.89 369.77 247.88 370.12 247.61 369.9 247.28 369.99 247.41 369.67 247.22 369.38"/><path class="cls-2" d="M260.8,370.12s-3-.06-6.6-.22-6.59-.31-6.58-.34,2.95.06,6.59.21S260.8,370.08,260.8,370.12Z"/><path class="cls-2" d="M264.12,367.08H176.53c-1.15-2.61-1.43-5.08,0-7.3h87.59A8.51,8.51,0,0,1,264.12,367.08Z"/><rect class="cls-3" x="194.66" y="361.87" width="47.45" height="2.65"/><path class="cls-2" d="M179.89,367.12a2.54,2.54,0,0,1-.69-.89,6.18,6.18,0,0,1-.8-2.58,6.47,6.47,0,0,1,.33-2.69,2.46,2.46,0,0,1,.53-1A7.36,7.36,0,0,1,179,361a7.25,7.25,0,0,0,.45,5.1A9.64,9.64,0,0,1,179.89,367.12Z"/><path class="cls-2" d="M181.78,367.12a2.68,2.68,0,0,1-.69-.89,6.4,6.4,0,0,1-.46-5.27,2.46,2.46,0,0,1,.53-1s-.14.41-.32,1.06a7.4,7.4,0,0,0,.45,5.1C181.58,366.74,181.83,367.08,181.78,367.12Z"/><path class="cls-1" d="M260.57,367a15.39,15.39,0,0,0,.62-3.57,14.7,14.7,0,0,0-.58-3.57,7.39,7.39,0,0,1,0,7.14Z"/><path class="cls-1" d="M258.94,366.93c-.09,0,.27-1.56.26-3.49s-.36-3.47-.27-3.49a8.26,8.26,0,0,1,.59,3.49A8.54,8.54,0,0,1,258.94,366.93Z"/></g><g id="Blackboard"><rect class="cls-5" x="63.63" y="80.8" width="331.91" height="237.06"/><rect class="cls-6" x="71.51" y="90.27" width="313.77" height="218.48"/><path class="cls-5" d="M385.28,308.75c0-1.73-.08-85.65-.21-218.48l.21.21-313.74,0h0l.26-.26c0,78.09,0,152.24,0,218.48l-.24-.24,313.77.24L71.51,309h-.23v-.23c0-66.24,0-140.39,0-218.48V90h.29l313.74,0h.21v.21C385.36,223.1,385.28,307,385.28,308.75Z"/><rect class="cls-5" x="52.82" y="317.85" width="360.96" height="9.43"/><path class="cls-6" d="M405.37,317.85c0,.15-64,.26-142.86.26s-142.87-.11-142.87-.26,64-.26,142.87-.26S405.37,317.71,405.37,317.85Z"/><path class="cls-6" d="M72.73,89.82a55.75,55.75,0,0,1-4.57-4.32A56.91,56.91,0,0,1,63.74,81a28.58,28.58,0,0,1,4.79,4.11A29.22,29.22,0,0,1,72.73,89.82Z"/><path class="cls-6" d="M395.56,81.23a47.14,47.14,0,0,1-4.84,5A46.37,46.37,0,0,1,385.53,91a47.59,47.59,0,0,1,4.83-5A45.91,45.91,0,0,1,395.56,81.23Z"/><path class="cls-6" d="M396.73,317.55a36.88,36.88,0,0,1-5.57-4.13,37.46,37.46,0,0,1-5.07-4.73,60.58,60.58,0,0,1,5.4,4.33A62.54,62.54,0,0,1,396.73,317.55Z"/><path class="cls-7" d="M340.38,204.75s0-.09,0-.26,0-.45,0-.77c0-.69,0-1.68,0-3,0-2.6,0-6.37-.06-11.16,0-9.61-.07-23.28-.11-39.69l.22.23-54.83,0h0l.26-.26c0,20.08,0,38.9,0,54.84l-.23-.22,39.69.11,11.16.06,3,0h1s-.07,0-.24,0h-.74l-2.91,0-11.12.06-39.83.12h-.22v-.23c0-15.94,0-34.76,0-54.84v-.26h.27l54.83,0h.23v.22c-.05,16.46-.09,30.19-.12,39.83,0,4.77,0,8.53-.06,11.12,0,1.26,0,2.23,0,2.91,0,.31,0,.56,0,.74S340.39,204.76,340.38,204.75Z"/><path class="cls-7" d="M340.38,204.75l.42-.29,1.26-.81,4.86-3.06,17.85-11.12-.09.17c0-14.32,0-33.28-.07-54l.26.26h-.15l-54.05-.07.09,0-18.4,10.37-5,2.8-1.32.72-.46.23.43-.28,1.29-.76,5-2.9,18.32-10.52,0,0h.06l54.05-.06h.42v.26c0,20.74-.05,39.7-.07,54v.11l-.09.05-18,11-4.91,3-1.29.76A4.85,4.85,0,0,1,340.38,204.75Z"/><path class="cls-7" d="M364.87,135.62c.08.12-5.35,3.42-12.11,7.37s-12.31,7-12.38,6.92,5.35-3.42,12.12-7.37S364.8,135.49,364.87,135.62Z"/><path class="cls-7" d="M288.14,202.5c.07.13-.45.56-1.17,1s-1.36.65-1.43.52.45-.56,1.17-1S288.07,202.38,288.14,202.5Z"/><path class="cls-7" d="M293.35,199.51c.07.13-.46.56-1.18,1s-1.35.64-1.43.52.46-.56,1.18-1S293.27,199.39,293.35,199.51Z"/><path class="cls-7" d="M298.55,196.53c.07.12-.45.56-1.17,1s-1.36.64-1.43.52.45-.56,1.17-1S298.48,196.4,298.55,196.53Z"/><path class="cls-7" d="M303.75,193.54c.07.12-.45.56-1.17,1s-1.36.65-1.43.52.45-.56,1.17-1S303.68,193.41,303.75,193.54Z"/><path class="cls-7" d="M309,190.55c.07.13-.46.56-1.17,1s-1.36.64-1.43.52.45-.56,1.17-1S308.89,190.43,309,190.55Z"/><path class="cls-7" d="M310.28,185.3c.14,0,.25.67.24,1.5s-.12,1.5-.27,1.5-.25-.68-.25-1.51S310.13,185.29,310.28,185.3Z"/><path class="cls-7" d="M310.32,179.3c.15,0,.26.67.25,1.5s-.13,1.5-.27,1.5-.26-.68-.25-1.51S310.18,179.29,310.32,179.3Z"/><path class="cls-7" d="M310.37,173.3c.14,0,.25.67.25,1.5s-.13,1.5-.27,1.5-.26-.68-.25-1.51S310.23,173.29,310.37,173.3Z"/><path class="cls-7" d="M310.42,167.3c.14,0,.25.67.25,1.5s-.13,1.5-.28,1.5-.25-.68-.25-1.51S310.27,167.3,310.42,167.3Z"/><path class="cls-7" d="M310.46,161.3c.15,0,.26.67.25,1.5s-.13,1.5-.27,1.5-.25-.68-.25-1.51S310.32,161.3,310.46,161.3Z"/><path class="cls-7" d="M310.51,155.3c.14,0,.26.67.25,1.5s-.13,1.5-.27,1.5-.26-.68-.25-1.51S310.37,155.3,310.51,155.3Z"/><path class="cls-7" d="M310.56,149.3c.14,0,.25.67.25,1.5s-.13,1.5-.28,1.5-.25-.68-.24-1.51S310.41,149.3,310.56,149.3Z"/><path class="cls-7" d="M310.61,143.3c.14,0,.25.67.24,1.5s-.12,1.5-.27,1.5-.25-.68-.25-1.51S310.46,143.3,310.61,143.3Z"/><path class="cls-7" d="M310.65,137.3c.15,0,.26.67.25,1.5s-.13,1.5-.27,1.5-.26-.68-.25-1.51S310.51,137.3,310.65,137.3Z"/><path class="cls-7" d="M361.87,189.64c0-.15.68-.26,1.5-.26s1.5.11,1.5.26-.67.26-1.5.26S361.87,189.78,361.87,189.64Z"/><path class="cls-7" d="M355.87,189.64c0-.15.68-.26,1.5-.26s1.5.11,1.5.26-.67.26-1.5.26S355.87,189.78,355.87,189.64Z"/><path class="cls-7" d="M349.87,189.64c0-.15.68-.26,1.5-.26s1.5.11,1.5.26-.67.26-1.5.26S349.87,189.78,349.87,189.64Z"/><path class="cls-7" d="M343.87,189.64c0-.15.68-.26,1.5-.26s1.5.11,1.5.26-.67.26-1.5.26S343.87,189.78,343.87,189.64Z"/><path class="cls-7" d="M337.87,189.64c0-.15.68-.26,1.5-.26s1.5.11,1.5.26-.67.26-1.5.26S337.87,189.78,337.87,189.64Z"/><path class="cls-7" d="M331.87,189.64c0-.15.68-.26,1.5-.26s1.5.11,1.5.26-.67.26-1.5.26S331.87,189.78,331.87,189.64Z"/><path class="cls-7" d="M325.87,189.64c0-.15.68-.26,1.5-.26s1.5.11,1.5.26-.67.26-1.5.26S325.87,189.78,325.87,189.64Z"/><path class="cls-7" d="M319.87,189.64c0-.15.68-.26,1.5-.26s1.5.11,1.5.26-.67.26-1.5.26S319.87,189.78,319.87,189.64Z"/><path class="cls-7" d="M313.87,189.64c0-.15.68-.26,1.5-.26s1.5.11,1.5.26-.67.26-1.5.26S313.87,189.78,313.87,189.64Z"/><path class="cls-7" d="M310.24,189.64a.29.29,0,0,1,.32-.26.28.28,0,0,1,.31.26.29.29,0,0,1-.31.26A.3.3,0,0,1,310.24,189.64Z"/><path class="cls-7" d="M371.51,171.37a6,6,0,0,0,1.37-.06,4.26,4.26,0,0,0,2.84-2.14,5.71,5.71,0,0,0-.15-5.22,1.6,1.6,0,0,0-1.07-.87,1.9,1.9,0,0,0-1.41.38,6.55,6.55,0,0,0-1.73,2.91,13.44,13.44,0,0,0-.78,3.72h-.51c-.06-4-.09-7.44-.08-9.92,0-1.16,0-2.13,0-2.9a4.5,4.5,0,0,1,.07-1.06,4.71,4.71,0,0,1,.11,1.05c0,.78.07,1.74.12,2.91.09,2.47.19,5.94.27,9.91h-.51a13.43,13.43,0,0,1,.8-3.87,12.9,12.9,0,0,1,.75-1.7,4.28,4.28,0,0,1,1.17-1.44,2.38,2.38,0,0,1,1.8-.46,2.11,2.11,0,0,1,1.4,1.12,6.08,6.08,0,0,1,.06,5.63,4.36,4.36,0,0,1-3.13,2.17,3.53,3.53,0,0,1-1.06,0C371.63,171.43,371.51,171.39,371.51,171.37Z"/><path class="cls-7" d="M344.93,129.36s0,.08-.13.19a1.8,1.8,0,0,1-.53.4,2.2,2.2,0,0,1-1.06.22,2,2,0,0,1-1.34-.56,4.15,4.15,0,0,1-.91-1.53c-.22-.59-.44-1.23-.63-1.92a21.18,21.18,0,0,1-.76-4.73l.49,0a18.19,18.19,0,0,1-.18,6.25,5.67,5.67,0,0,1-1.94,3.19,2.46,2.46,0,0,1-1.84.41,2.28,2.28,0,0,1-1.43-1.09,6.16,6.16,0,0,1,3-8.35,4.88,4.88,0,0,1,1-.34c.24,0,.36-.06.37,0s-.49.14-1.28.56a6.29,6.29,0,0,0-2.62,2.63,6.17,6.17,0,0,0-.64,2.48,5.17,5.17,0,0,0,.61,2.8,1.78,1.78,0,0,0,1.12.86,1.92,1.92,0,0,0,1.45-.34,5.21,5.21,0,0,0,1.72-2.9,18.15,18.15,0,0,0,.2-6.08l.49,0a21.94,21.94,0,0,0,.67,4.64c.17.69.37,1.32.57,1.91a4,4,0,0,0,.78,1.44,2,2,0,0,0,2.12.4A3.75,3.75,0,0,0,344.93,129.36Z"/><path class="cls-7" d="M252.58,190.61a1,1,0,0,1,0,.3l.09.89c.08.81.17,1.95.3,3.4.23,3,.57,7.24.59,12.56a71.2,71.2,0,0,1-2.11,18.51,47.29,47.29,0,0,1-4,10.28,40.27,40.27,0,0,1-7.14,9.45c-2.85,2.88-5.81,5.51-8.28,8.39a33.86,33.86,0,0,0-5.69,9.27,53.24,53.24,0,0,0-3.68,18.09c-.22,5.29,0,9.58.13,12.54.07,1.46.13,2.6.16,3.41,0,.37,0,.66,0,.89a1.5,1.5,0,0,1,0,.31,1.14,1.14,0,0,1-.05-.3c0-.23-.05-.52-.08-.89-.06-.81-.15-1.95-.26-3.41a124,124,0,0,1-.3-12.56,53.13,53.13,0,0,1,3.6-18.26,34.34,34.34,0,0,1,5.75-9.42c2.5-2.92,5.47-5.56,8.3-8.43a40.15,40.15,0,0,0,7.06-9.32,46.31,46.31,0,0,0,4-10.17,72.23,72.23,0,0,0,2.22-18.38c0-5.3-.27-9.59-.43-12.55-.09-1.45-.15-2.59-.2-3.41,0-.36,0-.66,0-.88A1.23,1.23,0,0,1,252.58,190.61Z"/><path class="cls-7" d="M241.4,207.67a16.64,16.64,0,0,1-1.25-2.68c-.7-1.67-1.65-4-2.66-6.59l-.16-.4.47,0a27.35,27.35,0,0,0-2.49,6.26c-.45,1.66-.6,2.72-.68,2.71a9.78,9.78,0,0,1,.32-2.8,24,24,0,0,1,2.4-6.42l.26-.49.21.52.16.4c1,2.59,1.9,4.94,2.52,6.65A15.85,15.85,0,0,1,241.4,207.67Z"/><path class="cls-7" d="M236.31,302.35c-.14,0,.15-23.39.66-52.23s1-52.23,1.18-52.23-.15,23.38-.66,52.24S236.45,302.35,236.31,302.35Z"/><path class="cls-7" d="M258.54,248.29c0,.14-8.17.26-18.25.26s-18.27-.12-18.27-.26,8.18-.26,18.27-.26S258.54,248.14,258.54,248.29Z"/><path class="cls-7" d="M254.49,252.3a17.75,17.75,0,0,1,2.72-1.33c1.71-.76,4.09-1.79,6.75-2.9l0,.48-.3-.1c-2.81-.93-5.34-1.8-7.16-2.45a17.62,17.62,0,0,1-2.91-1.16,19,19,0,0,1,3,.81c1.85.57,4.4,1.38,7.2,2.31l.3.1.66.22-.64.27c-2.66,1.11-5.06,2.08-6.81,2.75A16.83,16.83,0,0,1,254.49,252.3Z"/><path class="cls-7" d="M258.64,241.05s-.06.16-.24.37l-.59.68.43-.82c.34-.65,1.23-2,2.32-3.61a21.74,21.74,0,0,1,2.89-3.73,21.06,21.06,0,0,1-2.47,4c-1.09,1.57-2.07,2.89-2.56,3.44l-.16-.14C258.48,241.1,258.61,241,258.64,241.05Z"/><path class="cls-7" d="M264.9,240.35a38.9,38.9,0,0,1-6.19-6.46,19.35,19.35,0,0,1,3.28,3.05A19,19,0,0,1,264.9,240.35Z"/><path class="cls-7" d="M231.68,238.93s.25-.22.78-.11a2,2,0,0,1,1.43,1.59,5.88,5.88,0,0,1-.56,3.13,3.8,3.8,0,0,1-1.16,1.55,2.36,2.36,0,0,1-2.07.47,2.48,2.48,0,0,1-1.55-1.45,3.63,3.63,0,0,1-.16-1.94,4.71,4.71,0,0,1,1.5-2.81,2.5,2.5,0,0,1,2.07-.56c.51.11.71.34.7.36s-.26-.12-.73-.16a2.38,2.38,0,0,0-1.8.64,4.44,4.44,0,0,0-1.26,2.61,3,3,0,0,0,.15,1.66,2,2,0,0,0,1.22,1.15,1.9,1.9,0,0,0,1.63-.38,3.29,3.29,0,0,0,1-1.34,5.79,5.79,0,0,0,.63-2.87,1.76,1.76,0,0,0-1.11-1.45A2.56,2.56,0,0,0,231.68,238.93Z"/><path class="cls-7" d="M226.63,205c-.12.08-.88-.77-1.71-1.91a6.21,6.21,0,0,1-1.28-2.22c.11-.08.88.77,1.7,1.91A6.53,6.53,0,0,1,226.63,205Z"/><path class="cls-7" d="M224.44,210.31a30.88,30.88,0,0,1,1.74-5.38,30.34,30.34,0,0,1,2.22-5.2,30.88,30.88,0,0,1-1.74,5.38A30.34,30.34,0,0,1,224.44,210.31Z"/><path class="cls-7" d="M283.68,250.31a15.16,15.16,0,0,1-2.85-2.79,16.28,16.28,0,0,1-2.46-3.14,15.16,15.16,0,0,1,2.85,2.79A16.28,16.28,0,0,1,283.68,250.31Z"/><path class="cls-7" d="M282.51,258.62a9.65,9.65,0,0,1,.47-2.33c.37-1.41.95-3.35,1.7-5.45s1.53-4,2.14-5.31a10,10,0,0,1,1.1-2.09,11.48,11.48,0,0,1-.76,2.24c-.52,1.36-1.24,3.24-2,5.33s-1.38,4-1.84,5.39A12.39,12.39,0,0,1,282.51,258.62Z"/><path class="cls-7" d="M301.23,247.71a32.69,32.69,0,0,1-8.23,0,32.69,32.69,0,0,1,8.23,0Z"/><path class="cls-7" d="M302.15,254.43a43.52,43.52,0,0,1-9.5,0,43.52,43.52,0,0,1,9.5,0Z"/><path class="cls-7" d="M315,257.59a32.87,32.87,0,0,1-4.08-4.3,33.86,33.86,0,0,1-3.69-4.64,33.68,33.68,0,0,1,4.08,4.3A34.36,34.36,0,0,1,315,257.59Z"/><path class="cls-7" d="M314.44,247.37a11.19,11.19,0,0,1-1.09,2.06l-2.86,4.83-2.85,4.85a10.21,10.21,0,0,1-1.27,1.95,10.3,10.3,0,0,1,.95-2.13c.65-1.29,1.6-3,2.72-4.93s2.19-3.57,3-4.77A9.88,9.88,0,0,1,314.44,247.37Z"/><path class="cls-7" d="M322.2,244.61c0,.12-2.45-.35-6.07-.19l-.44,0,.23-.37,2.91-4.59c.81-1.34,1.92-2.59,1.63-3.86a1.42,1.42,0,0,0-1.14-1.12,2.36,2.36,0,0,0-1.52.23,4.87,4.87,0,0,0-1.64,1.7,3.84,3.84,0,0,1-.51.75,2.83,2.83,0,0,1,.34-.85,4.56,4.56,0,0,1,1.63-1.92,2.7,2.7,0,0,1,1.78-.33,1.87,1.87,0,0,1,1.53,1.44,3.25,3.25,0,0,1-.42,2.25c-.38.68-.82,1.31-1.24,2l-3,4.56-.2-.36a26.18,26.18,0,0,1,4.43.27A6.21,6.21,0,0,1,322.2,244.61Z"/><path class="cls-7" d="M347.45,237s.34.24,1,.5a4.09,4.09,0,0,0,2.92,0,3.4,3.4,0,0,0,2.08-3.45,2.72,2.72,0,0,0-1.29-2,2.77,2.77,0,0,0-2.56-.28l-.18-.49.32-.1a6.69,6.69,0,0,0,2.53-1.31,2.44,2.44,0,0,0,.84-2.26,2.51,2.51,0,0,0-1.43-1.7,3.11,3.11,0,0,0-2-.12,4.51,4.51,0,0,0-2.46,1.73c-.45.59-.63,1-.67,1a3,3,0,0,1,.5-1.07,4.63,4.63,0,0,1,2.53-2,3.4,3.4,0,0,1,2.28.09,2.75,2.75,0,0,1,.77,4.72,7,7,0,0,1-2.72,1.43l-.32.11-.19-.49a3.35,3.35,0,0,1,4.53,2.74,3.76,3.76,0,0,1-2.43,3.84,4.09,4.09,0,0,1-3.12-.2,3.13,3.13,0,0,1-.72-.45C347.51,237.07,347.44,237,347.45,237Z"/><path class="cls-7" d="M362.67,224.76a.61.61,0,0,1,.42-.15,1.33,1.33,0,0,1,1.12.62,1.56,1.56,0,0,1,.31.92,2.24,2.24,0,0,1-.3,1.09,8.09,8.09,0,0,1-1.8,2,24.45,24.45,0,0,1-2.56,2,3.28,3.28,0,0,0-1.81,2.74,3.12,3.12,0,0,0,2.17,2.8,4.38,4.38,0,0,0,3.93-.52,2.56,2.56,0,0,0,1.09-1.63,2.39,2.39,0,0,0-.52-1.82,6.51,6.51,0,0,0-3.31-2,7.64,7.64,0,0,1-3.28-1.81,3.45,3.45,0,0,1-.86-1.53,2.67,2.67,0,0,1,.16-1.62,3.87,3.87,0,0,1,1.94-1.9,6.64,6.64,0,0,1,2-.49,10.89,10.89,0,0,1,1.26-.06,2.28,2.28,0,0,1,.45,0c0,.05-.61.08-1.69.24a6.89,6.89,0,0,0-1.87.56,3.53,3.53,0,0,0-1.72,1.77,2.5,2.5,0,0,0,.67,2.72,7.43,7.43,0,0,0,3.13,1.65,6.87,6.87,0,0,1,3.56,2.12,3,3,0,0,1,.62,2.21,3,3,0,0,1-1.3,2,4.83,4.83,0,0,1-4.4.58,3.83,3.83,0,0,1-1.78-1.28,3.48,3.48,0,0,1-.7-2,2.83,2.83,0,0,1,.65-1.9,6.05,6.05,0,0,1,1.4-1.21,24.68,24.68,0,0,0,2.56-1.88A7.93,7.93,0,0,0,364,227.1a1.58,1.58,0,0,0,.07-1.75,1.25,1.25,0,0,0-1-.64C362.81,224.7,362.68,224.79,362.67,224.76Z"/><path class="cls-7" d="M372.74,232.75a6.07,6.07,0,0,1-1.75.37l-1.91.27a9.83,9.83,0,0,1-1.18.1,1.5,1.5,0,0,1-.7-.2,1,1,0,0,1-.43-.69,2.56,2.56,0,0,1,.32-1.31c.16-.35.31-.7.47-1,.27-.61.54-1.19.81-1.75a6.26,6.26,0,0,1,.86-1.57,5.94,5.94,0,0,1-.53,1.71c-.22.58-.46,1.18-.7,1.8-.15.34-.29.69-.44,1.05a2.36,2.36,0,0,0-.28,1c0,.29.29.43.65.45a10.48,10.48,0,0,0,1.1-.07l1.92-.15A6.35,6.35,0,0,1,372.74,232.75Z"/><path class="cls-7" d="M373.7,238.13a37.87,37.87,0,0,1-.75-6.3,38.71,38.71,0,0,1-.24-6.34,37.87,37.87,0,0,1,.75,6.3A38.71,38.71,0,0,1,373.7,238.13Z"/><path class="cls-7" d="M352.55,257.05a3.25,3.25,0,0,1,.16,1.11h-.27c-.18-1.72-.38-3.7-.62-6-.42-3.91-.87-7.06-.73-7.09a7.76,7.76,0,0,1,.52,2c.24,1.26.52,3,.73,5a55.88,55.88,0,0,1,.37,6h-.27A3.25,3.25,0,0,1,352.55,257.05Z"/><path class="cls-7" d="M364.07,244a22.35,22.35,0,0,1-6.54,1.84,22.35,22.35,0,0,1,6.54-1.84Z"/><path class="cls-7" d="M357.3,255.8a5.51,5.51,0,0,1,.81.16,4.71,4.71,0,0,0,2.14-.2,4.17,4.17,0,0,0,2.38-2A3.35,3.35,0,0,0,363,252a2.28,2.28,0,0,0-.84-1.64,2.1,2.1,0,0,0-2.07-.21,7.25,7.25,0,0,0-1.86,1.08l-.33.25,0-.41a26.86,26.86,0,0,1-.06-4.24,5.53,5.53,0,0,1,.24-1.6c.12,0-.11,2.37.28,5.79l-.37-.16a7.51,7.51,0,0,1,2-1.18,2.6,2.6,0,0,1,2.57.27,2.75,2.75,0,0,1,1,2,3.78,3.78,0,0,1-.48,2,4.49,4.49,0,0,1-2.7,2.1,4.39,4.39,0,0,1-2.3.05A1.84,1.84,0,0,1,357.3,255.8Z"/><path class="cls-7" d="M343.14,244.5a8.49,8.49,0,0,1-4.17,0,8.49,8.49,0,0,1,4.17,0Z"/><path class="cls-7" d="M113.86,249c-.15,0-.27-21.85-.27-48.79s.12-48.79.27-48.79.26,21.84.26,48.79S114,249,113.86,249Z"/><path class="cls-7" d="M116.77,152.29a42.72,42.72,0,0,1-3.31-5.66l.47,0-.05.12a43.76,43.76,0,0,1-2.84,6.07,43.46,43.46,0,0,1,2.36-6.27l0-.12.21-.51.25.48A41,41,0,0,1,116.77,152.29Z"/><path class="cls-7" d="M113.31,139.93c-.08.11-.89-.42-1.52-1.39s-.8-1.92-.67-2,.51.77,1.1,1.67S113.41,139.81,113.31,139.93Z"/><path class="cls-7" d="M111.78,142.74a20.07,20.07,0,0,1,1.24-3.48,20.2,20.2,0,0,1,1.42-3.41,10.17,10.17,0,0,1-.93,3.6A10.36,10.36,0,0,1,111.78,142.74Z"/><path class="cls-7" d="M106.87,164.3a28.5,28.5,0,0,0,.89-3,29.63,29.63,0,0,0,.07-3.13,5.63,5.63,0,0,1-1,6.13Z"/><path class="cls-7" d="M107.82,160.22c.06,0-.12.43-.74.57a1.41,1.41,0,0,1-1.73-1.35,1.47,1.47,0,0,1,.55-1.24,1.44,1.44,0,0,1,1-.28c.64.08.85.47.8.5s-.33-.16-.81-.13a1.07,1.07,0,1,0,.1,2.14C107.52,160.41,107.77,160.16,107.82,160.22Z"/><path class="cls-7" d="M189.82,242.1c0,.14-18.69.26-41.74.26s-41.75-.12-41.75-.26,18.69-.26,41.75-.26S189.82,242,189.82,242.1Z"/><path class="cls-7" d="M190.68,242a24.81,24.81,0,0,1-6.69-2.67,12.59,12.59,0,0,1,3.44,1.09A12.91,12.91,0,0,1,190.68,242Z"/><path class="cls-7" d="M191.59,242.31a9.12,9.12,0,0,1-2.76,1.24,8.88,8.88,0,0,1-2.94.75,9.12,9.12,0,0,1,2.76-1.24A8.88,8.88,0,0,1,191.59,242.31Z"/><path class="cls-7" d="M109.94,244.75a2.54,2.54,0,0,1,1.07,1.73,3.78,3.78,0,0,1-.16,2.27,2.64,2.64,0,0,1-.84,1.13,1.42,1.42,0,0,1-1.58.06,2.94,2.94,0,0,1-1.21-2.54,2.67,2.67,0,0,1,.93-2.09,2.06,2.06,0,0,1,1.46-.47c.37,0,.54.17.53.19s-.2,0-.53,0a2,2,0,0,0-1.22.55,2.34,2.34,0,0,0-.69,1.81,2.56,2.56,0,0,0,1,2.09.9.9,0,0,0,1,0,2.22,2.22,0,0,0,.69-.9,3.51,3.51,0,0,0,.24-2A6.32,6.32,0,0,0,109.94,244.75Z"/><path class="cls-7" d="M177.92,245.85s.3-.17.7.17a1,1,0,0,1,.35.82,1.7,1.7,0,0,1-.49,1.08c-.59.65-1.67.89-2.16,1.69a1.38,1.38,0,0,0,0,1.35,1.32,1.32,0,0,0,1.27.63,1.31,1.31,0,0,0,1.1-.9,1.39,1.39,0,0,0-.27-1.33,3.6,3.6,0,0,0-1.11-.88,1.74,1.74,0,0,1-1-1,1.38,1.38,0,0,1,.27-1.17,1.62,1.62,0,0,1,.7-.51c.45-.17.72-.14.72-.11s-.25.08-.63.29a1.61,1.61,0,0,0-.56.5,1.11,1.11,0,0,0-.14.9c.16.66,1.39.76,2.12,1.7a1.86,1.86,0,0,1,.38,1.79,1.81,1.81,0,0,1-3.29.36,1.85,1.85,0,0,1,0-1.85,3.2,3.2,0,0,1,1.24-1,5.06,5.06,0,0,0,1.07-.67,1.48,1.48,0,0,0,.46-.84.84.84,0,0,0-.2-.66C178.2,245.84,177.91,245.9,177.92,245.85Z"/><path class="cls-7" d="M177.67,243.89a10.35,10.35,0,0,1,0-4.61,10.35,10.35,0,0,1,0,4.61Z"/><path class="cls-7" d="M200,242.2a4.22,4.22,0,0,1-1.44.22l-1.56.09a.58.58,0,0,1-.35-.07.45.45,0,0,1-.19-.46,1.13,1.13,0,0,1,.32-.5l.7-.7a2.3,2.3,0,0,0,.84-1.47.94.94,0,0,0-.65-1,1.58,1.58,0,0,0-.91.18c-.23.1-.36.15-.38.12s.07-.14.27-.3a1.56,1.56,0,0,1,1.08-.36,1.32,1.32,0,0,1,1.07,1.34,2.61,2.61,0,0,1-.93,1.81l-.7.7c-.13.12-.22.22-.22.26s-.09,0-.08,0h0s0-.05,0-.06H197l1.56,0A4,4,0,0,1,200,242.2Z"/><path class="cls-7" d="M125,242.1s0-.53-.06-1.44,0-2.26-.07-3.83c0-3.24-.11-7.73-.12-12.86l.25.25h-4.85c.52-.52.15-.14.26-.26h0v5.35c0,1.73,0,3.37,0,4.92,0,3.06-.06,5.72-.08,7.84l-.16-.16,3.53.09c.84,0,1.3.05,1.32.07a9.38,9.38,0,0,1-1.22.07l-3.63.09H120v-.16c0-2.12,0-4.78-.07-7.84,0-1.55,0-3.19,0-4.92,0-.86,0-1.74,0-2.64V224h0l.26-.26h5.11V224c0,5.23-.07,9.81-.12,13,0,1.54,0,2.81-.07,3.77A7.5,7.5,0,0,1,125,242.1Z"/><path class="cls-7" d="M171.15,242.1a4.3,4.3,0,0,1,0-.55c0-.4,0-.91,0-1.53,0-1.38,0-3.27-.07-5.6,0-4.75-.1-11.31-.11-18.75l.25.25H166.3l.26-.26h0v4.1c0,1.35,0,2.67,0,4,0,2.57,0,5,0,7.28,0,4.49-.07,8.29-.09,11.08l-.14-.13,3.55.07,1,0,.34,0a9.6,9.6,0,0,1-1.22.07l-3.63.07h-.14v-.15c0-2.79,0-6.59-.09-11.08,0-2.27,0-4.71,0-7.28,0-1.29,0-2.61,0-4v-4.1h0c.12-.12-.26.25.26-.27h5.11v.26c0,7.55-.06,14.2-.11,18.93,0,2.3-.06,4.18-.08,5.54,0,.6,0,1.09,0,1.48S171.17,242.12,171.15,242.1Z"/><path class="cls-7" d="M136.65,242.1a5,5,0,0,1,0-.69c0-.48,0-1.11,0-1.9,0-1.7-.05-4.07-.08-7,0-5.93-.07-14.11-.11-23.35l.26.26H131.8c.51-.52.14-.14.26-.25h0v10.25c0,3.26,0,6.34,0,9.18,0,5.63-.08,10.28-.1,13.49l-.12-.13,3.56.07.95,0,.34,0a.87.87,0,0,1-.3,0l-.91,0-3.64.08h-.13v-.13c0-3.21-.06-7.86-.1-13.49,0-2.84,0-5.92,0-9.18V209.18h0c.11-.12-.27.25.26-.27h5.11v.26c0,9.31-.09,17.56-.12,23.54,0,2.9,0,5.25-.07,6.93,0,.77,0,1.38,0,1.85A4.52,4.52,0,0,1,136.65,242.1Z"/><path class="cls-7" d="M148.08,242a1,1,0,0,1,0-.28c0-.2,0-.46,0-.77,0-.72,0-1.71,0-3,0-2.6,0-6.29-.07-10.87,0-9.19-.07-21.9-.11-36.16l.26.26h-4.85l.25-.25v8.37q0,4.11,0,8c0,5.18,0,10,0,14.46-.05,8.79-.09,15.83-.11,20.2l-.11-.11,3.58.06.94,0,.34,0-.3,0-.92,0-3.64.06h-.1V242c0-4.37-.06-11.41-.11-20.2,0-4.42,0-9.28,0-14.46v-8c0-1.36,0-2.75,0-4.15V191c.12-.12-.26.25.27-.27h5.11V191c-.05,14.33-.09,27.11-.12,36.35,0,4.55-.05,8.23-.07,10.81,0,1.23,0,2.2,0,2.9,0,.3,0,.54,0,.74A2,2,0,0,1,148.08,242Z"/><path class="cls-7" d="M159.78,242s0-.16,0-.46,0-.75,0-1.31c0-1.16,0-2.85,0-5,0-4.36-.05-10.62-.08-18.39,0-15.53-.07-37-.11-61l.26.26h-4.85c.52-.52.15-.13.26-.24v14.81c0,4.83,0,9.53,0,14.07,0,9.08,0,17.51,0,25-.06,15-.11,26.41-.13,32.22l-.08-.08,3.64.05h.9l.31,0h-.28l-.89,0-3.68.05h-.08V242c0-5.81-.07-17.21-.13-32.22,0-7.53,0-16,0-25,0-4.54,0-9.24,0-14.07V155.86c.12-.12-.27.24.26-.28H160v.26c0,24-.08,45.62-.11,61.2,0,7.73-.06,14-.08,18.32,0,2.13,0,3.79,0,4.94l0,1.28A3.14,3.14,0,0,1,159.78,242Z"/><path class="cls-7" d="M241,115.89s.18,0,.53.16.88.28,1.54.54a31.24,31.24,0,0,1,5.59,2.92,30.83,30.83,0,0,1,7.32,6.73,27.47,27.47,0,0,1,5.48,11.94,26.63,26.63,0,0,1-2,15.72,24.38,24.38,0,0,1-5.1,7.32,23.32,23.32,0,0,1-3.65,2.95c-.69.4-1.37.82-2.09,1.18a22.06,22.06,0,0,1-2.22,1c-6.1,2.43-13.13,2.53-20.1,1.86-3.51-.34-7.05-.84-10.64-1.4a64.65,64.65,0,0,1-10.78-2.5,27.43,27.43,0,0,1-9.65-5.42,21.81,21.81,0,0,1-3.52-4.17,22.2,22.2,0,0,1-2.25-4.88,25.44,25.44,0,0,1-1-10.32,27.58,27.58,0,0,1,2.83-9.54,31.75,31.75,0,0,1,13-12.78,43.18,43.18,0,0,1,15.21-4.85,58.35,58.35,0,0,1,13.19-.08,84,84,0,0,1,9.83,1.61c2.67.59,4.72,1.14,6.11,1.53l1.57.46c.35.1.53.17.53.17s-.19,0-.55-.12l-1.58-.41c-1.39-.35-3.45-.88-6.12-1.44a88.66,88.66,0,0,0-9.82-1.51,58.59,58.59,0,0,0-13.11.16,42.86,42.86,0,0,0-15.05,4.86,31.33,31.33,0,0,0-12.76,12.62,27.16,27.16,0,0,0-2.77,9.37,25.34,25.34,0,0,0,1,10.12,22,22,0,0,0,2.2,4.75,20.46,20.46,0,0,0,3.44,4.06,26.94,26.94,0,0,0,9.47,5.32,64.88,64.88,0,0,0,10.69,2.48c3.58.56,7.12,1.06,10.61,1.41,6.94.67,13.88.57,19.88-1.8a23.26,23.26,0,0,0,12.84-12.19,26.27,26.27,0,0,0,2.06-15.47,27.06,27.06,0,0,0-5.34-11.82,30.69,30.69,0,0,0-7.21-6.74,32.07,32.07,0,0,0-5.5-3c-.66-.28-1.19-.45-1.53-.59Z"/><path class="cls-7" d="M206.09,149.71a4.06,4.06,0,0,1-1.06.13c-.69,0-1.69.1-2.92.15l-1,0A3.63,3.63,0,0,1,200,150a1,1,0,0,1-.55-.43,1.7,1.7,0,0,1-.17-.64l-.08-1.19c-.1-1.64-.2-3.42-.31-5.29s-.22-3.65-.23-5.31a4.84,4.84,0,0,1,.55-2.34,3.25,3.25,0,0,1,1.6-1.36,6.65,6.65,0,0,1,2.95-.33,3.65,3.65,0,0,1,1.06.19,5.69,5.69,0,0,1-1.07,0,6.85,6.85,0,0,0-2.79.46,2.82,2.82,0,0,0-1.37,1.24,4.4,4.4,0,0,0-.45,2.13c0,1.59.18,3.4.27,5.27s.19,3.65.27,5.29c.08.78-.09,1.75.45,1.88a3.83,3.83,0,0,0,1,.06h1c1.23,0,2.23,0,2.92,0A4.55,4.55,0,0,1,206.09,149.71Z"/><path class="cls-7" d="M204.62,141.14a14.69,14.69,0,0,1-5.45.11,7.38,7.38,0,0,1,2.72-.32A7.16,7.16,0,0,1,204.62,141.14Z"/><path class="cls-7" d="M218.25,138.71a24.69,24.69,0,0,1-4.15.21,25.32,25.32,0,0,1-4.14,0,13,13,0,0,1,4.13-.56A12.38,12.38,0,0,1,218.25,138.71Z"/><path class="cls-7" d="M219,145a13.26,13.26,0,0,1-4.1.28,13,13,0,0,1-4.08-.49,22.56,22.56,0,0,1,4.09,0A21.15,21.15,0,0,1,219,145Z"/><path class="cls-7" d="M241.05,148.72s0-.56,0-1.59a15.91,15.91,0,0,0-.79-4.31,4.38,4.38,0,0,0-1.51-2.47,1.31,1.31,0,0,0-1.43.1,3.48,3.48,0,0,0-1.08,1.35c-1.16,2.24-1.32,5.12-1.33,8.12l-.51,0a34.77,34.77,0,0,0-.08-6,23.11,23.11,0,0,0-.34-2.42,3.13,3.13,0,0,0-1.1-1.89,1.64,1.64,0,0,0-1.92,0,2.87,2.87,0,0,0-1.19,1.65,11.19,11.19,0,0,0-.37,2.08c-.08.69-.14,1.37-.17,2a33.11,33.11,0,0,0,0,3.73l-.4,0c-.11-2.94-.21-5.35-.27-7.11,0-.79,0-1.44-.05-1.94a3.51,3.51,0,0,1,0-.68,2.49,2.49,0,0,1,.1.67c0,.51.09,1.15.15,1.94.11,1.76.26,4.16.45,7.09l-.4,0a33.48,33.48,0,0,1,0-3.78c0-.67.08-1.36.15-2.06a11.47,11.47,0,0,1,.38-2.18,3.34,3.34,0,0,1,1.39-1.93,2.4,2.4,0,0,1,1.24-.37,2.19,2.19,0,0,1,1.24.43,3.57,3.57,0,0,1,1.3,2.19,23.33,23.33,0,0,1,.36,2.49,33.83,33.83,0,0,1,.06,6.11l-.5,0c0-3,.2-6,1.44-8.32a3.88,3.88,0,0,1,1.25-1.5,1.72,1.72,0,0,1,1.85-.09,4.59,4.59,0,0,1,1.63,2.71,14.92,14.92,0,0,1,.66,4.4c0,.52,0,.93-.07,1.2A1.55,1.55,0,0,1,241.05,148.72Z"/><path class="cls-7" d="M252.52,147.89s-.19.22-.63.45a5.11,5.11,0,0,1-2,.5,5.37,5.37,0,0,1-3-.82,5.3,5.3,0,0,1-1.68-6.93,5.37,5.37,0,0,1,2.3-2.11,5.09,5.09,0,0,1,2-.48,1.52,1.52,0,0,1,.76.11,7.14,7.14,0,0,0-2.63.7,5.14,5.14,0,0,0-2,2,4.95,4.95,0,0,0,1.52,6.29,5.16,5.16,0,0,0,2.74.85A7.24,7.24,0,0,0,252.52,147.89Z"/><path class="cls-7" d="M255.6,133.06a26.19,26.19,0,0,0-5.82,1l-.88.28.65-.66a17.66,17.66,0,0,0,3.25-4,5.9,5.9,0,0,0,.68-4c-.14-.6-.5-1.09-1-1.11a3.31,3.31,0,0,0-1.48.4,5.57,5.57,0,0,0-1.8,1.45c-.35.44-.5.72-.54.7a1.94,1.94,0,0,1,.38-.81,5,5,0,0,1,1.79-1.66,3.4,3.4,0,0,1,1.68-.51,1.37,1.37,0,0,1,1,.46,2.44,2.44,0,0,1,.49,1,6.21,6.21,0,0,1-.69,4.39,16.64,16.64,0,0,1-3.39,4.05l-.23-.39a16.67,16.67,0,0,1,4.31-.69A4.85,4.85,0,0,1,255.6,133.06Z"/><path class="cls-7" d="M369.64,254.91a7,7,0,0,1,.87-.24,7.09,7.09,0,0,0,2.18-1,4.29,4.29,0,0,0,1.8-2.85,3.21,3.21,0,0,0-.39-1.92,2.43,2.43,0,0,0-1.63-1.21,2.24,2.24,0,0,0-2,.59l-.37-.35a9.05,9.05,0,0,1,1.56-1.11,2.56,2.56,0,0,0,1-1.15,1,1,0,0,0-.24-1.18,1.6,1.6,0,0,0-1.09-.36,3.25,3.25,0,0,0-1.64.69c-.36.25-.55.4-.58.37a2.09,2.09,0,0,1,.47-.51,3.13,3.13,0,0,1,1.73-.88,1.92,1.92,0,0,1,1.37.4,1.45,1.45,0,0,1,.4,1.62,3,3,0,0,1-1.18,1.4,9.52,9.52,0,0,0-1.47,1.06l-.37-.35a2.74,2.74,0,0,1,2.52-.75,2.93,2.93,0,0,1,2,1.47,3.61,3.61,0,0,1,.42,2.23,4.51,4.51,0,0,1-2.07,3.09,6,6,0,0,1-2.34.89A2.08,2.08,0,0,1,369.64,254.91Z"/><path class="cls-7" d="M382.51,259.82c0,.14-7.83,1.37-17.53,2.74s-17.58,2.38-17.6,2.23,7.83-1.37,17.53-2.74S382.49,259.68,382.51,259.82Z"/><path class="cls-7" d="M319.79,265c0,.14-7.76,1.05-17.36,2S285,268.7,285,268.56s7.76-1.06,17.36-2S319.78,264.86,319.79,265Z"/><path class="cls-7" d="M321.71,269.34c0,.14-7.26,1.09-16.25,2.11s-16.31,1.73-16.32,1.59,7.26-1.09,16.26-2.11S321.7,269.2,321.71,269.34Z"/><rect class="cls-4" x="193" y="314.3" width="34.41" height="3.75"/><path class="cls-8" d="M240.91,274.48V318h74.82ZM252.39,292l31.09,18.41H252.39Z"/><path class="cls-5" d="M248.1,278.65a8.72,8.72,0,0,1-1.35,2.67,9.1,9.1,0,0,1-1.79,2.39,8.72,8.72,0,0,1,1.35-2.67A8.63,8.63,0,0,1,248.1,278.65Z"/><path class="cls-5" d="M259.19,285a7.92,7.92,0,0,1-1.33,2.59,8,8,0,0,1-1.77,2.31,8.67,8.67,0,0,1,1.33-2.59A8.4,8.4,0,0,1,259.19,285Z"/><path class="cls-5" d="M270.29,291.43a8.06,8.06,0,0,1-1.59,2.43,8.52,8.52,0,0,1-2,2.12,16.09,16.09,0,0,1,3.59-4.55Z"/><path class="cls-5" d="M281.19,298.06a8.16,8.16,0,0,1-1.59,2.44,8.38,8.38,0,0,1-2,2.11,8.16,8.16,0,0,1,1.59-2.44A8.38,8.38,0,0,1,281.19,298.06Z"/><path class="cls-5" d="M292.59,304.59a8.79,8.79,0,0,1-1.47,2.6,9.2,9.2,0,0,1-1.89,2.31,16.58,16.58,0,0,1,3.36-4.91Z"/><path class="cls-5" d="M304.43,311.45a7.71,7.71,0,0,1-1.32,2.48,7.86,7.86,0,0,1-1.75,2.2,7.71,7.71,0,0,1,1.32-2.48A7.86,7.86,0,0,1,304.43,311.45Z"/><path class="cls-5" d="M251.56,280.67c.12.08-.13.7-.56,1.39s-.88,1.2-1,1.12.12-.7.55-1.39S251.43,280.59,251.56,280.67Z"/><path class="cls-5" d="M255.2,282.7c.12.07-.13.7-.56,1.39s-.88,1.2-1,1.12.12-.7.55-1.39S255.07,282.62,255.2,282.7Z"/><path class="cls-5" d="M263.29,287.46c.12.07-.13.7-.56,1.39s-.88,1.2-1,1.12.13-.7.56-1.39S263.17,287.38,263.29,287.46Z"/><path class="cls-5" d="M266.93,289.49c.12.07-.13.7-.56,1.39s-.88,1.2-1,1.12.13-.7.56-1.39S266.81,289.41,266.93,289.49Z"/><path class="cls-5" d="M274.24,294c.12.07-.13.7-.56,1.39s-.88,1.2-1,1.12.13-.7.56-1.39S274.12,293.94,274.24,294Z"/><path class="cls-5" d="M277.71,296.05c.12.07-.13.7-.56,1.39s-.88,1.2-1,1.12.13-.7.56-1.39S277.59,296,277.71,296.05Z"/><path class="cls-5" d="M285.2,300.37c.12.08-.13.7-.56,1.4s-.88,1.19-1,1.12.13-.7.56-1.4S285.08,300.3,285.2,300.37Z"/><path class="cls-5" d="M289.23,302.74c.12.08-.13.7-.56,1.4s-.88,1.19-1,1.12.12-.7.55-1.4S289.1,302.67,289.23,302.74Z"/><path class="cls-5" d="M296.46,307c.12.08-.13.7-.56,1.39s-.88,1.2-1,1.12.13-.7.56-1.39S296.34,306.9,296.46,307Z"/><path class="cls-5" d="M300.64,309.37c.12.08-.13.7-.56,1.4s-.88,1.19-1,1.12.13-.7.56-1.4S300.52,309.3,300.64,309.37Z"/></g><g id="Character"><path class="cls-5" d="M39.1,185.58a9.25,9.25,0,0,0-10.88-4.23,8.95,8.95,0,0,0,3.38,17.37c4.41-.2,8-3.52,11-6.75"/><path class="cls-8" d="M42.63,183.93a1.83,1.83,0,0,0-2.16-1.43,2.74,2.74,0,0,0-1.94,2,5.43,5.43,0,0,0,.13,2.88,11.76,11.76,0,0,0,2,4c.63.82,1.63,1.63,2.59,1.26s1.17-1.75,1.07-2.83a19.05,19.05,0,0,0-2.08-7"/><path class="cls-5" d="M67.5,144.78c4.72-6.91,10.86-13,18.35-16.73s16.43-4.9,24.36-2.23,14.59,9.46,16.14,17.68c1.22,6.52.17,16.66,5,21.15,10,9.21,8.46,26.64,2.59,36.6,0,0-9.06,10.95.72,21.1,0,0,5.78,4.1,2.89,15.19-4.5,17.31,15.21,26.92,3.29,24.23L101,257.38,96.55,212.2"/><path class="cls-5" d="M44,169.15c-2.5,1.83-3.38,5.23-3.14,8.32s1.37,6,2.16,9,1.22,6.26,0,9.13c-2,4.9-7.69,6.9-12,10a24.11,24.11,0,0,0-9.91,21.29c.21,2.4.76,4.9-.12,7.14-1,2.56-3.61,4.09-5.2,6.33-2.48,3.51-2.11,8.43-.2,12.28s5.12,6.88,8.25,9.82a213.52,213.52,0,0,1,48.73-31.81"/><path class="cls-6" d="M38.48,188.05a20.38,20.38,0,0,1-2.56.19A16.3,16.3,0,0,0,30,189.65a9.13,9.13,0,0,0-4.2,4.16,12.91,12.91,0,0,0-.72,2.41,1.57,1.57,0,0,1-.05-.7,5.9,5.9,0,0,1,.43-1.86,8.88,8.88,0,0,1,4.31-4.47,14.5,14.5,0,0,1,6.1-1.32A9.19,9.19,0,0,1,38.48,188.05Z"/><path class="cls-9" d="M193,233.11l19.51,6.3s13.55-8.33,14.32-11.39-.65-3.52-1.18-3.46c0,0,4.84-4.22,2.27-8.08,0,0,4.31-4.54,1.41-7.26l-1.57-1.28s2.1-4.2.42-7.36a2.38,2.38,0,0,0-2.94-1.07l-15.95,6-10.21,6.84Z"/><polygon class="cls-4" points="216.89 205.78 222.34 186 226.84 185.57 222.58 201.28 216.89 205.78"/><path class="cls-9" d="M194.71,227l4.8-15.95,17.28-12.92a5.79,5.79,0,0,1,0,5.92c-1.82,3.27-4.46,5.92-5.05,6.83s-3.06,5.62-3.06,5.62a20.38,20.38,0,0,1,.55,13.17"/><path class="cls-10" d="M209.21,229.62a5.53,5.53,0,0,1,.17-.93c.07-.29.14-.67.2-1.11s.14-1,.19-1.53a21.57,21.57,0,0,0,0-4.19,18.35,18.35,0,0,0-1.29-5.32l0-.1,0-.08c.69-1.27,1.41-2.63,2.18-4.06l.59-1.08c.1-.19.19-.37.31-.56s.26-.35.39-.52l1.67-2a28,28,0,0,0,3.07-4.52,5.57,5.57,0,0,0-.12-5.38l.37.07-1.48,1.11-15.82,11.78.08-.11c-1.47,4.75-2.7,8.71-3.57,11.55-.43,1.34-.78,2.42-1,3.21l-.29.84c-.07.19-.11.29-.12.28a1.18,1.18,0,0,1,.06-.3l.22-.86c.23-.8.53-1.88.91-3.24.84-2.85,2-6.83,3.4-11.61l0-.07.06,0L215.15,199l1.48-1.11.23-.17.14.23a6.06,6.06,0,0,1,.15,5.89,27.92,27.92,0,0,1-3.16,4.61l-1.67,2a5.41,5.41,0,0,0-.38.49l-.3.54c-.2.36-.4.72-.59,1.08l-2.21,4v-.17a18.26,18.26,0,0,1,1.25,5.46,20.63,20.63,0,0,1-.09,4.25,15.3,15.3,0,0,1-.25,1.53,10.33,10.33,0,0,1-.26,1.11A5.48,5.48,0,0,1,209.21,229.62Z"/><path class="cls-10" d="M227.79,208a7.17,7.17,0,0,1-1.15.77l-3.24,1.95-4.83,2.84a5.4,5.4,0,0,1-3.27.95,2.54,2.54,0,0,1-1.69-.87,2.92,2.92,0,0,1-.58-1.86,5.85,5.85,0,0,1,1.52-3.32,30.59,30.59,0,0,1,2.2-2.51,30.07,30.07,0,0,1,4.3-3.63,27.09,27.09,0,0,1,3.26-1.95,6.75,6.75,0,0,1,1.28-.55,8.07,8.07,0,0,1-1.18.73,36,36,0,0,0-3.14,2.07,32,32,0,0,0-6.32,6.15,5.48,5.48,0,0,0-1.4,3,2.34,2.34,0,0,0,.47,1.52,2,2,0,0,0,1.34.7,5,5,0,0,0,3-.87l4.89-2.74,3.32-1.8A6.82,6.82,0,0,1,227.79,208Z"/><path class="cls-10" d="M228,216.48a6.09,6.09,0,0,1-1,.82c-.67.49-1.67,1.19-2.92,2a50.53,50.53,0,0,1-4.54,2.7,4.54,4.54,0,0,1-1.5.56,2.28,2.28,0,0,1-1.68-.44,3.35,3.35,0,0,1-1.14-3.25,6.37,6.37,0,0,1,1.67-3,26.75,26.75,0,0,1,2.26-2.17,42.39,42.39,0,0,1,4.26-3.13c1.26-.82,2.31-1.44,3-1.86a6.8,6.8,0,0,1,1.16-.6,5.68,5.68,0,0,1-1.05.78l-2.94,2a46.58,46.58,0,0,0-4.15,3.2,25.9,25.9,0,0,0-2.2,2.14,6,6,0,0,0-1.54,2.76,2.87,2.87,0,0,0,.94,2.75,1.78,1.78,0,0,0,1.31.36,4.37,4.37,0,0,0,1.34-.5c1.77-.88,3.28-1.8,4.56-2.58l3-1.88A6.91,6.91,0,0,1,228,216.48Z"/><path class="cls-10" d="M225.69,224.56a3.77,3.77,0,0,1-.82.6c-.55.36-1.34.88-2.35,1.48a25.17,25.17,0,0,1-3.69,1.87,11.17,11.17,0,0,1-2.37.72,2.35,2.35,0,0,1-1.41-.19,1.62,1.62,0,0,1-.79-1.28,3.35,3.35,0,0,1,.12-1.41,2.79,2.79,0,0,1,.7-1.19,13.35,13.35,0,0,1,1.8-1.68,31.63,31.63,0,0,1,3.4-2.35c1-.62,1.83-1.07,2.41-1.37a3.65,3.65,0,0,1,.94-.41,4.94,4.94,0,0,1-.84.58l-2.32,1.51a40.54,40.54,0,0,0-3.29,2.41c-1.09,1-2.69,2.1-2.4,3.84a1.13,1.13,0,0,0,.52.9,2,2,0,0,0,1.1.14,10.9,10.9,0,0,0,2.26-.67,28.48,28.48,0,0,0,3.68-1.74A28.47,28.47,0,0,1,225.69,224.56Z"/><path class="cls-10" d="M226.69,228.25a2.8,2.8,0,0,1-.46.81,15.23,15.23,0,0,1-1.58,2,21.15,21.15,0,0,1-2.8,2.51c-.56.43-1.16.87-1.81,1.29a6.77,6.77,0,0,1-2.18,1.1,1.9,1.9,0,0,1-1.34-.15,1.84,1.84,0,0,1-.84-1,3.1,3.1,0,0,1,.23-2.32,12.23,12.23,0,0,1,2.1-3.15,8.77,8.77,0,0,1,2-1.6,2.17,2.17,0,0,1,.87-.35,12.65,12.65,0,0,0-2.58,2.19,13.42,13.42,0,0,0-1.93,3.1,2.69,2.69,0,0,0-.19,2,1.27,1.27,0,0,0,1.59.84,6.58,6.58,0,0,0,2-1c.64-.41,1.24-.83,1.8-1.24a24.76,24.76,0,0,0,2.83-2.39C225.89,229.3,226.61,228.2,226.69,228.25Z"/><path class="cls-8" d="M191.45,232.56l-24,51.34-21-27.42c-13.15-16.74-24-20.74-24-20.74l-19-5.11-39.09-2.07-3.36,1.95-23.52,9.92s2.24,25.4,6.68,45.58,8.11,42.24,8.11,42.24c1.61,14.53-9.15,70.27-9.15,70.27H150.8l-23-69.24a252.13,252.13,0,0,0,6.54-25.66h0l20,13.64s30,16.87,40.92-11.47l18.9-66Z"/><path class="cls-5" d="M133.11,304.68a9.14,9.14,0,0,1,0-1.5c0-.49,0-1.07,0-1.76s0-1.46,0-2.32a53.75,53.75,0,0,0-.49-6,58,58,0,0,0-1.5-7.23,59.54,59.54,0,0,0-2.49-7,54.72,54.72,0,0,0-2.72-5.39c-.41-.76-.85-1.4-1.2-2s-.68-1.07-1-1.47a7.84,7.84,0,0,1-.8-1.28,8.88,8.88,0,0,1,1,1.16c.3.38.65.86,1,1.43s.84,1.21,1.27,2a48.51,48.51,0,0,1,2.85,5.39,49.88,49.88,0,0,1,4,14.31,48.15,48.15,0,0,1,.38,6.07c0,.87,0,1.65-.06,2.34s-.08,1.28-.14,1.76A7.83,7.83,0,0,1,133.11,304.68Z"/><path class="cls-5" d="M129.22,262.11c.18.06-.67,2.29-1.87,4.95a26.67,26.67,0,0,1-2.43,4.71,27.91,27.91,0,0,1,2-4.92c.6-1.33,1.17-2.53,1.59-3.38A6.05,6.05,0,0,1,129.22,262.11Z"/><path class="cls-5" d="M169.17,298.66a7.19,7.19,0,0,1-1.11-2.06,20.45,20.45,0,0,1-1.26-11.15,7.51,7.51,0,0,1,.63-2.26,27.19,27.19,0,0,0,1.74,15.47Z"/><path class="cls-4" d="M146.43,277.12a26.13,26.13,0,0,1,.59,3.15,59.62,59.62,0,0,0,1.88,7.46,58.3,58.3,0,0,0,2.89,7.13c.86,1.78,1.46,2.85,1.39,2.89s-.21-.23-.52-.69-.72-1.16-1.19-2a43.16,43.16,0,0,1-3.06-7.14,43.75,43.75,0,0,1-1.75-7.56c-.13-1-.21-1.79-.23-2.35A3.18,3.18,0,0,1,146.43,277.12Z"/><path class="cls-4" d="M150.18,290a28.44,28.44,0,0,0,1.55-2.8,12.3,12.3,0,0,0,.72-7.46l-.06-.25.46.08a14.69,14.69,0,0,0-2.6,6.92c-.2,1.91,0,3.11-.1,3.12a2.63,2.63,0,0,1-.19-.83,11.49,11.49,0,0,1-.07-2.32,13.86,13.86,0,0,1,2.54-7.19l.34-.47.12.56.06.26a11.94,11.94,0,0,1-.89,7.74,10.24,10.24,0,0,1-1.27,2C150.43,289.78,150.2,290,150.18,290Z"/><path class="cls-4" d="M147.15,286.07a3,3,0,0,1-.88-.31,14.73,14.73,0,0,1-2.22-1.24,17.44,17.44,0,0,1-4.34-4.12,9.15,9.15,0,0,1-.68-1,1.61,1.61,0,0,1-.17-1.38.92.92,0,0,1,.65-.5,1.3,1.3,0,0,1,.72.1,4.76,4.76,0,0,1,1,.66,16.5,16.5,0,0,1,1.71,1.45,17.25,17.25,0,0,1,2.4,2.91,15,15,0,0,1,1.21,2.23,2.85,2.85,0,0,1,.29.88c-.08,0-.58-1.19-1.81-2.9a18.18,18.18,0,0,0-2.43-2.78,16.8,16.8,0,0,0-1.67-1.38,4.52,4.52,0,0,0-.93-.59c-.32-.14-.6-.08-.71.14a1.21,1.21,0,0,0,.16.93c.17.3.42.63.63.93a16.85,16.85,0,0,0,1.39,1.67,18.42,18.42,0,0,0,2.76,2.45C146,285.46,147.19,286,147.15,286.07Z"/><path class="cls-4" d="M148.49,294.46a1.88,1.88,0,0,1-.72.24,7.82,7.82,0,0,1-2.09.18,9.57,9.57,0,0,1-6.35-2.72l-.32-.31.42-.12.68-.19a9.83,9.83,0,0,1,7.26,1.22,8.56,8.56,0,0,1,1.76,1.43,2.42,2.42,0,0,1,.49.67,19.16,19.16,0,0,0-2.43-1.78,10,10,0,0,0-7-1l-.64.17.1-.43a9.84,9.84,0,0,0,6,2.74A24.75,24.75,0,0,0,148.49,294.46Z"/><path class="cls-4" d="M63.1,298.51a3.49,3.49,0,0,1,0,.87c0,.55-.11,1.35-.24,2.34a43.54,43.54,0,0,1-1.75,7.56,43.23,43.23,0,0,1-3,7.14c-.48.88-.89,1.57-1.2,2s-.49.71-.52.69a31.42,31.42,0,0,1,1.39-2.88,59.2,59.2,0,0,0,2.89-7.14,57.91,57.91,0,0,0,1.88-7.46A26.13,26.13,0,0,1,63.1,298.51Z"/><path class="cls-4" d="M59.35,311.36s-.25-.19-.61-.62a9.94,9.94,0,0,1-1.27-2,11.9,11.9,0,0,1-.89-7.73l.06-.27.12-.56.34.47a14,14,0,0,1,2.55,7.2,12.05,12.05,0,0,1-.08,2.31,2.63,2.63,0,0,1-.19.83c-.1,0,.1-1.2-.1-3.11a14.55,14.55,0,0,0-2.6-6.92l.46-.09,0,.25a12.19,12.19,0,0,0,.72,7.47A26.4,26.4,0,0,0,59.35,311.36Z"/><path class="cls-4" d="M62.38,307.46c0-.08,1.18-.6,2.89-1.84A18.89,18.89,0,0,0,68,303.17a18.25,18.25,0,0,0,1.39-1.68,10.16,10.16,0,0,0,.63-.93,1.19,1.19,0,0,0,.16-.92c-.11-.23-.39-.28-.71-.15a5.33,5.33,0,0,0-.93.59,16.85,16.85,0,0,0-1.67,1.39,17.69,17.69,0,0,0-2.43,2.77c-1.23,1.72-1.73,2.95-1.81,2.91a2.77,2.77,0,0,1,.29-.89A16,16,0,0,1,64.15,304a16.88,16.88,0,0,1,2.41-2.91,15.38,15.38,0,0,1,1.7-1.45,5.16,5.16,0,0,1,1-.66,1.25,1.25,0,0,1,.73-.09.9.9,0,0,1,.64.5,1.62,1.62,0,0,1-.17,1.38,10.23,10.23,0,0,1-.68,1,16.36,16.36,0,0,1-1.45,1.7,18.33,18.33,0,0,1-2.89,2.42,15.44,15.44,0,0,1-2.22,1.23A2.65,2.65,0,0,1,62.38,307.46Z"/><path class="cls-4" d="M61,315.85a20,20,0,0,0,2.79.07,9.77,9.77,0,0,0,6-2.73l.1.43-.64-.18a9.92,9.92,0,0,0-6.95,1,18.38,18.38,0,0,0-2.44,1.77,2.25,2.25,0,0,1,.5-.66,8.14,8.14,0,0,1,1.75-1.43,9.78,9.78,0,0,1,7.26-1.22l.68.18.42.12-.32.32a9.65,9.65,0,0,1-6.35,2.72,8.76,8.76,0,0,1-2.09-.18A2,2,0,0,1,61,315.85Z"/><path class="cls-4" d="M100.23,263.24s.25.2.61.61.88,1,1.47,1.85a43.61,43.61,0,0,1,6.8,13.89c.27,1,.46,1.74.56,2.28a2.43,2.43,0,0,1,.11.86,29.21,29.21,0,0,1-1-3,58.24,58.24,0,0,0-2.9-7.12,56.65,56.65,0,0,0-3.85-6.66C100.91,264.27,100.17,263.29,100.23,263.24Z"/><path class="cls-4" d="M106.51,275.06a2.62,2.62,0,0,1-.88,0,10.28,10.28,0,0,1-2.31-.56,11.88,11.88,0,0,1-6-4.92l-.15-.23-.3-.49.57.1a13.85,13.85,0,0,1,6.84,3.38,11.33,11.33,0,0,1,1.56,1.72c.32.44.47.7.44.72s-.76-.93-2.24-2.16a14.6,14.6,0,0,0-6.69-3.15l.27-.38.14.22a12.27,12.27,0,0,0,5.72,4.85A28.25,28.25,0,0,0,106.51,275.06Z"/><path class="cls-4" d="M106,270.15c-.09,0,.42-1.25.78-3.33a19.26,19.26,0,0,0,.27-3.68,18.58,18.58,0,0,0-.17-2.17c-.06-.36-.11-.77-.2-1.1a1.23,1.23,0,0,0-.53-.78c-.24-.09-.48.07-.61.4a5.3,5.3,0,0,0-.26,1.06,18.85,18.85,0,0,0-.23,2.17,18.27,18.27,0,0,0,.19,3.68c.32,2.08.82,3.31.73,3.34a2.72,2.72,0,0,1-.4-.84,13.81,13.81,0,0,1-.69-2.44,16.94,16.94,0,0,1-.31-3.76,17.81,17.81,0,0,1,.21-2.23,4.68,4.68,0,0,1,.29-1.19,1.24,1.24,0,0,1,.45-.58.88.88,0,0,1,.82-.09,1.61,1.61,0,0,1,.83,1.11,7.65,7.65,0,0,1,.21,1.19,17.61,17.61,0,0,1-.24,6,14,14,0,0,1-.73,2.43A2.54,2.54,0,0,1,106,270.15Z"/><path class="cls-4" d="M110.85,277.1a24.48,24.48,0,0,0,2.05-1.89,9.83,9.83,0,0,0,2.4-6.15l.37.24-.58.32a10,10,0,0,0-4.27,5.59,18.69,18.69,0,0,0-.5,3,2.25,2.25,0,0,1-.11-.83,8.25,8.25,0,0,1,.26-2.24,9.82,9.82,0,0,1,4.35-5.94l.62-.34.39-.21v.45a9.62,9.62,0,0,1-2.66,6.38,8.13,8.13,0,0,1-1.62,1.32C111.11,277,110.86,277.13,110.85,277.1Z"/><path class="cls-4" d="M68.07,375.72s.25.2.62.61.87,1.05,1.46,1.84A44.11,44.11,0,0,1,77,392.07c.27.95.45,1.74.55,2.28a3,3,0,0,1,.12.86,29.21,29.21,0,0,1-1-3,58.52,58.52,0,0,0-2.91-7.12,56.65,56.65,0,0,0-3.85-6.66C68.75,376.75,68,375.77,68.07,375.72Z"/><path class="cls-4" d="M74.35,387.54a2.53,2.53,0,0,1-.87,0,10.34,10.34,0,0,1-2.32-.56,11.88,11.88,0,0,1-6-4.92l-.14-.23-.31-.49.58.1a13.9,13.9,0,0,1,6.84,3.38,11.9,11.9,0,0,1,1.56,1.72c.32.44.46.7.43.72s-.76-.93-2.23-2.16a14.65,14.65,0,0,0-6.7-3.15l.28-.38.13.22a12.32,12.32,0,0,0,5.72,4.85A29.06,29.06,0,0,0,74.35,387.54Z"/><path class="cls-4" d="M73.8,382.63c-.09,0,.43-1.25.78-3.33a19.26,19.26,0,0,0,.27-3.68,18.58,18.58,0,0,0-.17-2.17,9.32,9.32,0,0,0-.2-1.1,1.19,1.19,0,0,0-.53-.78c-.23-.09-.47.07-.61.4a5.3,5.3,0,0,0-.26,1.06,21.37,21.37,0,0,0-.23,2.17,19.87,19.87,0,0,0,.19,3.68c.32,2.08.82,3.31.73,3.34a3,3,0,0,1-.4-.84,15.79,15.79,0,0,1-.69-2.44,17,17,0,0,1-.31-3.76,17.64,17.64,0,0,1,.21-2.23,5.34,5.34,0,0,1,.29-1.2,1.27,1.27,0,0,1,.45-.57.89.89,0,0,1,.82-.09A1.66,1.66,0,0,1,75,372.2a11.34,11.34,0,0,1,.21,1.18,15.71,15.71,0,0,1,.14,2.23,17.11,17.11,0,0,1-.39,3.76,15.11,15.11,0,0,1-.72,2.43A3,3,0,0,1,73.8,382.63Z"/><path class="cls-4" d="M78.69,389.58a22.7,22.7,0,0,0,2-1.89,9.78,9.78,0,0,0,2.4-6.15l.38.23-.59.33a9.94,9.94,0,0,0-4.26,5.59,18.34,18.34,0,0,0-.51,3,2.11,2.11,0,0,1-.11-.82,8.25,8.25,0,0,1,.26-2.24,9.82,9.82,0,0,1,4.35-5.94l.62-.34.39-.21v.45A9.62,9.62,0,0,1,81,387.93a8.13,8.13,0,0,1-1.62,1.32C79,389.51,78.7,389.61,78.69,389.58Z"/><path class="cls-4" d="M194.69,262.31a2.94,2.94,0,0,1-.18.85c-.14.54-.39,1.3-.72,2.24a44.94,44.94,0,0,1-3.32,7,43.81,43.81,0,0,1-4.5,6.32c-.65.75-1.2,1.34-1.6,1.73s-.63.59-.66.57a28.65,28.65,0,0,1,2-2.53,56.92,56.92,0,0,0,4.34-6.36,56.27,56.27,0,0,0,3.42-6.89A28.2,28.2,0,0,1,194.69,262.31Z"/><path class="cls-4" d="M188.3,274.07a2.53,2.53,0,0,1-.47-.74,10.22,10.22,0,0,1-.81-2.24,11.94,11.94,0,0,1,.77-7.75l.12-.24.24-.53.23.54a13.91,13.91,0,0,1,1,7.57,12.64,12.64,0,0,1-.57,2.25,2.35,2.35,0,0,1-.36.76c-.09,0,.35-1.15.57-3.06a14.56,14.56,0,0,0-1.08-7.31h.47l-.11.23a12.25,12.25,0,0,0-.88,7.45A28.66,28.66,0,0,0,188.3,274.07Z"/><path class="cls-4" d="M192.09,270.9c0-.09,1.28-.34,3.21-1.19a19.19,19.19,0,0,0,3.21-1.8,17.42,17.42,0,0,0,1.71-1.35,8.65,8.65,0,0,0,.82-.77,1.21,1.21,0,0,0,.35-.87c-.06-.25-.32-.36-.66-.29a5,5,0,0,0-1,.37,20.48,20.48,0,0,0-1.93,1,18.5,18.5,0,0,0-3,2.2c-1.56,1.41-2.31,2.51-2.39,2.45a3,3,0,0,1,.48-.8,14.29,14.29,0,0,1,1.66-1.92,17,17,0,0,1,3-2.34,19.22,19.22,0,0,1,2-1,5.27,5.27,0,0,1,1.16-.42,1.25,1.25,0,0,1,.73.06.92.92,0,0,1,.53.62,1.68,1.68,0,0,1-.46,1.32,11.18,11.18,0,0,1-.88.83,16.38,16.38,0,0,1-1.78,1.35,17.47,17.47,0,0,1-3.34,1.75,15.22,15.22,0,0,1-2.43.74A2.77,2.77,0,0,1,192.09,270.9Z"/><path class="cls-4" d="M189,278.82a24.38,24.38,0,0,0,2.71.66,9.81,9.81,0,0,0,6.46-1.4v.45l-.59-.31a9.93,9.93,0,0,0-7-.47,17.74,17.74,0,0,0-2.75,1.22s.19-.23.62-.55a8.29,8.29,0,0,1,2-1,9.79,9.79,0,0,1,7.35.35l.63.32.39.21-.38.24a9.65,9.65,0,0,1-6.79,1.31,8.07,8.07,0,0,1-2-.62A2.16,2.16,0,0,1,189,278.82Z"/><path class="cls-4" d="M63.35,290.69a13.2,13.2,0,0,0,1-2.66,7.87,7.87,0,0,0-1.4-6.42l.39,0-.08.08a6.53,6.53,0,0,0-1.55,3.36,6.27,6.27,0,0,0,.36,3,14.94,14.94,0,0,0,1.27,2.59,5.47,5.47,0,0,1-1.62-2.47,6.3,6.3,0,0,1-.48-3.21,6.66,6.66,0,0,1,1.63-3.64l.09-.1.2-.23.19.25a7.64,7.64,0,0,1,1.54,3.63,8.07,8.07,0,0,1-.18,3.2,6.88,6.88,0,0,1-.86,2C63.57,290.51,63.38,290.71,63.35,290.69Z"/><path class="cls-4" d="M114.17,254.32a13.19,13.19,0,0,0,2.37-1.58,7.91,7.91,0,0,0,2.6-6l.31.24-.12,0a6.23,6.23,0,0,0-4.69,4.48,16.39,16.39,0,0,0-.47,2.86,5.59,5.59,0,0,1,.12-2.95,6.42,6.42,0,0,1,1.48-2.9,6.62,6.62,0,0,1,3.45-2l.13,0,.29-.07,0,.31a7.69,7.69,0,0,1-.87,3.84,7.9,7.9,0,0,1-2,2.5,6.73,6.73,0,0,1-1.85,1.1A1.88,1.88,0,0,1,114.17,254.32Z"/><path class="cls-4" d="M195.82,250.73a13.64,13.64,0,0,0,1.34-2.51,7.86,7.86,0,0,0-.57-6.55l.39.07-.09.07a6.23,6.23,0,0,0-2,6.18,16.44,16.44,0,0,0,.94,2.74,5.49,5.49,0,0,1-1.29-2.66,6.28,6.28,0,0,1-.07-3.25,6.68,6.68,0,0,1,2.09-3.4l.09-.08.23-.21.16.27a7.63,7.63,0,0,1,1.06,3.8,7.8,7.8,0,0,1-.59,3.15,6.9,6.9,0,0,1-1.1,1.84C196.06,250.57,195.84,250.75,195.82,250.73Z"/><path class="cls-4" d="M160.56,311.52a13.3,13.3,0,0,0,1.34-2.5,7.86,7.86,0,0,0-.57-6.55l.39.06-.09.08a6.46,6.46,0,0,0-2,3.13,6.3,6.3,0,0,0,0,3.05,15.23,15.23,0,0,0,.93,2.73,5.35,5.35,0,0,1-1.29-2.65,6.29,6.29,0,0,1-.07-3.25,6.64,6.64,0,0,1,2.09-3.4l.1-.09.23-.2.15.27a7.62,7.62,0,0,1,1.06,3.79,7.82,7.82,0,0,1-.59,3.16,6.9,6.9,0,0,1-1.1,1.84C160.81,311.37,160.58,311.54,160.56,311.52Z"/><path class="cls-4" d="M55.8,392.26a13.77,13.77,0,0,0-1.22-2.57,7.87,7.87,0,0,0-5.6-3.44l.29-.28v.12a6.4,6.4,0,0,0,1.34,3.44A6.28,6.28,0,0,0,53,391.38a14.56,14.56,0,0,0,2.76.88,5.43,5.43,0,0,1-2.91-.54,6.42,6.42,0,0,1-2.65-1.89,6.72,6.72,0,0,1-1.48-3.7V386l0-.3.3,0a7.72,7.72,0,0,1,3.68,1.41,8.15,8.15,0,0,1,2.18,2.35,6.58,6.58,0,0,1,.82,2A1.94,1.94,0,0,1,55.8,392.26Z"/><path class="cls-4" d="M179.11,306.4c-.05-.09,1.54-.82,3.9-2.31a13.24,13.24,0,0,0,3.56-3.24,7.67,7.67,0,0,0,1.6-5.46l.28.21h-.19l-.19,0c-.13,0-.26,0-.38.06l-.75.17a11.36,11.36,0,0,0-1.42.5,10.42,10.42,0,0,0-2.42,1.47,10.17,10.17,0,0,0-2.9,3.8,14.27,14.27,0,0,0-1,4.36,4.43,4.43,0,0,1-.06-1.23,9.92,9.92,0,0,1,.73-3.27,10.24,10.24,0,0,1,2.94-4,10.43,10.43,0,0,1,2.52-1.57,11.78,11.78,0,0,1,1.48-.53c.26-.07.52-.13.79-.18l.4-.07.2,0h.2l.29.22a8,8,0,0,1-1.72,5.83,13,13,0,0,1-3.76,3.26,26.87,26.87,0,0,1-3,1.55A5.75,5.75,0,0,1,179.11,306.4Z"/><path class="cls-4" d="M130.08,391.51c-.05-.09,1.54-.81,3.9-2.3a13.59,13.59,0,0,0,3.57-3.24,7.74,7.74,0,0,0,1.59-5.47l.28.22h-.19l-.19,0-.38.07a6.27,6.27,0,0,0-.75.17,10,10,0,0,0-1.42.5,10.27,10.27,0,0,0-5.32,5.27,13.6,13.6,0,0,0-1,4.35,3.67,3.67,0,0,1-.07-1.22,10,10,0,0,1,.73-3.28,10.48,10.48,0,0,1,5.46-5.59,10.39,10.39,0,0,1,1.48-.53,7,7,0,0,1,.79-.18,2.79,2.79,0,0,1,.4-.07l.21,0,.1,0h.09c-.06-.05.55.42.29.23a8,8,0,0,1-1.72,5.82,13.21,13.21,0,0,1-3.76,3.27,26.47,26.47,0,0,1-3,1.54A4.47,4.47,0,0,1,130.08,391.51Z"/><path class="cls-4" d="M78.5,287.31c0-.09,1.55-.82,3.9-2.31A13.27,13.27,0,0,0,86,281.76a7.62,7.62,0,0,0,1.59-5.46c-.25-.2.35.26.29.21h-.19l-.19,0c-.13,0-.26,0-.38.06l-.75.17a10.82,10.82,0,0,0-1.42.5,10.42,10.42,0,0,0-2.42,1.47,10.17,10.17,0,0,0-2.9,3.8,13.9,13.9,0,0,0-1,4.36,3.63,3.63,0,0,1-.06-1.23,9.67,9.67,0,0,1,.73-3.27,10.31,10.31,0,0,1,2.93-4,10.7,10.7,0,0,1,2.53-1.57,11.24,11.24,0,0,1,1.48-.53c.26-.07.52-.13.79-.18l.4-.07.2,0h.2c-.06-.05.54.42.29.22a8,8,0,0,1-1.72,5.83,13,13,0,0,1-3.76,3.26,27.8,27.8,0,0,1-3,1.55A5.66,5.66,0,0,1,78.5,287.31Z"/><path class="cls-9" d="M116.31,158.88c-1.43-11-11.63-23-33.15-18L62,147.73a6.48,6.48,0,0,0-5.35,6.94l7.86,83.16a19.63,19.63,0,0,0,19.54,17.78h0a19.63,19.63,0,0,0,19.61-20.52c-.45-10-.79-18-.78-18s13.93-3.28,15.61-21.86C119.37,186,117.91,171.07,116.31,158.88Z"/><path class="cls-5" d="M110.84,171.54a2.36,2.36,0,0,1-2.11,2.53,2.26,2.26,0,0,1-2.57-2,2.36,2.36,0,0,1,2.11-2.53A2.25,2.25,0,0,1,110.84,171.54Z"/><path class="cls-5" d="M114,168.35c-.27.32-2.15-.88-4.68-.7s-4.31,1.57-4.61,1.27c-.14-.12.12-.7.89-1.34a6.5,6.5,0,0,1,3.66-1.41,6.29,6.29,0,0,1,3.75.94C113.83,167.66,114.14,168.2,114,168.35Z"/><path class="cls-5" d="M86.57,172.8a2.36,2.36,0,0,1-2.11,2.53,2.26,2.26,0,0,1-2.57-2A2.37,2.37,0,0,1,84,170.83,2.26,2.26,0,0,1,86.57,172.8Z"/><path class="cls-5" d="M88.88,169.71c-.27.33-2.15-.88-4.68-.7s-4.31,1.57-4.61,1.28c-.14-.13.12-.7.89-1.35a6.5,6.5,0,0,1,3.66-1.4,6.15,6.15,0,0,1,3.75.94C88.71,169,89,169.56,88.88,169.71Z"/><path class="cls-5" d="M99.15,187.23c0-.15,1.54-.53,4.07-1,.65-.11,1.25-.28,1.33-.73a3.34,3.34,0,0,0-.56-1.89l-2.25-4.81c-3.13-6.84-5.44-12.49-5.16-12.61s3,5.32,6.17,12.17c.75,1.69,1.48,3.3,2.16,4.84a3.67,3.67,0,0,1,.51,2.51,1.61,1.61,0,0,1-1,1,4.18,4.18,0,0,1-1.09.23C100.77,187.25,99.17,187.37,99.15,187.23Z"/><path class="cls-10" d="M102.92,217.12a46.82,46.82,0,0,1-25.06-4.92s7.08,12.56,25.36,9.61Z"/><path class="cls-10" d="M98.49,193.41A4.55,4.55,0,0,0,94.28,192a4.16,4.16,0,0,0-2.78,1.74,2.65,2.65,0,0,0,0,3,3.09,3.09,0,0,0,3.39.62A9.81,9.81,0,0,0,98,195.23a2.83,2.83,0,0,0,.67-.8.84.84,0,0,0-.07-.94"/><path class="cls-5" d="M91.81,189.48c.41,0,.6,2.7,3.09,4.5s5.39,1.29,5.44,1.68c0,.17-.62.58-1.85.69A6.87,6.87,0,0,1,94,195.11a6,6,0,0,1-2.41-3.79C91.36,190.18,91.62,189.48,91.81,189.48Z"/><path class="cls-5" d="M88.9,162.66c-.2.7-2.76.55-5.71,1.1s-5.3,1.53-5.74.94c-.19-.28.18-1,1.11-1.69a10.07,10.07,0,0,1,8.72-1.56C88.4,161.82,89,162.32,88.9,162.66Z"/><path class="cls-5" d="M112.81,162.41c-.41.61-2.2.13-4.3.24s-3.85.65-4.3.07c-.2-.28,0-.87.78-1.47a6,6,0,0,1,3.43-1.18,6,6,0,0,1,3.5.93C112.7,161.54,113,162.12,112.81,162.41Z"/><path class="cls-5" d="M78.31,142.26c3.46,5.54,12.94,4.72,19.46,5.19,1.55.12,3.12.05,4.67.29a6.88,6.88,0,0,1,4.15,2c1.37,1.51,1.62,3.68,2.41,5.56a10.31,10.31,0,0,0,8.91,6.16c1.08,0,2.35-.21,2.84-1.18a3.42,3.42,0,0,0,.07-2.15c-.93-4.81-2-9.71-4.47-13.92a22.18,22.18,0,0,0-13-9.91C98,132.78,85,133.55,80.07,136.2"/><path class="cls-5" d="M77.56,135.14c6.57,8,6.3,20.82-.59,28.57-3.92,4.41-10,8.14-9.91,14,.13,6.54,8.1,10.69,8.73,17.2.64,6.69-6.68,11.68-7.56,18.35-.72,5.36,2.92,10.33,6.93,14s8.72,6.75,11.36,11.47c2.92,5.2,2.85,11.69,1,17.37s-5.23,10.71-8.78,15.5a68.24,68.24,0,0,0-17-2.13q.24-3.27.46-6.54c.36,2.48-1.53,4.86-3.83,5.87s-4.91.95-7.42.79A120.16,120.16,0,0,1,28.19,266c2.78-3.37,5.62-6.82,7.16-10.92s1.61-9-1-12.55c-2-2.85-5.51-4.49-7.44-7.43-2.89-4.41-1.43-10.51,1.68-14.77s7.59-7.29,11.42-10.91,7.23-8.36,7.06-13.63c-.2-6.84-6.29-12.52-6.26-19.37,0-7.79,7.76-13.29,10.3-20.66,1.84-5.33,1-10.86,4.19-15.54A14.15,14.15,0,0,1,66,133.94c4.17-.18,7.82-.64,11.57,1.2"/><path class="cls-6" d="M81.29,144.62a4.77,4.77,0,0,1,0,.62A14.25,14.25,0,0,1,81,147a21.33,21.33,0,0,1-2.15,6.14,23.39,23.39,0,0,1-6.11,7.46,20.82,20.82,0,0,1-4.87,3,36.48,36.48,0,0,1-5.83,1.9,21.14,21.14,0,0,0-5.61,2.14,8.92,8.92,0,0,0-3.58,4.11c-1.45,3.27-1.66,6.62-2.8,9.18a12.34,12.34,0,0,1-1.93,3.19,7.17,7.17,0,0,1-2.2,1.76,5,5,0,0,1-1.7.53,2.9,2.9,0,0,1-.62,0,6.77,6.77,0,0,0,2.23-.72,7.19,7.19,0,0,0,2.07-1.77,12.19,12.19,0,0,0,1.81-3.15c1.07-2.49,1.24-5.83,2.7-9.23a9.39,9.39,0,0,1,3.75-4.34A21.52,21.52,0,0,1,61.92,165a36.3,36.3,0,0,0,5.76-1.85,21.06,21.06,0,0,0,4.78-2.92A24,24,0,0,0,78.55,153a22.78,22.78,0,0,0,2.27-6C81.16,145.46,81.23,144.61,81.29,144.62Z"/><path class="cls-6" d="M129.78,163.63a7.32,7.32,0,0,0-.8-.79,4.56,4.56,0,0,0-2.89-.73c-.65,0-1.36.11-2.14.17a17.71,17.71,0,0,1-2.52,0,17.19,17.19,0,0,1-5.56-1.41,16.77,16.77,0,0,1-7.69-6.87,15.12,15.12,0,0,1-1.3-2.87,3.72,3.72,0,0,1-.28-1.12,32.15,32.15,0,0,0,1.9,3.8,17.19,17.19,0,0,0,13,8,18.58,18.58,0,0,0,2.45.06c.77,0,1.49-.12,2.17-.11a4.58,4.58,0,0,1,3,.94,2.64,2.64,0,0,1,.56.67A.76.76,0,0,1,129.78,163.63Z"/><path class="cls-6" d="M126.68,149.8a2.14,2.14,0,0,1-.58,0,10.29,10.29,0,0,1-1.65-.26,11.94,11.94,0,0,1-5.39-2.89,12.32,12.32,0,0,1-2.55-3.42c-.72-1.35-1.31-2.87-2-4.4a12.65,12.65,0,0,0-3-4.27,12.06,12.06,0,0,0-5-2.56,18.88,18.88,0,0,0-10.76.72,69.62,69.62,0,0,0-8.29,3.57c-2.32,1.12-4.24,2-5.59,2.47-.68.25-1.21.42-1.58.53a2.9,2.9,0,0,1-.56.14,2,2,0,0,1,.53-.24l1.53-.62c1.33-.56,3.21-1.45,5.51-2.61a64.85,64.85,0,0,1,8.3-3.69,19.12,19.12,0,0,1,11-.77,12.4,12.4,0,0,1,5.15,2.68,13,13,0,0,1,3.08,4.45c.72,1.56,1.29,3.07,2,4.4a12,12,0,0,0,2.43,3.35,12.23,12.23,0,0,0,5.18,3C125.88,149.73,126.68,149.74,126.68,149.8Z"/><path class="cls-6" d="M55.54,146.12a3.49,3.49,0,0,1,.25-1.08,11.84,11.84,0,0,1,1.33-2.74,13.27,13.27,0,0,1,17.8-4.49,12.11,12.11,0,0,1,2.47,1.78,4.19,4.19,0,0,1,.74.83,23.1,23.1,0,0,0-3.38-2.29,13.35,13.35,0,0,0-17.33,4.37A21.61,21.61,0,0,0,55.54,146.12Z"/><path class="cls-6" d="M42.21,266.74s.42,0,1.2-.2A7.45,7.45,0,0,0,46.53,265a10.41,10.41,0,0,0,3.21-4.4,11.27,11.27,0,0,0,.76-3.34,13.79,13.79,0,0,0-.29-3.84,26,26,0,0,0-3.5-8.12c-1.67-2.74-3.76-5.49-5.58-8.65a26,26,0,0,1-2.31-5.1,19.19,19.19,0,0,1-.87-5.79,21.18,21.18,0,0,1,3.61-11.63,19.93,19.93,0,0,1,4.23-4.59A32.77,32.77,0,0,1,51,206.45a26.87,26.87,0,0,0,4.88-3A10.63,10.63,0,0,0,59,199.05a20,20,0,0,0,.59-10c-.5-3.17-1.21-6.1-1.49-8.85a22.72,22.72,0,0,1,.36-7.4,15.31,15.31,0,0,1,2-5.21A7.11,7.11,0,0,1,63,165.11a4.31,4.31,0,0,1,.84-.37l.3-.09s-.41.14-1.09.55a7.35,7.35,0,0,0-2.42,2.47,15.57,15.57,0,0,0-1.92,5.16,23.12,23.12,0,0,0-.28,7.3c.3,2.72,1,5.63,1.55,8.82a20.5,20.5,0,0,1-.56,10.28,11.21,11.21,0,0,1-3.26,4.58,26.8,26.8,0,0,1-5,3.09A32.11,32.11,0,0,0,46.11,210,19.75,19.75,0,0,0,42,214.45a20.78,20.78,0,0,0-3.53,11.34,18.56,18.56,0,0,0,.83,5.64,25.89,25.89,0,0,0,2.26,5c1.78,3.13,3.86,5.88,5.53,8.65a26.76,26.76,0,0,1,3.5,8.28,15.25,15.25,0,0,1,.26,3.94,11.36,11.36,0,0,1-.83,3.42,10.53,10.53,0,0,1-3.36,4.45,7.28,7.28,0,0,1-3.21,1.45A4.57,4.57,0,0,1,42.21,266.74Z"/><path class="cls-6" d="M122.28,236.49a7.39,7.39,0,0,0,1.7-2.64,12.46,12.46,0,0,0-.69-8.41c-.63-1.71-1.5-3.54-2.14-5.63a14.75,14.75,0,0,1-.62-3.34c0-.58,0-1.18,0-1.78s.21-1.2.32-1.81a22.11,22.11,0,0,1,3.34-6.9c1.48-2.2,3.2-4.34,4.78-6.64a21.56,21.56,0,0,0,3.54-7.22,11.06,11.06,0,0,0-.78-7.28,26.48,26.48,0,0,0-3.8-5.67c-1.37-1.66-2.72-3.17-3.76-4.7a20.29,20.29,0,0,1-2.36-4.4,11.43,11.43,0,0,1-.72-3.7,8.18,8.18,0,0,1,.31-2.36,5,5,0,0,1,.3-.77,10.21,10.21,0,0,0-.4,3.12,11.1,11.1,0,0,0,.79,3.6,19.62,19.62,0,0,0,2.38,4.29c1,1.5,2.4,3,3.79,4.64a27,27,0,0,1,3.9,5.75,11.46,11.46,0,0,1,.85,7.59,21.94,21.94,0,0,1-3.61,7.4c-1.6,2.32-3.31,4.46-4.79,6.64a22,22,0,0,0-3.3,6.73c-.1.59-.25,1.16-.31,1.74s0,1.15-.07,1.71a14.84,14.84,0,0,0,.58,3.24c.61,2.05,1.46,3.88,2.08,5.62a12.47,12.47,0,0,1,.53,8.61,6,6,0,0,1-1.26,2,3.63,3.63,0,0,1-.46.42A.73.73,0,0,1,122.28,236.49Z"/><path class="cls-6" d="M19.43,254.64a3,3,0,0,1-.4-.83,5.41,5.41,0,0,1-.14-2.62,9.83,9.83,0,0,1,1.61-3.83c.88-1.36,2.12-2.74,3.15-4.47a12.86,12.86,0,0,0,1.62-6.26,57.26,57.26,0,0,0-.56-7.57,22.67,22.67,0,0,1,.33-8.45,17.9,17.9,0,0,1,4.76-7.72A74.32,74.32,0,0,1,36.69,207,60.19,60.19,0,0,0,43,201.42c3.75-3.81,6.49-7.89,7.68-11.76a23.75,23.75,0,0,0,1-5.33,28.09,28.09,0,0,0-.08-4.11c-.06-.56-.11-1.06-.16-1.5l-.18-1.09-.1-.67a1,1,0,0,1,0-.23.8.8,0,0,1,.07.22l.15.66c.06.31.14.67.22,1.09s.13.94.21,1.5a25.94,25.94,0,0,1,.17,4.15,23.22,23.22,0,0,1-.94,5.42c-1.16,3.95-3.93,8.13-7.69,12A58.67,58.67,0,0,1,37,207.38a74.16,74.16,0,0,0-6.84,5.87,17.47,17.47,0,0,0-4.63,7.5,22.28,22.28,0,0,0-.35,8.27,56.79,56.79,0,0,1,.51,7.62A13.08,13.08,0,0,1,24,243.08c-1.07,1.76-2.33,3.11-3.22,4.44a10.15,10.15,0,0,0-1.66,3.71,5.78,5.78,0,0,0,.05,2.55C19.3,254.35,19.46,254.63,19.43,254.64Z"/><path class="cls-6" d="M71,271a23.15,23.15,0,0,0,2.35-3.9,19.24,19.24,0,0,0-2-19.8,80.24,80.24,0,0,0-6.49-7.42,30.71,30.71,0,0,1-6.21-9,14.67,14.67,0,0,1-1.19-5.72,12.2,12.2,0,0,1,1.59-5.8c2-3.57,5-6.25,7-9.4a13.83,13.83,0,0,0,2.14-5,15.91,15.91,0,0,0,.07-5.24,34.63,34.63,0,0,0-3-9.31,81.86,81.86,0,0,1-3.34-8c-1.78-5-1.27-9.62,0-12.3a9.48,9.48,0,0,1,1.86-2.85,6.33,6.33,0,0,1,.88-.79s-.29.28-.8.86A10,10,0,0,0,62,170.19c-1.16,2.66-1.61,7.15.19,12.1a81.54,81.54,0,0,0,3.39,7.9,35.06,35.06,0,0,1,3.13,9.41,16.4,16.4,0,0,1-.06,5.41,14.39,14.39,0,0,1-2.2,5.19c-2.08,3.22-5.06,5.9-7,9.37a11.76,11.76,0,0,0-1.53,5.56,14.24,14.24,0,0,0,1.14,5.52,30.72,30.72,0,0,0,6.1,8.89A80.08,80.08,0,0,1,71.63,247a19.26,19.26,0,0,1,3.54,15,19.09,19.09,0,0,1-1.65,5.13,17.41,17.41,0,0,1-1.77,2.9l-.56.69A1.43,1.43,0,0,1,71,271Z"/><polygon class="cls-8" points="68.28 331.46 85.43 290.18 142.93 316.52 110.84 391 52.4 369.75 68.28 331.46"/><g class="cls-11"><polygon points="68.28 331.46 85.43 290.18 142.93 316.52 110.84 391 52.4 369.75 68.28 331.46"/></g><polygon class="cls-8" points="142.93 316.52 110.84 391 122.38 395.11 154.04 321.85 142.93 316.52"/><g class="cls-12"><polygon points="142.93 316.52 110.84 391 122.38 395.11 154.04 321.85 142.93 316.52"/></g><polygon class="cls-2" points="93.74 293.26 97.67 285.37 151.37 311.42 148.63 318.45 93.74 293.26"/><polygon class="cls-4" points="87.71 291.22 89.26 287.66 150.53 316.52 149.42 319.63 87.71 291.22"/><path class="cls-7" d="M144.31,331.31c.13.06-4.5,11.4-10.35,25.33s-10.7,25.2-10.83,25.14,4.5-11.4,10.35-25.34S144.18,331.25,144.31,331.31Z"/><path class="cls-7" d="M91.35,307l.18.07.54.23,2.11.93,8,3.56,28.09,12.64.21.1-.09.21-11,25.22-.1.24-.24-.1-.08,0L80.65,333.74l-.19-.08.07-.19L88.4,314.1c.93-2.27,1.66-4.05,2.18-5.3l.57-1.37c.13-.31.2-.46.2-.45s0,.18-.17.51-.32.82-.55,1.42c-.49,1.27-1.2,3.08-2.09,5.39l-7.62,19.32-.11-.27,38.34,16.22.07,0-.34.14c3.93-8.95,7.67-17.47,11.06-25.21l.12.32-27.84-12.8-8-3.7-2.13-1-.55-.27Z"/><path class="cls-7" d="M120.3,340.59a4.06,4.06,0,0,1-.36-.8c-.23-.6-.52-1.37-.89-2.31-.76-2.09-1.8-4.93-3-8.33l.28.13-10.76,3.52-.19.07-.11-.18-.91-1.48c-1.17-1.89-2.3-3.72-3.35-5.44l.3.1-12.62,4.87-3.7,1.38a8.63,8.63,0,0,1-1.35.44,8.15,8.15,0,0,1,1.29-.6l3.64-1.52,12.56-5,.19-.08.12.18,3.36,5.43.91,1.48-.3-.11,10.78-3.45.21-.07.07.21c1.17,3.42,2.16,6.29,2.88,8.39.31,1,.57,1.74.77,2.35A4.67,4.67,0,0,1,120.3,340.59Z"/><path class="cls-7" d="M109.79,324.2s-.05-.2-.16-.51a2.22,2.22,0,0,0-.81-1.08,2,2,0,1,0,0,3.17,2.22,2.22,0,0,0,.81-1.08c.11-.31.12-.5.16-.5s.09.19,0,.55a2.23,2.23,0,0,1-.78,1.32,2.36,2.36,0,0,1-2.25.4,2.4,2.4,0,0,1,0-4.54,2.34,2.34,0,0,1,2.25.39,2.15,2.15,0,0,1,.77,1.32C109.88,324,109.82,324.2,109.79,324.2Z"/><path class="cls-8" d="M138.16,314.4s-3.92-7.61-11-5c-2.78,1-9,19.79-9,19.79l4-1.27,2.5,4.17s8-19.7,9.23-19.53Z"/><path class="cls-7" d="M118.68,355.82a13.05,13.05,0,0,1-1.69-.56l-4.53-1.7c-3.82-1.46-9.09-3.5-14.89-5.79s-11.06-4.39-14.84-5.93L78.26,340a13.18,13.18,0,0,1-1.61-.74,12.28,12.28,0,0,1,1.7.56l4.54,1.7C86.71,343,92,345,97.77,347.29s11,4.39,14.83,5.93l4.47,1.85A10.08,10.08,0,0,1,118.68,355.82Z"/><path class="cls-7" d="M116.33,359a12.71,12.71,0,0,1-1.68-.56l-4.54-1.69c-3.82-1.46-9.09-3.5-14.89-5.79s-11-4.39-14.84-5.93l-4.47-1.85a13.18,13.18,0,0,1-1.61-.74A9.93,9.93,0,0,1,76,343l4.54,1.7c3.82,1.46,9.08,3.5,14.88,5.79s11,4.38,14.83,5.92l4.47,1.86A10.8,10.8,0,0,1,116.33,359Z"/><path class="cls-7" d="M115.05,363.32a13.05,13.05,0,0,1-1.69-.56l-4.53-1.69c-3.82-1.46-9.09-3.51-14.89-5.79s-11.06-4.39-14.84-5.93l-4.47-1.85a10.69,10.69,0,0,1-1.61-.75,12.28,12.28,0,0,1,1.7.56l4.54,1.7c3.82,1.46,9.08,3.5,14.88,5.79s11,4.38,14.83,5.92l4.47,1.86A10.8,10.8,0,0,1,115.05,363.32Z"/><path class="cls-9" d="M88.27,351.57l8.65,4.35s6.89-3.36,10.32-3.87,18.19,1.41,18.19,1.41a3.71,3.71,0,0,1-2.56,4c-1.32.41-8.59,0-8.59,0h0a3.66,3.66,0,0,0,1,6.15c3.7,1.53,8,3.34,8.49,3.67s5.89-.62,9.84-1.42c2.37-.47,4.08,2.56,2.24,4.13a1.22,1.22,0,0,1-.6.3s3.55,2.13-2.58,4.8c0,0-2.08,4.78-5.91,5.1,0,0-4.48,4.51-7.28,5.25s-21-6.21-21-6.21L80.76,370Z"/><path class="cls-10" d="M118.94,385.42c-4,0-20.31-6.19-20.48-6.26L80.73,370v0l7.52-18.41h0l8.64,4.34c.31-.15,7-3.37,10.31-3.86a11.56,11.56,0,0,1,1.62-.09c5,0,16.46,1.47,16.59,1.49h0v0a3.77,3.77,0,0,1-2.58,4c-1.29.4-8.28,0-8.6-.05a3.64,3.64,0,0,0,1,6.1c3.59,1.49,8,3.34,8.5,3.68s3.91-.23,9.81-1.42a2.32,2.32,0,0,1,.51-.05,2.55,2.55,0,0,1,2.28,1.48,2.21,2.21,0,0,1-.52,2.74,1.31,1.31,0,0,1-.56.29,2.08,2.08,0,0,1,1,1.68c-.07,1.06-1.28,2.11-3.6,3.12a12.14,12.14,0,0,1-1.52,2.43,6.67,6.67,0,0,1-4.4,2.69c-.19.19-4.56,4.52-7.28,5.24A2.06,2.06,0,0,1,118.94,385.42ZM80.79,370l17.69,9.17c.17.06,16.45,6.26,20.45,6.26a1.93,1.93,0,0,0,.53-.06c2.77-.73,7.23-5.19,7.27-5.23h0a6.61,6.61,0,0,0,4.37-2.67,12.26,12.26,0,0,0,1.52-2.42h0c2.31-1,3.51-2,3.58-3.08a2.09,2.09,0,0,0-1-1.67l-.06,0h.07a1.15,1.15,0,0,0,.59-.3,2.16,2.16,0,0,0,.52-2.68,2.48,2.48,0,0,0-2.74-1.4,74.45,74.45,0,0,1-9.29,1.49,1.33,1.33,0,0,1-.56-.08c-.4-.26-3.34-1.53-8.49-3.67a3.69,3.69,0,0,1-1-6.19h0c.07,0,7.28.45,8.58.05a3.42,3.42,0,0,0,2.37-2.3,4.55,4.55,0,0,0,.18-1.61c-.54-.07-11.64-1.49-16.56-1.49a11.5,11.5,0,0,0-1.61.09c-3.38.5-10.24,3.83-10.31,3.86h0l-8.63-4.33Z"/><path class="cls-10" d="M113.49,369.39a11.47,11.47,0,0,0,2.82,1.93,18,18,0,0,0,7.87,2.59,16.56,16.56,0,0,0,8-2.11,11.46,11.46,0,0,0,2.9-1.79,15.58,15.58,0,0,0-3.16,1.23,18.5,18.5,0,0,1-7.72,1.79,20.4,20.4,0,0,1-7.61-2.26A15.48,15.48,0,0,0,113.49,369.39Z"/><path class="cls-10" d="M112.74,374.17c-.08.08.78,1,2.48,1.89a20.44,20.44,0,0,0,3.08,1.42,10.58,10.58,0,0,0,4.17.79,17.88,17.88,0,0,0,4.08-.93l3.18-1a10.59,10.59,0,0,0,2.87-1.17,10.66,10.66,0,0,0-3,.58c-.92.23-2,.52-3.23.87a21.12,21.12,0,0,1-3.91.83,10.81,10.81,0,0,1-3.84-.68,30.81,30.81,0,0,1-3.07-1.21C113.78,374.74,112.82,374.07,112.74,374.17Z"/><path class="cls-10" d="M112.32,379.74c-.15.33,3.1,1.58,7.09,2.83a3.62,3.62,0,0,0,1.72.05,11.5,11.5,0,0,0,1.45-.32,14.26,14.26,0,0,0,2.31-.87c1.28-.61,1.93-1.24,1.86-1.33a12.86,12.86,0,0,0-2.09.75,20.39,20.39,0,0,1-2.29.66c-.43.1-.89.19-1.36.26a2.89,2.89,0,0,1-1.32,0c-2-.65-3.85-1.15-5.18-1.51A10,10,0,0,0,112.32,379.74Z"/><path class="cls-8" d="M36.25,239.74S26.09,246.28,20,264.32C14.87,279.66,4.12,304.42.57,322.05c-2.58,12.86,3.5,28.07,19.5,32.4L80.76,372.7l9.29-22.78L35.57,322.24l14.92-34Z"/><path class="cls-5" d="M14.66,352.41a1.74,1.74,0,0,1,.34.08l1,.27,3.75,1.11,13.93,4.19,47.19,14.39-.31.15,5.9-14.5,3.38-8.28.12.33C78.54,344.51,68,339,58.78,334.26s-17.17-8.83-23.28-11.88h0a11.52,11.52,0,0,0-6.07.44,13.27,13.27,0,0,0-4,2.23,13.51,13.51,0,0,0-1.25,1.1,10.71,10.71,0,0,0-.84.87l-.5.55-.18.18s0-.07.15-.2.27-.34.47-.58a9.59,9.59,0,0,1,.81-.9,14.43,14.43,0,0,1,5.26-3.46,11.68,11.68,0,0,1,6.22-.52h0c6.14,3,14.11,7,23.36,11.75s19.78,10.2,31.17,15.83l.22.1-.09.23c-1.11,2.7-2.23,5.47-3.38,8.28L81,372.8l-.09.21-.22-.07L33.55,358.38,19.67,354l-3.73-1.19-1-.32Z"/><path class="cls-5" d="M53.06,270.14a2,2,0,0,1,.18.54,11.41,11.41,0,0,1,.34,1.59,20.84,20.84,0,0,1,0,6,39.34,39.34,0,0,1-2.35,8.57c-1.2,3.12-2.74,6.44-4.28,10-3.14,7-6,13.31-8.06,18l-2.5,5.42-.7,1.46a2.2,2.2,0,0,1-.28.5,2.66,2.66,0,0,1,.19-.54l.61-1.51c.58-1.36,1.38-3.22,2.34-5.48l7.92-18c1.55-3.52,3.1-6.84,4.31-9.93a40.2,40.2,0,0,0,2.43-8.44,21.9,21.9,0,0,0,.15-5.9c-.07-.7-.18-1.24-.25-1.6A2.38,2.38,0,0,1,53.06,270.14Z"/><path class="cls-4" d="M25.73,278.15a30.79,30.79,0,0,1,.58,3.15,59.62,59.62,0,0,0,1.88,7.46,58.3,58.3,0,0,0,2.89,7.13,29,29,0,0,1,1.39,2.89s-.21-.23-.52-.69-.72-1.16-1.19-2a43.16,43.16,0,0,1-3.06-7.14A43.75,43.75,0,0,1,26,281.36c-.13-1-.21-1.79-.23-2.34A2.56,2.56,0,0,1,25.73,278.15Z"/><path class="cls-4" d="M29.47,291A28.88,28.88,0,0,0,31,288.21a12.34,12.34,0,0,0,.72-7.47l-.06-.25.46.08a14.69,14.69,0,0,0-2.6,6.93c-.2,1.9,0,3.1-.09,3.11a2.19,2.19,0,0,1-.2-.83,12.21,12.21,0,0,1-.07-2.31,13.86,13.86,0,0,1,2.54-7.2l.34-.47.13.56.05.26a11.87,11.87,0,0,1-.89,7.74,10.24,10.24,0,0,1-1.27,2C29.72,290.81,29.49,291,29.47,291Z"/><path class="cls-4" d="M26.44,287.1a3,3,0,0,1-.88-.31,14.72,14.72,0,0,1-2.21-1.24,17.32,17.32,0,0,1-2.9-2.41A16.68,16.68,0,0,1,19,281.43a10,10,0,0,1-.68-1,1.69,1.69,0,0,1-.17-1.38.91.91,0,0,1,.65-.51,1.34,1.34,0,0,1,.73.1,5.29,5.29,0,0,1,1,.66,16.36,16.36,0,0,1,1.7,1.45,17.25,17.25,0,0,1,2.4,2.91,15,15,0,0,1,1.21,2.23,2.85,2.85,0,0,1,.29.88c-.08,0-.58-1.19-1.8-2.9a18.79,18.79,0,0,0-2.43-2.77,16.77,16.77,0,0,0-1.68-1.39,4.52,4.52,0,0,0-.93-.59c-.32-.14-.6-.08-.71.14a1.21,1.21,0,0,0,.16.93c.17.3.42.63.63.93a18.25,18.25,0,0,0,1.39,1.68,19.41,19.41,0,0,0,2.76,2.44C25.26,286.49,26.48,287,26.44,287.1Z"/><path class="cls-4" d="M27.79,295.49a2.1,2.1,0,0,1-.73.24,7.82,7.82,0,0,1-2.09.18,9.57,9.57,0,0,1-6.35-2.72l-.32-.31.42-.12.69-.19a9.76,9.76,0,0,1,7.25,1.23,8.26,8.26,0,0,1,1.76,1.42c.35.4.52.65.49.67a19.16,19.16,0,0,0-2.43-1.78,10,10,0,0,0-7-1l-.64.18.11-.44a9.8,9.8,0,0,0,6,2.74A25,25,0,0,0,27.79,295.49Z"/><path class="cls-4" d="M33,347.1a2.89,2.89,0,0,1,.77-.4c.5-.23,1.25-.52,2.19-.85a44.13,44.13,0,0,1,15.29-2.35c1,0,1.8.09,2.35.15a2.93,2.93,0,0,1,.85.15,28.91,28.91,0,0,1-3.2.07,58.34,58.34,0,0,0-7.67.64,56.66,56.66,0,0,0-7.51,1.7A27.74,27.74,0,0,1,33,347.1Z"/><path class="cls-4" d="M46.19,344.64a2.46,2.46,0,0,1-.27.83,10.59,10.59,0,0,1-1.23,2,11.9,11.9,0,0,1-6.5,4.29l-.26.07-.56.14.27-.52A13.88,13.88,0,0,1,42.91,346a11.52,11.52,0,0,1,2.1-1c.52-.18.81-.24.82-.2s-1.12.44-2.73,1.48a14.73,14.73,0,0,0-5,5.45l-.29-.37.25-.06a12.29,12.29,0,0,0,6.34-4A27.29,27.29,0,0,0,46.19,344.64Z"/><path class="cls-4" d="M41.35,343.7c-.06.07-1.08-.78-3-1.74A19.91,19.91,0,0,0,35,340.6a21.3,21.3,0,0,0-2.12-.48c-.37-.05-.78-.13-1.12-.14a1.23,1.23,0,0,0-.9.28c-.15.19-.07.47.2.7a5.31,5.31,0,0,0,.94.56,18.81,18.81,0,0,0,2,.87,19.31,19.31,0,0,0,3.57.91c2.09.32,3.41.21,3.41.3a2.71,2.71,0,0,1-.92.14,14.4,14.4,0,0,1-2.54-.07,17.67,17.67,0,0,1-3.68-.83,18.47,18.47,0,0,1-2.06-.86,5.67,5.67,0,0,1-1.06-.63,1.37,1.37,0,0,1-.41-.61.94.94,0,0,1,.15-.81,1.64,1.64,0,0,1,1.31-.46,8.55,8.55,0,0,1,1.2.15,16.81,16.81,0,0,1,2.17.52,17.27,17.27,0,0,1,3.47,1.49,15.41,15.41,0,0,1,2.1,1.42C41.14,343.43,41.37,343.67,41.35,343.7Z"/><path class="cls-4" d="M49.44,341.11a21.51,21.51,0,0,0-1.2-2.52,9.77,9.77,0,0,0-5.15-4.13l.33-.29c0,.21.09.43.14.66a10,10,0,0,0,4.06,5.73,18.26,18.26,0,0,0,2.68,1.37,2.16,2.16,0,0,1-.81-.14,8.14,8.14,0,0,1-2.07-.92A9.84,9.84,0,0,1,43.05,335c0-.24-.09-.47-.14-.69l-.09-.44.43.15a9.62,9.62,0,0,1,5.3,4.44,8.62,8.62,0,0,1,.78,1.94A1.9,1.9,0,0,1,49.44,341.11Z"/><path class="cls-4" d="M43.63,281.91a14.47,14.47,0,0,0,1-2.66,7.87,7.87,0,0,0-1.4-6.42h.39l-.08.09A6.53,6.53,0,0,0,42,276.29a6.33,6.33,0,0,0,.36,3,14.38,14.38,0,0,0,1.28,2.6A5.34,5.34,0,0,1,42,279.44a6.41,6.41,0,0,1-.48-3.21,6.61,6.61,0,0,1,1.64-3.64l.08-.1.2-.23.2.25a7.72,7.72,0,0,1,1.53,3.63,8,8,0,0,1-.18,3.19,6.84,6.84,0,0,1-.86,2C43.85,281.73,43.65,281.93,43.63,281.91Z"/><path class="cls-4" d="M65.84,355.36a14.47,14.47,0,0,0,1-2.66,7.87,7.87,0,0,0-1.4-6.42h.39l-.08.09a6.51,6.51,0,0,0-1.54,3.36,6.22,6.22,0,0,0,.35,3,14.38,14.38,0,0,0,1.28,2.6,5.43,5.43,0,0,1-1.63-2.47,6.41,6.41,0,0,1-.48-3.21A6.61,6.61,0,0,1,65.37,346l.08-.1.21-.23.19.25a7.72,7.72,0,0,1,1.53,3.63,8,8,0,0,1-.18,3.19,6.84,6.84,0,0,1-.86,2C66.06,355.18,65.86,355.38,65.84,355.36Z"/><path class="cls-4" d="M11.63,320.13c-.05-.09,1.55-.82,3.9-2.31a13.27,13.27,0,0,0,3.57-3.24,7.62,7.62,0,0,0,1.59-5.46c-.25-.2.35.26.29.21h-.19l-.19,0-.38.07-.75.17a9.54,9.54,0,0,0-1.42.5,10.42,10.42,0,0,0-2.42,1.47,10.17,10.17,0,0,0-2.9,3.8,13.9,13.9,0,0,0-1,4.36,3.63,3.63,0,0,1-.06-1.23,9.92,9.92,0,0,1,.73-3.27,10.31,10.31,0,0,1,2.93-4,10.7,10.7,0,0,1,2.53-1.57,10,10,0,0,1,1.48-.53c.26-.07.52-.13.79-.18l.4-.07.2,0h.2c-.06-.05.54.42.29.22a8,8,0,0,1-1.72,5.83,13.16,13.16,0,0,1-3.76,3.26,27.8,27.8,0,0,1-3,1.55A5.66,5.66,0,0,1,11.63,320.13Z"/></g><g id="Plant"><path class="cls-2" d="M440.7,324s0-.08-.1-.22l-.35-.64a25.7,25.7,0,0,0-1.49-2.33,25,25,0,0,0-7.38-7,18,18,0,0,0-6.62-2.44,16.38,16.38,0,0,0-8.05.85,13,13,0,0,0-6.88,5.63c-1.59,2.76-2.1,6-3,9.11a16.48,16.48,0,0,1-1.92,4.34,13.51,13.51,0,0,1-3.27,3.22c-1.23.91-2.52,1.72-3.69,2.68a16,16,0,0,0-3,3.24,20,20,0,0,0-3.07,7.5,26.87,26.87,0,0,0-.41,7,53.13,53.13,0,0,0,1.8,10c.31,1.16.56,2.06.74,2.67a6,6,0,0,0,.3.91,6.47,6.47,0,0,0-.19-.94c-.16-.66-.37-1.56-.64-2.69a58.3,58.3,0,0,1-1.61-10,26.1,26.1,0,0,1,.47-6.92,19.54,19.54,0,0,1,3-7.29,15.62,15.62,0,0,1,2.91-3.13c1.14-.92,2.42-1.73,3.67-2.65a13.39,13.39,0,0,0,3.41-3.35,17.4,17.4,0,0,0,2-4.49c.93-3.15,1.44-6.35,2.95-9a12.59,12.59,0,0,1,6.59-5.43,16,16,0,0,1,7.8-.87,17.68,17.68,0,0,1,6.49,2.32,25.58,25.58,0,0,1,7.4,6.76c.72,1,1.24,1.73,1.58,2.26A4.67,4.67,0,0,0,440.7,324Z"/><path class="cls-2" d="M400.17,335.4c.86-.8,1.27-.25,2.42,0a7.16,7.16,0,0,1,3.1,1.55,13,13,0,0,1,4.22,13.69,10.18,10.18,0,0,1-9.35-15.29"/><path class="cls-2" d="M435.23,319.44c.43-1.08,1-.76,2.16-1.07a7.23,7.23,0,0,1,3.46.06A13.06,13.06,0,0,1,450.56,329a10.18,10.18,0,0,1-15-9.79"/><path class="cls-2" d="M392.45,357a11.75,11.75,0,0,1,18.48.9,14.53,14.53,0,0,1-9.58,3.78,14.87,14.87,0,0,1-9.66-3.91"/><path class="cls-2" d="M395.33,340.86a11.9,11.9,0,0,1-12-14.21,10.69,10.69,0,0,1,12.43,14.1"/><path class="cls-2" d="M407.67,321.91a11.92,11.92,0,0,1-16.07-9.41,10.68,10.68,0,0,1,16.4,9.16"/><path class="cls-2" d="M411.8,315.72a11.9,11.9,0,0,1,16.07,9.4,10.69,10.69,0,0,1-16.4-9.16"/><path class="cls-2" d="M416.73,312.38a11.92,11.92,0,0,1-6.34-17.51,10.69,10.69,0,0,1,6.75,17.54"/><path class="cls-2" d="M429.37,313a11.91,11.91,0,0,1,9.72-15.88,10.68,10.68,0,0,1-9.49,16.21"/><polyline class="cls-5" points="378.44 398.39 371.7 356.14 423.29 356.77 418.2 397.84"/><path class="cls-8" d="M400.69,348.42a8.82,8.82,0,0,0,8.57.73,9.28,9.28,0,0,0,4.68-7.4,9.89,9.89,0,0,0-14.23,5.92"/><path class="cls-8" d="M424.28,357.52a8.8,8.8,0,0,0,8.56.73,9.26,9.26,0,0,0,4.68-7.4,9.89,9.89,0,0,0-14.23,5.92"/><path class="cls-8" d="M411,337.2a8.8,8.8,0,0,0,6.75,5.32,9.3,9.3,0,0,0,8-3.61A9.89,9.89,0,0,0,410.63,336"/><path class="cls-8" d="M419.65,347.73a8.79,8.79,0,0,0-7.7,3.81,9.26,9.26,0,0,0-.18,8.76,9.89,9.89,0,0,0,9.11-12.43"/><path class="cls-8" d="M428,364.36a8.77,8.77,0,0,0,.2,8.59,9.28,9.28,0,0,0,7.86,3.86,10.53,10.53,0,0,0-.48-8.55c-1.36-2.46-3.8-3.68-6.86-4.38"/><path class="cls-8" d="M441.67,366.32a6,6,0,0,0-2-1.3,8.63,8.63,0,0,0-2.8-.49,31.87,31.87,0,0,0-3.81.22,11.11,11.11,0,0,1-4.68-.4,7.17,7.17,0,0,1-3.87-3.74,21.22,21.22,0,0,1-1.67-5.71,16.25,16.25,0,0,0-2-5.85,20.87,20.87,0,0,0-4.36-4.44,20.91,20.91,0,0,1-4.18-4.23,14,14,0,0,1-2.07-9.71,13.65,13.65,0,0,1,2.53-6.24,9.64,9.64,0,0,1,1.24-1.37c.31-.28.47-.43.49-.41a3.47,3.47,0,0,1-.41.49,12.92,12.92,0,0,0-1.14,1.41,13.9,13.9,0,0,0-2.32,6.17,13.7,13.7,0,0,0,2.11,9.37,21.21,21.21,0,0,0,4.1,4.1,20.87,20.87,0,0,1,4.48,4.56,16.73,16.73,0,0,1,2.06,6.05,21.31,21.31,0,0,0,1.59,5.58,6.69,6.69,0,0,0,3.57,3.53,10.85,10.85,0,0,0,4.5.45,32.82,32.82,0,0,1,3.84-.15,8.83,8.83,0,0,1,2.87.6,5,5,0,0,1,1.55,1,2.23,2.23,0,0,1,.32.36A.61.61,0,0,1,441.67,366.32Z"/><path class="cls-8" d="M441.67,366.32a6,6,0,0,0-2-1.3,8.63,8.63,0,0,0-2.8-.49,31.87,31.87,0,0,0-3.81.22,11.11,11.11,0,0,1-4.68-.4,7.17,7.17,0,0,1-3.87-3.74,21.22,21.22,0,0,1-1.67-5.71,16.25,16.25,0,0,0-2-5.85,20.87,20.87,0,0,0-4.36-4.44,20.91,20.91,0,0,1-4.18-4.23,14,14,0,0,1-2.07-9.71,13.65,13.65,0,0,1,2.53-6.24,9.64,9.64,0,0,1,1.24-1.37c.31-.28.47-.43.49-.41a3.47,3.47,0,0,1-.41.49,12.92,12.92,0,0,0-1.14,1.41,13.9,13.9,0,0,0-2.32,6.17,13.7,13.7,0,0,0,2.11,9.37,21.21,21.21,0,0,0,4.1,4.1,20.87,20.87,0,0,1,4.48,4.56,16.73,16.73,0,0,1,2.06,6.05,21.31,21.31,0,0,0,1.59,5.58,6.69,6.69,0,0,0,3.57,3.53,10.85,10.85,0,0,0,4.5.45,32.82,32.82,0,0,1,3.84-.15,8.83,8.83,0,0,1,2.87.6,5,5,0,0,1,1.55,1,2.23,2.23,0,0,1,.32.36A.61.61,0,0,1,441.67,366.32Z"/><path class="cls-8" d="M343.19,370.65a13,13,0,0,0-17.66-12.86,21.76,21.76,0,0,0,17.2,12.69"/><path class="cls-8" d="M339.79,372.44c-2.53,2.77-2.36,7.23-.56,10.51s4.91,5.62,8,7.71A16.94,16.94,0,0,0,340,371.44"/><path class="cls-8" d="M352,359.45a15.06,15.06,0,0,0,17.11,13.42c-1-4.06-2.6-8.14-5.74-10.89s-8.07-3.78-11.54-1.46"/><path class="cls-8" d="M351.93,355.32c-.64-3.69-4.28-6.37-8-6.72s-7.41,1.25-10.4,3.5A13.51,13.51,0,0,0,352,353.92"/><path class="cls-8" d="M332.71,386.71c-3.54,3-4.43,8.41-3,12.83s4.92,7.94,8.8,10.53c1.48-4.38,2.42-9.08,1.63-13.64s-3.53-9-7.77-10.82"/><path class="cls-8" d="M351.35,345a10.89,10.89,0,0,1,17.24-1,9.4,9.4,0,0,1-17,.44"/><path class="cls-8" d="M355.69,334.32a14.15,14.15,0,0,1-18-11.07,32.39,32.39,0,0,1,8.52.13,13.8,13.8,0,0,1,7.55,3.72,7.48,7.48,0,0,1,2,7.22"/><path class="cls-8" d="M363.88,331.56a11.57,11.57,0,0,1-.08-17.85,24.21,24.21,0,0,1,5.06,10.79,9.09,9.09,0,0,1,0,4.46,4.11,4.11,0,0,1-3.12,2.93"/><g class="cls-13"><path d="M343.19,370.65a13,13,0,0,0-17.66-12.86,21.76,21.76,0,0,0,17.2,12.69"/></g><g class="cls-13"><path d="M339.79,372.44c-2.53,2.77-2.36,7.23-.56,10.51s4.91,5.62,8,7.71A16.94,16.94,0,0,0,340,371.44"/></g><g class="cls-13"><path d="M352,359.45a15.06,15.06,0,0,0,17.11,13.42c-1-4.06-2.6-8.14-5.74-10.89s-8.07-3.78-11.54-1.46"/></g><g class="cls-13"><path d="M351.93,355.32c-.64-3.69-4.28-6.37-8-6.72s-7.41,1.25-10.4,3.5A13.51,13.51,0,0,0,352,353.92"/></g><g class="cls-13"><path d="M332.71,386.71c-3.54,3-4.43,8.41-3,12.83s4.92,7.94,8.8,10.53c1.48-4.38,2.42-9.08,1.63-13.64s-3.53-9-7.77-10.82"/></g><g class="cls-13"><path d="M351.35,345a10.89,10.89,0,0,1,17.24-1,9.4,9.4,0,0,1-17,.44"/></g><g class="cls-13"><path d="M355.69,334.32a14.15,14.15,0,0,1-18-11.07,32.39,32.39,0,0,1,8.52.13,13.8,13.8,0,0,1,7.55,3.72,7.48,7.48,0,0,1,2,7.22"/></g><g class="cls-13"><path d="M363.88,331.56a11.57,11.57,0,0,1-.08-17.85,24.21,24.21,0,0,1,5.06,10.79,9.09,9.09,0,0,1,0,4.46,4.11,4.11,0,0,1-3.12,2.93"/></g><path class="cls-8" d="M378,357.5a1.07,1.07,0,0,1,0-.29c0-.22,0-.5.05-.85.05-.75.11-1.85.14-3.26a29.18,29.18,0,0,0-1.92-11.73,17.88,17.88,0,0,0-4.71-6.63,12.59,12.59,0,0,0-8.58-3.15,10.67,10.67,0,0,0-4.84,1.21,9.63,9.63,0,0,0-3.74,3.57c-1.87,3.08-2.33,7-2.17,10.77s.69,7.65.26,11.35a17.58,17.58,0,0,1-1.41,5.25,11,11,0,0,1-3.17,4.16,15.69,15.69,0,0,1-4.42,2.26,22.75,22.75,0,0,0-4.17,1.89,15.09,15.09,0,0,0-5.47,6,14.46,14.46,0,0,0-1.58,6.53,14.87,14.87,0,0,0,.83,5,18.78,18.78,0,0,0,1.95,3.93,1.47,1.47,0,0,1-.19-.22c-.12-.16-.3-.38-.5-.7a14,14,0,0,1-1.47-2.93,15,15,0,0,1-.93-5.11,14.46,14.46,0,0,1,1.54-6.7,15.39,15.39,0,0,1,5.57-6.18c2.55-1.7,5.92-2.12,8.52-4.16s4-5.53,4.36-9.08-.14-7.37-.28-11.26.3-7.85,2.27-11.08a10.15,10.15,0,0,1,3.95-3.75,11.26,11.26,0,0,1,5.08-1.26,13,13,0,0,1,8.89,3.32,18.28,18.28,0,0,1,4.78,6.83,24.64,24.64,0,0,1,1.62,6.69,36.81,36.81,0,0,1,.15,5.19c-.06,1.42-.17,2.53-.25,3.27,0,.34-.08.62-.11.84A1.76,1.76,0,0,1,378,357.5Z"/><g class="cls-13"><path d="M378,357.5a1.07,1.07,0,0,1,0-.29c0-.22,0-.5.05-.85.05-.75.11-1.85.14-3.26a29.18,29.18,0,0,0-1.92-11.73,17.88,17.88,0,0,0-4.71-6.63,12.59,12.59,0,0,0-8.58-3.15,10.67,10.67,0,0,0-4.84,1.21,9.63,9.63,0,0,0-3.74,3.57c-1.87,3.08-2.33,7-2.17,10.77s.69,7.65.26,11.35a17.58,17.58,0,0,1-1.41,5.25,11,11,0,0,1-3.17,4.16,15.69,15.69,0,0,1-4.42,2.26,22.75,22.75,0,0,0-4.17,1.89,15.09,15.09,0,0,0-5.47,6,14.46,14.46,0,0,0-1.58,6.53,14.87,14.87,0,0,0,.83,5,18.78,18.78,0,0,0,1.95,3.93,1.47,1.47,0,0,1-.19-.22c-.12-.16-.3-.38-.5-.7a14,14,0,0,1-1.47-2.93,15,15,0,0,1-.93-5.11,14.46,14.46,0,0,1,1.54-6.7,15.39,15.39,0,0,1,5.57-6.18c2.55-1.7,5.92-2.12,8.52-4.16s4-5.53,4.36-9.08-.14-7.37-.28-11.26.3-7.85,2.27-11.08a10.15,10.15,0,0,1,3.95-3.75,11.26,11.26,0,0,1,5.08-1.26,13,13,0,0,1,8.89,3.32,18.28,18.28,0,0,1,4.78,6.83,24.64,24.64,0,0,1,1.62,6.69,36.81,36.81,0,0,1,.15,5.19c-.06,1.42-.17,2.53-.25,3.27,0,.34-.08.62-.11.84A1.76,1.76,0,0,1,378,357.5Z"/></g><path class="cls-8" d="M453.14,348.28a11.31,11.31,0,0,0,.77-3.78,9.41,9.41,0,0,0-1-4.36,9.12,9.12,0,0,0-4.2-4.07,9.48,9.48,0,0,0-3.32-.89,10.91,10.91,0,0,0-3.71.43c-2.52.67-5,2.11-8,2.7a9.42,9.42,0,0,1-4.65-.12,6.94,6.94,0,0,1-3.79-3c-1.8-2.79-2.31-6.3-4.48-8.88a8.94,8.94,0,0,0-4.08-2.66,11.52,11.52,0,0,0-4.76-.48,12.19,12.19,0,0,0-7.92,4.12,18.66,18.66,0,0,0-3.93,7.27,22.08,22.08,0,0,0-.88,7.2,80.23,80.23,0,0,0,1.34,10.54c.21,1.21.37,2.16.49,2.86.05.3.08.54.11.74a.64.64,0,0,1,0,.26,1,1,0,0,1-.07-.25c-.05-.19-.1-.44-.17-.73-.14-.7-.34-1.64-.59-2.84a71.67,71.67,0,0,1-1.52-10.56,22.08,22.08,0,0,1,.82-7.35,19,19,0,0,1,4-7.49,13.93,13.93,0,0,1,3.62-2.89,12.4,12.4,0,0,1,9.61-.93,9.37,9.37,0,0,1,4.33,2.83c2.3,2.76,2.79,6.29,4.52,8.94a6.47,6.47,0,0,0,3.49,2.82,9.07,9.07,0,0,0,4.39.11c2.88-.55,5.39-2,8-2.63a11.18,11.18,0,0,1,3.86-.42,9.5,9.5,0,0,1,3.46,1,9.29,9.29,0,0,1,5.25,8.79,8.91,8.91,0,0,1-.55,2.85A4.47,4.47,0,0,1,453.14,348.28Z"/><path class="cls-8" d="M423,329.56a10,10,0,0,0,9.2.61,9.26,9.26,0,0,0,4.68-7.4,9.89,9.89,0,0,0-14.23,5.92"/><path class="cls-8" d="M432.75,338.43A10,10,0,0,0,437,346.6a9.25,9.25,0,0,0,8.75.15,9.9,9.9,0,0,0-12.46-9.07"/><path class="cls-8" d="M449.71,336.47a10.05,10.05,0,0,0,9.21-.38,9.29,9.29,0,0,0,3.87-7.86,9.9,9.9,0,0,0-13.52,7.4"/><path class="cls-8" d="M408.72,323.69c-2.47-2.14-4.13-5.88-3.66-8.69a9.3,9.3,0,0,1,5.69-6.66,10.51,10.51,0,0,1,2.94,8,10.4,10.4,0,0,1-4.39,7.31"/><path class="cls-8" d="M342.48,311.54s0-.08.1-.22.2-.38.34-.64c.31-.55.8-1.35,1.49-2.33a25.21,25.21,0,0,1,7.39-7,18.1,18.1,0,0,1,6.62-2.43,16.33,16.33,0,0,1,8,.85,13,13,0,0,1,6.89,5.63c1.58,2.76,2.09,6,3,9.1a16.57,16.57,0,0,0,1.93,4.35,13.16,13.16,0,0,0,3.27,3.22c1.23.91,2.51,1.72,3.68,2.68a15.48,15.48,0,0,1,3,3.24,19.78,19.78,0,0,1,3.07,7.49,26.11,26.11,0,0,1,.41,7.05,53.13,53.13,0,0,1-1.8,10c-.3,1.16-.56,2.06-.74,2.66a5.89,5.89,0,0,1-.3.92,6.47,6.47,0,0,1,.19-.94l.64-2.69a58.14,58.14,0,0,0,1.62-10,26.5,26.5,0,0,0-.47-6.92,19.57,19.57,0,0,0-3-7.29,15.08,15.08,0,0,0-2.91-3.13c-1.13-.92-2.41-1.73-3.67-2.65a13.68,13.68,0,0,1-3.4-3.35,17.07,17.07,0,0,1-2-4.49c-.94-3.16-1.45-6.35-3-9a12.54,12.54,0,0,0-6.59-5.42,16,16,0,0,0-7.8-.87,17.87,17.87,0,0,0-6.48,2.31,25.79,25.79,0,0,0-7.41,6.77c-.72,1-1.23,1.73-1.57,2.26A8.25,8.25,0,0,1,342.48,311.54Z"/><path class="cls-8" d="M383,322.9c-.85-.79-1.27-.24-2.41,0a7.1,7.1,0,0,0-3.1,1.55,13,13,0,0,0-4.23,13.69,10.19,10.19,0,0,0,9.35-15.3"/><path class="cls-8" d="M348,307c-.43-1.09-1-.77-2.17-1.07a7.11,7.11,0,0,0-3.46.06,13.06,13.06,0,0,0-9.71,10.54,10.18,10.18,0,0,0,15-9.78"/><path class="cls-8" d="M390.72,344.5a11.75,11.75,0,0,0-18.48.9,14.61,14.61,0,0,0,9.59,3.78,14.82,14.82,0,0,0,9.65-3.91"/><path class="cls-8" d="M387.84,328.37a11.9,11.9,0,0,0,12-14.21,10.69,10.69,0,0,0-12.42,14.1"/><path class="cls-8" d="M375.51,309.41a11.9,11.9,0,0,0,16.07-9.4,10.69,10.69,0,0,0-16.41,9.16"/><path class="cls-8" d="M371.37,303.22a11.92,11.92,0,0,0-16.07,9.41,10.68,10.68,0,0,0,16.4-9.16"/><path class="cls-8" d="M366.44,299.89a11.92,11.92,0,0,0,6.34-17.51A10.69,10.69,0,0,0,366,299.92"/><path class="cls-8" d="M353.81,300.49a11.91,11.91,0,0,0-9.73-15.88,10.69,10.69,0,0,0,9.49,16.22"/><polygon class="cls-5" points="371.05 393.5 375 398.39 423.54 398.39 426.85 393.5 371.05 393.5"/><path class="cls-6" d="M425.78,393.45c0,.16-11.93.28-26.64.28s-26.64-.12-26.64-.28,11.92-.28,26.64-.28S425.78,393.3,425.78,393.45Z"/><path class="cls-6" d="M420.32,375s-.09.15-.3.4a11.77,11.77,0,0,1-1,1,18.12,18.12,0,0,1-4.33,3,19,19,0,0,1-7.58,2,18.16,18.16,0,0,1-4.64-.39,26.62,26.62,0,0,1-4.72-1.56c-3.13-1.34-6-2.85-8.75-3.74a15.09,15.09,0,0,0-7.55-.73,9.89,9.89,0,0,0-4.63,2.15c-.92.81-1.28,1.42-1.32,1.38s.06-.16.24-.44a7,7,0,0,1,.93-1.1,9.56,9.56,0,0,1,4.7-2.37,15.18,15.18,0,0,1,7.79.62c2.84.88,5.71,2.39,8.8,3.71a28.61,28.61,0,0,0,4.63,1.55,18.49,18.49,0,0,0,4.5.41,19.37,19.37,0,0,0,7.43-1.79A23,23,0,0,0,420.32,375Z"/><path class="cls-6" d="M420.81,371.23a1.92,1.92,0,0,1-.33.37,10.71,10.71,0,0,1-1.07,1,20,20,0,0,1-4.49,2.79,20.93,20.93,0,0,1-7.63,1.82,20,20,0,0,1-4.65-.31,30.07,30.07,0,0,1-4.8-1.36c-3.2-1.16-6.14-2.5-9-3.28a17.68,17.68,0,0,0-7.61-.69,11.37,11.37,0,0,0-4.81,1.84c-1,.7-1.45,1.24-1.49,1.2a2,2,0,0,1,.3-.4,8.45,8.45,0,0,1,1.06-1,11.13,11.13,0,0,1,4.87-2.05,17.8,17.8,0,0,1,7.82.58c2.87.77,5.84,2.11,9,3.26a31,31,0,0,0,4.71,1.34,20.2,20.2,0,0,0,4.53.34,21.61,21.61,0,0,0,7.49-1.67A26.49,26.49,0,0,0,420.81,371.23Z"/></g><g id="Clock"><circle class="cls-4" cx="224.44" cy="35.52" r="35.33" transform="translate(63.32 195.76) rotate(-53.84)"/><path class="cls-5" d="M189.19,33.21s0,.2,0,.57V36.7c0,.45.08.95.12,1.49a25.81,25.81,0,0,0,.5,3.68,33.77,33.77,0,0,0,3.29,9.6,35.34,35.34,0,0,0,22.6,18,31.48,31.48,0,0,0,4.39.8c.76.08,1.51.2,2.28.24l2.33,0c.39,0,.78,0,1.17,0l1.18-.1c.79-.08,1.59-.12,2.38-.23a38.07,38.07,0,0,0,9.46-2.77c.76-.35,1.5-.77,2.26-1.16A18.34,18.34,0,0,0,243.38,65a40.27,40.27,0,0,0,4.19-3.12,40.67,40.67,0,0,0,3.7-3.83,34,34,0,0,0,5.63-9.31,37.56,37.56,0,0,0,2.53-10.92,37.52,37.52,0,0,0-1.08-11.17L257.57,24l-1-2.55a8.66,8.66,0,0,0-.58-1.23L255.35,19l-.63-1.2L254,16.69a39.38,39.38,0,0,0-3.16-4.28,39,39,0,0,0-3.75-3.64,19,19,0,0,0-2-1.59c-.71-.48-1.39-1-2.1-1.45a37.3,37.3,0,0,0-4.43-2.3A36,36,0,0,0,234,1.75c-.77-.22-1.56-.36-2.33-.54L230.46,1c-.38-.07-.78-.1-1.16-.15L227,.53c-.77-.06-1.54,0-2.29-.06a31.5,31.5,0,0,0-4.47.22,35.24,35.24,0,0,0-24.75,14.93A33.55,33.55,0,0,0,191,24.71a25.14,25.14,0,0,0-1,3.58c-.11.53-.24,1-.32,1.46s-.11.86-.15,1.23c-.1.72-.17,1.27-.22,1.66s-.1.57-.1.57,0-.19,0-.57.1-.95.17-1.68c0-.37.08-.78.13-1.23s.19-.94.3-1.47a24.72,24.72,0,0,1,.93-3.61,33.44,33.44,0,0,1,4.48-9.19A35.44,35.44,0,0,1,220.18.26,32.12,32.12,0,0,1,224.7,0c.77,0,1.54,0,2.32.06l2.34.27c.39.05.79.07,1.18.15l1.17.26c.78.18,1.58.32,2.36.54A35.54,35.54,0,0,1,238.72,3a36.25,36.25,0,0,1,4.5,2.33c.72.45,1.41,1,2.13,1.46a19.48,19.48,0,0,1,2,1.61,40.14,40.14,0,0,1,3.81,3.69,39.56,39.56,0,0,1,3.21,4.34l.75,1.14.64,1.22.64,1.22a9.58,9.58,0,0,1,.58,1.26c.35.85.69,1.72,1,2.58s.53,1.79.79,2.69A37.94,37.94,0,0,1,260,37.86a37.86,37.86,0,0,1-2.57,11.08,34.14,34.14,0,0,1-5.72,9.45,39.42,39.42,0,0,1-3.76,3.88,38.55,38.55,0,0,1-4.25,3.15,18.94,18.94,0,0,1-2.24,1.34c-.77.39-1.53.81-2.3,1.17a39.23,39.23,0,0,1-9.59,2.79c-.81.11-1.62.15-2.42.22l-1.19.11c-.4,0-.8,0-1.19,0l-2.36,0c-.77,0-1.54-.16-2.3-.24a33.64,33.64,0,0,1-4.45-.83A35.5,35.5,0,0,1,192.86,51.6a33.78,33.78,0,0,1-3.23-9.69,25.47,25.47,0,0,1-.45-3.71c0-.54-.09-1-.1-1.5s0-.86,0-1.24c0-.72,0-1.28,0-1.68S189.19,33.21,189.19,33.21Z"/><path class="cls-5" d="M240.48,36.61a6.51,6.51,0,0,1-1.25.08l-3.43.07c-2.91,0-7,.07-11.55.08H224V34.32c0-5.12,0-9.75.06-13.1,0-1.62.06-3,.08-4a7.08,7.08,0,0,1,.09-1.46,8.94,8.94,0,0,1,.08,1.46c0,1,0,2.35.08,4,0,3.35.06,8,.06,13.1v2.29l-.22-.23c4.58,0,8.64,0,11.55.08l3.43.07A6.51,6.51,0,0,1,240.48,36.61Z"/><path class="cls-5" d="M224.35,6a9.68,9.68,0,0,1,.23,3,9.68,9.68,0,0,1-.23,3,10.28,10.28,0,0,1-.22-3A10.28,10.28,0,0,1,224.35,6Z"/><path class="cls-5" d="M240.45,10.77A9.53,9.53,0,0,1,238.54,13a9.4,9.4,0,0,1-2.23,1.9,9.84,9.84,0,0,1,1.91-2.23A9.4,9.4,0,0,1,240.45,10.77Z"/><path class="cls-5" d="M249.86,21.05a12.26,12.26,0,0,1-2.43,1.62,12.41,12.41,0,0,1-2.57,1.42,8,8,0,0,1,2.33-1.81A8,8,0,0,1,249.86,21.05Z"/><path class="cls-5" d="M255.38,36.3a35.77,35.77,0,0,1-8.1,0,37.39,37.39,0,0,1,8.1,0Z"/><path class="cls-5" d="M199.27,35.76a31.92,31.92,0,0,1-7.65,0,33.36,33.36,0,0,1,7.65,0Z"/><path class="cls-5" d="M203.23,47.12a16.21,16.21,0,0,1-2.88,2.62A16.93,16.93,0,0,1,197.17,52a17,17,0,0,1,2.89-2.62A17.27,17.27,0,0,1,203.23,47.12Z"/><path class="cls-5" d="M213,55.91a25.44,25.44,0,0,1-2,3.4A25.23,25.23,0,0,1,209,62.65a12.92,12.92,0,0,1,1.7-3.57A12.72,12.72,0,0,1,213,55.91Z"/><path class="cls-5" d="M224.35,67.24a18.92,18.92,0,0,1-.22-4,19,19,0,0,1,.22-4,17.87,17.87,0,0,1,.23,4A17.8,17.8,0,0,1,224.35,67.24Z"/><path class="cls-5" d="M241.8,61.85a11.82,11.82,0,0,1-3.34-2.29,12.14,12.14,0,0,1-2.72-3,36.72,36.72,0,0,1,3,2.65A37.93,37.93,0,0,1,241.8,61.85Z"/><path class="cls-5" d="M250,53a14.12,14.12,0,0,1-2.68-2.36A13.83,13.83,0,0,1,245,48a14.47,14.47,0,0,1,2.68,2.36A13.83,13.83,0,0,1,250,53Z"/><path class="cls-5" d="M202.86,24.88a10.75,10.75,0,0,1-2.36-2,10.5,10.5,0,0,1-2-2.36,10.75,10.75,0,0,1,2.36,2A11,11,0,0,1,202.86,24.88Z"/><path class="cls-5" d="M213,14.24a10.38,10.38,0,0,1-2.33-2,10.52,10.52,0,0,1-2-2.31,10.22,10.22,0,0,1,2.32,2A10.75,10.75,0,0,1,213,14.24Z"/></g><g id="Desk"><path class="cls-5" d="M445.29,398.52c0,.14-98.51.26-220,.26s-220-.12-220-.26,98.49-.26,220-.26S445.29,398.38,445.29,398.52Z"/></g></g></svg>