<svg xmlns="http://www.w3.org/2000/svg" viewBox="0 0 2604.01 1363.83"><defs><style>.cls-1{fill:#b75742;}.cls-2{fill:#355389;}.cls-3{fill:#466eb6;}.cls-4{fill:#f7a491;}.cls-5{fill:#f48c7f;}.cls-6{fill:#3c8f7c;}.cls-7{fill:#13375b;}.cls-8{fill:#50bfa5;}.cls-9{fill:#f47458;}.cls-10{fill:#184655;}.cls-11{fill:#86b1f2;}.cls-12{fill:#96d9c9;}.cls-13{fill:#f7cc7f;}.cls-14{fill:#fae0b2;}.cls-15{fill:#9bc1f9;}.cls-16{fill:#f4c0b8;}.cls-17{fill:#966259;}.cls-18{fill:#6b4744;}.cls-19{fill:#f27a6a;}.cls-20{fill:#f79c8d;}.cls-21{fill:#efefef;}</style></defs><g id="Layer_2" data-name="Layer 2"><g id="Layer_1-2" data-name="Layer 1"><path class="cls-1" d="M2331.31,663.91s20.74-7.52,34.14,13.49,6.16,19,12.68,29.53,9.66,40.36,11.91,56.51c23,164.65-252,178-144.61-31.88C2255.5,711.88,2264,700,2273.07,679S2320.44,658.84,2331.31,663.91Z"/><path class="cls-2" d="M2272.48,817.72,2244.75,808s-11,14.06-14.31,49.25,0,55.88,0,55.88h31.37Z"/><path class="cls-3" d="M2328,798.83c-9.41,1-79.39-5.68-83.29,9.21-21,80,7.86,190.44,15.23,197.81s127.64-16.63,127.64-16.63S2406.48,790.74,2328,798.83Z"/><path class="cls-4" d="M2423.56,716.83s-7.73-3.68-14.76-16.7c-4.51-8.35-17.91-19-12.33-20.79s14.13,12.39,15.73,8.35-14.36-34.61-9.31-36.18,18.29,28.16,19.72,24.55-13.51-29.6-6.36-31.82,14.86,32,18.7,30.79-1.75-27.28,4-29.07,4.94,32.27,7,31.29c1.11-.53,6.22-17,9.34-15.79,3.53,1.4-6,35.25-1.77,42.71S2491.65,804.4,2480.07,816c-12.63,12.63-93,41.58-109.78,36.6s-26.44-21.59-22.39-31.81,83.46-33.16,84.73-36.37S2423.56,716.83,2423.56,716.83Z"/><path class="cls-5" d="M2430,687.53a18.21,18.21,0,0,1,7.12,1.29,19.24,19.24,0,0,1,11.23,10.87C2444.73,695.39,2440.7,690.63,2430,687.53Z"/><path class="cls-4" d="M1337.77,1304.3c-1.33-9.55,1.66-26,9.13-51.68-14.8,0-27.25-6.52-42.38-6.29-4.13,24.17-10.53,63.85-10.53,63.85l-.68,31.37,105.34.79s-.87.45-31.93-19.17C1364.42,1321.71,1339.06,1313.52,1337.77,1304.3Z"/><path class="cls-6" d="M1292.8,1349.61h108.75c4-.36,5-3.65,3.61-5.67-2.87-4.16-24.08-14.16-38.34-20.8-25,2.63-69-7.66-72.93-13.46C1287,1328.87,1290.56,1349.11,1292.8,1349.61Z"/><path class="cls-4" d="M1206.53,1304.3c-1.33-9.55-3.6-21.51-.27-53.35-14.81,0-28.9-2.75-44-2.52,0,24.86.52,61.75.52,61.75l-.68,31.37,105.35.79s-.88.45-31.94-19.17C1233.19,1321.71,1207.82,1313.52,1206.53,1304.3Z"/><path class="cls-6" d="M1161.56,1349.61h108.76c4-.36,5-3.65,3.61-5.67-2.88-4.16-24.09-14.16-38.35-20.8-25,2.63-69-7.66-72.92-13.46C1155.8,1328.87,1159.33,1349.11,1161.56,1349.61Z"/><path class="cls-4" d="M1283.09,394.56l39.63-41.8s42.42,23.32,91.86,45.61c13.6-23.66,35.78-101.48,37-105.19s-26-50.48-19.9-51.65,14,25,20.4,22.32,23-63.29,26.82-60c7.24,6.19-8.69,37.71-4.88,40s13.49-34.94,20.86-33.35-12.44,33.9-10.27,37,22.88-27.21,27.16-20.18c2.32,3.81-19.1,26.39-14.69,28.92s23.71-11.7,26-7.09-18,9.41-23.65,21.07-15.9,16.2-19.3,38.25-12.71,139.89-36.73,149.35C1422.4,466.12,1283.09,394.56,1283.09,394.56Z"/><path class="cls-2" d="M1308.69,620.06,1276.56,638l-65.32,99.88,116.82,275s-13.16,41.34-17.45,62c-4.48,21.62-15.48,207.13-15.48,207.13l49.84.84s47.33-197.49,55.35-261.6c9.73-77.84-49.54-263.22-49.54-263.22-11-37.82-34.88-115.63-34.88-115.63S1310.07,623.38,1308.69,620.06Z"/><path class="cls-3" d="M1196.84,582.55s3.32,23.49-10,50.29c-8.1,16.34-22.09,29.15-32.11,49.16-19,37.87-29.26,91.67-22.15,126.25,0,0,39.21,149.73,37.65,204.45-.57,20.18-7.49,56.54-11.92,81.11-3.92,21.73-2.54,182.93-2.54,182.93l53,1,42.61-264.39,18-235,39.31-158.29Z"/><path class="cls-7" d="M1320.56,233.26c-5.13-24.27-10.44-48.63-34.56-66.11C1266.49,153,1245.52,149,1223.28,157c-63,22.85-29.11,72.84-107.28,126.13-24.29,16.55-33.51,22.33-51,44.39-24.4,30.88-37.73,72.32-25.47,106.43,25.37,70.55,104,90.93,145.08,76,76.53-27.84,140.29-124.89,144.52-151.38C1333.72,330.21,1323.87,248.88,1320.56,233.26Z"/><path class="cls-8" d="M1326.4,420.83c17.74,8.2,49.85,20.5,49.85,20.5l18.28-57.79c-103.28-58.75-95.18-49.27-172.7-48.11-61.92.88-87.88-10.95-141.2,133,0,0,40.59,18.24,55.13,24.09,6.25-17.79,17.55-53.28,24.13-33A589.28,589.28,0,0,1,1182,552.67c3.11,18.84,9.86,42.94,6.31,62.13,0,0,42.17,8.68,74.39,10.1a1.22,1.22,0,0,0,.27,0c15.57-.39,31.51-1.77,45.71-4.83,0,0,6.31-133.54,9.69-139.11,3.74-6.17,19.52-26.11,6.09-55.92C1322.1,419.76,1322.74,419.14,1326.4,420.83Z"/><path class="cls-4" d="M1231.54,276s-4.93,39.83-7.84,53.66c-3,14.46-7.62,60,22.38,67.42s20.73-49.57,21.23-64.28,9-66,9-66Z"/><path class="cls-9" d="M1229.91,288.69c.3.18.59.38.9.56,16.58,9.51,31,8,41.84.61,1.94-12.73,3.65-23.09,3.65-23.09L1231.54,276S1230.88,281.29,1229.91,288.69Z"/><path class="cls-4" d="M1240.56,172.27a51.33,51.33,0,0,0-27.72,22.4c-10.14,17.46-15.19,67.6,22.12,89s63.8-12.88,62.67-45S1287.57,164.23,1240.56,172.27Z"/><path class="cls-4" d="M1305.88,225c.41,8.34-3.15,15.29-8,15.53s-9.05-6.31-9.46-14.65,3.15-15.29,8-15.53S1305.46,216.62,1305.88,225Z"/><path class="cls-7" d="M1245.84,171s-20.12,52.44-39.8,58-18.12,31.39-18.12,31.39-2.52-59.63,15.47-74.24S1245.84,171,1245.84,171Z"/><path class="cls-4" d="M1214.48,239.24c3,8.2,1,16.52-4.45,18.59s-12.4-2.89-15.44-11.09-1-16.52,4.45-18.59S1211.44,231.05,1214.48,239.24Z"/><path class="cls-4" d="M1248.87,652.62c.73.1,4-.33,6.71-.27a52.17,52.17,0,0,1,7,.63,19.64,19.64,0,0,1,4.25-2.55c1.17-.53,3.06-.73,4.36-1.33s2.45-1.76,3.72-2.33c3.29-1.43,6.31-1.76,7.31,0,.83,1.43-17.48,12.62-17.48,12.62-16.94.1-34.69,8.74-74-16.87-22.42-9.81-131.33-63.6-133.52-75.32-1.23-6.58,15.48-57.51,29.13-96.19,10.53,4.72,32.93,14.69,45.45,19.94-11.49,24.35-25,56.64-23.62,60.6.37,1,1.73,2.89,75.35,51.1,1.86,1.19,3.76,2.46,5.68,3.72q7.79,5.08,16.62,10.83l21-2.19s33.25,2.29,34.25,6.08c.43,1.72-2.33,2.59-5.72,3.09h-.1l-1.49.2h-.07c-3.65.43-7.51.49-8.44.83a21.67,21.67,0,0,0-5,2.45c20.73,8.48,19.13,5.45,26,5,1.73-.13,3.56.37,5.19.23,2.79-.23,5-1.89,7.17-2a9.31,9.31,0,0,1,6.28,1.89c.73.73-.63,1.8-3.29,3-16,7-29.27,4.29-33.52,5.32-2.86.69,2.36,1.76,10.5.89,2-.2,4.68.54,7.37-.1,1.8-.39,3.43-1.56,5.19-2s3.28-.36,4.65-.63c1.79-.33,4.28-1.69,5.71-1.86,5.32-.6,7.91.33,8.51.83,1.23,1.1-22.93,10.37-22.93,10.37s-16.64,2.39-20.36,2.39C1246.75,651,1244.52,652,1248.87,652.62Z"/><path class="cls-10" d="M2596.65,1349.61H7.36A7.24,7.24,0,0,0,0,1356.72H0a7.24,7.24,0,0,0,7.36,7.11H2596.65a7.23,7.23,0,0,0,7.36-7.11h0A7.23,7.23,0,0,0,2596.65,1349.61Z"/><path class="cls-3" d="M150.37,823.73S139.23,961.08,139.23,973s47.4,15.3,47.4,15.3l14.48-140.94Z"/><path class="cls-11" d="M221.05,790.3s-30.75-16.46-56.1-1.37S132.7,892.66,132.7,892.66l81.21,9.73Z"/><path class="cls-9" d="M408.82,1242.43s-15.54,63.37-27.12,73.32-49.34,29-39.46,31,83,3.75,81-8.45-4.11-20-4.11-20l19.34-45.27Z"/><path class="cls-7" d="M337.32,1349.38c17.84,1.77,69.91,3.65,85.09,1.71,0,0,2.84-.56.84-12.76-.49-3-1-5.7-1.46-8.1-13.76,3.61-43.73-4.08-55.6-5.66-12.9,6.18-27.44,15.4-32.13,16.17C327.27,1341.85,327.28,1348.38,337.32,1349.38Z"/><path class="cls-9" d="M579.36,1295.56s1.63,16,1.63,23.1-6.58,27-3.53,30,90.16,2.68,90.16-.19-15.4-11.57-36.32-17.54-28-29.15-22.6-42.46Z"/><path class="cls-7" d="M669,1348.69c0-2.67-14.28-10.88-32.78-16.53-19.72,6.66-47.1,1.16-57.36-.8-3.14,8.22-4.15,16-2.53,17.62C579.4,1352,669,1351.56,669,1348.69Z"/><path class="cls-11" d="M484.81,1027.67l-15.62,13.85s-17.59,47.62-18.61,50.76c-1.43,4.38-58.4,188-58.4,188l39.69,14.28s39.35-76.66,45.88-103.29,71.72-138,71.72-138Z"/><path class="cls-11" d="M553.82,1055.92l19,243.32h44s15.76-182.09,10.33-246Z"/><path class="cls-4" d="M318,886.38s13.37,65.39,25.11,77.13c6.68,6.68,24.9,33.73,38.91,33.73,11.15,0,17.79.81,19.66.81,4.35,0-.54,26.63-4.62,30.7,0,0-1.36,4.08-9.51,4.08s-51.35-29.62-64.39-42.66S285.93,906,285.93,906Z"/><path class="cls-9" d="M532.63,804.33S515.78,823.89,493.5,857s-79.21,125.18-85.31,131.27a55,55,0,0,1-6.09,4.44s-8-1.72-12.3-.13-9.87,9.69-7.87,11.68,9.68-4.66,12-4.59,2.56.06,2.56,1.33-9.51,6.52-12.23,7.25-9.88,11.72-8.51,15.39,1.27,4.89,4.71,4.89,4,2.72,6.88,2.72,3.62-3.62,6.88-2.17,4.17,1.08,14.31-5.08,29.08-29.07,38.58-38.58S543.5,881.31,543.5,881.31Z"/><path class="cls-10" d="M569.49,658.61s-20.74-7.52-34.14,13.5-6.16,19-12.68,29.52-23.55,8.33-23.55,24.63,7.61,18.84,7.61,18.84-6.89,12.68.72,25.72S534,795.09,549.9,793.28c0,0,23.85,13.08,47.75,6.9S613.23,794,623,794s36.23-13.41,31.88-33c0,0,16.12-19.14.48-34.78s-18.59-31.51-27.65-52.52S580.36,653.54,569.49,658.61Z"/><path class="cls-8" d="M274.52,796.93c3.08,1.06,15.67,10,23,24.16s26.72,73.17,26.72,73.17L292.35,906Z"/><path class="cls-4" d="M114,1283.79s-5.25,18.65-9.42,22.82S86.64,1326.94,90,1335s87.56,19.49,90.75,16.3-14.54-16.71-24.59-25-17.25-18.47-13-30.84,4.21-11.13,4.21-12.36S114,1283.79,114,1283.79Z"/><path class="cls-2" d="M180.78,1351.26c3.81-2.86-8-15.62-25.15-25.46-7.17,0-16.74-.5-24.84-2.53-12.69-3.17-22.41-14.15-25.3-17.72-.26.36-20.66,20-16.68,29.41C92.21,1343,173.17,1357,180.78,1351.26Z"/><path class="cls-4" d="M253.67,1292.84s1.56,19.17-1.6,24.14-14.2,24.69-8,30.85c5.55,5.55,82.65,2,85.06-1.83s-10.77-15.19-22.39-21.09-20.87-14.27-19.45-27.25,1.68-11.79,1.41-13S253.67,1292.84,253.67,1292.84Z"/><path class="cls-2" d="M338.66,1349.07c4-2.55-13.75-18.63-32.62-24.49-7,1.55-16.44,3.17-24.79,3-13.07-.33-25-8.93-28.55-11.79-.18.42-17.74,25.85-9.87,32.34C249,1353.16,332.55,1352.94,338.66,1349.07Z"/><path class="cls-9" d="M259.3,1021.51l-49.77,144.22-57.1,133.51-47.82-12s17.26-92.55,33.47-121.62c12.27-22,20.84-148.24,20.84-148.24Z"/><path class="cls-1" d="M235.4,1045.78l17.24,253.46H293.4s17.8-265.55,11.28-290.82-74.42-19.56-74.42-19.56Z"/><path class="cls-12" d="M274.52,796.93S222,781.19,213.91,782.21c-8.86,1.11-30.38,12.51-30.38,12.51s1.33,91.18-2.48,117-30.43,108.38-30.43,108.38,37.5,21.73,100.53,14.67,58.69-22.28,58.69-22.28-6-91.29-12-131.5S274.52,796.93,274.52,796.93Z"/><path class="cls-4" d="M631,810.85a340.17,340.17,0,0,0-59.77-9.1c-16.46-.91-38.58,2.58-38.58,2.58s-20.11,45.1-26.08,82S468,1041.79,468,1041.79s66.3,51.09,163,17.39Z"/><path class="cls-9" d="M555.63,770.46s.87,28.85-1.84,31.56-6.49,7.2-2.5,14.09,21.28,2.49,29.34-1.45a38,38,0,0,0,12.73-10.82l-4-45.7Z"/><path class="cls-1" d="M567.13,782.41c5.56-1.94,15.27-5.69,22.76-17.87l-.57-6.4-33.69,12.32s.21,7,.1,14.49A38.77,38.77,0,0,0,567.13,782.41Z"/><path class="cls-13" d="M100.57,669s-2.77,12.82,10.62,17.34,21.69-42.58,29.3-51.88,30.69-11.84,42.68,6.73c6.6,10.22,8.66,14.67,9.18,16.6.43,1.58-.18,1.48-.18,1.48l-3.62,6.77s-11.61-7-16,5.82,8.54,33.93-2.54,51.41-31.38,5.12-31.38,5.12c-16.84,11.32-36.22-6-42.45-22.32S100.57,669,100.57,669Z"/><path class="cls-4" d="M232.66,734.18l-1.83,18.92-16.92,29.11S247.28,822.6,257.58,813c2.3-2.15,8.11-44.91,8.11-44.91Z"/><path class="cls-5" d="M230.83,753.1l-3.54,6.46a123.5,123.5,0,0,0,36.37,22.58c1.18-7.85,2-14.1,2-14.1l-33-33.86Z"/><path class="cls-4" d="M267,672s8.82,8,12.06,12.52c19.3,26.88,3.67,79.9-6.41,84.31-15.25,6.67-35.1-2.3-57.47-17.47s-29.44-39.75-9-61.11S267,672,267,672Z"/><path class="cls-13" d="M192.8,667.29l6.09-5.84c23.9,0,43-14.4,69.77.08,17.71,9.57,10.43,23,10.43,23-65.55,0-41.9,51.66-49.94,72.22S171,732.87,192.8,667.29Z"/><path class="cls-4" d="M238.65,725.47s-.92-17-11.32-13.6-2.3,28.91,6.33,28S238.65,725.47,238.65,725.47Z"/><path class="cls-9" d="M595.26,725.52s.82-17,11.23-13.67,2.48,28.89-6.15,28S595.26,725.52,595.26,725.52Z"/><path class="cls-8" d="M191.08,654.51s9.88,6.13,13.86,5.61-6.1,12.41-11.44,13.75-3.46-3.81-4.59-5.57-5.29-.39-6.25-1.69C180.48,663.64,186.42,655.08,191.08,654.51Z"/><path class="cls-4" d="M375.28,1027.67s9.14-14.13,12.13-14.81-.68,9.64-.68,11.55,5.43-14.54,8.42-14.54,3.4,2.18,2.17,6.39-4.07,9.64-2.71,9.64,5.23-18.27,7.47-16,1.38,17.19-2.85,21.42S382.54,1032.88,375.28,1027.67Z"/><path class="cls-13" d="M537.73,918.21c3.7,1.94,8.38-.55,10.27-4.12,2.62-5,1-10-2.74-11.77-3.87-1.82-8.32-.07-10.69,4.63C532.38,911.31,533.87,916.59,537.73,918.21Zm-25.45-31.15c1.53-1.61,6-8,13.55-5.44,6.55,2.17,9.14,8.93,11,12-.54-3.07-1.78-8.37-.33-14.38,3.87-16,23.44-14.55,23.09.28-.14,5.82-2.24,9.37-5.18,15.62,1.2-1.32,4.8-5.68,9.75-8.23,14.45-7.44,22.21,10.69,12,20.32-5.29,5-12,5.11-16.11,5.59,3.56,1,5.69,1.3,9.18,3.51,18,11.44-7.07,42.33-20.64,12.59,0,0-.09,0-.13-.06.62,4.21,1.82,9.37.08,15.33-4.7,16.13-26.16,13.3-22.44-5,1.16-5.71,5-11.77,5.19-12.23-2.59,2.76-6.4,7.34-11.92,9.5-14.22,5.56-21-14.51-7.9-23,5.86-3.79,11.68-3.24,13.74-3.79-4.86-1.17-9.44-2.54-12.75-6.61-4.49-5.51-2.08-10.94-2.23-11.69Z"/><path class="cls-9" d="M562.52,670.11s-16.31-.36-24.64,12.32-17.39,48.9-3.62,73.9,31.33,18.84,38.58,16.3,21.56-8.15,28.8-31.51S603.63,665.22,562.52,670.11Z"/><path class="cls-3" d="M192,790.5s11.81-1.79,21.95,36.56c11.48,43.46-.89,88.47-19.89,99.88s-26.83,9.2-26.83,9.2l3,26.8s56.15-12.57,63.79-60.55c12.53-78.66-24.43-119.16-24.43-119.16s-7,1.11-9.11,2C198.11,786.16,192,790.5,192,790.5Z"/><path class="cls-4" d="M162.94,881.31v56.15c0,9.78,11.23,76,25,98.68s32.43,48,36.29,49.43,12.26,6.76,16.61,2.41,7.78-2.35,13.22-4.71-.73-10.14-8.33-17.75-9.24-9.41-8-10.68,7.42,5.79,10.68,4.71-2-12.5-10.5-16.49-22.1-11.77-23.37-15.94-1.27-3.08-1.27-4.16-9.6-66.84-9.6-79.7-3.8-54.7-3.8-54.7Z"/><path class="cls-8" d="M188.62,792.49c-4.94.61-18.35,5.5-23.06,21.44s-17.11,61.23-14.94,83.32c0,0,52.89,6.89,52.89,4.71s11.57-58.87,5.8-83.68C204.27,796.63,197.21,791.41,188.62,792.49Z"/><path class="cls-3" d="M266.29,794.52l36.77,132.14h0c-1.62-17.26-3.4-33.75-5.18-45.71-6-40.21-23.36-84-23.36-84S271.28,796,266.29,794.52Z"/><polygon class="cls-6" points="480.63 1060.88 582.37 1060.88 582.37 921.19 480.63 926.64 480.63 1060.88"/><path class="cls-6" d="M480.63,915.75h97.22c2.5,0,4.52,2.43,4.52,5.44h0c0,3-2,5.45-4.52,5.45H480.63l.08,0C487.43,923.56,487.39,918.76,480.63,915.75Z"/><path class="cls-14" d="M483.41,917.36H574.5c1.76,0,3.19,1.71,3.19,3.83h0c0,2.12-1.43,3.84-3.19,3.84H483.41C486.5,922.65,486.49,919.73,483.41,917.36Z"/><path class="cls-9" d="M631,810.85s-7.62,7.64-15.77,36.59-12.3,96.72-19.37,103.79-53.25,43.83-61.58,42.57-27-23-32.79-23-5.07,5.26-2.17,8.15,6.43,6.25,4.71,8l-1.72,1.72s-25.81-6.79-30.16-4.25,4.17,8.51,4.17,12.86-1.07,4.27-.55,9,1.72,8.61,4,10.87,30.79,10.51,58.68,6.7,62-17.2,87.13-48.36,20.13-129.07,19.56-138.84C643.66,811.94,631,810.85,631,810.85Z"/><polygon class="cls-8" points="2023.61 279.86 2044.79 275.64 2049.94 254.26 2074.02 251.22 2072.47 226.74 2099.54 222.1 2100.9 199.38 2126.2 190.66 2129.54 200.24 2110.62 206.76 2109.19 230.72 2083.16 235.19 2084.73 260.08 2058.17 263.44 2053.13 284.32 2033.51 288.22 2033.07 302.63 2022.94 302.3 2023.61 279.86"/><path class="cls-9" d="M1903,455.87l12.62-23.1-11.87-23.48a3.62,3.62,0,0,1,3.9-5.19l25.86,4.86,18.67-18.55a3.62,3.62,0,0,1,6.14,2.1l3.37,26.11,23.41,12a3.62,3.62,0,0,1-.1,6.49l-23.79,11.27-4.2,26a3.62,3.62,0,0,1-6.2,1.91l-18.07-19.14-26,4A3.62,3.62,0,0,1,1903,455.87Z"/><path class="cls-13" d="M203.72,382.17l15.51-21.27-8.72-24.83a3.61,3.61,0,0,1,4.53-4.64l25,8.18,20.92-16a3.61,3.61,0,0,1,5.81,2.88l0,26.32,21.65,15a3.62,3.62,0,0,1-.95,6.42l-25,8.09-7.54,25.22a3.61,3.61,0,0,1-6.39,1.08L233,387.29l-26.31.62A3.61,3.61,0,0,1,203.72,382.17Z"/><path class="cls-13" d="M696.57,216.38A26.5,26.5,0,1,1,724.84,241,26.49,26.49,0,0,1,696.57,216.38Z"/><path class="cls-13" d="M741.5,291.2c-1.58-7.69-2.54-15.91-5.16-23.32-2.25-6.37-12.2-4.43-11.69,2.41.61,8.38,3.23,16.88,5,25.09.71,3.32,5.11,4.86,8,3.84,3.56-1.25,4.53-4.68,3.84-8Z"/><path class="cls-13" d="M786.91,258.37c-8.78-5.17-16.43-11.59-24.54-17.71-6.33-4.79-13.15,3.45-8,9.13,7.48,8.17,17.3,14.55,26.78,20.13,3,1.77,7.16,0,8.63-2.91,1.64-3.32.09-6.86-2.92-8.64Z"/><path class="cls-13" d="M770.28,210.94a4.56,4.56,0,0,0-1.16,6.11c3,5.39,10.51,5.12,15.87,4.94a57,57,0,0,0,16.45-3.13c7.81-2.66,3.58-14.78-4.26-12.11C781.86,212,776.05,206.31,770.28,210.94Z"/><path class="cls-13" d="M761.84,159.42c-7.71,11.28-14,15.09-13,21.3.57,3.63,3.44,5.36,7,4.57,4.14-.94,6.4-5.33,8.88-8.42s4.72-5.92,6.85-9.06c1.92-2.86,2.2-6.56-.63-9-2.37-2.06-7.06-2.24-9,.63Z"/><path class="cls-13" d="M731.8,157.46c-2.47-6.84-3-9.33-6.21-12.5-2.78-2.77-8.65-1-9,3.07-.45,4.74.55,6.51,3.14,13.69a6.42,6.42,0,1,0,12.11-4.26Z"/><path class="cls-13" d="M699.34,174c-11.11-8.45-13.38-10.83-17.74-10.37-2.56.27-5.44,2.73-4.88,5.61,1,5.34,4.15,6.79,14.37,14.25,2.74,2,6.51,2.1,8.87-.62,2.12-2.43,2.1-6.81-.62-8.87Z"/><path class="cls-13" d="M654.69,212.73c-4.39,2.32-2.63,9.89,2.12,10.51,4.55.6,6.3-.13,28.38-4.16,3.4-.62,6.21-3.11,5.95-6.85-.22-3.17-3.41-6.57-6.84-5.95C661.37,210.41,659.08,210.39,654.69,212.73Z"/><path class="cls-13" d="M689.26,248.83c-12.09,11.71-13.86,9.64-18.64,16.8-2.19,3.27,1.42,8.49,5.22,7.79,4.88-.89,6.19-1.71,12.56-6.76,3.69-2.93,7.23-6.07,10.62-9.34,2.52-2.42,1.84-7-.63-9.12-2.83-2.46-6.61-1.81-9.13.63Z"/><polygon class="cls-11" points="489.64 222.26 510.68 208.32 502.44 191.55 522.72 177.07 517.23 159.64 531.05 146.82 525.63 141.56 507.13 158.71 512.34 175.23 491.24 190.29 499.34 206.78 480.28 219.42 489.64 222.26"/><polygon class="cls-13" points="2169.02 353.83 2144.43 348.15 2137.92 365.67 2113.46 360.9 2104.59 376.88 2085.77 375.66 2085.68 383.22 2110.86 384.85 2119.26 369.71 2144.71 374.66 2151.11 357.43 2173.39 362.58 2169.02 353.83"/><path class="cls-5" d="M459.3,361.08a26.13,26.13,0,0,1,21.19-7.34c12,1.16,19.38,11.51,18.3,22.63-1.24,12.87-14,27-44.58,37.42-28-16.07-37.84-32.39-36.6-45.26,1.08-11.12,10.28-19.87,22.29-18.71A26.16,26.16,0,0,1,459.3,361.08Z"/><path class="cls-5" d="M359.48,356.57a269,269,0,0,0,30.19,6.24c3.07.46,8.26,2.15,10.78-.17a3.26,3.26,0,0,0,.7-4.42c-1.89-2.88-6.66-2.56-9.75-3-9.44-1.4-20-3.44-30.64-6.11a3.83,3.83,0,0,0-4.38,3.1,3.88,3.88,0,0,0,3.1,4.38Z"/><path class="cls-5" d="M513.31,404.21c4.5.75,9,1.41,13.52,2.08,4.32.65,9.31,2.17,13.62,1.31,3.18-.64,4-4.6,1-6.21-3.89-2.09-9-2.1-13.36-2.73-4.51-.66-9-1.34-13.55-1.93-4.83-.63-6.12,6.68-1.28,7.48Z"/><path class="cls-5" d="M392.2,421.89c7.1-8.65,14.43-10.53,20.25-13.38a3.07,3.07,0,0,0-1.35-5.9c-9.68.06-19,7.31-24.76,14.51-3,3.79,2.77,8.54,5.86,4.77Z"/><path class="cls-5" d="M440.59,453.57a33.7,33.7,0,0,1,4.3-13.22c1.45-2.5,7.95-9.1,2.87-11.29-4.79-2.07-8.72,5.72-10.44,9a39.55,39.55,0,0,0-4.24,14.22c-.5,4.85,7,6.17,7.51,1.28Z"/><path class="cls-5" d="M483.14,431l6.69,6.61c2.23,2.19,4.22,5.2,7.63,5,1.91-.1,2.92-1.85,3-3.56.08-3.1-3.64-5.51-5.69-7.5L488,425c-1.49-1.46-4.2-.95-5.43.56a3.93,3.93,0,0,0,.56,5.42Z"/><path class="cls-5" d="M432.49,328.72c-6.06-24.5-5.86-24.59-7.5-26.78a3.37,3.37,0,0,0-6,1.39c-.44,2.84-.32,2.38,6.17,28.13.51,2.05,3.21,3,5,2.28,2.17-.81,2.79-3,2.28-5Z"/><path class="cls-5" d="M473.67,334.73a58,58,0,0,0,5-11.34c1.18-3.68,3.49-9.16.38-12.32a2.87,2.87,0,0,0-2.92-.48c-3.53,1.69-3.65,6.92-4.75,10.31a69.47,69.47,0,0,1-4.62,10.71,3.81,3.81,0,0,0,1.88,5,3.87,3.87,0,0,0,5-1.88Z"/><path class="cls-5" d="M531.16,347.35c.94-1.65-.22-3.53-1.64-4.36-2.92-1.7-7.46.69-10.3,1.84a65.89,65.89,0,0,0-9.52,4.82c-1.77,1.06-2,3.76-.85,5.32,1.33,1.83,3.52,1.85,5.33.84C526,349.26,528.84,351.43,531.16,347.35Z"/><polygon class="cls-13" points="844.85 363.38 829.18 399.13 789.43 398.41 789.62 388 822.43 388.6 838.62 351.66 883.02 359.75 890.76 333.87 900.48 337.68 890.33 371.66 844.85 363.38"/><path class="cls-11" d="M1062,103.1c-2.73,21.58,19.73,38.7,39.71,37.35,22.09-1.5,40.83-19.61,44.06-41.31,3.49-23.5-10.62-42.29-32.46-44-21.26-1.68-34.86,17.25-28.72,36.34,4.4,13.69,16.9,18.8,23.19,15,4.91-2.95,4.61-10.37-1.33-11.68a6.13,6.13,0,0,0-6.1,2.63c-5.2-2.07-10.14-11.53-6.79-21.75,4.29-13.06,20.8-13.81,31.05-7.72,13,7.75,15.1,24.44,10.32,37.74-5,14-18.74,25-33.67,26a31.29,31.29,0,0,1-33.15-28.62A3.06,3.06,0,0,0,1062,103.1Z"/><path class="cls-11" d="M1805.51,322.66c-2.11-21.64-27.81-33.36-47-27.62-21.21,6.35-35.47,28.16-33.81,50,1.79,23.68,19.72,38.88,41.4,35.72,21.1-3.07,30.17-24.54,20-41.8-7.33-12.37-20.65-14.58-26-9.51-4.13,4-2.2,11.14,3.89,11.1a6.14,6.14,0,0,0,5.36-3.92c5.53.86,12.45,9,11.44,19.71-1.29,13.68-17.22,18.07-28.57,14.4-14.44-4.67-20.14-20.49-18.42-34.52,1.81-14.73,12.75-28.49,27.08-32.83A31.28,31.28,0,0,1,1799.55,324C1800.74,327.81,1805.88,326.54,1805.51,322.66Z"/><path class="cls-4" d="M1936.67,1288.7s2.36,20.29,2.36,23.73v3.44l-1.69,3.5-.67,1.39,12.14,17s48.72.73,49.81.73-6.52-11.78-6.52-11.78-16.12-12.14-19-20.65,2.46-26.26,2.46-26.26Z"/><path class="cls-4" d="M1701.81,1167.31s-17.35,10.77-20,12.91l-2.7,2.14-1.69,3.5-.67,1.39-20.88,1.08s-30.86-37.71-31.54-38.57,8.88,1.28,8.88,1.28,19.48,2.64,27.95-.39,25.6-19.89,25.6-19.89Z"/><path class="cls-8" d="M1859.51,977l-186.93,159.21,28.8,40.75s192.09-119.27,202.15-120.63,18.2,3.26,20.1,10.6,6.74,227.44,6.74,227.44h49.91l26-277.12Z"/><path class="cls-4" d="M2128.82,749.9c13.83-9.07,46.32-43.93,57.32-55.8.12-1.4,1.17-9.46,10-19.71,6.25-7.24,11-23.75,15.08-19.07s-6.07,17.8-1.41,17.89,27.77-25.9,31.48-21.66-19.75,27.34-15.59,27.42,23.22-23.32,28.47-17.32-25,25.44-22.15,28.66,21.55-9.53,25.78-4.7-26.42,16.2-24,16.24,20.13-.43,20.26,3c.15,3.85-44.73,9.84-50.23,16.51h0c-11.73,18.67-32.6,52.78-53.74,67.74-25.87,18.31-85.65,57.15-85.65,57.15l-29.69-38.36S2112.42,760.65,2128.82,749.9Z"/><path class="cls-5" d="M2209.83,681.46a18.39,18.39,0,0,1,1.8,7.21,17.91,17.91,0,0,1-5.83,14.52C2208.46,698.23,2211.4,692.72,2209.83,681.46Z"/><path class="cls-4" d="M1854.78,707.93c-11-12.37-33.22-54.52-40.74-68.85.26-1.38,1.35-9.44-4.51-21.64-4.14-8.62-4.39-25.8-9.57-22.35s1.2,18.77-3.31,17.63-20-32.26-24.73-29.13,11.92,31.55,7.88,30.54-16.32-28.58-23-24.16,17.45,31.08,13.88,33.45-18.3-14.83-23.64-11.28,21.26,22.55,18.88,22-19.32-5.68-20.33-2.43c-1.16,3.67,40.6,21.19,44.16,29.06h0c6.44,21.09,17.67,59.47,34.16,79.44,20.18,24.44,67.72,77.56,67.72,77.56l38.69-29.26S1867.8,722.59,1854.78,707.93Z"/><path class="cls-5" d="M1794.49,620.69a18.28,18.28,0,0,0-3.63,6.49,18,18,0,0,0,1.84,15.54C1791.42,637.23,1790,631.15,1794.49,620.69Z"/><path class="cls-2" d="M1937.4,795.3h0a28.27,28.27,0,0,1,25.42-12.48c29.68,2,89.87,6.77,95.57,12.48,7.61,7.61,30.43,57.24,8.7,126.79s-33.69,62.31-51.44,62.31-101.44-39.49-101.44-39.49Z"/><path class="cls-13" d="M1886.14,736.25l-34.9,45.53,43.32,64.44s-4.07,47.89-10.33,62.83-42.38,76.35-42.38,76.35,87.76,53.79,173.62,45.92c0,0,24.18-124.44,31-136.4s72.27-71.18,72.27-71.18l-31.79-51.36L2032,802.82s-100.32-16.21-105.15-21S1886.14,736.25,1886.14,736.25Z"/><path class="cls-9" d="M1999.34,643.15s-33.87-17.93-45.46,11.77c0,0-30.43-3.08-25.18,28.44,0,0-30.61,15.4-11.23,55.06,0,0-8.51,37.32,35.14,39.67,0,0,6.52,13.23,26.45,10.15s25-8.34,25-8.34,35.32,10.33,46-21.55c0,0,24.27-5.8,8-37,0,0,21.19-40.39-16.12-52.53C2041.91,668.87,2037.56,627.57,1999.34,643.15Z"/><path class="cls-4" d="M2013,730.65c-2.76,7.68-.78,15.42,4.41,17.28s11.63-2.86,14.39-10.54.77-15.41-4.42-17.28S2015.78,723,2013,730.65Z"/><path class="cls-4" d="M1921.67,711.8c-.39,8.15,3.76,15,9.27,15.23s10.29-6.14,10.67-14.29-3.76-15-9.27-15.23S1922.05,703.65,1921.67,711.8Z"/><path class="cls-4" d="M1960.4,765.78c0,.53-4.4,19.44-6.73,29.44a8,8,0,0,0,4.5,9.13c9.31,4.26,27.63,10.19,40.28-1.28a5.32,5.32,0,0,0,1.72-4.11l-1.55-45.14Z"/><path class="cls-5" d="M1958,776.37c9.86,5,22.26,5.06,36.16-3.09a56.41,56.41,0,0,0,5-3.28l-.56-16.18-38.22,12C1960.4,766,1959.37,770.59,1958,776.37Z"/><path class="cls-4" d="M1987.51,661.56A48.54,48.54,0,0,1,2014,682.2c9.8,16.22,15.21,63.14-19.79,83.66s-60.47-11.26-59.81-41.32S1948.42,656.05,1987.51,661.56Z"/><path class="cls-3" d="M1930.4,783.34c-16.12,12.19-33,74.63-39.37,90.93l-5.14,29.94,65.57-115.82S1933.87,780.72,1930.4,783.34Z"/><path class="cls-3" d="M2010,799.15s-2,76.93,3.83,103.38,21,35.69,21,35.69l7.45-30.77s-7.45-68-10.21-104.63C2031.62,797.25,2010,799.15,2010,799.15Z"/><path class="cls-7" d="M1927.8,1350.25c-7.44-.94,5.41-26.74,9.54-30.88l54.76,7.37s26.35,12.23,32.6,18.48c1.49,1.48,1.68,4.07-4.75,5C1999.28,1353.33,1944.3,1352.34,1927.8,1350.25Z"/><path class="cls-7" d="M1658.58,1212.94c6.43,3.86,18.12-21.27,18.79-27.08L1633.16,1151s-34.12-9.78-41-2.89C1585.91,1154.39,1644,1204.17,1658.58,1212.94Z"/><polygon class="cls-12" points="999.87 195.09 968.08 236.03 1036.55 248.07 999.87 195.09"/><polygon class="cls-3" points="1418.64 0 1497.44 108.14 1549.6 51.08 1418.64 0"/><polygon class="cls-15" points="1556.67 21.19 1549.6 51.08 1418.64 0 1556.67 21.19"/><polygon class="cls-15" points="1549.6 62.49 1418.64 0 1540.37 108.14 1549.6 62.49"/><path class="cls-13" d="M1629.15,192.08c-1-.1-24-2.47-53.16-20.63s-40.24-50.06-40.24-55.16a3.53,3.53,0,0,1,7.06-.07c.31,3.4,9.67,32.27,36.92,49.23,27.65,17.22,49.87,19.57,50.09,19.59a3.54,3.54,0,0,1-.67,7Zm-86.34-75.83v0Z"/><path class="cls-13" d="M1772.28,224.06a367.88,367.88,0,0,1-116.07-44.8c-29.81-17.74-53.85-44.79-84.26-59.81a3.53,3.53,0,1,1,3.13-6.33c31.47,15.54,55.32,42.57,84.74,60.07a361,361,0,0,0,113.85,43.95c14.71,3,32.15,4,51.83,3.21a3.53,3.53,0,1,1,.29,7.06C1808.32,228.14,1789.51,227.52,1772.28,224.06Z"/><path class="cls-5" d="M817.79,796.09c1.76-.12,15.07,21.37,23.4,54.33s26.08,93.83,26.08,93.83,28.8,58.14,36.59,65.93,15.34-.26,23.19,2.18c2.42.75,9.89,7.24,9.89,7.24s13.47,29.16,11.48,31.16-22.82,7.6-37.31,2.9S829.24,970,829.24,970,774.31,799,817.79,796.09Z"/><path class="cls-16" d="M1081,822.32l-6.52-6.76s-12,21.46-25.72,51.89-30.25,67.93-35.87,73.54-52.89,70.63-67.2,77-9.88,3.56-21.37,2.19c-8.63-1-7.68,5.21-2.07,8.1a36.69,36.69,0,0,1,6.68,3.75c6.83,4.85,12.69,11.74,17,15.75,1.66,1.56-1.8,4.4-3.75,2.45s-8.82-12.53-11.67-12.53-1,7.2.27,9.51-1.49,1.63-3.94-4.08-4.21-11.41-7.74-10.59c-2.85.65-1.11,8.54-.32,11.58-.82-2.89-3.08-10.09-5.25-10.09-2.72,0-3.94.27-3.94,5.64s1.9,11.12,8.15,15.85,23.74,1.57,30.93-1.29c4.92-2,9.81-9.94,14.73-12.59,22-11.86,44.56-26,72.53-63.31,34.23-45.64,47.58-86.4,47.58-86.4Z"/><path class="cls-16" d="M1068.33,1340.21a87.8,87.8,0,0,1,0-33.69c3.62-18.48,23.19-112.67,23.19-132.23s9.41-48.18,9.41-48.18l-57.6-14.49-5.79,56.15s-3.08,131-8.33,136.21-27.47,13-34.42,13c-7.78,0-20.11.52-20.11,4.44a17.82,17.82,0,0,0,1.09,6.46Z"/><path class="cls-16" d="M1136.91,1117.85l7.13,48.47s17,142,13,146-21.67,15.36-29.82,16.26-19.62,6.41-19.62,10.76c0,8.78,91.65,1.65,91.65,1.65s2.9-6.54,0-16.14-2.9-23.19-2.9-25.36.18-.36.18-3.8v-4.53s11-67.74-.72-110.49l-4.17-83Z"/><path class="cls-10" d="M755.79,643.84s-21.2-.25-35.87,8-18.54,27.92-18.82,43.31a87.34,87.34,0,0,0,18.55,55.44c12.41,15.61,34.24,22.63,34.24,22.63l61.43-39.17s7.3-18.24,2.14-42.69S813.66,640,755.79,643.84Z"/><path class="cls-5" d="M859.3,1277.12s20.29,29.17,21.74,33.15,11.41,30.43,11.41,30.43l77.89-37.85-59.59-18.12-12-26.08Z"/><path class="cls-2" d="M757.15,1070.68l63.57,132.59L862.56,1287s37.14-14.31,46.37-23.54L878.87,1158,844.63,1035.9l-72-6.54Z"/><path class="cls-5" d="M697.19,1290.58s2.9,19.56,2.9,20.83-4.35,20.1-5.07,25.17a31.07,31.07,0,0,0,0,9.06L768.83,1328s-11-7.16-20.74-12.59-11.23-31.34-11.23-31.34Z"/><path class="cls-11" d="M686.87,1035.9s12.64,79.53,10.86,106.15c-2.54,38.21-12.67,52.89-5.43,153.09h51.44s3.63-53.83,11.59-95.49,25.36-111.58,25.36-111.58l28.62-64.5Z"/><path class="cls-5" d="M716.63,736.91c2.48,7.77,8.75,12.71,14,11s7.5-9.34,5-17.11-8.75-12.71-14-11S714.15,729.13,716.63,736.91Z"/><path class="cls-5" d="M804,720.31c.69,8.14,5.71,14.35,11.2,13.88s9.39-7.44,8.7-15.57-5.7-14.34-11.2-13.87S803.29,712.19,804,720.31Z"/><path class="cls-17" d="M1559,745.19c11.62-12.58,36.1-65,44.37-79.84-.17-1.49-.83-10.16,5.67-22.86,4.6-9,5.77-27.31,10.76-23.33s-2.21,20,2.36,19,21.74-33.31,26.26-29.71-13.6,33-9.51,32.18,17.83-29.59,24.22-24.49-19.1,32.21-15.67,34.94,19.08-14.8,24.22-10.69-22.44,22.86-20,22.36,19.59-5,20.43-1.43c1,4-41.68,20.31-45.66,28.51h0c-7.56,22.17-20.84,62.53-38.38,82.92-21.46,25-83.2,94.13-83.2,94.13l-25.65-48.65S1545.23,760.11,1559,745.19Z"/><path class="cls-18" d="M1623.91,646.83a20.29,20.29,0,0,1,3.28,7.14c0,.44,2.74,8.59-2.68,16.49C1626.08,664.68,1627.8,658.25,1623.91,646.83Z"/><path class="cls-14" d="M691.72,810.52s6,154.2,0,183S683,1041,683,1041s82.62,16.1,162-5.1c0,0-12-53.79-17.38-109.76s-9.78-130-9.78-130-30.09-2.25-53.26-.12C711.86,800.79,691.72,810.52,691.72,810.52Z"/><path class="cls-5" d="M740.84,756.87l-2.32,42.19s4,23.29,27.05,24.65,16.3-48.36,16.3-48.36l-1.36-18.48Z"/><path class="cls-19" d="M781.13,788.66c.55,0,1.11,0,1.65,0a122.42,122.42,0,0,0-.91-13.27l-1.36-18.48H740.84l-.34,6.33C745.47,771.67,760.12,788.66,781.13,788.66Z"/><path class="cls-6" d="M696.42,1321.05s2.72-2.72,12.23-1.9,57.19,6.11,59.23,6.11,29.32,20.72,30.54,24.48-58.93,1.3-58.93,1.3H693.68S689.36,1337.35,696.42,1321.05Z"/><path class="cls-6" d="M885.39,1320.05s-2.79,1.88-2.79,4.41c0,1.69,2.84,13.13,6.12,21.28a8.53,8.53,0,0,0,12,4.28l82.62-45.54s6-5.22-32.94-7.69Z"/><path class="cls-5" d="M691.72,810.52S680,815.65,673.1,831.59s-29,88-14.13,131.14c0,0,6.69,32.77,41.11,55.23s94.42,27.86,97.82,24.46,3.53-9.28,3.53-13.06,7.88-5.68,7.88-10.85-13.31-6.06-28.62-6.06c0,0-2.71-.27.64-2.81s7.6-5.71,6.88-10.51-3.85-4.57-6.79-1.63-12.68,10.87-20.47,8.61-53.8-40-61.4-52C699.55,954.12,702.58,813.08,691.72,810.52Z"/><path class="cls-8" d="M1074.49,815.56s24.79-13.76,51.11-16.85,64.09,6.79,64.09,6.79l21.77,314.4s-97.8,46.46-171.16,0c0,0,19.7-132,19.7-150.57V950.77Z"/><path class="cls-7" d="M974.73,1324.17a5.66,5.66,0,0,0-6,3.72,6.69,6.69,0,0,0,1.57,7.52c3.89,3.9,71.86,15,95.59,14.51,2.52-.06,6.11-7.54,2.4-9.71C1062.53,1336.81,992.65,1326.2,974.73,1324.17Z"/><path class="cls-7" d="M994.79,1317l5.62,11.44,12.49,3.44s-5.79-20.46-10.86-19.56A10.86,10.86,0,0,0,994.79,1317Z"/><path class="cls-7" d="M1107.63,1340a5.53,5.53,0,0,0-5.27,3.77c-.6,1.83-.8,3.92.57,5.28,2.89,2.9,100.23.91,100.23.91s2.35-7.24-1.89-8.7C1198.47,1340.33,1124.56,1340.08,1107.63,1340Z"/><path class="cls-7" d="M1137,1324.44c-.88-1.59-7.59.1-9.7,4.1l8.63,12.4,10.15,0Z"/><path class="cls-17" d="M1353.63,1261.59s-3.93,34.06-10.3,48.91-27.38,24.23-45.85,27.87-12.33,6.55-9.62,9.26,82.79,4.54,96.92,2c0,0-5.43-27.88-5.43-32.23s22.1-72.81,22.1-72.81Z"/><path class="cls-9" d="M1384.78,1349.61s-1.11-5.68-2.32-12.31c-15.45,2.08-50.8-1.54-68.5-3.61-5.43,2-12,2.67-17.43,3.74-18.48,3.64-17.09,8.48-12.46,11.85C1287.17,1351.53,1370.65,1352.17,1384.78,1349.61Z"/><path class="cls-17" d="M1511.19,1253.62s-2.17,41.84,2.32,56.88c4.62,15.49,11.23,18.15,29.38,23.19,17.81,5,11,12.89,8.34,15.59s-65,2.89-79.17.33c0,0,5.43-27.88,5.43-32.23s-6.6-74.71-6.6-74.71Z"/><path class="cls-9" d="M1472.06,1349.61s1.11-5.68,2.32-12.31c15.45,2.08,50.8-1.54,68.51-3.61a148.62,148.62,0,0,1,16.48,4.68c17.68,6.46,16.11,8.21,13.4,10.91S1486.19,1352.17,1472.06,1349.61Z"/><path class="cls-16" d="M1189.69,805.5s-21.19,25-10.33,66.84,37.14,108.5,69.56,145.6c5.25,6,17.39,18.69,22.82,22.31s28.44,6.16,28.44,6.16,10.14-31.16,7.24-34.05-27.26-3.17-33.87-9.78S1202.73,805.5,1189.69,805.5Z"/><path class="cls-17" d="M1394.67,805s-6.1,3.8-10.44,15-26.9,103.6-30.16,117c-2.52,10.35-25.39,40.74-36.74,55.38-3.35,4.31-5.93,7.92-7.55,7.92-10,0-26.5,5.53-26.5,9.65s3.91,4.57,10.43,3.12,1.58,5.62-.78,8-12.38,15.78-8.83,19.34,12.09,6,16.08,6c2.16,0,6.56-.24,14.58-6.79,6.76-5.51,16.69-16.78,24-23.28,26.2-23.36,47.76-72.45,51.74-83.68S1394.67,805,1394.67,805Z"/><path class="cls-16" d="M1310.73,1023.68s2.72.27,2.72,5.57-4.62,13.45-7.75,16.57-31.73-4.48-31.73-4.48,10.41.27,14-4.14c1.59-2,4.6-11.21,7.59-11.21s-.28,12.5-.28,12.5,5.71-16.44,8.7-16.44,3.26,3,1.9,8S1308.89,1022.23,1310.73,1023.68Z"/><path class="cls-3" d="M1333.72,1265s42.38,11.41,90.47,11.41,142.63-24.45,142.63-24.45-26.08-63-35-111.39-15.49-131.5-15.49-131.5H1372.81l-9,57.56Z"/><path class="cls-14" d="M1394.67,805s-9.36,10.87-9.36,44.56-1.63,84.23-4.34,101.61-10.87,60.59-10.87,60.59,23.9,19.84,85.85,14.4,65.21-13.76,65.21-13.76-8.69-140-8.69-154.69-13.3-57.12-13.3-57.12-35.79-3.69-52.09-2.43S1394.67,805,1394.67,805Z"/><path class="cls-7" d="M1366.52,672.72s-26.07,7.4-23.91,34.15c2,24.68,14.13,23.43,14.13,23.43s-8.88,35,17.93,45.12c25.28,9.57,34.78,0,34.78,0s11,29.05,48.46,17.84,34.13-34,34.13-34,16,6.28,34.45-23.06,7.94-50.48-16.51-63.52c0,0,8.14-37.36-29.25-43.33s-46.55,14.53-46.55,14.53-6.66-22.9-46.47-7.14C1361.63,647.1,1366.52,672.72,1366.52,672.72Z"/><path class="cls-17" d="M1469.81,728.72c-2.75,7.68-.78,15.42,4.42,17.28s11.63-2.86,14.38-10.54.77-15.41-4.42-17.27S1472.56,721,1469.81,728.72Z"/><path class="cls-17" d="M1384.81,736.34c1.25,8.07,6.69,13.91,12.14,13.06s8.85-8.07,7.59-16.13-6.69-13.91-12.14-13.06S1383.55,728.28,1384.81,736.34Z"/><path class="cls-17" d="M1429.51,771.63l1.45,31.7s.72,12.32,13.58,13.95,24.63-8.32,24.63-18.3c0-1.26-6.33-44.74-6.33-44.74Z"/><path class="cls-18" d="M1462.84,754.24l-33.33,17.39.51,11.28c6,0,15-.44,22.13-4.71,6-3.59,9.37-8.15,12.07-14.44C1463.41,758.2,1462.84,754.24,1462.84,754.24Z"/><path class="cls-5" d="M922.26,1019.31s8.12,5.25,12.94,4.1,2.44-3.62.18-5.89-8.33-5.16-8.33-5.16Z"/><path class="cls-5" d="M761.79,666C748.64,667.93,739,677.24,732,688.62c-13.85,22.55-2.59,55.75,1.22,63.36s19,27.17,41.57,27.17S813.12,758.5,815,738.4c2.54-26.92-4.66-60.47-30.28-69.83A48.28,48.28,0,0,0,761.79,666Z"/><path class="cls-7" d="M1124.75,666.67a54.16,54.16,0,0,0-23.63,5.43c-12.5,6-25.54,32.85-25.54,56.76,0,14.55-6.44,20.56-11.49,23a4.56,4.56,0,0,0-1.44,7.11c4.93,5.6,10.06,11.75,16.53,15.52,24.51,14.26,49.2,14.69,76.76,9.64,22.16-4.06,43.08-14,58.81-30.4a6.49,6.49,0,0,0-1.61-10.19c-5.21-2.8-11.34-8.81-13.67-21.75C1195.12,697.64,1186.16,655,1124.75,666.67Z"/><path class="cls-16" d="M1158,732.64c-1.77,8,1.16,15.39,6.54,16.59s11.18-4.29,13-12.26-1.16-15.39-6.54-16.58S1159.74,724.68,1158,732.64Z"/><ellipse class="cls-16" cx="1088.31" cy="722.02" rx="9.98" ry="14.77"/><path class="cls-16" d="M1112.16,774.53l-2.71,37.31s1.27,8.52,11.41,10.33,31.7-13.22,31.7-21.19l-5.07-43.11Z"/><path class="cls-4" d="M1110.84,792.73c16,.8,28.91-6.42,38.44-19.57l-1.79-15.29-35.33,16.66Z"/><path class="cls-16" d="M1087.26,741.11c2.44,13.86,6.52,38.25,28.26,40.76s38-9.24,48.36-30.43,7.88-49.18,2.17-63c-4.53-11-24.1-10.48-33.71-10.32C1100.12,678.62,1081.84,710.43,1087.26,741.11Z"/><path class="cls-7" d="M1119.05,673.64a48.86,48.86,0,0,0,14.49,32.65c14.83,14.83,44.64,22.57,44.64,22.57l3.54,8.37s4.71-26.64-6.52-44.39S1119.05,673.64,1119.05,673.64Z"/><path class="cls-17" d="M1446.64,668.88a47.47,47.47,0,0,1,25.22,20.43c9.44,15.92,15.15,61.66-17.58,81.18s-54.61-11.82-56.9-41C1394.67,695,1409.72,663,1446.64,668.88Z"/><path class="cls-20" d="M2492,1247.73s15.54,63.37,27.12,73.32,49.34,29,39.46,31-83,3.75-81-8.45,4.11-20,4.11-20l-19.35-45.26Z"/><path class="cls-7" d="M2563.48,1354.68c-17.84,1.77-69.92,3.65-85.09,1.71,0,0-2.85-.56-.84-12.76.49-3,1-5.7,1.45-8.11,13.77,3.62,43.74-4.08,55.61-5.65,12.9,6.17,27.43,15.39,32.12,16.16C2573.52,1347.15,2573.52,1353.68,2563.48,1354.68Z"/><path class="cls-20" d="M2321.44,1300.86s-1.63,16-1.63,23.09,6.58,27,3.53,30-90.16,2.67-90.16-.2,15.39-11.56,36.31-17.54,28-29.14,22.6-42.46Z"/><path class="cls-7" d="M2231.78,1354c0-2.67,14.28-10.88,32.78-16.54,19.72,6.67,47.09,1.17,57.36-.79,3.14,8.21,4.14,16,2.53,17.62C2321.4,1357.33,2231.78,1356.86,2231.78,1354Z"/><path class="cls-14" d="M2416,1033l15.62,13.86s17.59,47.62,18.61,50.76c1.43,4.37,58.4,188,58.4,188l-39.69,14.28s-39.36-76.67-45.88-103.29-71.73-138-71.73-138Z"/><path class="cls-14" d="M2347,1061.22l-19,243.32h-44s-15.76-182.1-10.32-246Z"/><path class="cls-8" d="M2269.81,816.15a339.29,339.29,0,0,1,59.78-9.1c16.46-.92,38.58,2.58,38.58,2.58s20.1,45.1,26.08,82,38.58,155.41,38.58,155.41-66.29,51.08-163,17.39Z"/><path class="cls-20" d="M2345.17,775.76s-.87,28.85,1.83,31.56,6.5,7.2,2.51,14.08-21.28,2.49-29.34-1.45a38.07,38.07,0,0,1-12.73-10.81l4-45.7Z"/><path class="cls-1" d="M2333.66,787.71c-5.55-1.94-15.26-5.7-22.75-17.87l.57-6.4,33.69,12.32s-.22,7-.11,14.49A38.77,38.77,0,0,1,2333.66,787.71Z"/><path class="cls-20" d="M2305.54,730.81s-.82-17-11.24-13.66-2.47,28.89,6.16,28.05S2305.54,730.81,2305.54,730.81Z"/><path class="cls-20" d="M2338.28,675.41s16.3-.36,24.64,12.32,17.38,48.9,3.62,73.9-31.34,18.84-38.58,16.3-21.56-8.15-28.8-31.52S2297.16,670.52,2338.28,675.41Z"/><path class="cls-2" d="M2272.93,815.38c7.43,16.78,25.72,52.91,24.88,92.76-.88,41.74-32.28,68.84-32.28,68.84v20.63s34.65-5.46,47.89-59.39S2294.8,811,2294.8,811s-4.55-3.25-13.56-.73C2275.23,812,2272.93,815.38,2272.93,815.38Z"/><path class="cls-2" d="M2349,806.89s26,140.13,59.8,149.21L2403,932.21s-34.79-113.37-34.79-122.58S2349,806.89,2349,806.89Z"/><polygon class="cls-9" points="2419.47 1046.66 2318.46 1046.66 2318.46 931.55 2419.47 936.04 2419.47 1046.66"/><path class="cls-1" d="M2419.48,927.06H2323a4.49,4.49,0,0,0-4.49,4.49h0A4.49,4.49,0,0,0,2323,936h96.53l-.09,0C2412.72,933.51,2412.76,929.55,2419.48,927.06Z"/><path class="cls-14" d="M2416.71,928.39h-90.44a3.15,3.15,0,0,0-3.16,3.16h0a3.15,3.15,0,0,0,3.16,3.16h90.44C2413.65,932.75,2413.65,930.34,2416.71,928.39Z"/><path class="cls-7" d="M2375.2,929h-6.36a2.48,2.48,0,0,0-2.48,2.47v.23h8.84Z"/><path class="cls-2" d="M2369.1,929.05a7.78,7.78,0,0,1,5.07,2.87l15.09,18.71h8.86l-14.35-17.79c-1.69-2.09-4.68-3.79-6.69-3.79Z"/><path class="cls-20" d="M2269.81,816.15s7.62,7.63,15.77,36.58,12.31,96.73,19.37,103.8,53.26,43.83,61.59,42.56,27-23,32.78-23,5.08,5.25,2.18,8.15-6.43,6.25-4.71,8l1.72,1.72s25.81-6.79,30.16-4.26-4.17,8.52-4.17,12.86,1.06,4.27.54,9.06-1.72,8.6-4,10.87-30.79,10.5-58.69,6.7-61.95-17.21-87.12-48.36S2255.11,851.72,2255.69,842C2257.14,817.24,2269.81,816.15,2269.81,816.15Z"/><path class="cls-13" d="M2251.91,498.44a49.09,49.09,0,1,0,28.51-63.3A49.08,49.08,0,0,0,2251.91,498.44Z"/><path class="cls-21" d="M2325.1,479a26.24,26.24,0,0,1-49.08,18.6Z"/></g></g></svg>